%FSLAX45Y45*%
G04 Gerber Fmt 4.5, Leading zero omitted, Abs format (unit mm)*
G04 Created by KiCad (PCBNEW (5.1.10)-1) date 2021-12-14 19:18:38*
%MOMM*%
%LPD*%
G01*
G04 APERTURE LIST*
%TA.AperFunction,Profile*%
%ADD10C,0.050000*%
%TD*%
%ADD11C,0.200000*%
%ADD12C,0.300000*%
G04 APERTURE END LIST*
D10*
X12750000Y-6700000D02*
X17150000Y-6700000D01*
X12450000Y-12150000D02*
X12450000Y-7000000D01*
X17150000Y-12450000D02*
X12750000Y-12450000D01*
X17450000Y-7000000D02*
X17450000Y-12150000D01*
X12750000Y-12450000D02*
G75*
G02*
X12450000Y-12150000I0J300000D01*
G01*
X17450000Y-12150000D02*
G75*
G02*
X17150000Y-12450000I-300000J0D01*
G01*
X17150000Y-6700000D02*
G75*
G02*
X17450000Y-7000000I0J-300000D01*
G01*
X12450000Y-7000000D02*
G75*
G02*
X12750000Y-6700000I300000J0D01*
G01*
D11*
X13015000Y-7725000D02*
X13035000Y-7745000D01*
X13035000Y-7725000D02*
X13015000Y-7745000D01*
X13015000Y-7790000D02*
X13035000Y-7810000D01*
X13035000Y-7790000D02*
X13015000Y-7810000D01*
X13917019Y-7667019D02*
X13937019Y-7687019D01*
X13937019Y-7667019D02*
X13917019Y-7687019D01*
X13962981Y-7712981D02*
X13982981Y-7732981D01*
X13982981Y-7712981D02*
X13962981Y-7732981D01*
X12625000Y-7845000D02*
G75*
G03*
X12625000Y-7845000I-20000J0D01*
G01*
X12695000Y-10000000D02*
G75*
G03*
X12695000Y-10000000I-20000J0D01*
G01*
X12743750Y-7551250D02*
G75*
G03*
X12743750Y-7551250I-20000J0D01*
G01*
X12765000Y-7955000D02*
G75*
G03*
X12765000Y-7955000I-20000J0D01*
G01*
X12782500Y-8137500D02*
G75*
G03*
X12782500Y-8137500I-20000J0D01*
G01*
X12795000Y-9200000D02*
G75*
G03*
X12795000Y-9200000I-20000J0D01*
G01*
X12845000Y-9600000D02*
G75*
G03*
X12845000Y-9600000I-20000J0D01*
G01*
X12845000Y-9750000D02*
G75*
G03*
X12845000Y-9750000I-20000J0D01*
G01*
X12845000Y-10250000D02*
G75*
G03*
X12845000Y-10250000I-20000J0D01*
G01*
X12995000Y-10250000D02*
G75*
G03*
X12995000Y-10250000I-20000J0D01*
G01*
X13020000Y-9000000D02*
G75*
G03*
X13020000Y-9000000I-20000J0D01*
G01*
X13020000Y-9325000D02*
G75*
G03*
X13020000Y-9325000I-20000J0D01*
G01*
X13020000Y-9425000D02*
G75*
G03*
X13020000Y-9425000I-20000J0D01*
G01*
X13070000Y-8375000D02*
G75*
G03*
X13070000Y-8375000I-20000J0D01*
G01*
X13120000Y-9325000D02*
G75*
G03*
X13120000Y-9325000I-20000J0D01*
G01*
X13120000Y-9425000D02*
G75*
G03*
X13120000Y-9425000I-20000J0D01*
G01*
X13145000Y-10250000D02*
G75*
G03*
X13145000Y-10250000I-20000J0D01*
G01*
X13195000Y-7925000D02*
G75*
G03*
X13195000Y-7925000I-20000J0D01*
G01*
X13220000Y-9325000D02*
G75*
G03*
X13220000Y-9325000I-20000J0D01*
G01*
X13220000Y-9425000D02*
G75*
G03*
X13220000Y-9425000I-20000J0D01*
G01*
X13220000Y-11900000D02*
G75*
G03*
X13220000Y-11900000I-20000J0D01*
G01*
X13220000Y-12050000D02*
G75*
G03*
X13220000Y-12050000I-20000J0D01*
G01*
X13220000Y-12200000D02*
G75*
G03*
X13220000Y-12200000I-20000J0D01*
G01*
X13345100Y-9450000D02*
G75*
G03*
X13345100Y-9450000I-20000J0D01*
G01*
X13370000Y-11900000D02*
G75*
G03*
X13370000Y-11900000I-20000J0D01*
G01*
X13370000Y-12050000D02*
G75*
G03*
X13370000Y-12050000I-20000J0D01*
G01*
X13370000Y-12200000D02*
G75*
G03*
X13370000Y-12200000I-20000J0D01*
G01*
X13445000Y-8625000D02*
G75*
G03*
X13445000Y-8625000I-20000J0D01*
G01*
X13445000Y-8850000D02*
G75*
G03*
X13445000Y-8850000I-20000J0D01*
G01*
X13445000Y-9125000D02*
G75*
G03*
X13445000Y-9125000I-20000J0D01*
G01*
X13470000Y-9350000D02*
G75*
G03*
X13470000Y-9350000I-20000J0D01*
G01*
X13495000Y-7250000D02*
G75*
G03*
X13495000Y-7250000I-20000J0D01*
G01*
X13520000Y-11900000D02*
G75*
G03*
X13520000Y-11900000I-20000J0D01*
G01*
X13520000Y-12050000D02*
G75*
G03*
X13520000Y-12050000I-20000J0D01*
G01*
X13520000Y-12200000D02*
G75*
G03*
X13520000Y-12200000I-20000J0D01*
G01*
X13570000Y-7925000D02*
G75*
G03*
X13570000Y-7925000I-20000J0D01*
G01*
X13670000Y-8025000D02*
G75*
G03*
X13670000Y-8025000I-20000J0D01*
G01*
X13770000Y-7925000D02*
G75*
G03*
X13770000Y-7925000I-20000J0D01*
G01*
X13895000Y-8300000D02*
G75*
G03*
X13895000Y-8300000I-20000J0D01*
G01*
X13970000Y-10325000D02*
G75*
G03*
X13970000Y-10325000I-20000J0D01*
G01*
X13970000Y-11025000D02*
G75*
G03*
X13970000Y-11025000I-20000J0D01*
G01*
X13970000Y-11725000D02*
G75*
G03*
X13970000Y-11725000I-20000J0D01*
G01*
X14095000Y-7625000D02*
G75*
G03*
X14095000Y-7625000I-20000J0D01*
G01*
X14120000Y-8150000D02*
G75*
G03*
X14120000Y-8150000I-20000J0D01*
G01*
X14120000Y-8775000D02*
G75*
G03*
X14120000Y-8775000I-20000J0D01*
G01*
X14195000Y-10325000D02*
G75*
G03*
X14195000Y-10325000I-20000J0D01*
G01*
X14195000Y-11025000D02*
G75*
G03*
X14195000Y-11025000I-20000J0D01*
G01*
X14195000Y-11725000D02*
G75*
G03*
X14195000Y-11725000I-20000J0D01*
G01*
X14220000Y-7525000D02*
G75*
G03*
X14220000Y-7525000I-20000J0D01*
G01*
X14445000Y-7650000D02*
G75*
G03*
X14445000Y-7650000I-20000J0D01*
G01*
X14570000Y-8650000D02*
G75*
G03*
X14570000Y-8650000I-20000J0D01*
G01*
X14620000Y-8200000D02*
G75*
G03*
X14620000Y-8200000I-20000J0D01*
G01*
X14720000Y-9625000D02*
G75*
G03*
X14720000Y-9625000I-20000J0D01*
G01*
X14720000Y-9800000D02*
G75*
G03*
X14720000Y-9800000I-20000J0D01*
G01*
X14795000Y-7475000D02*
G75*
G03*
X14795000Y-7475000I-20000J0D01*
G01*
X14920000Y-10450000D02*
G75*
G03*
X14920000Y-10450000I-20000J0D01*
G01*
X14920000Y-10550000D02*
G75*
G03*
X14920000Y-10550000I-20000J0D01*
G01*
X14920000Y-10650000D02*
G75*
G03*
X14920000Y-10650000I-20000J0D01*
G01*
X14920000Y-11150000D02*
G75*
G03*
X14920000Y-11150000I-20000J0D01*
G01*
X14920000Y-11250000D02*
G75*
G03*
X14920000Y-11250000I-20000J0D01*
G01*
X14920000Y-11350000D02*
G75*
G03*
X14920000Y-11350000I-20000J0D01*
G01*
X14920000Y-11850000D02*
G75*
G03*
X14920000Y-11850000I-20000J0D01*
G01*
X14920000Y-11950000D02*
G75*
G03*
X14920000Y-11950000I-20000J0D01*
G01*
X14920000Y-12050000D02*
G75*
G03*
X14920000Y-12050000I-20000J0D01*
G01*
X14945000Y-8750000D02*
G75*
G03*
X14945000Y-8750000I-20000J0D01*
G01*
X14945000Y-9350000D02*
G75*
G03*
X14945000Y-9350000I-20000J0D01*
G01*
X15020000Y-10450000D02*
G75*
G03*
X15020000Y-10450000I-20000J0D01*
G01*
X15020000Y-10550000D02*
G75*
G03*
X15020000Y-10550000I-20000J0D01*
G01*
X15020000Y-10650000D02*
G75*
G03*
X15020000Y-10650000I-20000J0D01*
G01*
X15020000Y-10900000D02*
G75*
G03*
X15020000Y-10900000I-20000J0D01*
G01*
X15020000Y-11150000D02*
G75*
G03*
X15020000Y-11150000I-20000J0D01*
G01*
X15020000Y-11250000D02*
G75*
G03*
X15020000Y-11250000I-20000J0D01*
G01*
X15020000Y-11350000D02*
G75*
G03*
X15020000Y-11350000I-20000J0D01*
G01*
X15020000Y-11600000D02*
G75*
G03*
X15020000Y-11600000I-20000J0D01*
G01*
X15020000Y-11850000D02*
G75*
G03*
X15020000Y-11850000I-20000J0D01*
G01*
X15020000Y-11950000D02*
G75*
G03*
X15020000Y-11950000I-20000J0D01*
G01*
X15020000Y-12050000D02*
G75*
G03*
X15020000Y-12050000I-20000J0D01*
G01*
X15045000Y-7975000D02*
G75*
G03*
X15045000Y-7975000I-20000J0D01*
G01*
X15095000Y-9300000D02*
G75*
G03*
X15095000Y-9300000I-20000J0D01*
G01*
X15420000Y-9350000D02*
G75*
G03*
X15420000Y-9350000I-20000J0D01*
G01*
X15445000Y-9588681D02*
G75*
G03*
X15445000Y-9588681I-20000J0D01*
G01*
X15470000Y-12325000D02*
G75*
G03*
X15470000Y-12325000I-20000J0D01*
G01*
X15720000Y-10650000D02*
G75*
G03*
X15720000Y-10650000I-20000J0D01*
G01*
X15720000Y-11350000D02*
G75*
G03*
X15720000Y-11350000I-20000J0D01*
G01*
X15720000Y-12050000D02*
G75*
G03*
X15720000Y-12050000I-20000J0D01*
G01*
X15770000Y-9275000D02*
G75*
G03*
X15770000Y-9275000I-20000J0D01*
G01*
X15920000Y-10650000D02*
G75*
G03*
X15920000Y-10650000I-20000J0D01*
G01*
X15920000Y-11350000D02*
G75*
G03*
X15920000Y-11350000I-20000J0D01*
G01*
X15920000Y-12050000D02*
G75*
G03*
X15920000Y-12050000I-20000J0D01*
G01*
X16100787Y-9698182D02*
G75*
G03*
X16100787Y-9698182I-20000J0D01*
G01*
X16120000Y-10550000D02*
G75*
G03*
X16120000Y-10550000I-20000J0D01*
G01*
X16120000Y-11250000D02*
G75*
G03*
X16120000Y-11250000I-20000J0D01*
G01*
X16120000Y-11950000D02*
G75*
G03*
X16120000Y-11950000I-20000J0D01*
G01*
X16420000Y-11900000D02*
G75*
G03*
X16420000Y-11900000I-20000J0D01*
G01*
X16420000Y-12050000D02*
G75*
G03*
X16420000Y-12050000I-20000J0D01*
G01*
X16420000Y-12200000D02*
G75*
G03*
X16420000Y-12200000I-20000J0D01*
G01*
X16570000Y-11900000D02*
G75*
G03*
X16570000Y-11900000I-20000J0D01*
G01*
X16570000Y-12050000D02*
G75*
G03*
X16570000Y-12050000I-20000J0D01*
G01*
X16570000Y-12200000D02*
G75*
G03*
X16570000Y-12200000I-20000J0D01*
G01*
X16720000Y-11900000D02*
G75*
G03*
X16720000Y-11900000I-20000J0D01*
G01*
X16720000Y-12050000D02*
G75*
G03*
X16720000Y-12050000I-20000J0D01*
G01*
X16720000Y-12200000D02*
G75*
G03*
X16720000Y-12200000I-20000J0D01*
G01*
X17070000Y-8825000D02*
G75*
G03*
X17070000Y-8825000I-20000J0D01*
G01*
X17195000Y-9100000D02*
G75*
G03*
X17195000Y-9100000I-20000J0D01*
G01*
D12*
X12733928Y-12918214D02*
X12733928Y-12618214D01*
X12805357Y-12618214D01*
X12848214Y-12632500D01*
X12876786Y-12661071D01*
X12891071Y-12689643D01*
X12905357Y-12746786D01*
X12905357Y-12789643D01*
X12891071Y-12846786D01*
X12876786Y-12875357D01*
X12848214Y-12903929D01*
X12805357Y-12918214D01*
X12733928Y-12918214D01*
X13033928Y-12918214D02*
X13033928Y-12718214D01*
X13033928Y-12775357D02*
X13048214Y-12746786D01*
X13062500Y-12732500D01*
X13091071Y-12718214D01*
X13119643Y-12718214D01*
X13219643Y-12918214D02*
X13219643Y-12718214D01*
X13219643Y-12618214D02*
X13205357Y-12632500D01*
X13219643Y-12646786D01*
X13233928Y-12632500D01*
X13219643Y-12618214D01*
X13219643Y-12646786D01*
X13405357Y-12918214D02*
X13376786Y-12903929D01*
X13362500Y-12875357D01*
X13362500Y-12618214D01*
X13562500Y-12918214D02*
X13533928Y-12903929D01*
X13519643Y-12875357D01*
X13519643Y-12618214D01*
X13905357Y-12918214D02*
X13905357Y-12618214D01*
X14005357Y-12832500D01*
X14105357Y-12618214D01*
X14105357Y-12918214D01*
X14376786Y-12918214D02*
X14376786Y-12761071D01*
X14362500Y-12732500D01*
X14333928Y-12718214D01*
X14276786Y-12718214D01*
X14248214Y-12732500D01*
X14376786Y-12903929D02*
X14348214Y-12918214D01*
X14276786Y-12918214D01*
X14248214Y-12903929D01*
X14233928Y-12875357D01*
X14233928Y-12846786D01*
X14248214Y-12818214D01*
X14276786Y-12803929D01*
X14348214Y-12803929D01*
X14376786Y-12789643D01*
X14519643Y-12718214D02*
X14519643Y-13018214D01*
X14519643Y-12732500D02*
X14548214Y-12718214D01*
X14605357Y-12718214D01*
X14633928Y-12732500D01*
X14648214Y-12746786D01*
X14662500Y-12775357D01*
X14662500Y-12861071D01*
X14648214Y-12889643D01*
X14633928Y-12903929D01*
X14605357Y-12918214D01*
X14548214Y-12918214D01*
X14519643Y-12903929D01*
X14791071Y-12889643D02*
X14805357Y-12903929D01*
X14791071Y-12918214D01*
X14776786Y-12903929D01*
X14791071Y-12889643D01*
X14791071Y-12918214D01*
X14791071Y-12732500D02*
X14805357Y-12746786D01*
X14791071Y-12761071D01*
X14776786Y-12746786D01*
X14791071Y-12732500D01*
X14791071Y-12761071D01*
X12427500Y-13402500D02*
X12447500Y-13422500D01*
X12447500Y-13402500D02*
X12427500Y-13422500D01*
X12791071Y-13248214D02*
X12819643Y-13248214D01*
X12848214Y-13262500D01*
X12862500Y-13276786D01*
X12876786Y-13305357D01*
X12891071Y-13362500D01*
X12891071Y-13433929D01*
X12876786Y-13491071D01*
X12862500Y-13519643D01*
X12848214Y-13533929D01*
X12819643Y-13548214D01*
X12791071Y-13548214D01*
X12762500Y-13533929D01*
X12748214Y-13519643D01*
X12733928Y-13491071D01*
X12719643Y-13433929D01*
X12719643Y-13362500D01*
X12733928Y-13305357D01*
X12748214Y-13276786D01*
X12762500Y-13262500D01*
X12791071Y-13248214D01*
X13019643Y-13519643D02*
X13033928Y-13533929D01*
X13019643Y-13548214D01*
X13005357Y-13533929D01*
X13019643Y-13519643D01*
X13019643Y-13548214D01*
X13148214Y-13276786D02*
X13162500Y-13262500D01*
X13191071Y-13248214D01*
X13262500Y-13248214D01*
X13291071Y-13262500D01*
X13305357Y-13276786D01*
X13319643Y-13305357D01*
X13319643Y-13333929D01*
X13305357Y-13376786D01*
X13133928Y-13548214D01*
X13319643Y-13548214D01*
X13505357Y-13248214D02*
X13533928Y-13248214D01*
X13562500Y-13262500D01*
X13576786Y-13276786D01*
X13591071Y-13305357D01*
X13605357Y-13362500D01*
X13605357Y-13433929D01*
X13591071Y-13491071D01*
X13576786Y-13519643D01*
X13562500Y-13533929D01*
X13533928Y-13548214D01*
X13505357Y-13548214D01*
X13476786Y-13533929D01*
X13462500Y-13519643D01*
X13448214Y-13491071D01*
X13433928Y-13433929D01*
X13433928Y-13362500D01*
X13448214Y-13305357D01*
X13462500Y-13276786D01*
X13476786Y-13262500D01*
X13505357Y-13248214D01*
X13791071Y-13248214D02*
X13819643Y-13248214D01*
X13848214Y-13262500D01*
X13862500Y-13276786D01*
X13876786Y-13305357D01*
X13891071Y-13362500D01*
X13891071Y-13433929D01*
X13876786Y-13491071D01*
X13862500Y-13519643D01*
X13848214Y-13533929D01*
X13819643Y-13548214D01*
X13791071Y-13548214D01*
X13762500Y-13533929D01*
X13748214Y-13519643D01*
X13733928Y-13491071D01*
X13719643Y-13433929D01*
X13719643Y-13362500D01*
X13733928Y-13305357D01*
X13748214Y-13276786D01*
X13762500Y-13262500D01*
X13791071Y-13248214D01*
X14019643Y-13548214D02*
X14019643Y-13348214D01*
X14019643Y-13376786D02*
X14033928Y-13362500D01*
X14062500Y-13348214D01*
X14105357Y-13348214D01*
X14133928Y-13362500D01*
X14148214Y-13391071D01*
X14148214Y-13548214D01*
X14148214Y-13391071D02*
X14162500Y-13362500D01*
X14191071Y-13348214D01*
X14233928Y-13348214D01*
X14262500Y-13362500D01*
X14276786Y-13391071D01*
X14276786Y-13548214D01*
X14419643Y-13548214D02*
X14419643Y-13348214D01*
X14419643Y-13376786D02*
X14433928Y-13362500D01*
X14462500Y-13348214D01*
X14505357Y-13348214D01*
X14533928Y-13362500D01*
X14548214Y-13391071D01*
X14548214Y-13548214D01*
X14548214Y-13391071D02*
X14562500Y-13362500D01*
X14591071Y-13348214D01*
X14633928Y-13348214D01*
X14662500Y-13362500D01*
X14676786Y-13391071D01*
X14676786Y-13548214D01*
X15262500Y-13233929D02*
X15005357Y-13619643D01*
X15648214Y-13248214D02*
X15676786Y-13248214D01*
X15705357Y-13262500D01*
X15719643Y-13276786D01*
X15733928Y-13305357D01*
X15748214Y-13362500D01*
X15748214Y-13433929D01*
X15733928Y-13491071D01*
X15719643Y-13519643D01*
X15705357Y-13533929D01*
X15676786Y-13548214D01*
X15648214Y-13548214D01*
X15619643Y-13533929D01*
X15605357Y-13519643D01*
X15591071Y-13491071D01*
X15576786Y-13433929D01*
X15576786Y-13362500D01*
X15591071Y-13305357D01*
X15605357Y-13276786D01*
X15619643Y-13262500D01*
X15648214Y-13248214D01*
X15876786Y-13519643D02*
X15891071Y-13533929D01*
X15876786Y-13548214D01*
X15862500Y-13533929D01*
X15876786Y-13519643D01*
X15876786Y-13548214D01*
X16076786Y-13248214D02*
X16105357Y-13248214D01*
X16133928Y-13262500D01*
X16148214Y-13276786D01*
X16162500Y-13305357D01*
X16176786Y-13362500D01*
X16176786Y-13433929D01*
X16162500Y-13491071D01*
X16148214Y-13519643D01*
X16133928Y-13533929D01*
X16105357Y-13548214D01*
X16076786Y-13548214D01*
X16048214Y-13533929D01*
X16033928Y-13519643D01*
X16019643Y-13491071D01*
X16005357Y-13433929D01*
X16005357Y-13362500D01*
X16019643Y-13305357D01*
X16033928Y-13276786D01*
X16048214Y-13262500D01*
X16076786Y-13248214D01*
X16362500Y-13248214D02*
X16391071Y-13248214D01*
X16419643Y-13262500D01*
X16433928Y-13276786D01*
X16448214Y-13305357D01*
X16462500Y-13362500D01*
X16462500Y-13433929D01*
X16448214Y-13491071D01*
X16433928Y-13519643D01*
X16419643Y-13533929D01*
X16391071Y-13548214D01*
X16362500Y-13548214D01*
X16333928Y-13533929D01*
X16319643Y-13519643D01*
X16305357Y-13491071D01*
X16291071Y-13433929D01*
X16291071Y-13362500D01*
X16305357Y-13305357D01*
X16319643Y-13276786D01*
X16333928Y-13262500D01*
X16362500Y-13248214D01*
X16562500Y-13248214D02*
X16762500Y-13248214D01*
X16633928Y-13548214D01*
X16891071Y-13548214D02*
X16948214Y-13548214D01*
X16976786Y-13533929D01*
X16991071Y-13519643D01*
X17019643Y-13476786D01*
X17033928Y-13419643D01*
X17033928Y-13305357D01*
X17019643Y-13276786D01*
X17005357Y-13262500D01*
X16976786Y-13248214D01*
X16919643Y-13248214D01*
X16891071Y-13262500D01*
X16876786Y-13276786D01*
X16862500Y-13305357D01*
X16862500Y-13376786D01*
X16876786Y-13405357D01*
X16891071Y-13419643D01*
X16919643Y-13433929D01*
X16976786Y-13433929D01*
X17005357Y-13419643D01*
X17019643Y-13405357D01*
X17033928Y-13376786D01*
X17148214Y-13248214D02*
X17148214Y-13305357D01*
X17262500Y-13248214D02*
X17262500Y-13305357D01*
X17705357Y-13662500D02*
X17691071Y-13648214D01*
X17662500Y-13605357D01*
X17648214Y-13576786D01*
X17633928Y-13533929D01*
X17619643Y-13462500D01*
X17619643Y-13405357D01*
X17633928Y-13333929D01*
X17648214Y-13291071D01*
X17662500Y-13262500D01*
X17691071Y-13219643D01*
X17705357Y-13205357D01*
X17948214Y-13348214D02*
X17948214Y-13548214D01*
X17876786Y-13233929D02*
X17805357Y-13448214D01*
X17991071Y-13448214D01*
X18333928Y-13548214D02*
X18333928Y-13248214D01*
X18462500Y-13548214D02*
X18462500Y-13391071D01*
X18448214Y-13362500D01*
X18419643Y-13348214D01*
X18376786Y-13348214D01*
X18348214Y-13362500D01*
X18333928Y-13376786D01*
X18648214Y-13548214D02*
X18619643Y-13533929D01*
X18605357Y-13519643D01*
X18591071Y-13491071D01*
X18591071Y-13405357D01*
X18605357Y-13376786D01*
X18619643Y-13362500D01*
X18648214Y-13348214D01*
X18691071Y-13348214D01*
X18719643Y-13362500D01*
X18733928Y-13376786D01*
X18748214Y-13405357D01*
X18748214Y-13491071D01*
X18733928Y-13519643D01*
X18719643Y-13533929D01*
X18691071Y-13548214D01*
X18648214Y-13548214D01*
X18919643Y-13548214D02*
X18891071Y-13533929D01*
X18876786Y-13505357D01*
X18876786Y-13248214D01*
X19148214Y-13533929D02*
X19119643Y-13548214D01*
X19062500Y-13548214D01*
X19033928Y-13533929D01*
X19019643Y-13505357D01*
X19019643Y-13391071D01*
X19033928Y-13362500D01*
X19062500Y-13348214D01*
X19119643Y-13348214D01*
X19148214Y-13362500D01*
X19162500Y-13391071D01*
X19162500Y-13419643D01*
X19019643Y-13448214D01*
X19276786Y-13533929D02*
X19305357Y-13548214D01*
X19362500Y-13548214D01*
X19391071Y-13533929D01*
X19405357Y-13505357D01*
X19405357Y-13491071D01*
X19391071Y-13462500D01*
X19362500Y-13448214D01*
X19319643Y-13448214D01*
X19291071Y-13433929D01*
X19276786Y-13405357D01*
X19276786Y-13391071D01*
X19291071Y-13362500D01*
X19319643Y-13348214D01*
X19362500Y-13348214D01*
X19391071Y-13362500D01*
X19505357Y-13662500D02*
X19519643Y-13648214D01*
X19548214Y-13605357D01*
X19562500Y-13576786D01*
X19576786Y-13533929D01*
X19591071Y-13462500D01*
X19591071Y-13405357D01*
X19576786Y-13333929D01*
X19562500Y-13291071D01*
X19548214Y-13262500D01*
X19519643Y-13219643D01*
X19505357Y-13205357D01*
X12447500Y-13808500D02*
G75*
G03*
X12447500Y-13808500I-20000J0D01*
G01*
X12791071Y-13644214D02*
X12819643Y-13644214D01*
X12848214Y-13658500D01*
X12862500Y-13672786D01*
X12876786Y-13701357D01*
X12891071Y-13758500D01*
X12891071Y-13829929D01*
X12876786Y-13887071D01*
X12862500Y-13915643D01*
X12848214Y-13929929D01*
X12819643Y-13944214D01*
X12791071Y-13944214D01*
X12762500Y-13929929D01*
X12748214Y-13915643D01*
X12733928Y-13887071D01*
X12719643Y-13829929D01*
X12719643Y-13758500D01*
X12733928Y-13701357D01*
X12748214Y-13672786D01*
X12762500Y-13658500D01*
X12791071Y-13644214D01*
X13019643Y-13915643D02*
X13033928Y-13929929D01*
X13019643Y-13944214D01*
X13005357Y-13929929D01*
X13019643Y-13915643D01*
X13019643Y-13944214D01*
X13291071Y-13744214D02*
X13291071Y-13944214D01*
X13219643Y-13629929D02*
X13148214Y-13844214D01*
X13333928Y-13844214D01*
X13505357Y-13644214D02*
X13533928Y-13644214D01*
X13562500Y-13658500D01*
X13576786Y-13672786D01*
X13591071Y-13701357D01*
X13605357Y-13758500D01*
X13605357Y-13829929D01*
X13591071Y-13887071D01*
X13576786Y-13915643D01*
X13562500Y-13929929D01*
X13533928Y-13944214D01*
X13505357Y-13944214D01*
X13476786Y-13929929D01*
X13462500Y-13915643D01*
X13448214Y-13887071D01*
X13433928Y-13829929D01*
X13433928Y-13758500D01*
X13448214Y-13701357D01*
X13462500Y-13672786D01*
X13476786Y-13658500D01*
X13505357Y-13644214D01*
X13791071Y-13644214D02*
X13819643Y-13644214D01*
X13848214Y-13658500D01*
X13862500Y-13672786D01*
X13876786Y-13701357D01*
X13891071Y-13758500D01*
X13891071Y-13829929D01*
X13876786Y-13887071D01*
X13862500Y-13915643D01*
X13848214Y-13929929D01*
X13819643Y-13944214D01*
X13791071Y-13944214D01*
X13762500Y-13929929D01*
X13748214Y-13915643D01*
X13733928Y-13887071D01*
X13719643Y-13829929D01*
X13719643Y-13758500D01*
X13733928Y-13701357D01*
X13748214Y-13672786D01*
X13762500Y-13658500D01*
X13791071Y-13644214D01*
X14019643Y-13944214D02*
X14019643Y-13744214D01*
X14019643Y-13772786D02*
X14033928Y-13758500D01*
X14062500Y-13744214D01*
X14105357Y-13744214D01*
X14133928Y-13758500D01*
X14148214Y-13787071D01*
X14148214Y-13944214D01*
X14148214Y-13787071D02*
X14162500Y-13758500D01*
X14191071Y-13744214D01*
X14233928Y-13744214D01*
X14262500Y-13758500D01*
X14276786Y-13787071D01*
X14276786Y-13944214D01*
X14419643Y-13944214D02*
X14419643Y-13744214D01*
X14419643Y-13772786D02*
X14433928Y-13758500D01*
X14462500Y-13744214D01*
X14505357Y-13744214D01*
X14533928Y-13758500D01*
X14548214Y-13787071D01*
X14548214Y-13944214D01*
X14548214Y-13787071D02*
X14562500Y-13758500D01*
X14591071Y-13744214D01*
X14633928Y-13744214D01*
X14662500Y-13758500D01*
X14676786Y-13787071D01*
X14676786Y-13944214D01*
X15262500Y-13629929D02*
X15005357Y-14015643D01*
X15648214Y-13644214D02*
X15676786Y-13644214D01*
X15705357Y-13658500D01*
X15719643Y-13672786D01*
X15733928Y-13701357D01*
X15748214Y-13758500D01*
X15748214Y-13829929D01*
X15733928Y-13887071D01*
X15719643Y-13915643D01*
X15705357Y-13929929D01*
X15676786Y-13944214D01*
X15648214Y-13944214D01*
X15619643Y-13929929D01*
X15605357Y-13915643D01*
X15591071Y-13887071D01*
X15576786Y-13829929D01*
X15576786Y-13758500D01*
X15591071Y-13701357D01*
X15605357Y-13672786D01*
X15619643Y-13658500D01*
X15648214Y-13644214D01*
X15876786Y-13915643D02*
X15891071Y-13929929D01*
X15876786Y-13944214D01*
X15862500Y-13929929D01*
X15876786Y-13915643D01*
X15876786Y-13944214D01*
X16076786Y-13644214D02*
X16105357Y-13644214D01*
X16133928Y-13658500D01*
X16148214Y-13672786D01*
X16162500Y-13701357D01*
X16176786Y-13758500D01*
X16176786Y-13829929D01*
X16162500Y-13887071D01*
X16148214Y-13915643D01*
X16133928Y-13929929D01*
X16105357Y-13944214D01*
X16076786Y-13944214D01*
X16048214Y-13929929D01*
X16033928Y-13915643D01*
X16019643Y-13887071D01*
X16005357Y-13829929D01*
X16005357Y-13758500D01*
X16019643Y-13701357D01*
X16033928Y-13672786D01*
X16048214Y-13658500D01*
X16076786Y-13644214D01*
X16462500Y-13944214D02*
X16291071Y-13944214D01*
X16376786Y-13944214D02*
X16376786Y-13644214D01*
X16348214Y-13687071D01*
X16319643Y-13715643D01*
X16291071Y-13729929D01*
X16733928Y-13644214D02*
X16591071Y-13644214D01*
X16576786Y-13787071D01*
X16591071Y-13772786D01*
X16619643Y-13758500D01*
X16691071Y-13758500D01*
X16719643Y-13772786D01*
X16733928Y-13787071D01*
X16748214Y-13815643D01*
X16748214Y-13887071D01*
X16733928Y-13915643D01*
X16719643Y-13929929D01*
X16691071Y-13944214D01*
X16619643Y-13944214D01*
X16591071Y-13929929D01*
X16576786Y-13915643D01*
X16848214Y-13644214D02*
X17048214Y-13644214D01*
X16919643Y-13944214D01*
X17148214Y-13644214D02*
X17148214Y-13701357D01*
X17262500Y-13644214D02*
X17262500Y-13701357D01*
X17705357Y-14058500D02*
X17691071Y-14044214D01*
X17662500Y-14001357D01*
X17648214Y-13972786D01*
X17633928Y-13929929D01*
X17619643Y-13858500D01*
X17619643Y-13801357D01*
X17633928Y-13729929D01*
X17648214Y-13687071D01*
X17662500Y-13658500D01*
X17691071Y-13615643D01*
X17705357Y-13601357D01*
X17976786Y-13944214D02*
X17805357Y-13944214D01*
X17891071Y-13944214D02*
X17891071Y-13644214D01*
X17862500Y-13687071D01*
X17833928Y-13715643D01*
X17805357Y-13729929D01*
X18162500Y-13644214D02*
X18191071Y-13644214D01*
X18219643Y-13658500D01*
X18233928Y-13672786D01*
X18248214Y-13701357D01*
X18262500Y-13758500D01*
X18262500Y-13829929D01*
X18248214Y-13887071D01*
X18233928Y-13915643D01*
X18219643Y-13929929D01*
X18191071Y-13944214D01*
X18162500Y-13944214D01*
X18133928Y-13929929D01*
X18119643Y-13915643D01*
X18105357Y-13887071D01*
X18091071Y-13829929D01*
X18091071Y-13758500D01*
X18105357Y-13701357D01*
X18119643Y-13672786D01*
X18133928Y-13658500D01*
X18162500Y-13644214D01*
X18519643Y-13744214D02*
X18519643Y-13944214D01*
X18448214Y-13629929D02*
X18376786Y-13844214D01*
X18562500Y-13844214D01*
X18905357Y-13944214D02*
X18905357Y-13644214D01*
X19033928Y-13944214D02*
X19033928Y-13787071D01*
X19019643Y-13758500D01*
X18991071Y-13744214D01*
X18948214Y-13744214D01*
X18919643Y-13758500D01*
X18905357Y-13772786D01*
X19219643Y-13944214D02*
X19191071Y-13929929D01*
X19176786Y-13915643D01*
X19162500Y-13887071D01*
X19162500Y-13801357D01*
X19176786Y-13772786D01*
X19191071Y-13758500D01*
X19219643Y-13744214D01*
X19262500Y-13744214D01*
X19291071Y-13758500D01*
X19305357Y-13772786D01*
X19319643Y-13801357D01*
X19319643Y-13887071D01*
X19305357Y-13915643D01*
X19291071Y-13929929D01*
X19262500Y-13944214D01*
X19219643Y-13944214D01*
X19491071Y-13944214D02*
X19462500Y-13929929D01*
X19448214Y-13901357D01*
X19448214Y-13644214D01*
X19719643Y-13929929D02*
X19691071Y-13944214D01*
X19633928Y-13944214D01*
X19605357Y-13929929D01*
X19591071Y-13901357D01*
X19591071Y-13787071D01*
X19605357Y-13758500D01*
X19633928Y-13744214D01*
X19691071Y-13744214D01*
X19719643Y-13758500D01*
X19733928Y-13787071D01*
X19733928Y-13815643D01*
X19591071Y-13844214D01*
X19848214Y-13929929D02*
X19876786Y-13944214D01*
X19933928Y-13944214D01*
X19962500Y-13929929D01*
X19976786Y-13901357D01*
X19976786Y-13887071D01*
X19962500Y-13858500D01*
X19933928Y-13844214D01*
X19891071Y-13844214D01*
X19862500Y-13829929D01*
X19848214Y-13801357D01*
X19848214Y-13787071D01*
X19862500Y-13758500D01*
X19891071Y-13744214D01*
X19933928Y-13744214D01*
X19962500Y-13758500D01*
X20076786Y-14058500D02*
X20091071Y-14044214D01*
X20119643Y-14001357D01*
X20133928Y-13972786D01*
X20148214Y-13929929D01*
X20162500Y-13858500D01*
X20162500Y-13801357D01*
X20148214Y-13729929D01*
X20133928Y-13687071D01*
X20119643Y-13658500D01*
X20091071Y-13615643D01*
X20076786Y-13601357D01*
M02*
