G04 #@! TF.GenerationSoftware,KiCad,Pcbnew,(5.1.10)-1*
G04 #@! TF.CreationDate,2021-12-14T19:18:36+11:00*
G04 #@! TF.ProjectId,WLED_Controller,574c4544-5f43-46f6-9e74-726f6c6c6572,1.0*
G04 #@! TF.SameCoordinates,Original*
G04 #@! TF.FileFunction,Legend,Top*
G04 #@! TF.FilePolarity,Positive*
%FSLAX46Y46*%
G04 Gerber Fmt 4.6, Leading zero omitted, Abs format (unit mm)*
G04 Created by KiCad (PCBNEW (5.1.10)-1) date 2021-12-14 19:18:36*
%MOMM*%
%LPD*%
G01*
G04 APERTURE LIST*
%ADD10C,0.150000*%
%ADD11C,0.300000*%
%ADD12C,0.100000*%
%ADD13C,0.120000*%
%ADD14R,0.900000X0.800000*%
%ADD15R,2.413000X3.302000*%
%ADD16R,2.500000X1.000000*%
%ADD17R,1.000000X1.800000*%
%ADD18R,3.302000X2.413000*%
%ADD19R,1.500000X2.000000*%
%ADD20R,3.800000X2.000000*%
%ADD21R,2.000000X1.500000*%
%ADD22R,2.000000X3.800000*%
%ADD23R,1.700000X0.900000*%
%ADD24R,10.000000X5.000000*%
%ADD25R,1.900000X1.000000*%
%ADD26R,1.900000X1.800000*%
%ADD27R,1.300000X1.650000*%
%ADD28R,1.550000X1.425000*%
%ADD29R,1.380000X0.450000*%
G04 APERTURE END LIST*
D10*
X142300000Y-80635714D02*
X142371428Y-80707142D01*
X142300000Y-80778571D01*
X142228571Y-80707142D01*
X142300000Y-80635714D01*
X142300000Y-80778571D01*
X125400000Y-94535714D02*
X125471428Y-94607142D01*
X125400000Y-94678571D01*
X125328571Y-94607142D01*
X125400000Y-94535714D01*
X125400000Y-94678571D01*
X125400000Y-90735714D02*
X125471428Y-90807142D01*
X125400000Y-90878571D01*
X125328571Y-90807142D01*
X125400000Y-90735714D01*
X125400000Y-90878571D01*
X145700000Y-117535714D02*
X145771428Y-117607142D01*
X145700000Y-117678571D01*
X145628571Y-117607142D01*
X145700000Y-117535714D01*
X145700000Y-117678571D01*
X145700000Y-110535714D02*
X145771428Y-110607142D01*
X145700000Y-110678571D01*
X145628571Y-110607142D01*
X145700000Y-110535714D01*
X145700000Y-110678571D01*
X145700000Y-103535714D02*
X145771428Y-103607142D01*
X145700000Y-103678571D01*
X145628571Y-103607142D01*
X145700000Y-103535714D01*
X145700000Y-103678571D01*
X139900000Y-77957142D02*
X139947619Y-78004761D01*
X139900000Y-78052380D01*
X139852380Y-78004761D01*
X139900000Y-77957142D01*
X139900000Y-78052380D01*
D11*
X132900000Y-89735714D02*
X132971428Y-89807142D01*
X132900000Y-89878571D01*
X132828571Y-89807142D01*
X132900000Y-89735714D01*
X132900000Y-89878571D01*
D12*
G36*
X127169359Y-104355884D02*
G01*
X127641423Y-105438376D01*
X127641423Y-104944220D01*
X127857689Y-104944220D01*
X127857689Y-105438376D01*
X128329753Y-105438376D01*
X128329753Y-105641852D01*
X127857689Y-105641852D01*
X128625084Y-106346460D01*
X128625084Y-104653540D01*
X129178539Y-104653540D01*
X129347068Y-104666201D01*
X129485238Y-104704183D01*
X129593048Y-104767487D01*
X129670240Y-104855595D01*
X129716555Y-104967991D01*
X129731993Y-105104675D01*
X129715134Y-105216442D01*
X129664555Y-105314546D01*
X129584909Y-105395501D01*
X129480846Y-105455817D01*
X129603658Y-105511482D01*
X129697693Y-105601738D01*
X129757428Y-105719609D01*
X129777339Y-105858118D01*
X129760932Y-105999194D01*
X129711710Y-106118567D01*
X129943608Y-106346460D01*
X130590080Y-104653540D01*
X130785417Y-104653540D01*
X131433052Y-106346460D01*
X131203996Y-106346460D01*
X131042378Y-105904626D01*
X130333119Y-105904626D01*
X130173827Y-106346460D01*
X129943608Y-106346460D01*
X129711710Y-106118567D01*
X129629674Y-106216235D01*
X129517665Y-106288582D01*
X129378526Y-106331991D01*
X129212258Y-106346460D01*
X128625084Y-106346460D01*
X127857689Y-105641852D01*
X127857689Y-106176703D01*
X127641423Y-106176703D01*
X127641423Y-105641852D01*
X127169359Y-105641852D01*
X127169359Y-105438376D01*
X127641423Y-105438376D01*
X127169359Y-104355884D01*
X126871703Y-104355884D01*
X126759560Y-104361393D01*
X126648497Y-104377868D01*
X126539583Y-104405149D01*
X126433868Y-104442974D01*
X126332370Y-104490980D01*
X126236066Y-104548702D01*
X126145883Y-104615586D01*
X126062690Y-104690988D01*
X125987289Y-104774180D01*
X125920405Y-104864363D01*
X125862682Y-104960667D01*
X125814677Y-105062166D01*
X125776852Y-105167881D01*
X125749570Y-105276794D01*
X125733096Y-105387857D01*
X125727586Y-105500000D01*
X125733096Y-105612143D01*
X125749570Y-105723206D01*
X125776852Y-105832119D01*
X125814677Y-105937834D01*
X125862682Y-106039333D01*
X125920405Y-106135637D01*
X125987289Y-106225820D01*
X126062690Y-106309012D01*
X126145883Y-106384414D01*
X126236066Y-106451298D01*
X126332370Y-106509020D01*
X126433868Y-106557026D01*
X126539583Y-106594851D01*
X126648497Y-106622132D01*
X126759560Y-106638607D01*
X126871703Y-106644116D01*
X127169359Y-106644116D01*
X132830641Y-106644116D01*
X132830641Y-104837250D01*
X132286488Y-104837250D01*
X132286488Y-106346460D01*
X132064409Y-106346460D01*
X132064409Y-104837250D01*
X131521419Y-104837250D01*
X131521419Y-104653540D01*
X132830641Y-104653540D01*
X132830641Y-104837250D01*
X132830641Y-106644116D01*
X133128298Y-106644116D01*
X133240441Y-106638607D01*
X133351504Y-106622132D01*
X133460417Y-106594851D01*
X133566132Y-106557025D01*
X133667630Y-106509020D01*
X133763934Y-106451298D01*
X133854117Y-106384414D01*
X133937310Y-106309012D01*
X134012711Y-106225820D01*
X134079595Y-106135637D01*
X134137318Y-106039333D01*
X134185323Y-105937834D01*
X134223148Y-105832119D01*
X134250430Y-105723206D01*
X134266904Y-105612143D01*
X134272414Y-105500000D01*
X134266904Y-105387857D01*
X134250430Y-105276794D01*
X134223148Y-105167881D01*
X134185323Y-105062166D01*
X134137318Y-104960667D01*
X134079595Y-104864363D01*
X134012711Y-104774180D01*
X133937310Y-104690988D01*
X133854117Y-104615586D01*
X133763934Y-104548702D01*
X133667630Y-104490980D01*
X133566132Y-104442975D01*
X133460417Y-104405149D01*
X133351504Y-104377868D01*
X133240441Y-104361393D01*
X133128298Y-104355884D01*
X132830641Y-104355884D01*
X127169359Y-104355884D01*
G37*
G36*
X130400557Y-105720917D02*
G01*
X130976103Y-105720917D01*
X130687749Y-104929105D01*
X130400557Y-105720917D01*
G37*
G36*
X128848326Y-105554648D02*
G01*
X128848326Y-106163913D01*
X129216908Y-106163913D01*
X129356289Y-106143711D01*
X129462824Y-106083104D01*
X129530407Y-105987034D01*
X129552934Y-105860443D01*
X129532151Y-105726658D01*
X129469800Y-105631097D01*
X129365882Y-105573760D01*
X129220397Y-105554648D01*
X128848326Y-105554648D01*
G37*
G36*
X128848326Y-105375589D02*
G01*
X129185515Y-105375589D01*
X129317338Y-105357276D01*
X129419803Y-105302338D01*
X129485642Y-105216006D01*
X129507588Y-105103513D01*
X129487241Y-104983026D01*
X129426198Y-104900618D01*
X129323588Y-104853092D01*
X129178539Y-104837250D01*
X128848326Y-104837250D01*
X128848326Y-105375589D01*
G37*
G36*
X127200722Y-114832629D02*
G01*
X127477485Y-115248665D01*
X127593866Y-115182899D01*
X127728342Y-115143439D01*
X127880913Y-115130286D01*
X128046148Y-115145336D01*
X128188388Y-115190489D01*
X128307631Y-115265742D01*
X128401424Y-115368643D01*
X128467311Y-115496736D01*
X128505293Y-115650021D01*
X128877364Y-116846460D01*
X128877364Y-115153540D01*
X129101769Y-115153540D01*
X129956368Y-116463925D01*
X129956368Y-115153540D01*
X130178447Y-115153540D01*
X130178447Y-116846460D01*
X129954042Y-116846460D01*
X129101769Y-115541888D01*
X129101769Y-116846460D01*
X128877364Y-116846460D01*
X128505293Y-115650021D01*
X128282051Y-115650021D01*
X128233508Y-115503010D01*
X128150664Y-115398002D01*
X128033520Y-115334997D01*
X127882076Y-115313995D01*
X127744552Y-115331501D01*
X127631187Y-115384017D01*
X127541980Y-115471544D01*
X127477578Y-115592273D01*
X127438627Y-115744395D01*
X127425127Y-115927911D01*
X127425127Y-116066275D01*
X127439596Y-116243202D01*
X127483004Y-116394162D01*
X127555351Y-116519154D01*
X127652374Y-116612495D01*
X127769809Y-116668499D01*
X127907655Y-116687167D01*
X128025381Y-116680191D01*
X128127409Y-116659262D01*
X128283214Y-116565082D01*
X128283214Y-116184872D01*
X127891377Y-116184872D01*
X127891377Y-116003488D01*
X128505293Y-116003488D01*
X128505293Y-116624380D01*
X128402247Y-116732077D01*
X128265192Y-116808672D01*
X128098487Y-116854454D01*
X127906493Y-116869714D01*
X127711156Y-116845443D01*
X127539073Y-116772627D01*
X127396785Y-116655047D01*
X127290833Y-116496481D01*
X127241805Y-116370778D01*
X127211768Y-116232415D01*
X127200722Y-116081390D01*
X127200722Y-115933725D01*
X127211877Y-115753213D01*
X127245341Y-115594211D01*
X127301115Y-115456719D01*
X127379199Y-115340738D01*
X127477485Y-115248665D01*
X127200722Y-114832629D01*
X126903066Y-114832629D01*
X126788643Y-114838251D01*
X126675323Y-114855060D01*
X126564196Y-114882896D01*
X126456332Y-114921490D01*
X126352771Y-114970471D01*
X126254509Y-115029367D01*
X126162494Y-115097610D01*
X126077610Y-115174544D01*
X126000676Y-115259428D01*
X125932432Y-115351444D01*
X125873537Y-115449705D01*
X125824556Y-115553267D01*
X125785962Y-115661130D01*
X125758126Y-115772257D01*
X125741316Y-115885578D01*
X125735695Y-116000000D01*
X125741316Y-116114422D01*
X125758126Y-116227743D01*
X125785962Y-116338870D01*
X125824556Y-116446733D01*
X125873537Y-116550295D01*
X125932432Y-116648556D01*
X126000676Y-116740572D01*
X126077610Y-116825456D01*
X126162494Y-116902390D01*
X130574935Y-116846460D01*
X130574935Y-115153540D01*
X131052812Y-115153540D01*
X131194406Y-115164392D01*
X131324630Y-115196948D01*
X131443486Y-115251208D01*
X131548066Y-115325493D01*
X131635464Y-115418123D01*
X131705679Y-115529099D01*
X131757162Y-115655189D01*
X131788362Y-115793165D01*
X131799278Y-115943027D01*
X131799278Y-116051160D01*
X131789008Y-116204251D01*
X131758196Y-116344165D01*
X131706842Y-116470901D01*
X131636433Y-116581747D01*
X131548454Y-116673990D01*
X131442905Y-116747629D01*
X131322305Y-116801501D01*
X131189174Y-116834445D01*
X131043511Y-116846460D01*
X130574935Y-116846460D01*
X126162494Y-116902390D01*
X126254509Y-116970633D01*
X126352771Y-117029529D01*
X126456332Y-117078510D01*
X126564196Y-117117104D01*
X126675323Y-117144940D01*
X126788643Y-117161749D01*
X126903066Y-117167371D01*
X127200722Y-117167371D01*
X131799278Y-117167371D01*
X132096935Y-117167371D01*
X132211357Y-117161749D01*
X132324677Y-117144940D01*
X132435804Y-117117104D01*
X132543668Y-117078510D01*
X132647229Y-117029529D01*
X132745491Y-116970633D01*
X132837507Y-116902390D01*
X132922390Y-116825456D01*
X132999324Y-116740572D01*
X133067568Y-116648556D01*
X133126463Y-116550295D01*
X133175444Y-116446733D01*
X133214038Y-116338870D01*
X133241874Y-116227743D01*
X133258684Y-116114422D01*
X133264305Y-116000000D01*
X133258684Y-115885578D01*
X133241874Y-115772257D01*
X133214038Y-115661130D01*
X133175444Y-115553267D01*
X133126463Y-115449705D01*
X133067568Y-115351444D01*
X132999324Y-115259428D01*
X132922390Y-115174544D01*
X132837507Y-115097610D01*
X132745491Y-115029367D01*
X132647229Y-114970471D01*
X132543668Y-114921490D01*
X132435804Y-114882896D01*
X132324677Y-114855060D01*
X132211357Y-114838251D01*
X132096935Y-114832629D01*
X131799278Y-114832629D01*
X127200722Y-114832629D01*
G37*
G36*
X130798177Y-115337250D02*
G01*
X130798177Y-116663913D01*
X131033046Y-116663913D01*
X131192403Y-116646085D01*
X131326310Y-116592599D01*
X131434766Y-116503458D01*
X131514541Y-116381372D01*
X131562407Y-116229056D01*
X131578362Y-116046509D01*
X131578362Y-115947678D01*
X131563311Y-115769717D01*
X131518159Y-115620307D01*
X131442905Y-115499449D01*
X131340004Y-115410372D01*
X131211911Y-115356305D01*
X131058626Y-115337250D01*
X130798177Y-115337250D01*
G37*
G36*
X167200722Y-114832629D02*
G01*
X167477485Y-115248665D01*
X167593866Y-115182899D01*
X167728342Y-115143439D01*
X167880913Y-115130286D01*
X168046148Y-115145336D01*
X168188388Y-115190489D01*
X168307631Y-115265742D01*
X168401424Y-115368643D01*
X168467311Y-115496736D01*
X168505293Y-115650021D01*
X168877364Y-116846460D01*
X168877364Y-115153540D01*
X169101769Y-115153540D01*
X169956368Y-116463925D01*
X169956368Y-115153540D01*
X170178447Y-115153540D01*
X170178447Y-116846460D01*
X169954042Y-116846460D01*
X169101769Y-115541888D01*
X169101769Y-116846460D01*
X168877364Y-116846460D01*
X168505293Y-115650021D01*
X168282051Y-115650021D01*
X168233508Y-115503010D01*
X168150664Y-115398002D01*
X168033520Y-115334997D01*
X167882076Y-115313995D01*
X167744552Y-115331501D01*
X167631187Y-115384017D01*
X167541980Y-115471544D01*
X167477578Y-115592273D01*
X167438627Y-115744395D01*
X167425127Y-115927911D01*
X167425127Y-116066275D01*
X167439596Y-116243202D01*
X167483004Y-116394162D01*
X167555351Y-116519154D01*
X167652374Y-116612495D01*
X167769809Y-116668499D01*
X167907655Y-116687167D01*
X168025381Y-116680191D01*
X168127409Y-116659262D01*
X168283214Y-116565082D01*
X168283214Y-116184872D01*
X167891377Y-116184872D01*
X167891377Y-116003488D01*
X168505293Y-116003488D01*
X168505293Y-116624380D01*
X168402247Y-116732077D01*
X168265192Y-116808672D01*
X168098487Y-116854454D01*
X167906493Y-116869714D01*
X167711156Y-116845443D01*
X167539073Y-116772627D01*
X167396785Y-116655047D01*
X167290833Y-116496481D01*
X167241805Y-116370778D01*
X167211768Y-116232415D01*
X167200722Y-116081390D01*
X167200722Y-115933725D01*
X167211877Y-115753213D01*
X167245341Y-115594211D01*
X167301115Y-115456719D01*
X167379199Y-115340738D01*
X167477485Y-115248665D01*
X167200722Y-114832629D01*
X166903066Y-114832629D01*
X166788643Y-114838251D01*
X166675323Y-114855060D01*
X166564196Y-114882896D01*
X166456332Y-114921490D01*
X166352771Y-114970471D01*
X166254509Y-115029367D01*
X166162494Y-115097610D01*
X166077610Y-115174544D01*
X166000676Y-115259428D01*
X165932432Y-115351444D01*
X165873537Y-115449705D01*
X165824556Y-115553267D01*
X165785962Y-115661130D01*
X165758126Y-115772257D01*
X165741316Y-115885578D01*
X165735695Y-116000000D01*
X165741316Y-116114422D01*
X165758126Y-116227743D01*
X165785962Y-116338870D01*
X165824556Y-116446733D01*
X165873537Y-116550295D01*
X165932432Y-116648556D01*
X166000676Y-116740572D01*
X166077610Y-116825456D01*
X166162494Y-116902390D01*
X170574935Y-116846460D01*
X170574935Y-115153540D01*
X171052812Y-115153540D01*
X171194406Y-115164392D01*
X171324630Y-115196948D01*
X171443486Y-115251208D01*
X171548066Y-115325493D01*
X171635464Y-115418123D01*
X171705679Y-115529099D01*
X171757162Y-115655189D01*
X171788362Y-115793165D01*
X171799278Y-115943027D01*
X171799278Y-116051160D01*
X171789008Y-116204251D01*
X171758196Y-116344165D01*
X171706842Y-116470901D01*
X171636433Y-116581747D01*
X171548454Y-116673990D01*
X171442905Y-116747629D01*
X171322305Y-116801501D01*
X171189174Y-116834445D01*
X171043511Y-116846460D01*
X170574935Y-116846460D01*
X166162494Y-116902390D01*
X166254509Y-116970633D01*
X166352771Y-117029529D01*
X166456332Y-117078510D01*
X166564196Y-117117104D01*
X166675323Y-117144940D01*
X166788643Y-117161749D01*
X166903066Y-117167371D01*
X167200722Y-117167371D01*
X171799278Y-117167371D01*
X172096935Y-117167371D01*
X172211357Y-117161749D01*
X172324677Y-117144940D01*
X172435804Y-117117104D01*
X172543668Y-117078510D01*
X172647229Y-117029529D01*
X172745491Y-116970633D01*
X172837507Y-116902390D01*
X172922390Y-116825456D01*
X172999324Y-116740572D01*
X173067568Y-116648556D01*
X173126463Y-116550295D01*
X173175444Y-116446733D01*
X173214038Y-116338870D01*
X173241874Y-116227743D01*
X173258684Y-116114422D01*
X173264305Y-116000000D01*
X173258684Y-115885578D01*
X173241874Y-115772257D01*
X173214038Y-115661130D01*
X173175444Y-115553267D01*
X173126463Y-115449705D01*
X173067568Y-115351444D01*
X172999324Y-115259428D01*
X172922390Y-115174544D01*
X172837507Y-115097610D01*
X172745491Y-115029367D01*
X172647229Y-114970471D01*
X172543668Y-114921490D01*
X172435804Y-114882896D01*
X172324677Y-114855060D01*
X172211357Y-114838251D01*
X172096935Y-114832629D01*
X171799278Y-114832629D01*
X167200722Y-114832629D01*
G37*
G36*
X170798177Y-115337250D02*
G01*
X170798177Y-116663913D01*
X171033046Y-116663913D01*
X171192403Y-116646085D01*
X171326310Y-116592599D01*
X171434766Y-116503458D01*
X171514541Y-116381372D01*
X171562407Y-116229056D01*
X171578362Y-116046509D01*
X171578362Y-115947678D01*
X171563311Y-115769717D01*
X171518159Y-115620307D01*
X171442905Y-115499449D01*
X171340004Y-115410372D01*
X171211911Y-115356305D01*
X171058626Y-115337250D01*
X170798177Y-115337250D01*
G37*
G36*
X169178569Y-104344257D02*
G01*
X169239030Y-105486047D01*
X169325072Y-104641913D01*
X170192461Y-104641913D01*
X170192461Y-104840738D01*
X169507619Y-104840738D01*
X169456459Y-105302338D01*
X169589300Y-105247399D01*
X169739000Y-105229086D01*
X169882660Y-105246075D01*
X170005133Y-105297041D01*
X170106419Y-105381984D01*
X170181996Y-105495866D01*
X170227342Y-105633648D01*
X170242457Y-105795331D01*
X170995900Y-106334833D01*
X170369194Y-104641913D01*
X170612202Y-104641913D01*
X171093568Y-106038339D01*
X171577260Y-104641913D01*
X171821431Y-104641913D01*
X171193562Y-106334833D01*
X170995900Y-106334833D01*
X170242457Y-105795331D01*
X170226761Y-105957401D01*
X170179671Y-106094796D01*
X170101187Y-106207515D01*
X169994540Y-106291166D01*
X169862959Y-106341357D01*
X169706444Y-106358087D01*
X169566013Y-106344264D01*
X169443927Y-106302793D01*
X169340187Y-106233676D01*
X169259184Y-106140142D01*
X169205311Y-106025420D01*
X169178569Y-105889511D01*
X169382045Y-105889511D01*
X169417799Y-106016974D01*
X169485527Y-106108684D01*
X169582614Y-106164058D01*
X169706444Y-106182516D01*
X169840302Y-106156937D01*
X169941894Y-106080197D01*
X170005989Y-105958402D01*
X170027354Y-105797656D01*
X170004245Y-105644613D01*
X169934918Y-105524998D01*
X169827221Y-105447823D01*
X169689003Y-105422098D01*
X169563429Y-105437504D01*
X169468086Y-105483722D01*
X169411113Y-105530231D01*
X169239030Y-105486047D01*
X169178569Y-104344257D01*
X168880913Y-104344257D01*
X168767630Y-104349822D01*
X168655438Y-104366464D01*
X168545418Y-104394023D01*
X168438629Y-104432232D01*
X168336099Y-104480725D01*
X168238816Y-104539035D01*
X168147717Y-104606598D01*
X168063679Y-104682766D01*
X167987511Y-104766804D01*
X167919947Y-104857903D01*
X167861638Y-104955186D01*
X167813145Y-105057716D01*
X167774935Y-105164505D01*
X167747377Y-105274526D01*
X167730735Y-105386717D01*
X167725169Y-105500000D01*
X167730735Y-105613283D01*
X167747377Y-105725474D01*
X167774935Y-105835495D01*
X167813145Y-105942284D01*
X167861638Y-106044814D01*
X167919947Y-106142097D01*
X167987511Y-106233196D01*
X168063679Y-106317234D01*
X168147717Y-106393402D01*
X168238816Y-106460965D01*
X168336099Y-106519275D01*
X168438629Y-106567768D01*
X168545418Y-106605977D01*
X168655438Y-106633536D01*
X168767630Y-106650178D01*
X168880913Y-106655743D01*
X169178569Y-106655743D01*
X171821431Y-106655743D01*
X172119087Y-106655743D01*
X172232370Y-106650178D01*
X172344561Y-106633536D01*
X172454582Y-106605977D01*
X172561371Y-106567768D01*
X172663901Y-106519275D01*
X172761184Y-106460966D01*
X172852283Y-106393402D01*
X172936321Y-106317234D01*
X173012489Y-106233196D01*
X173080053Y-106142097D01*
X173138362Y-106044814D01*
X173186855Y-105942284D01*
X173225065Y-105835495D01*
X173252623Y-105725474D01*
X173269265Y-105613283D01*
X173274831Y-105500000D01*
X173269265Y-105386717D01*
X173252623Y-105274526D01*
X173225065Y-105164505D01*
X173186855Y-105057716D01*
X173138362Y-104955186D01*
X173080053Y-104857903D01*
X173012489Y-104766804D01*
X172936321Y-104682766D01*
X172852283Y-104606598D01*
X172761184Y-104539034D01*
X172663901Y-104480725D01*
X172561371Y-104432232D01*
X172454582Y-104394023D01*
X172344561Y-104366464D01*
X172232370Y-104349822D01*
X172119087Y-104344257D01*
X171821431Y-104344257D01*
X169178569Y-104344257D01*
G37*
G36*
X165046243Y-101737256D02*
G01*
X165046243Y-101935693D01*
X165364829Y-101935693D01*
X165459224Y-101942928D01*
X165546041Y-101964632D01*
X165625278Y-102000806D01*
X165694998Y-102050329D01*
X165753263Y-102112082D01*
X165800073Y-102186066D01*
X165834395Y-102270126D01*
X165855195Y-102362110D01*
X165862473Y-102462018D01*
X165862473Y-102534106D01*
X165855625Y-102636167D01*
X165835084Y-102729443D01*
X165800848Y-102813934D01*
X165753909Y-102887832D01*
X165695256Y-102949327D01*
X165977969Y-103064307D01*
X166408951Y-101935693D01*
X166539176Y-101935693D01*
X166970932Y-103064307D01*
X166818228Y-103064307D01*
X166710483Y-102769751D01*
X166237644Y-102769751D01*
X166131448Y-103064307D01*
X165977969Y-103064307D01*
X165695256Y-102949327D01*
X165624890Y-102998419D01*
X165544490Y-103034334D01*
X165455736Y-103056297D01*
X165358627Y-103064307D01*
X165046243Y-103064307D01*
X165046243Y-101935693D01*
X165046243Y-101737256D01*
X164847806Y-101737256D01*
X164773044Y-101740929D01*
X164699002Y-101751912D01*
X164626393Y-101770099D01*
X164555916Y-101795316D01*
X164488251Y-101827320D01*
X164424048Y-101865801D01*
X164363926Y-101910391D01*
X164308464Y-101960658D01*
X164258197Y-102016120D01*
X164213607Y-102076242D01*
X164175126Y-102140445D01*
X164143122Y-102208110D01*
X164117905Y-102278587D01*
X164099718Y-102351196D01*
X164088735Y-102425238D01*
X164085062Y-102500000D01*
X164088735Y-102574762D01*
X164099718Y-102648804D01*
X164117905Y-102721413D01*
X164143122Y-102791890D01*
X164175126Y-102859555D01*
X164213607Y-102923758D01*
X164258197Y-102983880D01*
X164308464Y-103039342D01*
X164363926Y-103089609D01*
X164424048Y-103134199D01*
X164488251Y-103172680D01*
X164555916Y-103204684D01*
X164626393Y-103229901D01*
X164699002Y-103248088D01*
X164773044Y-103259071D01*
X164847806Y-103262744D01*
X165046243Y-103262744D01*
X168953757Y-103262744D01*
X169152194Y-103262744D01*
X169226956Y-103259071D01*
X169300998Y-103248088D01*
X169373607Y-103229901D01*
X169444084Y-103204684D01*
X169511749Y-103172680D01*
X169575952Y-103134199D01*
X169636074Y-103089609D01*
X169691536Y-103039341D01*
X169741803Y-102983880D01*
X169786393Y-102923758D01*
X169824874Y-102859555D01*
X169856878Y-102791890D01*
X169882095Y-102721413D01*
X169900282Y-102648804D01*
X169911265Y-102574762D01*
X169914938Y-102500000D01*
X169911265Y-102425238D01*
X169900282Y-102351196D01*
X169882095Y-102278587D01*
X169856878Y-102208110D01*
X169824874Y-102140445D01*
X169786393Y-102076242D01*
X169741803Y-102016120D01*
X169691536Y-101960659D01*
X169636074Y-101910391D01*
X169575952Y-101865801D01*
X169511749Y-101827320D01*
X169444084Y-101795316D01*
X169373607Y-101770099D01*
X169300998Y-101751912D01*
X169226956Y-101740929D01*
X169152194Y-101737256D01*
X167902658Y-102058167D01*
X167539890Y-102058167D01*
X167960794Y-103064307D01*
X168391776Y-101935693D01*
X168522000Y-101935693D01*
X168953757Y-103064307D01*
X168801053Y-103064307D01*
X168693308Y-102769751D01*
X168220468Y-102769751D01*
X168114273Y-103064307D01*
X167960794Y-103064307D01*
X167539890Y-102058167D01*
X167539890Y-103064307D01*
X167391837Y-103064307D01*
X167391837Y-102058167D01*
X167029843Y-102058167D01*
X167029843Y-101935693D01*
X167902658Y-101935693D01*
X167902658Y-102058167D01*
X169152194Y-101737256D01*
X168953757Y-101737256D01*
X165046243Y-101737256D01*
G37*
G36*
X165195071Y-102058167D02*
G01*
X165195071Y-102942609D01*
X165351651Y-102942609D01*
X165457889Y-102930723D01*
X165547160Y-102895066D01*
X165619464Y-102835638D01*
X165672648Y-102754248D01*
X165704558Y-102652704D01*
X165715195Y-102531006D01*
X165715195Y-102465118D01*
X165705161Y-102346478D01*
X165675059Y-102246872D01*
X165624890Y-102166299D01*
X165556290Y-102106915D01*
X165470894Y-102070870D01*
X165368704Y-102058167D01*
X165195071Y-102058167D01*
G37*
G36*
X168265427Y-102647278D02*
G01*
X168649124Y-102647278D01*
X168456888Y-102119403D01*
X168265427Y-102647278D01*
G37*
G36*
X166282602Y-102647278D02*
G01*
X166666300Y-102647278D01*
X166474063Y-102119403D01*
X166282602Y-102647278D01*
G37*
G36*
X164042011Y-96721753D02*
G01*
X164257501Y-96984140D01*
X164368735Y-96936178D01*
X164496246Y-96920190D01*
X164608212Y-96931344D01*
X164704330Y-96964804D01*
X164784601Y-97020572D01*
X164846871Y-97096063D01*
X164888987Y-97188693D01*
X164910950Y-97298462D01*
X164761347Y-97298462D01*
X164730631Y-97182190D01*
X164677243Y-97103125D01*
X164599632Y-97057779D01*
X164496246Y-97042664D01*
X164408009Y-97054377D01*
X164333466Y-97089517D01*
X164272617Y-97148083D01*
X164227615Y-97228268D01*
X164200614Y-97328262D01*
X164191614Y-97448065D01*
X164191614Y-97557361D01*
X164200140Y-97671480D01*
X164225720Y-97768890D01*
X164268353Y-97849591D01*
X164326317Y-97909880D01*
X164397889Y-97946054D01*
X164483069Y-97958112D01*
X164592655Y-97944062D01*
X164673367Y-97901913D01*
X164728500Y-97824883D01*
X164761347Y-97706189D01*
X164910950Y-97706189D01*
X165114038Y-98064307D01*
X165114038Y-96935693D01*
X165263641Y-96935693D01*
X165263641Y-97942609D01*
X165987241Y-97827499D01*
X165955417Y-97742362D01*
X165935909Y-97648699D01*
X165928717Y-97546509D01*
X165928717Y-97465118D01*
X165935004Y-97360818D01*
X165953866Y-97264958D01*
X165985303Y-97177539D01*
X166053613Y-97067371D01*
X166145371Y-96986465D01*
X166256313Y-96936759D01*
X166382178Y-96920190D01*
X166509786Y-96936565D01*
X166621311Y-96985690D01*
X166712875Y-97065918D01*
X166780603Y-97175601D01*
X166811609Y-97263064D01*
X166830212Y-97359569D01*
X166836414Y-97465118D01*
X166836414Y-97536432D01*
X166830212Y-97642326D01*
X166811609Y-97738831D01*
X166780603Y-97825949D01*
X167088700Y-97858651D01*
X167051032Y-97768782D01*
X167028432Y-97666802D01*
X167020899Y-97552710D01*
X167020899Y-97444189D01*
X167027143Y-97343507D01*
X167045875Y-97251264D01*
X167077097Y-97167462D01*
X167145019Y-97061945D01*
X167236389Y-96984140D01*
X167347623Y-96936178D01*
X167475134Y-96920190D01*
X167587100Y-96931344D01*
X167683218Y-96964804D01*
X167763489Y-97020572D01*
X167825759Y-97096063D01*
X167867875Y-97188693D01*
X167889838Y-97298462D01*
X167740234Y-97298462D01*
X167709519Y-97182190D01*
X167656131Y-97103125D01*
X167578520Y-97057779D01*
X167475134Y-97042664D01*
X167386897Y-97054377D01*
X167312354Y-97089517D01*
X167251505Y-97148083D01*
X167206503Y-97228268D01*
X167179502Y-97328262D01*
X167170502Y-97448065D01*
X167170502Y-97557361D01*
X167179028Y-97671480D01*
X167204608Y-97768890D01*
X167247241Y-97849591D01*
X167305205Y-97909880D01*
X167376777Y-97946054D01*
X167461957Y-97958112D01*
X167571543Y-97944062D01*
X167652255Y-97901913D01*
X167707388Y-97824883D01*
X167740234Y-97706189D01*
X167889838Y-97706189D01*
X167865851Y-97816475D01*
X167821797Y-97908588D01*
X168092926Y-98064307D01*
X168092926Y-96935693D01*
X168241754Y-96935693D01*
X168241754Y-97493799D01*
X168743274Y-96935693D01*
X168923108Y-96935693D01*
X168478949Y-97434113D01*
X168957990Y-98064307D01*
X168779706Y-98064307D01*
X168379730Y-97539532D01*
X168241754Y-97682935D01*
X168241754Y-98064307D01*
X168092926Y-98064307D01*
X167821797Y-97908588D01*
X167757675Y-97982529D01*
X167675381Y-98036574D01*
X167576808Y-98069001D01*
X167461957Y-98079810D01*
X167337460Y-98063876D01*
X167230619Y-98016075D01*
X167141434Y-97936407D01*
X167088700Y-97858651D01*
X166780603Y-97825949D01*
X166713165Y-97934954D01*
X166622473Y-98014697D01*
X166511627Y-98063531D01*
X166383728Y-98079810D01*
X166257961Y-98063435D01*
X166147308Y-98014310D01*
X166055744Y-97934857D01*
X165987241Y-97827499D01*
X165263641Y-97942609D01*
X165798493Y-97942609D01*
X165798493Y-98064307D01*
X165114038Y-98064307D01*
X164910950Y-97706189D01*
X164886963Y-97816475D01*
X164842909Y-97908588D01*
X164778787Y-97982529D01*
X164696493Y-98036574D01*
X164597920Y-98069001D01*
X164483069Y-98079810D01*
X164358572Y-98063876D01*
X164251731Y-98016075D01*
X164162546Y-97936407D01*
X164109812Y-97858651D01*
X164072144Y-97768782D01*
X164049544Y-97666802D01*
X164042011Y-97552710D01*
X164042011Y-97444189D01*
X164048255Y-97343507D01*
X164066988Y-97251264D01*
X164098209Y-97167462D01*
X164166131Y-97061945D01*
X164257501Y-96984140D01*
X164042011Y-96721753D01*
X163843573Y-96721753D01*
X163767292Y-96725500D01*
X163691745Y-96736707D01*
X163617660Y-96755264D01*
X163545751Y-96780993D01*
X163476710Y-96813647D01*
X163411202Y-96852911D01*
X163349858Y-96898407D01*
X163293269Y-96949696D01*
X163241980Y-97006285D01*
X163196484Y-97067629D01*
X163157220Y-97133137D01*
X163124567Y-97202178D01*
X163098837Y-97274087D01*
X163080280Y-97348172D01*
X163069073Y-97423718D01*
X163065326Y-97500000D01*
X163069073Y-97576282D01*
X163080280Y-97651828D01*
X163098837Y-97725913D01*
X163124567Y-97797822D01*
X163157220Y-97866863D01*
X163196484Y-97932371D01*
X163241980Y-97993715D01*
X163293269Y-98050304D01*
X163349858Y-98101593D01*
X163411202Y-98147089D01*
X163476710Y-98186353D01*
X163545751Y-98219007D01*
X163617660Y-98244736D01*
X163691745Y-98263293D01*
X163767292Y-98274500D01*
X163843573Y-98278247D01*
X164042011Y-98278247D01*
X168957990Y-98278247D01*
X169156427Y-98278247D01*
X169232709Y-98274500D01*
X169308256Y-98263293D01*
X169382340Y-98244736D01*
X169454249Y-98219006D01*
X169523290Y-98186353D01*
X169588798Y-98147089D01*
X169650142Y-98101593D01*
X169706731Y-98050304D01*
X169758020Y-97993715D01*
X169803516Y-97932371D01*
X169842780Y-97866863D01*
X169875433Y-97797822D01*
X169901163Y-97725913D01*
X169919720Y-97651828D01*
X169930927Y-97576282D01*
X169934674Y-97500000D01*
X169930927Y-97423718D01*
X169919720Y-97348172D01*
X169901163Y-97274087D01*
X169875433Y-97202178D01*
X169842780Y-97133137D01*
X169803516Y-97067629D01*
X169758020Y-97006285D01*
X169706731Y-96949696D01*
X169650142Y-96898407D01*
X169588798Y-96852911D01*
X169523290Y-96813647D01*
X169454249Y-96780994D01*
X169382340Y-96755264D01*
X169308256Y-96736707D01*
X169232709Y-96725500D01*
X169156427Y-96721753D01*
X168957990Y-96721753D01*
X164042011Y-96721753D01*
G37*
G36*
X166688361Y-97463568D02*
G01*
X166679403Y-97340105D01*
X166652532Y-97237398D01*
X166607745Y-97155447D01*
X166546853Y-97095804D01*
X166471664Y-97060018D01*
X166382178Y-97048090D01*
X166294802Y-97060018D01*
X166220775Y-97095804D01*
X166160098Y-97155447D01*
X166114838Y-97236278D01*
X166087062Y-97335626D01*
X166076770Y-97453491D01*
X166076770Y-97536432D01*
X166085857Y-97656881D01*
X166113116Y-97758813D01*
X166158548Y-97842227D01*
X166219914Y-97904024D01*
X166294974Y-97941101D01*
X166383728Y-97953461D01*
X166472612Y-97941790D01*
X166547026Y-97906780D01*
X166606970Y-97848428D01*
X166651154Y-97768287D01*
X166678284Y-97667905D01*
X166688361Y-97547284D01*
X166688361Y-97463568D01*
G37*
D13*
X160522936Y-100765000D02*
X160977064Y-100765000D01*
X160522936Y-102235000D02*
X160977064Y-102235000D01*
X165985000Y-94272936D02*
X165985000Y-94727064D01*
X164515000Y-94272936D02*
X164515000Y-94727064D01*
X156772936Y-100765000D02*
X157227064Y-100765000D01*
X156772936Y-102235000D02*
X157227064Y-102235000D01*
X156985000Y-94272936D02*
X156985000Y-94727064D01*
X155515000Y-94272936D02*
X155515000Y-94727064D01*
X161510000Y-100080000D02*
X161510000Y-99150000D01*
X161510000Y-96920000D02*
X161510000Y-97850000D01*
X161510000Y-96920000D02*
X159350000Y-96920000D01*
X161510000Y-100080000D02*
X160050000Y-100080000D01*
X157760000Y-100080000D02*
X157760000Y-99150000D01*
X157760000Y-96920000D02*
X157760000Y-97850000D01*
X157760000Y-96920000D02*
X155600000Y-96920000D01*
X157760000Y-100080000D02*
X156300000Y-100080000D01*
X149500000Y-122060000D02*
X151450000Y-122060000D01*
X149500000Y-122060000D02*
X147550000Y-122060000D01*
X149500000Y-116940000D02*
X151450000Y-116940000D01*
X149500000Y-116940000D02*
X146050000Y-116940000D01*
X149500000Y-115060000D02*
X151450000Y-115060000D01*
X149500000Y-115060000D02*
X147550000Y-115060000D01*
X149500000Y-109940000D02*
X151450000Y-109940000D01*
X149500000Y-109940000D02*
X146050000Y-109940000D01*
X149500000Y-108060000D02*
X151450000Y-108060000D01*
X149500000Y-108060000D02*
X147550000Y-108060000D01*
X149500000Y-102940000D02*
X151450000Y-102940000D01*
X149500000Y-102940000D02*
X146050000Y-102940000D01*
X137012652Y-82428445D02*
X136500000Y-82941097D01*
X136500000Y-82941097D02*
X135987348Y-82428445D01*
X135987348Y-76071555D02*
X136500000Y-75558903D01*
X136500000Y-75558903D02*
X137012652Y-76071555D01*
X133321555Y-78737348D02*
X132808903Y-79250000D01*
X132808903Y-79250000D02*
X133321555Y-79762652D01*
X139678445Y-79762652D02*
X140191097Y-79250000D01*
X151880000Y-67130000D02*
X168120000Y-67130000D01*
X168120000Y-67130000D02*
X168120000Y-74750000D01*
X168120000Y-90750000D02*
X168120000Y-91370000D01*
X168120000Y-91370000D02*
X166000000Y-91370000D01*
X154000000Y-91370000D02*
X151880000Y-91370000D01*
X151880000Y-91370000D02*
X151880000Y-90750000D01*
X151880000Y-74750000D02*
X151880000Y-67130000D01*
X151880000Y-74750000D02*
X151270000Y-74750000D01*
X128440000Y-93750000D02*
X128440000Y-95700000D01*
X128440000Y-93750000D02*
X128440000Y-91800000D01*
X133560000Y-93750000D02*
X133560000Y-95700000D01*
X133560000Y-93750000D02*
X133560000Y-90300000D01*
X135340000Y-90910000D02*
X136600000Y-90910000D01*
X142160000Y-90910000D02*
X140900000Y-90910000D01*
X135340000Y-87150000D02*
X135340000Y-90910000D01*
X142160000Y-84900000D02*
X142160000Y-90910000D01*
X141410000Y-100660000D02*
X141410000Y-99400000D01*
X141410000Y-93840000D02*
X141410000Y-95100000D01*
X137650000Y-100660000D02*
X141410000Y-100660000D01*
X135400000Y-93840000D02*
X141410000Y-93840000D01*
X172850000Y-79150000D02*
X173150000Y-79150000D01*
X173150000Y-79150000D02*
X173150000Y-75850000D01*
X173150000Y-75850000D02*
X172850000Y-75850000D01*
X170650000Y-79150000D02*
X170350000Y-79150000D01*
X170350000Y-79150000D02*
X170350000Y-75850000D01*
X170350000Y-75850000D02*
X170650000Y-75850000D01*
X145350000Y-78650000D02*
X145650000Y-78650000D01*
X145650000Y-78650000D02*
X145650000Y-75350000D01*
X145650000Y-75350000D02*
X145350000Y-75350000D01*
X143150000Y-78650000D02*
X142850000Y-78650000D01*
X142850000Y-78650000D02*
X142850000Y-75350000D01*
X142850000Y-75350000D02*
X143150000Y-75350000D01*
X155477064Y-122485000D02*
X155022936Y-122485000D01*
X155477064Y-121015000D02*
X155022936Y-121015000D01*
X159227064Y-122485000D02*
X158772936Y-122485000D01*
X159227064Y-121015000D02*
X158772936Y-121015000D01*
X155477064Y-115485000D02*
X155022936Y-115485000D01*
X155477064Y-114015000D02*
X155022936Y-114015000D01*
X159227064Y-115485000D02*
X158772936Y-115485000D01*
X159227064Y-114015000D02*
X158772936Y-114015000D01*
X155477064Y-108485000D02*
X155022936Y-108485000D01*
X155477064Y-107015000D02*
X155022936Y-107015000D01*
X159227064Y-108485000D02*
X158772936Y-108485000D01*
X159227064Y-107015000D02*
X158772936Y-107015000D01*
X148227064Y-85985000D02*
X147772936Y-85985000D01*
X148227064Y-84515000D02*
X147772936Y-84515000D01*
X151477064Y-95235000D02*
X151022936Y-95235000D01*
X151477064Y-93765000D02*
X151022936Y-93765000D01*
X151022936Y-99765000D02*
X151477064Y-99765000D01*
X151022936Y-101235000D02*
X151477064Y-101235000D01*
X171522936Y-80515000D02*
X171977064Y-80515000D01*
X171522936Y-81985000D02*
X171977064Y-81985000D01*
X131772936Y-85515000D02*
X132227064Y-85515000D01*
X131772936Y-86985000D02*
X132227064Y-86985000D01*
X148227064Y-76985000D02*
X147772936Y-76985000D01*
X148227064Y-75515000D02*
X147772936Y-75515000D01*
X144477064Y-83735000D02*
X144022936Y-83735000D01*
X144477064Y-82265000D02*
X144022936Y-82265000D01*
X131235000Y-99610436D02*
X131235000Y-100064564D01*
X129765000Y-99610436D02*
X129765000Y-100064564D01*
X133485000Y-99610436D02*
X133485000Y-100064564D01*
X132015000Y-99610436D02*
X132015000Y-100064564D01*
X163735000Y-94272936D02*
X163735000Y-94727064D01*
X162265000Y-94272936D02*
X162265000Y-94727064D01*
X148227064Y-81485000D02*
X147772936Y-81485000D01*
X148227064Y-80015000D02*
X147772936Y-80015000D01*
X148227064Y-83735000D02*
X147772936Y-83735000D01*
X148227064Y-82265000D02*
X147772936Y-82265000D01*
X161485000Y-94272936D02*
X161485000Y-94727064D01*
X160015000Y-94272936D02*
X160015000Y-94727064D01*
X159235000Y-94272936D02*
X159235000Y-94727064D01*
X157765000Y-94272936D02*
X157765000Y-94727064D01*
X126895000Y-87973737D02*
X126895000Y-86526263D01*
X129605000Y-87973737D02*
X129605000Y-86526263D01*
X154010000Y-99080000D02*
X154010000Y-98150000D01*
X154010000Y-95920000D02*
X154010000Y-96850000D01*
X154010000Y-95920000D02*
X151850000Y-95920000D01*
X154010000Y-99080000D02*
X152550000Y-99080000D01*
X148490000Y-95920000D02*
X148490000Y-96850000D01*
X148490000Y-99080000D02*
X148490000Y-98150000D01*
X148490000Y-99080000D02*
X150650000Y-99080000D01*
X148490000Y-95920000D02*
X149950000Y-95920000D01*
X143340000Y-120335242D02*
X143340000Y-118664758D01*
X145160000Y-120335242D02*
X145160000Y-118664758D01*
X143340000Y-113335242D02*
X143340000Y-111664758D01*
X145160000Y-113335242D02*
X145160000Y-111664758D01*
X143340000Y-106335242D02*
X143340000Y-104664758D01*
X145160000Y-106335242D02*
X145160000Y-104664758D01*
X128960000Y-81810000D02*
X128960000Y-81430000D01*
X124910000Y-81810000D02*
X124650000Y-81810000D01*
X128960000Y-81810000D02*
X127190000Y-81810000D01*
X128960000Y-74190000D02*
X128960000Y-74570000D01*
X127190000Y-74190000D02*
X128960000Y-74190000D01*
X124650000Y-74190000D02*
X124910000Y-74190000D01*
X143230000Y-81710000D02*
X145915000Y-81710000D01*
X145915000Y-81710000D02*
X145915000Y-79790000D01*
X145915000Y-79790000D02*
X143230000Y-79790000D01*
X125790000Y-91000000D02*
X125790000Y-93685000D01*
X125790000Y-93685000D02*
X127710000Y-93685000D01*
X127710000Y-93685000D02*
X127710000Y-91000000D01*
X125790000Y-94750000D02*
X125790000Y-97435000D01*
X125790000Y-97435000D02*
X127710000Y-97435000D01*
X127710000Y-97435000D02*
X127710000Y-94750000D01*
X159985000Y-118238748D02*
X159985000Y-118761252D01*
X158515000Y-118238748D02*
X158515000Y-118761252D01*
X159985000Y-111238748D02*
X159985000Y-111761252D01*
X158515000Y-111238748D02*
X158515000Y-111761252D01*
X155485000Y-104288748D02*
X155485000Y-104811252D01*
X154015000Y-104288748D02*
X154015000Y-104811252D01*
X157735000Y-118238748D02*
X157735000Y-118761252D01*
X156265000Y-118238748D02*
X156265000Y-118761252D01*
X157735000Y-111238748D02*
X157735000Y-111761252D01*
X156265000Y-111238748D02*
X156265000Y-111761252D01*
X157735000Y-104288748D02*
X157735000Y-104811252D01*
X156265000Y-104288748D02*
X156265000Y-104811252D01*
X155485000Y-118238748D02*
X155485000Y-118761252D01*
X154015000Y-118238748D02*
X154015000Y-118761252D01*
X155485000Y-111238748D02*
X155485000Y-111761252D01*
X154015000Y-111238748D02*
X154015000Y-111761252D01*
X159985000Y-104288748D02*
X159985000Y-104811252D01*
X158515000Y-104288748D02*
X158515000Y-104811252D01*
X141015000Y-119761252D02*
X141015000Y-119238748D01*
X142485000Y-119761252D02*
X142485000Y-119238748D01*
X141015000Y-112761252D02*
X141015000Y-112238748D01*
X142485000Y-112761252D02*
X142485000Y-112238748D01*
X138765000Y-105761252D02*
X138765000Y-105238748D01*
X140235000Y-105761252D02*
X140235000Y-105238748D01*
X138765000Y-119761252D02*
X138765000Y-119238748D01*
X140235000Y-119761252D02*
X140235000Y-119238748D01*
X138765000Y-112761252D02*
X138765000Y-112238748D01*
X140235000Y-112761252D02*
X140235000Y-112238748D01*
X141015000Y-105761252D02*
X141015000Y-105238748D01*
X142485000Y-105761252D02*
X142485000Y-105238748D01*
X139334990Y-74045543D02*
X139704457Y-74415010D01*
X138295543Y-75084990D02*
X138665010Y-75454457D01*
X141084990Y-72295543D02*
X141454457Y-72665010D01*
X140045543Y-73334990D02*
X140415010Y-73704457D01*
X148515000Y-91261252D02*
X148515000Y-90738748D01*
X149985000Y-91261252D02*
X149985000Y-90738748D01*
X134545543Y-73665010D02*
X134915010Y-73295543D01*
X135584990Y-74704457D02*
X135954457Y-74334990D01*
X133204457Y-77084990D02*
X132834990Y-77454457D01*
X132165010Y-76045543D02*
X131795543Y-76415010D01*
X128985000Y-99488748D02*
X128985000Y-100011252D01*
X127515000Y-99488748D02*
X127515000Y-100011252D01*
X143015000Y-87011252D02*
X143015000Y-86488748D01*
X144485000Y-87011252D02*
X144485000Y-86488748D01*
X146235000Y-94988748D02*
X146235000Y-95511252D01*
X144765000Y-94988748D02*
X144765000Y-95511252D01*
X133261252Y-84485000D02*
X132738748Y-84485000D01*
X133261252Y-83015000D02*
X132738748Y-83015000D01*
X148261252Y-79235000D02*
X147738748Y-79235000D01*
X148261252Y-77765000D02*
X147738748Y-77765000D01*
X144765000Y-99261252D02*
X144765000Y-98738748D01*
X146235000Y-99261252D02*
X146235000Y-98738748D01*
X131738748Y-87765000D02*
X132261252Y-87765000D01*
X131738748Y-89235000D02*
X132261252Y-89235000D01*
D10*
X160107142Y-101952380D02*
X159773809Y-101476190D01*
X159535714Y-101952380D02*
X159535714Y-100952380D01*
X159916666Y-100952380D01*
X160011904Y-101000000D01*
X160059523Y-101047619D01*
X160107142Y-101142857D01*
X160107142Y-101285714D01*
X160059523Y-101380952D01*
X160011904Y-101428571D01*
X159916666Y-101476190D01*
X159535714Y-101476190D01*
X160488095Y-101047619D02*
X160535714Y-101000000D01*
X160630952Y-100952380D01*
X160869047Y-100952380D01*
X160964285Y-101000000D01*
X161011904Y-101047619D01*
X161059523Y-101142857D01*
X161059523Y-101238095D01*
X161011904Y-101380952D01*
X160440476Y-101952380D01*
X161059523Y-101952380D01*
X161964285Y-100952380D02*
X161488095Y-100952380D01*
X161440476Y-101428571D01*
X161488095Y-101380952D01*
X161583333Y-101333333D01*
X161821428Y-101333333D01*
X161916666Y-101380952D01*
X161964285Y-101428571D01*
X162011904Y-101523809D01*
X162011904Y-101761904D01*
X161964285Y-101857142D01*
X161916666Y-101904761D01*
X161821428Y-101952380D01*
X161583333Y-101952380D01*
X161488095Y-101904761D01*
X161440476Y-101857142D01*
X165702380Y-95142857D02*
X165226190Y-95476190D01*
X165702380Y-95714285D02*
X164702380Y-95714285D01*
X164702380Y-95333333D01*
X164750000Y-95238095D01*
X164797619Y-95190476D01*
X164892857Y-95142857D01*
X165035714Y-95142857D01*
X165130952Y-95190476D01*
X165178571Y-95238095D01*
X165226190Y-95333333D01*
X165226190Y-95714285D01*
X164797619Y-94761904D02*
X164750000Y-94714285D01*
X164702380Y-94619047D01*
X164702380Y-94380952D01*
X164750000Y-94285714D01*
X164797619Y-94238095D01*
X164892857Y-94190476D01*
X164988095Y-94190476D01*
X165130952Y-94238095D01*
X165702380Y-94809523D01*
X165702380Y-94190476D01*
X165035714Y-93333333D02*
X165702380Y-93333333D01*
X164654761Y-93571428D02*
X165369047Y-93809523D01*
X165369047Y-93190476D01*
X156357142Y-101952380D02*
X156023809Y-101476190D01*
X155785714Y-101952380D02*
X155785714Y-100952380D01*
X156166666Y-100952380D01*
X156261904Y-101000000D01*
X156309523Y-101047619D01*
X156357142Y-101142857D01*
X156357142Y-101285714D01*
X156309523Y-101380952D01*
X156261904Y-101428571D01*
X156166666Y-101476190D01*
X155785714Y-101476190D01*
X156738095Y-101047619D02*
X156785714Y-101000000D01*
X156880952Y-100952380D01*
X157119047Y-100952380D01*
X157214285Y-101000000D01*
X157261904Y-101047619D01*
X157309523Y-101142857D01*
X157309523Y-101238095D01*
X157261904Y-101380952D01*
X156690476Y-101952380D01*
X157309523Y-101952380D01*
X157642857Y-100952380D02*
X158261904Y-100952380D01*
X157928571Y-101333333D01*
X158071428Y-101333333D01*
X158166666Y-101380952D01*
X158214285Y-101428571D01*
X158261904Y-101523809D01*
X158261904Y-101761904D01*
X158214285Y-101857142D01*
X158166666Y-101904761D01*
X158071428Y-101952380D01*
X157785714Y-101952380D01*
X157690476Y-101904761D01*
X157642857Y-101857142D01*
X156702380Y-95142857D02*
X156226190Y-95476190D01*
X156702380Y-95714285D02*
X155702380Y-95714285D01*
X155702380Y-95333333D01*
X155750000Y-95238095D01*
X155797619Y-95190476D01*
X155892857Y-95142857D01*
X156035714Y-95142857D01*
X156130952Y-95190476D01*
X156178571Y-95238095D01*
X156226190Y-95333333D01*
X156226190Y-95714285D01*
X155797619Y-94761904D02*
X155750000Y-94714285D01*
X155702380Y-94619047D01*
X155702380Y-94380952D01*
X155750000Y-94285714D01*
X155797619Y-94238095D01*
X155892857Y-94190476D01*
X155988095Y-94190476D01*
X156130952Y-94238095D01*
X156702380Y-94809523D01*
X156702380Y-94190476D01*
X155797619Y-93809523D02*
X155750000Y-93761904D01*
X155702380Y-93666666D01*
X155702380Y-93428571D01*
X155750000Y-93333333D01*
X155797619Y-93285714D01*
X155892857Y-93238095D01*
X155988095Y-93238095D01*
X156130952Y-93285714D01*
X156702380Y-93857142D01*
X156702380Y-93238095D01*
X160654761Y-99047619D02*
X160559523Y-99000000D01*
X160464285Y-98904761D01*
X160321428Y-98761904D01*
X160226190Y-98714285D01*
X160130952Y-98714285D01*
X160178571Y-98952380D02*
X160083333Y-98904761D01*
X159988095Y-98809523D01*
X159940476Y-98619047D01*
X159940476Y-98285714D01*
X159988095Y-98095238D01*
X160083333Y-98000000D01*
X160178571Y-97952380D01*
X160369047Y-97952380D01*
X160464285Y-98000000D01*
X160559523Y-98095238D01*
X160607142Y-98285714D01*
X160607142Y-98619047D01*
X160559523Y-98809523D01*
X160464285Y-98904761D01*
X160369047Y-98952380D01*
X160178571Y-98952380D01*
X161464285Y-98285714D02*
X161464285Y-98952380D01*
X161226190Y-97904761D02*
X160988095Y-98619047D01*
X161607142Y-98619047D01*
X156904761Y-99047619D02*
X156809523Y-99000000D01*
X156714285Y-98904761D01*
X156571428Y-98761904D01*
X156476190Y-98714285D01*
X156380952Y-98714285D01*
X156428571Y-98952380D02*
X156333333Y-98904761D01*
X156238095Y-98809523D01*
X156190476Y-98619047D01*
X156190476Y-98285714D01*
X156238095Y-98095238D01*
X156333333Y-98000000D01*
X156428571Y-97952380D01*
X156619047Y-97952380D01*
X156714285Y-98000000D01*
X156809523Y-98095238D01*
X156857142Y-98285714D01*
X156857142Y-98619047D01*
X156809523Y-98809523D01*
X156714285Y-98904761D01*
X156619047Y-98952380D01*
X156428571Y-98952380D01*
X157190476Y-97952380D02*
X157809523Y-97952380D01*
X157476190Y-98333333D01*
X157619047Y-98333333D01*
X157714285Y-98380952D01*
X157761904Y-98428571D01*
X157809523Y-98523809D01*
X157809523Y-98761904D01*
X157761904Y-98857142D01*
X157714285Y-98904761D01*
X157619047Y-98952380D01*
X157333333Y-98952380D01*
X157238095Y-98904761D01*
X157190476Y-98857142D01*
X148738095Y-118952380D02*
X148738095Y-119761904D01*
X148785714Y-119857142D01*
X148833333Y-119904761D01*
X148928571Y-119952380D01*
X149119047Y-119952380D01*
X149214285Y-119904761D01*
X149261904Y-119857142D01*
X149309523Y-119761904D01*
X149309523Y-118952380D01*
X149928571Y-119380952D02*
X149833333Y-119333333D01*
X149785714Y-119285714D01*
X149738095Y-119190476D01*
X149738095Y-119142857D01*
X149785714Y-119047619D01*
X149833333Y-119000000D01*
X149928571Y-118952380D01*
X150119047Y-118952380D01*
X150214285Y-119000000D01*
X150261904Y-119047619D01*
X150309523Y-119142857D01*
X150309523Y-119190476D01*
X150261904Y-119285714D01*
X150214285Y-119333333D01*
X150119047Y-119380952D01*
X149928571Y-119380952D01*
X149833333Y-119428571D01*
X149785714Y-119476190D01*
X149738095Y-119571428D01*
X149738095Y-119761904D01*
X149785714Y-119857142D01*
X149833333Y-119904761D01*
X149928571Y-119952380D01*
X150119047Y-119952380D01*
X150214285Y-119904761D01*
X150261904Y-119857142D01*
X150309523Y-119761904D01*
X150309523Y-119571428D01*
X150261904Y-119476190D01*
X150214285Y-119428571D01*
X150119047Y-119380952D01*
X148738095Y-111952380D02*
X148738095Y-112761904D01*
X148785714Y-112857142D01*
X148833333Y-112904761D01*
X148928571Y-112952380D01*
X149119047Y-112952380D01*
X149214285Y-112904761D01*
X149261904Y-112857142D01*
X149309523Y-112761904D01*
X149309523Y-111952380D01*
X149690476Y-111952380D02*
X150357142Y-111952380D01*
X149928571Y-112952380D01*
X148738095Y-104952380D02*
X148738095Y-105761904D01*
X148785714Y-105857142D01*
X148833333Y-105904761D01*
X148928571Y-105952380D01*
X149119047Y-105952380D01*
X149214285Y-105904761D01*
X149261904Y-105857142D01*
X149309523Y-105761904D01*
X149309523Y-104952380D01*
X150214285Y-104952380D02*
X150023809Y-104952380D01*
X149928571Y-105000000D01*
X149880952Y-105047619D01*
X149785714Y-105190476D01*
X149738095Y-105380952D01*
X149738095Y-105761904D01*
X149785714Y-105857142D01*
X149833333Y-105904761D01*
X149928571Y-105952380D01*
X150119047Y-105952380D01*
X150214285Y-105904761D01*
X150261904Y-105857142D01*
X150309523Y-105761904D01*
X150309523Y-105523809D01*
X150261904Y-105428571D01*
X150214285Y-105380952D01*
X150119047Y-105333333D01*
X149928571Y-105333333D01*
X149833333Y-105380952D01*
X149785714Y-105428571D01*
X149738095Y-105523809D01*
X135574026Y-79401522D02*
X136146446Y-79973942D01*
X136247461Y-80007614D01*
X136314805Y-80007614D01*
X136415820Y-79973942D01*
X136550507Y-79839255D01*
X136584179Y-79738240D01*
X136584179Y-79670896D01*
X136550507Y-79569881D01*
X135978087Y-78997461D01*
X136651522Y-78324026D02*
X136314805Y-78660744D01*
X136617851Y-79031133D01*
X136617851Y-78963790D01*
X136651522Y-78862774D01*
X136819881Y-78694416D01*
X136920896Y-78660744D01*
X136988240Y-78660744D01*
X137089255Y-78694416D01*
X137257614Y-78862774D01*
X137291286Y-78963790D01*
X137291286Y-79031133D01*
X137257614Y-79132148D01*
X137089255Y-79300507D01*
X136988240Y-79334179D01*
X136920896Y-79334179D01*
X159238095Y-78702380D02*
X159238095Y-79511904D01*
X159285714Y-79607142D01*
X159333333Y-79654761D01*
X159428571Y-79702380D01*
X159619047Y-79702380D01*
X159714285Y-79654761D01*
X159761904Y-79607142D01*
X159809523Y-79511904D01*
X159809523Y-78702380D01*
X160714285Y-79035714D02*
X160714285Y-79702380D01*
X160476190Y-78654761D02*
X160238095Y-79369047D01*
X160857142Y-79369047D01*
X130452380Y-94511904D02*
X131261904Y-94511904D01*
X131357142Y-94464285D01*
X131404761Y-94416666D01*
X131452380Y-94321428D01*
X131452380Y-94130952D01*
X131404761Y-94035714D01*
X131357142Y-93988095D01*
X131261904Y-93940476D01*
X130452380Y-93940476D01*
X130452380Y-93559523D02*
X130452380Y-92940476D01*
X130833333Y-93273809D01*
X130833333Y-93130952D01*
X130880952Y-93035714D01*
X130928571Y-92988095D01*
X131023809Y-92940476D01*
X131261904Y-92940476D01*
X131357142Y-92988095D01*
X131404761Y-93035714D01*
X131452380Y-93130952D01*
X131452380Y-93416666D01*
X131404761Y-93511904D01*
X131357142Y-93559523D01*
X138202380Y-89761904D02*
X139011904Y-89761904D01*
X139107142Y-89714285D01*
X139154761Y-89666666D01*
X139202380Y-89571428D01*
X139202380Y-89380952D01*
X139154761Y-89285714D01*
X139107142Y-89238095D01*
X139011904Y-89190476D01*
X138202380Y-89190476D01*
X138297619Y-88761904D02*
X138250000Y-88714285D01*
X138202380Y-88619047D01*
X138202380Y-88380952D01*
X138250000Y-88285714D01*
X138297619Y-88238095D01*
X138392857Y-88190476D01*
X138488095Y-88190476D01*
X138630952Y-88238095D01*
X139202380Y-88809523D01*
X139202380Y-88190476D01*
X138738095Y-96702380D02*
X138738095Y-97511904D01*
X138785714Y-97607142D01*
X138833333Y-97654761D01*
X138928571Y-97702380D01*
X139119047Y-97702380D01*
X139214285Y-97654761D01*
X139261904Y-97607142D01*
X139309523Y-97511904D01*
X139309523Y-96702380D01*
X140309523Y-97702380D02*
X139738095Y-97702380D01*
X140023809Y-97702380D02*
X140023809Y-96702380D01*
X139928571Y-96845238D01*
X139833333Y-96940476D01*
X139738095Y-96988095D01*
X172154761Y-78833333D02*
X172202380Y-78690476D01*
X172202380Y-78452380D01*
X172154761Y-78357142D01*
X172107142Y-78309523D01*
X172011904Y-78261904D01*
X171916666Y-78261904D01*
X171821428Y-78309523D01*
X171773809Y-78357142D01*
X171726190Y-78452380D01*
X171678571Y-78642857D01*
X171630952Y-78738095D01*
X171583333Y-78785714D01*
X171488095Y-78833333D01*
X171392857Y-78833333D01*
X171297619Y-78785714D01*
X171250000Y-78738095D01*
X171202380Y-78642857D01*
X171202380Y-78404761D01*
X171250000Y-78261904D01*
X171202380Y-77928571D02*
X172202380Y-77690476D01*
X171488095Y-77500000D01*
X172202380Y-77309523D01*
X171202380Y-77071428D01*
X171297619Y-76738095D02*
X171250000Y-76690476D01*
X171202380Y-76595238D01*
X171202380Y-76357142D01*
X171250000Y-76261904D01*
X171297619Y-76214285D01*
X171392857Y-76166666D01*
X171488095Y-76166666D01*
X171630952Y-76214285D01*
X172202380Y-76785714D01*
X172202380Y-76166666D01*
X144654761Y-78333333D02*
X144702380Y-78190476D01*
X144702380Y-77952380D01*
X144654761Y-77857142D01*
X144607142Y-77809523D01*
X144511904Y-77761904D01*
X144416666Y-77761904D01*
X144321428Y-77809523D01*
X144273809Y-77857142D01*
X144226190Y-77952380D01*
X144178571Y-78142857D01*
X144130952Y-78238095D01*
X144083333Y-78285714D01*
X143988095Y-78333333D01*
X143892857Y-78333333D01*
X143797619Y-78285714D01*
X143750000Y-78238095D01*
X143702380Y-78142857D01*
X143702380Y-77904761D01*
X143750000Y-77761904D01*
X143702380Y-77428571D02*
X144702380Y-77190476D01*
X143988095Y-77000000D01*
X144702380Y-76809523D01*
X143702380Y-76571428D01*
X144702380Y-75666666D02*
X144702380Y-76238095D01*
X144702380Y-75952380D02*
X143702380Y-75952380D01*
X143845238Y-76047619D01*
X143940476Y-76142857D01*
X143988095Y-76238095D01*
X154607142Y-122202380D02*
X154273809Y-121726190D01*
X154035714Y-122202380D02*
X154035714Y-121202380D01*
X154416666Y-121202380D01*
X154511904Y-121250000D01*
X154559523Y-121297619D01*
X154607142Y-121392857D01*
X154607142Y-121535714D01*
X154559523Y-121630952D01*
X154511904Y-121678571D01*
X154416666Y-121726190D01*
X154035714Y-121726190D01*
X154988095Y-121297619D02*
X155035714Y-121250000D01*
X155130952Y-121202380D01*
X155369047Y-121202380D01*
X155464285Y-121250000D01*
X155511904Y-121297619D01*
X155559523Y-121392857D01*
X155559523Y-121488095D01*
X155511904Y-121630952D01*
X154940476Y-122202380D01*
X155559523Y-122202380D01*
X156511904Y-122202380D02*
X155940476Y-122202380D01*
X156226190Y-122202380D02*
X156226190Y-121202380D01*
X156130952Y-121345238D01*
X156035714Y-121440476D01*
X155940476Y-121488095D01*
X158357142Y-122202380D02*
X158023809Y-121726190D01*
X157785714Y-122202380D02*
X157785714Y-121202380D01*
X158166666Y-121202380D01*
X158261904Y-121250000D01*
X158309523Y-121297619D01*
X158357142Y-121392857D01*
X158357142Y-121535714D01*
X158309523Y-121630952D01*
X158261904Y-121678571D01*
X158166666Y-121726190D01*
X157785714Y-121726190D01*
X158738095Y-121297619D02*
X158785714Y-121250000D01*
X158880952Y-121202380D01*
X159119047Y-121202380D01*
X159214285Y-121250000D01*
X159261904Y-121297619D01*
X159309523Y-121392857D01*
X159309523Y-121488095D01*
X159261904Y-121630952D01*
X158690476Y-122202380D01*
X159309523Y-122202380D01*
X159928571Y-121202380D02*
X160023809Y-121202380D01*
X160119047Y-121250000D01*
X160166666Y-121297619D01*
X160214285Y-121392857D01*
X160261904Y-121583333D01*
X160261904Y-121821428D01*
X160214285Y-122011904D01*
X160166666Y-122107142D01*
X160119047Y-122154761D01*
X160023809Y-122202380D01*
X159928571Y-122202380D01*
X159833333Y-122154761D01*
X159785714Y-122107142D01*
X159738095Y-122011904D01*
X159690476Y-121821428D01*
X159690476Y-121583333D01*
X159738095Y-121392857D01*
X159785714Y-121297619D01*
X159833333Y-121250000D01*
X159928571Y-121202380D01*
X154607142Y-115202380D02*
X154273809Y-114726190D01*
X154035714Y-115202380D02*
X154035714Y-114202380D01*
X154416666Y-114202380D01*
X154511904Y-114250000D01*
X154559523Y-114297619D01*
X154607142Y-114392857D01*
X154607142Y-114535714D01*
X154559523Y-114630952D01*
X154511904Y-114678571D01*
X154416666Y-114726190D01*
X154035714Y-114726190D01*
X155559523Y-115202380D02*
X154988095Y-115202380D01*
X155273809Y-115202380D02*
X155273809Y-114202380D01*
X155178571Y-114345238D01*
X155083333Y-114440476D01*
X154988095Y-114488095D01*
X156035714Y-115202380D02*
X156226190Y-115202380D01*
X156321428Y-115154761D01*
X156369047Y-115107142D01*
X156464285Y-114964285D01*
X156511904Y-114773809D01*
X156511904Y-114392857D01*
X156464285Y-114297619D01*
X156416666Y-114250000D01*
X156321428Y-114202380D01*
X156130952Y-114202380D01*
X156035714Y-114250000D01*
X155988095Y-114297619D01*
X155940476Y-114392857D01*
X155940476Y-114630952D01*
X155988095Y-114726190D01*
X156035714Y-114773809D01*
X156130952Y-114821428D01*
X156321428Y-114821428D01*
X156416666Y-114773809D01*
X156464285Y-114726190D01*
X156511904Y-114630952D01*
X158357142Y-115202380D02*
X158023809Y-114726190D01*
X157785714Y-115202380D02*
X157785714Y-114202380D01*
X158166666Y-114202380D01*
X158261904Y-114250000D01*
X158309523Y-114297619D01*
X158357142Y-114392857D01*
X158357142Y-114535714D01*
X158309523Y-114630952D01*
X158261904Y-114678571D01*
X158166666Y-114726190D01*
X157785714Y-114726190D01*
X159309523Y-115202380D02*
X158738095Y-115202380D01*
X159023809Y-115202380D02*
X159023809Y-114202380D01*
X158928571Y-114345238D01*
X158833333Y-114440476D01*
X158738095Y-114488095D01*
X159880952Y-114630952D02*
X159785714Y-114583333D01*
X159738095Y-114535714D01*
X159690476Y-114440476D01*
X159690476Y-114392857D01*
X159738095Y-114297619D01*
X159785714Y-114250000D01*
X159880952Y-114202380D01*
X160071428Y-114202380D01*
X160166666Y-114250000D01*
X160214285Y-114297619D01*
X160261904Y-114392857D01*
X160261904Y-114440476D01*
X160214285Y-114535714D01*
X160166666Y-114583333D01*
X160071428Y-114630952D01*
X159880952Y-114630952D01*
X159785714Y-114678571D01*
X159738095Y-114726190D01*
X159690476Y-114821428D01*
X159690476Y-115011904D01*
X159738095Y-115107142D01*
X159785714Y-115154761D01*
X159880952Y-115202380D01*
X160071428Y-115202380D01*
X160166666Y-115154761D01*
X160214285Y-115107142D01*
X160261904Y-115011904D01*
X160261904Y-114821428D01*
X160214285Y-114726190D01*
X160166666Y-114678571D01*
X160071428Y-114630952D01*
X154607142Y-108202380D02*
X154273809Y-107726190D01*
X154035714Y-108202380D02*
X154035714Y-107202380D01*
X154416666Y-107202380D01*
X154511904Y-107250000D01*
X154559523Y-107297619D01*
X154607142Y-107392857D01*
X154607142Y-107535714D01*
X154559523Y-107630952D01*
X154511904Y-107678571D01*
X154416666Y-107726190D01*
X154035714Y-107726190D01*
X155559523Y-108202380D02*
X154988095Y-108202380D01*
X155273809Y-108202380D02*
X155273809Y-107202380D01*
X155178571Y-107345238D01*
X155083333Y-107440476D01*
X154988095Y-107488095D01*
X155892857Y-107202380D02*
X156559523Y-107202380D01*
X156130952Y-108202380D01*
X158357142Y-108202380D02*
X158023809Y-107726190D01*
X157785714Y-108202380D02*
X157785714Y-107202380D01*
X158166666Y-107202380D01*
X158261904Y-107250000D01*
X158309523Y-107297619D01*
X158357142Y-107392857D01*
X158357142Y-107535714D01*
X158309523Y-107630952D01*
X158261904Y-107678571D01*
X158166666Y-107726190D01*
X157785714Y-107726190D01*
X159309523Y-108202380D02*
X158738095Y-108202380D01*
X159023809Y-108202380D02*
X159023809Y-107202380D01*
X158928571Y-107345238D01*
X158833333Y-107440476D01*
X158738095Y-107488095D01*
X160166666Y-107202380D02*
X159976190Y-107202380D01*
X159880952Y-107250000D01*
X159833333Y-107297619D01*
X159738095Y-107440476D01*
X159690476Y-107630952D01*
X159690476Y-108011904D01*
X159738095Y-108107142D01*
X159785714Y-108154761D01*
X159880952Y-108202380D01*
X160071428Y-108202380D01*
X160166666Y-108154761D01*
X160214285Y-108107142D01*
X160261904Y-108011904D01*
X160261904Y-107773809D01*
X160214285Y-107678571D01*
X160166666Y-107630952D01*
X160071428Y-107583333D01*
X159880952Y-107583333D01*
X159785714Y-107630952D01*
X159738095Y-107678571D01*
X159690476Y-107773809D01*
X147357142Y-85702380D02*
X147023809Y-85226190D01*
X146785714Y-85702380D02*
X146785714Y-84702380D01*
X147166666Y-84702380D01*
X147261904Y-84750000D01*
X147309523Y-84797619D01*
X147357142Y-84892857D01*
X147357142Y-85035714D01*
X147309523Y-85130952D01*
X147261904Y-85178571D01*
X147166666Y-85226190D01*
X146785714Y-85226190D01*
X148309523Y-85702380D02*
X147738095Y-85702380D01*
X148023809Y-85702380D02*
X148023809Y-84702380D01*
X147928571Y-84845238D01*
X147833333Y-84940476D01*
X147738095Y-84988095D01*
X149214285Y-84702380D02*
X148738095Y-84702380D01*
X148690476Y-85178571D01*
X148738095Y-85130952D01*
X148833333Y-85083333D01*
X149071428Y-85083333D01*
X149166666Y-85130952D01*
X149214285Y-85178571D01*
X149261904Y-85273809D01*
X149261904Y-85511904D01*
X149214285Y-85607142D01*
X149166666Y-85654761D01*
X149071428Y-85702380D01*
X148833333Y-85702380D01*
X148738095Y-85654761D01*
X148690476Y-85607142D01*
X150607142Y-94952380D02*
X150273809Y-94476190D01*
X150035714Y-94952380D02*
X150035714Y-93952380D01*
X150416666Y-93952380D01*
X150511904Y-94000000D01*
X150559523Y-94047619D01*
X150607142Y-94142857D01*
X150607142Y-94285714D01*
X150559523Y-94380952D01*
X150511904Y-94428571D01*
X150416666Y-94476190D01*
X150035714Y-94476190D01*
X151559523Y-94952380D02*
X150988095Y-94952380D01*
X151273809Y-94952380D02*
X151273809Y-93952380D01*
X151178571Y-94095238D01*
X151083333Y-94190476D01*
X150988095Y-94238095D01*
X152416666Y-94285714D02*
X152416666Y-94952380D01*
X152178571Y-93904761D02*
X151940476Y-94619047D01*
X152559523Y-94619047D01*
X150607142Y-100952380D02*
X150273809Y-100476190D01*
X150035714Y-100952380D02*
X150035714Y-99952380D01*
X150416666Y-99952380D01*
X150511904Y-100000000D01*
X150559523Y-100047619D01*
X150607142Y-100142857D01*
X150607142Y-100285714D01*
X150559523Y-100380952D01*
X150511904Y-100428571D01*
X150416666Y-100476190D01*
X150035714Y-100476190D01*
X151559523Y-100952380D02*
X150988095Y-100952380D01*
X151273809Y-100952380D02*
X151273809Y-99952380D01*
X151178571Y-100095238D01*
X151083333Y-100190476D01*
X150988095Y-100238095D01*
X151892857Y-99952380D02*
X152511904Y-99952380D01*
X152178571Y-100333333D01*
X152321428Y-100333333D01*
X152416666Y-100380952D01*
X152464285Y-100428571D01*
X152511904Y-100523809D01*
X152511904Y-100761904D01*
X152464285Y-100857142D01*
X152416666Y-100904761D01*
X152321428Y-100952380D01*
X152035714Y-100952380D01*
X151940476Y-100904761D01*
X151892857Y-100857142D01*
X171107142Y-81702380D02*
X170773809Y-81226190D01*
X170535714Y-81702380D02*
X170535714Y-80702380D01*
X170916666Y-80702380D01*
X171011904Y-80750000D01*
X171059523Y-80797619D01*
X171107142Y-80892857D01*
X171107142Y-81035714D01*
X171059523Y-81130952D01*
X171011904Y-81178571D01*
X170916666Y-81226190D01*
X170535714Y-81226190D01*
X172059523Y-81702380D02*
X171488095Y-81702380D01*
X171773809Y-81702380D02*
X171773809Y-80702380D01*
X171678571Y-80845238D01*
X171583333Y-80940476D01*
X171488095Y-80988095D01*
X172440476Y-80797619D02*
X172488095Y-80750000D01*
X172583333Y-80702380D01*
X172821428Y-80702380D01*
X172916666Y-80750000D01*
X172964285Y-80797619D01*
X173011904Y-80892857D01*
X173011904Y-80988095D01*
X172964285Y-81130952D01*
X172392857Y-81702380D01*
X173011904Y-81702380D01*
X131357142Y-86702380D02*
X131023809Y-86226190D01*
X130785714Y-86702380D02*
X130785714Y-85702380D01*
X131166666Y-85702380D01*
X131261904Y-85750000D01*
X131309523Y-85797619D01*
X131357142Y-85892857D01*
X131357142Y-86035714D01*
X131309523Y-86130952D01*
X131261904Y-86178571D01*
X131166666Y-86226190D01*
X130785714Y-86226190D01*
X132309523Y-86702380D02*
X131738095Y-86702380D01*
X132023809Y-86702380D02*
X132023809Y-85702380D01*
X131928571Y-85845238D01*
X131833333Y-85940476D01*
X131738095Y-85988095D01*
X133261904Y-86702380D02*
X132690476Y-86702380D01*
X132976190Y-86702380D02*
X132976190Y-85702380D01*
X132880952Y-85845238D01*
X132785714Y-85940476D01*
X132690476Y-85988095D01*
X147357142Y-76702380D02*
X147023809Y-76226190D01*
X146785714Y-76702380D02*
X146785714Y-75702380D01*
X147166666Y-75702380D01*
X147261904Y-75750000D01*
X147309523Y-75797619D01*
X147357142Y-75892857D01*
X147357142Y-76035714D01*
X147309523Y-76130952D01*
X147261904Y-76178571D01*
X147166666Y-76226190D01*
X146785714Y-76226190D01*
X148309523Y-76702380D02*
X147738095Y-76702380D01*
X148023809Y-76702380D02*
X148023809Y-75702380D01*
X147928571Y-75845238D01*
X147833333Y-75940476D01*
X147738095Y-75988095D01*
X148928571Y-75702380D02*
X149023809Y-75702380D01*
X149119047Y-75750000D01*
X149166666Y-75797619D01*
X149214285Y-75892857D01*
X149261904Y-76083333D01*
X149261904Y-76321428D01*
X149214285Y-76511904D01*
X149166666Y-76607142D01*
X149119047Y-76654761D01*
X149023809Y-76702380D01*
X148928571Y-76702380D01*
X148833333Y-76654761D01*
X148785714Y-76607142D01*
X148738095Y-76511904D01*
X148690476Y-76321428D01*
X148690476Y-76083333D01*
X148738095Y-75892857D01*
X148785714Y-75797619D01*
X148833333Y-75750000D01*
X148928571Y-75702380D01*
X144083333Y-83452380D02*
X143750000Y-82976190D01*
X143511904Y-83452380D02*
X143511904Y-82452380D01*
X143892857Y-82452380D01*
X143988095Y-82500000D01*
X144035714Y-82547619D01*
X144083333Y-82642857D01*
X144083333Y-82785714D01*
X144035714Y-82880952D01*
X143988095Y-82928571D01*
X143892857Y-82976190D01*
X143511904Y-82976190D01*
X144559523Y-83452380D02*
X144750000Y-83452380D01*
X144845238Y-83404761D01*
X144892857Y-83357142D01*
X144988095Y-83214285D01*
X145035714Y-83023809D01*
X145035714Y-82642857D01*
X144988095Y-82547619D01*
X144940476Y-82500000D01*
X144845238Y-82452380D01*
X144654761Y-82452380D01*
X144559523Y-82500000D01*
X144511904Y-82547619D01*
X144464285Y-82642857D01*
X144464285Y-82880952D01*
X144511904Y-82976190D01*
X144559523Y-83023809D01*
X144654761Y-83071428D01*
X144845238Y-83071428D01*
X144940476Y-83023809D01*
X144988095Y-82976190D01*
X145035714Y-82880952D01*
X130952380Y-100004166D02*
X130476190Y-100337500D01*
X130952380Y-100575595D02*
X129952380Y-100575595D01*
X129952380Y-100194642D01*
X130000000Y-100099404D01*
X130047619Y-100051785D01*
X130142857Y-100004166D01*
X130285714Y-100004166D01*
X130380952Y-100051785D01*
X130428571Y-100099404D01*
X130476190Y-100194642D01*
X130476190Y-100575595D01*
X130380952Y-99432738D02*
X130333333Y-99527976D01*
X130285714Y-99575595D01*
X130190476Y-99623214D01*
X130142857Y-99623214D01*
X130047619Y-99575595D01*
X130000000Y-99527976D01*
X129952380Y-99432738D01*
X129952380Y-99242261D01*
X130000000Y-99147023D01*
X130047619Y-99099404D01*
X130142857Y-99051785D01*
X130190476Y-99051785D01*
X130285714Y-99099404D01*
X130333333Y-99147023D01*
X130380952Y-99242261D01*
X130380952Y-99432738D01*
X130428571Y-99527976D01*
X130476190Y-99575595D01*
X130571428Y-99623214D01*
X130761904Y-99623214D01*
X130857142Y-99575595D01*
X130904761Y-99527976D01*
X130952380Y-99432738D01*
X130952380Y-99242261D01*
X130904761Y-99147023D01*
X130857142Y-99099404D01*
X130761904Y-99051785D01*
X130571428Y-99051785D01*
X130476190Y-99099404D01*
X130428571Y-99147023D01*
X130380952Y-99242261D01*
X133202380Y-100004166D02*
X132726190Y-100337500D01*
X133202380Y-100575595D02*
X132202380Y-100575595D01*
X132202380Y-100194642D01*
X132250000Y-100099404D01*
X132297619Y-100051785D01*
X132392857Y-100004166D01*
X132535714Y-100004166D01*
X132630952Y-100051785D01*
X132678571Y-100099404D01*
X132726190Y-100194642D01*
X132726190Y-100575595D01*
X132202380Y-99670833D02*
X132202380Y-99004166D01*
X133202380Y-99432738D01*
X163452380Y-94666666D02*
X162976190Y-95000000D01*
X163452380Y-95238095D02*
X162452380Y-95238095D01*
X162452380Y-94857142D01*
X162500000Y-94761904D01*
X162547619Y-94714285D01*
X162642857Y-94666666D01*
X162785714Y-94666666D01*
X162880952Y-94714285D01*
X162928571Y-94761904D01*
X162976190Y-94857142D01*
X162976190Y-95238095D01*
X162452380Y-93809523D02*
X162452380Y-94000000D01*
X162500000Y-94095238D01*
X162547619Y-94142857D01*
X162690476Y-94238095D01*
X162880952Y-94285714D01*
X163261904Y-94285714D01*
X163357142Y-94238095D01*
X163404761Y-94190476D01*
X163452380Y-94095238D01*
X163452380Y-93904761D01*
X163404761Y-93809523D01*
X163357142Y-93761904D01*
X163261904Y-93714285D01*
X163023809Y-93714285D01*
X162928571Y-93761904D01*
X162880952Y-93809523D01*
X162833333Y-93904761D01*
X162833333Y-94095238D01*
X162880952Y-94190476D01*
X162928571Y-94238095D01*
X163023809Y-94285714D01*
X147833333Y-81202380D02*
X147500000Y-80726190D01*
X147261904Y-81202380D02*
X147261904Y-80202380D01*
X147642857Y-80202380D01*
X147738095Y-80250000D01*
X147785714Y-80297619D01*
X147833333Y-80392857D01*
X147833333Y-80535714D01*
X147785714Y-80630952D01*
X147738095Y-80678571D01*
X147642857Y-80726190D01*
X147261904Y-80726190D01*
X148738095Y-80202380D02*
X148261904Y-80202380D01*
X148214285Y-80678571D01*
X148261904Y-80630952D01*
X148357142Y-80583333D01*
X148595238Y-80583333D01*
X148690476Y-80630952D01*
X148738095Y-80678571D01*
X148785714Y-80773809D01*
X148785714Y-81011904D01*
X148738095Y-81107142D01*
X148690476Y-81154761D01*
X148595238Y-81202380D01*
X148357142Y-81202380D01*
X148261904Y-81154761D01*
X148214285Y-81107142D01*
X147833333Y-83452380D02*
X147500000Y-82976190D01*
X147261904Y-83452380D02*
X147261904Y-82452380D01*
X147642857Y-82452380D01*
X147738095Y-82500000D01*
X147785714Y-82547619D01*
X147833333Y-82642857D01*
X147833333Y-82785714D01*
X147785714Y-82880952D01*
X147738095Y-82928571D01*
X147642857Y-82976190D01*
X147261904Y-82976190D01*
X148690476Y-82785714D02*
X148690476Y-83452380D01*
X148452380Y-82404761D02*
X148214285Y-83119047D01*
X148833333Y-83119047D01*
X161202380Y-94666666D02*
X160726190Y-95000000D01*
X161202380Y-95238095D02*
X160202380Y-95238095D01*
X160202380Y-94857142D01*
X160250000Y-94761904D01*
X160297619Y-94714285D01*
X160392857Y-94666666D01*
X160535714Y-94666666D01*
X160630952Y-94714285D01*
X160678571Y-94761904D01*
X160726190Y-94857142D01*
X160726190Y-95238095D01*
X160202380Y-94333333D02*
X160202380Y-93714285D01*
X160583333Y-94047619D01*
X160583333Y-93904761D01*
X160630952Y-93809523D01*
X160678571Y-93761904D01*
X160773809Y-93714285D01*
X161011904Y-93714285D01*
X161107142Y-93761904D01*
X161154761Y-93809523D01*
X161202380Y-93904761D01*
X161202380Y-94190476D01*
X161154761Y-94285714D01*
X161107142Y-94333333D01*
X158952380Y-94666666D02*
X158476190Y-95000000D01*
X158952380Y-95238095D02*
X157952380Y-95238095D01*
X157952380Y-94857142D01*
X158000000Y-94761904D01*
X158047619Y-94714285D01*
X158142857Y-94666666D01*
X158285714Y-94666666D01*
X158380952Y-94714285D01*
X158428571Y-94761904D01*
X158476190Y-94857142D01*
X158476190Y-95238095D01*
X158047619Y-94285714D02*
X158000000Y-94238095D01*
X157952380Y-94142857D01*
X157952380Y-93904761D01*
X158000000Y-93809523D01*
X158047619Y-93761904D01*
X158142857Y-93714285D01*
X158238095Y-93714285D01*
X158380952Y-93761904D01*
X158952380Y-94333333D01*
X158952380Y-93714285D01*
X128702380Y-87416666D02*
X128226190Y-87750000D01*
X128702380Y-87988095D02*
X127702380Y-87988095D01*
X127702380Y-87607142D01*
X127750000Y-87511904D01*
X127797619Y-87464285D01*
X127892857Y-87416666D01*
X128035714Y-87416666D01*
X128130952Y-87464285D01*
X128178571Y-87511904D01*
X128226190Y-87607142D01*
X128226190Y-87988095D01*
X128702380Y-86464285D02*
X128702380Y-87035714D01*
X128702380Y-86750000D02*
X127702380Y-86750000D01*
X127845238Y-86845238D01*
X127940476Y-86940476D01*
X127988095Y-87035714D01*
X153154761Y-98047619D02*
X153059523Y-98000000D01*
X152964285Y-97904761D01*
X152821428Y-97761904D01*
X152726190Y-97714285D01*
X152630952Y-97714285D01*
X152678571Y-97952380D02*
X152583333Y-97904761D01*
X152488095Y-97809523D01*
X152440476Y-97619047D01*
X152440476Y-97285714D01*
X152488095Y-97095238D01*
X152583333Y-97000000D01*
X152678571Y-96952380D01*
X152869047Y-96952380D01*
X152964285Y-97000000D01*
X153059523Y-97095238D01*
X153107142Y-97285714D01*
X153107142Y-97619047D01*
X153059523Y-97809523D01*
X152964285Y-97904761D01*
X152869047Y-97952380D01*
X152678571Y-97952380D01*
X153488095Y-97047619D02*
X153535714Y-97000000D01*
X153630952Y-96952380D01*
X153869047Y-96952380D01*
X153964285Y-97000000D01*
X154011904Y-97047619D01*
X154059523Y-97142857D01*
X154059523Y-97238095D01*
X154011904Y-97380952D01*
X153440476Y-97952380D01*
X154059523Y-97952380D01*
X149154761Y-98047619D02*
X149059523Y-98000000D01*
X148964285Y-97904761D01*
X148821428Y-97761904D01*
X148726190Y-97714285D01*
X148630952Y-97714285D01*
X148678571Y-97952380D02*
X148583333Y-97904761D01*
X148488095Y-97809523D01*
X148440476Y-97619047D01*
X148440476Y-97285714D01*
X148488095Y-97095238D01*
X148583333Y-97000000D01*
X148678571Y-96952380D01*
X148869047Y-96952380D01*
X148964285Y-97000000D01*
X149059523Y-97095238D01*
X149107142Y-97285714D01*
X149107142Y-97619047D01*
X149059523Y-97809523D01*
X148964285Y-97904761D01*
X148869047Y-97952380D01*
X148678571Y-97952380D01*
X150059523Y-97952380D02*
X149488095Y-97952380D01*
X149773809Y-97952380D02*
X149773809Y-96952380D01*
X149678571Y-97095238D01*
X149583333Y-97190476D01*
X149488095Y-97238095D01*
X144702380Y-119666666D02*
X144702380Y-120142857D01*
X143702380Y-120142857D01*
X143702380Y-119428571D02*
X143702380Y-118809523D01*
X144083333Y-119142857D01*
X144083333Y-119000000D01*
X144130952Y-118904761D01*
X144178571Y-118857142D01*
X144273809Y-118809523D01*
X144511904Y-118809523D01*
X144607142Y-118857142D01*
X144654761Y-118904761D01*
X144702380Y-119000000D01*
X144702380Y-119285714D01*
X144654761Y-119380952D01*
X144607142Y-119428571D01*
X144702380Y-112666666D02*
X144702380Y-113142857D01*
X143702380Y-113142857D01*
X143797619Y-112380952D02*
X143750000Y-112333333D01*
X143702380Y-112238095D01*
X143702380Y-112000000D01*
X143750000Y-111904761D01*
X143797619Y-111857142D01*
X143892857Y-111809523D01*
X143988095Y-111809523D01*
X144130952Y-111857142D01*
X144702380Y-112428571D01*
X144702380Y-111809523D01*
X144702380Y-105666666D02*
X144702380Y-106142857D01*
X143702380Y-106142857D01*
X144702380Y-104809523D02*
X144702380Y-105380952D01*
X144702380Y-105095238D02*
X143702380Y-105095238D01*
X143845238Y-105190476D01*
X143940476Y-105285714D01*
X143988095Y-105380952D01*
X126702380Y-78333333D02*
X127416666Y-78333333D01*
X127559523Y-78380952D01*
X127654761Y-78476190D01*
X127702380Y-78619047D01*
X127702380Y-78714285D01*
X126797619Y-77904761D02*
X126750000Y-77857142D01*
X126702380Y-77761904D01*
X126702380Y-77523809D01*
X126750000Y-77428571D01*
X126797619Y-77380952D01*
X126892857Y-77333333D01*
X126988095Y-77333333D01*
X127130952Y-77380952D01*
X127702380Y-77952380D01*
X127702380Y-77333333D01*
X143511904Y-81202380D02*
X143511904Y-80202380D01*
X143750000Y-80202380D01*
X143892857Y-80250000D01*
X143988095Y-80345238D01*
X144035714Y-80440476D01*
X144083333Y-80630952D01*
X144083333Y-80773809D01*
X144035714Y-80964285D01*
X143988095Y-81059523D01*
X143892857Y-81154761D01*
X143750000Y-81202380D01*
X143511904Y-81202380D01*
X144416666Y-80202380D02*
X145035714Y-80202380D01*
X144702380Y-80583333D01*
X144845238Y-80583333D01*
X144940476Y-80630952D01*
X144988095Y-80678571D01*
X145035714Y-80773809D01*
X145035714Y-81011904D01*
X144988095Y-81107142D01*
X144940476Y-81154761D01*
X144845238Y-81202380D01*
X144559523Y-81202380D01*
X144464285Y-81154761D01*
X144416666Y-81107142D01*
X127202380Y-92738095D02*
X126202380Y-92738095D01*
X126202380Y-92500000D01*
X126250000Y-92357142D01*
X126345238Y-92261904D01*
X126440476Y-92214285D01*
X126630952Y-92166666D01*
X126773809Y-92166666D01*
X126964285Y-92214285D01*
X127059523Y-92261904D01*
X127154761Y-92357142D01*
X127202380Y-92500000D01*
X127202380Y-92738095D01*
X126297619Y-91785714D02*
X126250000Y-91738095D01*
X126202380Y-91642857D01*
X126202380Y-91404761D01*
X126250000Y-91309523D01*
X126297619Y-91261904D01*
X126392857Y-91214285D01*
X126488095Y-91214285D01*
X126630952Y-91261904D01*
X127202380Y-91833333D01*
X127202380Y-91214285D01*
X127202380Y-96488095D02*
X126202380Y-96488095D01*
X126202380Y-96250000D01*
X126250000Y-96107142D01*
X126345238Y-96011904D01*
X126440476Y-95964285D01*
X126630952Y-95916666D01*
X126773809Y-95916666D01*
X126964285Y-95964285D01*
X127059523Y-96011904D01*
X127154761Y-96107142D01*
X127202380Y-96250000D01*
X127202380Y-96488095D01*
X127202380Y-94964285D02*
X127202380Y-95535714D01*
X127202380Y-95250000D02*
X126202380Y-95250000D01*
X126345238Y-95345238D01*
X126440476Y-95440476D01*
X126488095Y-95535714D01*
X159607142Y-119142857D02*
X159654761Y-119190476D01*
X159702380Y-119333333D01*
X159702380Y-119428571D01*
X159654761Y-119571428D01*
X159559523Y-119666666D01*
X159464285Y-119714285D01*
X159273809Y-119761904D01*
X159130952Y-119761904D01*
X158940476Y-119714285D01*
X158845238Y-119666666D01*
X158750000Y-119571428D01*
X158702380Y-119428571D01*
X158702380Y-119333333D01*
X158750000Y-119190476D01*
X158797619Y-119142857D01*
X158797619Y-118761904D02*
X158750000Y-118714285D01*
X158702380Y-118619047D01*
X158702380Y-118380952D01*
X158750000Y-118285714D01*
X158797619Y-118238095D01*
X158892857Y-118190476D01*
X158988095Y-118190476D01*
X159130952Y-118238095D01*
X159702380Y-118809523D01*
X159702380Y-118190476D01*
X158702380Y-117857142D02*
X158702380Y-117190476D01*
X159702380Y-117619047D01*
X159607142Y-112142857D02*
X159654761Y-112190476D01*
X159702380Y-112333333D01*
X159702380Y-112428571D01*
X159654761Y-112571428D01*
X159559523Y-112666666D01*
X159464285Y-112714285D01*
X159273809Y-112761904D01*
X159130952Y-112761904D01*
X158940476Y-112714285D01*
X158845238Y-112666666D01*
X158750000Y-112571428D01*
X158702380Y-112428571D01*
X158702380Y-112333333D01*
X158750000Y-112190476D01*
X158797619Y-112142857D01*
X158797619Y-111761904D02*
X158750000Y-111714285D01*
X158702380Y-111619047D01*
X158702380Y-111380952D01*
X158750000Y-111285714D01*
X158797619Y-111238095D01*
X158892857Y-111190476D01*
X158988095Y-111190476D01*
X159130952Y-111238095D01*
X159702380Y-111809523D01*
X159702380Y-111190476D01*
X158702380Y-110333333D02*
X158702380Y-110523809D01*
X158750000Y-110619047D01*
X158797619Y-110666666D01*
X158940476Y-110761904D01*
X159130952Y-110809523D01*
X159511904Y-110809523D01*
X159607142Y-110761904D01*
X159654761Y-110714285D01*
X159702380Y-110619047D01*
X159702380Y-110428571D01*
X159654761Y-110333333D01*
X159607142Y-110285714D01*
X159511904Y-110238095D01*
X159273809Y-110238095D01*
X159178571Y-110285714D01*
X159130952Y-110333333D01*
X159083333Y-110428571D01*
X159083333Y-110619047D01*
X159130952Y-110714285D01*
X159178571Y-110761904D01*
X159273809Y-110809523D01*
X155107142Y-105142857D02*
X155154761Y-105190476D01*
X155202380Y-105333333D01*
X155202380Y-105428571D01*
X155154761Y-105571428D01*
X155059523Y-105666666D01*
X154964285Y-105714285D01*
X154773809Y-105761904D01*
X154630952Y-105761904D01*
X154440476Y-105714285D01*
X154345238Y-105666666D01*
X154250000Y-105571428D01*
X154202380Y-105428571D01*
X154202380Y-105333333D01*
X154250000Y-105190476D01*
X154297619Y-105142857D01*
X154297619Y-104761904D02*
X154250000Y-104714285D01*
X154202380Y-104619047D01*
X154202380Y-104380952D01*
X154250000Y-104285714D01*
X154297619Y-104238095D01*
X154392857Y-104190476D01*
X154488095Y-104190476D01*
X154630952Y-104238095D01*
X155202380Y-104809523D01*
X155202380Y-104190476D01*
X154202380Y-103285714D02*
X154202380Y-103761904D01*
X154678571Y-103809523D01*
X154630952Y-103761904D01*
X154583333Y-103666666D01*
X154583333Y-103428571D01*
X154630952Y-103333333D01*
X154678571Y-103285714D01*
X154773809Y-103238095D01*
X155011904Y-103238095D01*
X155107142Y-103285714D01*
X155154761Y-103333333D01*
X155202380Y-103428571D01*
X155202380Y-103666666D01*
X155154761Y-103761904D01*
X155107142Y-103809523D01*
X157357142Y-119142857D02*
X157404761Y-119190476D01*
X157452380Y-119333333D01*
X157452380Y-119428571D01*
X157404761Y-119571428D01*
X157309523Y-119666666D01*
X157214285Y-119714285D01*
X157023809Y-119761904D01*
X156880952Y-119761904D01*
X156690476Y-119714285D01*
X156595238Y-119666666D01*
X156500000Y-119571428D01*
X156452380Y-119428571D01*
X156452380Y-119333333D01*
X156500000Y-119190476D01*
X156547619Y-119142857D01*
X156547619Y-118761904D02*
X156500000Y-118714285D01*
X156452380Y-118619047D01*
X156452380Y-118380952D01*
X156500000Y-118285714D01*
X156547619Y-118238095D01*
X156642857Y-118190476D01*
X156738095Y-118190476D01*
X156880952Y-118238095D01*
X157452380Y-118809523D01*
X157452380Y-118190476D01*
X156785714Y-117333333D02*
X157452380Y-117333333D01*
X156404761Y-117571428D02*
X157119047Y-117809523D01*
X157119047Y-117190476D01*
X157357142Y-112142857D02*
X157404761Y-112190476D01*
X157452380Y-112333333D01*
X157452380Y-112428571D01*
X157404761Y-112571428D01*
X157309523Y-112666666D01*
X157214285Y-112714285D01*
X157023809Y-112761904D01*
X156880952Y-112761904D01*
X156690476Y-112714285D01*
X156595238Y-112666666D01*
X156500000Y-112571428D01*
X156452380Y-112428571D01*
X156452380Y-112333333D01*
X156500000Y-112190476D01*
X156547619Y-112142857D01*
X156547619Y-111761904D02*
X156500000Y-111714285D01*
X156452380Y-111619047D01*
X156452380Y-111380952D01*
X156500000Y-111285714D01*
X156547619Y-111238095D01*
X156642857Y-111190476D01*
X156738095Y-111190476D01*
X156880952Y-111238095D01*
X157452380Y-111809523D01*
X157452380Y-111190476D01*
X156452380Y-110857142D02*
X156452380Y-110238095D01*
X156833333Y-110571428D01*
X156833333Y-110428571D01*
X156880952Y-110333333D01*
X156928571Y-110285714D01*
X157023809Y-110238095D01*
X157261904Y-110238095D01*
X157357142Y-110285714D01*
X157404761Y-110333333D01*
X157452380Y-110428571D01*
X157452380Y-110714285D01*
X157404761Y-110809523D01*
X157357142Y-110857142D01*
X157357142Y-105142857D02*
X157404761Y-105190476D01*
X157452380Y-105333333D01*
X157452380Y-105428571D01*
X157404761Y-105571428D01*
X157309523Y-105666666D01*
X157214285Y-105714285D01*
X157023809Y-105761904D01*
X156880952Y-105761904D01*
X156690476Y-105714285D01*
X156595238Y-105666666D01*
X156500000Y-105571428D01*
X156452380Y-105428571D01*
X156452380Y-105333333D01*
X156500000Y-105190476D01*
X156547619Y-105142857D01*
X156547619Y-104761904D02*
X156500000Y-104714285D01*
X156452380Y-104619047D01*
X156452380Y-104380952D01*
X156500000Y-104285714D01*
X156547619Y-104238095D01*
X156642857Y-104190476D01*
X156738095Y-104190476D01*
X156880952Y-104238095D01*
X157452380Y-104809523D01*
X157452380Y-104190476D01*
X156547619Y-103809523D02*
X156500000Y-103761904D01*
X156452380Y-103666666D01*
X156452380Y-103428571D01*
X156500000Y-103333333D01*
X156547619Y-103285714D01*
X156642857Y-103238095D01*
X156738095Y-103238095D01*
X156880952Y-103285714D01*
X157452380Y-103857142D01*
X157452380Y-103238095D01*
X155107142Y-119142857D02*
X155154761Y-119190476D01*
X155202380Y-119333333D01*
X155202380Y-119428571D01*
X155154761Y-119571428D01*
X155059523Y-119666666D01*
X154964285Y-119714285D01*
X154773809Y-119761904D01*
X154630952Y-119761904D01*
X154440476Y-119714285D01*
X154345238Y-119666666D01*
X154250000Y-119571428D01*
X154202380Y-119428571D01*
X154202380Y-119333333D01*
X154250000Y-119190476D01*
X154297619Y-119142857D01*
X154297619Y-118761904D02*
X154250000Y-118714285D01*
X154202380Y-118619047D01*
X154202380Y-118380952D01*
X154250000Y-118285714D01*
X154297619Y-118238095D01*
X154392857Y-118190476D01*
X154488095Y-118190476D01*
X154630952Y-118238095D01*
X155202380Y-118809523D01*
X155202380Y-118190476D01*
X155202380Y-117238095D02*
X155202380Y-117809523D01*
X155202380Y-117523809D02*
X154202380Y-117523809D01*
X154345238Y-117619047D01*
X154440476Y-117714285D01*
X154488095Y-117809523D01*
X155107142Y-112142857D02*
X155154761Y-112190476D01*
X155202380Y-112333333D01*
X155202380Y-112428571D01*
X155154761Y-112571428D01*
X155059523Y-112666666D01*
X154964285Y-112714285D01*
X154773809Y-112761904D01*
X154630952Y-112761904D01*
X154440476Y-112714285D01*
X154345238Y-112666666D01*
X154250000Y-112571428D01*
X154202380Y-112428571D01*
X154202380Y-112333333D01*
X154250000Y-112190476D01*
X154297619Y-112142857D01*
X154297619Y-111761904D02*
X154250000Y-111714285D01*
X154202380Y-111619047D01*
X154202380Y-111380952D01*
X154250000Y-111285714D01*
X154297619Y-111238095D01*
X154392857Y-111190476D01*
X154488095Y-111190476D01*
X154630952Y-111238095D01*
X155202380Y-111809523D01*
X155202380Y-111190476D01*
X154202380Y-110571428D02*
X154202380Y-110476190D01*
X154250000Y-110380952D01*
X154297619Y-110333333D01*
X154392857Y-110285714D01*
X154583333Y-110238095D01*
X154821428Y-110238095D01*
X155011904Y-110285714D01*
X155107142Y-110333333D01*
X155154761Y-110380952D01*
X155202380Y-110476190D01*
X155202380Y-110571428D01*
X155154761Y-110666666D01*
X155107142Y-110714285D01*
X155011904Y-110761904D01*
X154821428Y-110809523D01*
X154583333Y-110809523D01*
X154392857Y-110761904D01*
X154297619Y-110714285D01*
X154250000Y-110666666D01*
X154202380Y-110571428D01*
X159607142Y-105192857D02*
X159654761Y-105240476D01*
X159702380Y-105383333D01*
X159702380Y-105478571D01*
X159654761Y-105621428D01*
X159559523Y-105716666D01*
X159464285Y-105764285D01*
X159273809Y-105811904D01*
X159130952Y-105811904D01*
X158940476Y-105764285D01*
X158845238Y-105716666D01*
X158750000Y-105621428D01*
X158702380Y-105478571D01*
X158702380Y-105383333D01*
X158750000Y-105240476D01*
X158797619Y-105192857D01*
X159702380Y-104240476D02*
X159702380Y-104811904D01*
X159702380Y-104526190D02*
X158702380Y-104526190D01*
X158845238Y-104621428D01*
X158940476Y-104716666D01*
X158988095Y-104811904D01*
X159702380Y-103764285D02*
X159702380Y-103573809D01*
X159654761Y-103478571D01*
X159607142Y-103430952D01*
X159464285Y-103335714D01*
X159273809Y-103288095D01*
X158892857Y-103288095D01*
X158797619Y-103335714D01*
X158750000Y-103383333D01*
X158702380Y-103478571D01*
X158702380Y-103669047D01*
X158750000Y-103764285D01*
X158797619Y-103811904D01*
X158892857Y-103859523D01*
X159130952Y-103859523D01*
X159226190Y-103811904D01*
X159273809Y-103764285D01*
X159321428Y-103669047D01*
X159321428Y-103478571D01*
X159273809Y-103383333D01*
X159226190Y-103335714D01*
X159130952Y-103288095D01*
X142107142Y-120142857D02*
X142154761Y-120190476D01*
X142202380Y-120333333D01*
X142202380Y-120428571D01*
X142154761Y-120571428D01*
X142059523Y-120666666D01*
X141964285Y-120714285D01*
X141773809Y-120761904D01*
X141630952Y-120761904D01*
X141440476Y-120714285D01*
X141345238Y-120666666D01*
X141250000Y-120571428D01*
X141202380Y-120428571D01*
X141202380Y-120333333D01*
X141250000Y-120190476D01*
X141297619Y-120142857D01*
X142202380Y-119190476D02*
X142202380Y-119761904D01*
X142202380Y-119476190D02*
X141202380Y-119476190D01*
X141345238Y-119571428D01*
X141440476Y-119666666D01*
X141488095Y-119761904D01*
X141630952Y-118619047D02*
X141583333Y-118714285D01*
X141535714Y-118761904D01*
X141440476Y-118809523D01*
X141392857Y-118809523D01*
X141297619Y-118761904D01*
X141250000Y-118714285D01*
X141202380Y-118619047D01*
X141202380Y-118428571D01*
X141250000Y-118333333D01*
X141297619Y-118285714D01*
X141392857Y-118238095D01*
X141440476Y-118238095D01*
X141535714Y-118285714D01*
X141583333Y-118333333D01*
X141630952Y-118428571D01*
X141630952Y-118619047D01*
X141678571Y-118714285D01*
X141726190Y-118761904D01*
X141821428Y-118809523D01*
X142011904Y-118809523D01*
X142107142Y-118761904D01*
X142154761Y-118714285D01*
X142202380Y-118619047D01*
X142202380Y-118428571D01*
X142154761Y-118333333D01*
X142107142Y-118285714D01*
X142011904Y-118238095D01*
X141821428Y-118238095D01*
X141726190Y-118285714D01*
X141678571Y-118333333D01*
X141630952Y-118428571D01*
X142107142Y-113142857D02*
X142154761Y-113190476D01*
X142202380Y-113333333D01*
X142202380Y-113428571D01*
X142154761Y-113571428D01*
X142059523Y-113666666D01*
X141964285Y-113714285D01*
X141773809Y-113761904D01*
X141630952Y-113761904D01*
X141440476Y-113714285D01*
X141345238Y-113666666D01*
X141250000Y-113571428D01*
X141202380Y-113428571D01*
X141202380Y-113333333D01*
X141250000Y-113190476D01*
X141297619Y-113142857D01*
X142202380Y-112190476D02*
X142202380Y-112761904D01*
X142202380Y-112476190D02*
X141202380Y-112476190D01*
X141345238Y-112571428D01*
X141440476Y-112666666D01*
X141488095Y-112761904D01*
X141202380Y-111857142D02*
X141202380Y-111190476D01*
X142202380Y-111619047D01*
X139857142Y-106142857D02*
X139904761Y-106190476D01*
X139952380Y-106333333D01*
X139952380Y-106428571D01*
X139904761Y-106571428D01*
X139809523Y-106666666D01*
X139714285Y-106714285D01*
X139523809Y-106761904D01*
X139380952Y-106761904D01*
X139190476Y-106714285D01*
X139095238Y-106666666D01*
X139000000Y-106571428D01*
X138952380Y-106428571D01*
X138952380Y-106333333D01*
X139000000Y-106190476D01*
X139047619Y-106142857D01*
X139952380Y-105190476D02*
X139952380Y-105761904D01*
X139952380Y-105476190D02*
X138952380Y-105476190D01*
X139095238Y-105571428D01*
X139190476Y-105666666D01*
X139238095Y-105761904D01*
X138952380Y-104333333D02*
X138952380Y-104523809D01*
X139000000Y-104619047D01*
X139047619Y-104666666D01*
X139190476Y-104761904D01*
X139380952Y-104809523D01*
X139761904Y-104809523D01*
X139857142Y-104761904D01*
X139904761Y-104714285D01*
X139952380Y-104619047D01*
X139952380Y-104428571D01*
X139904761Y-104333333D01*
X139857142Y-104285714D01*
X139761904Y-104238095D01*
X139523809Y-104238095D01*
X139428571Y-104285714D01*
X139380952Y-104333333D01*
X139333333Y-104428571D01*
X139333333Y-104619047D01*
X139380952Y-104714285D01*
X139428571Y-104761904D01*
X139523809Y-104809523D01*
X139857142Y-120142857D02*
X139904761Y-120190476D01*
X139952380Y-120333333D01*
X139952380Y-120428571D01*
X139904761Y-120571428D01*
X139809523Y-120666666D01*
X139714285Y-120714285D01*
X139523809Y-120761904D01*
X139380952Y-120761904D01*
X139190476Y-120714285D01*
X139095238Y-120666666D01*
X139000000Y-120571428D01*
X138952380Y-120428571D01*
X138952380Y-120333333D01*
X139000000Y-120190476D01*
X139047619Y-120142857D01*
X139952380Y-119190476D02*
X139952380Y-119761904D01*
X139952380Y-119476190D02*
X138952380Y-119476190D01*
X139095238Y-119571428D01*
X139190476Y-119666666D01*
X139238095Y-119761904D01*
X138952380Y-118285714D02*
X138952380Y-118761904D01*
X139428571Y-118809523D01*
X139380952Y-118761904D01*
X139333333Y-118666666D01*
X139333333Y-118428571D01*
X139380952Y-118333333D01*
X139428571Y-118285714D01*
X139523809Y-118238095D01*
X139761904Y-118238095D01*
X139857142Y-118285714D01*
X139904761Y-118333333D01*
X139952380Y-118428571D01*
X139952380Y-118666666D01*
X139904761Y-118761904D01*
X139857142Y-118809523D01*
X139857142Y-113142857D02*
X139904761Y-113190476D01*
X139952380Y-113333333D01*
X139952380Y-113428571D01*
X139904761Y-113571428D01*
X139809523Y-113666666D01*
X139714285Y-113714285D01*
X139523809Y-113761904D01*
X139380952Y-113761904D01*
X139190476Y-113714285D01*
X139095238Y-113666666D01*
X139000000Y-113571428D01*
X138952380Y-113428571D01*
X138952380Y-113333333D01*
X139000000Y-113190476D01*
X139047619Y-113142857D01*
X139952380Y-112190476D02*
X139952380Y-112761904D01*
X139952380Y-112476190D02*
X138952380Y-112476190D01*
X139095238Y-112571428D01*
X139190476Y-112666666D01*
X139238095Y-112761904D01*
X139285714Y-111333333D02*
X139952380Y-111333333D01*
X138904761Y-111571428D02*
X139619047Y-111809523D01*
X139619047Y-111190476D01*
X142107142Y-106142857D02*
X142154761Y-106190476D01*
X142202380Y-106333333D01*
X142202380Y-106428571D01*
X142154761Y-106571428D01*
X142059523Y-106666666D01*
X141964285Y-106714285D01*
X141773809Y-106761904D01*
X141630952Y-106761904D01*
X141440476Y-106714285D01*
X141345238Y-106666666D01*
X141250000Y-106571428D01*
X141202380Y-106428571D01*
X141202380Y-106333333D01*
X141250000Y-106190476D01*
X141297619Y-106142857D01*
X142202380Y-105190476D02*
X142202380Y-105761904D01*
X142202380Y-105476190D02*
X141202380Y-105476190D01*
X141345238Y-105571428D01*
X141440476Y-105666666D01*
X141488095Y-105761904D01*
X141202380Y-104857142D02*
X141202380Y-104238095D01*
X141583333Y-104571428D01*
X141583333Y-104428571D01*
X141630952Y-104333333D01*
X141678571Y-104285714D01*
X141773809Y-104238095D01*
X142011904Y-104238095D01*
X142107142Y-104285714D01*
X142154761Y-104333333D01*
X142202380Y-104428571D01*
X142202380Y-104714285D01*
X142154761Y-104809523D01*
X142107142Y-104857142D01*
X138292893Y-74547969D02*
X138225549Y-74547969D01*
X138090862Y-74480625D01*
X138023519Y-74413282D01*
X137956175Y-74278595D01*
X137956175Y-74143908D01*
X137989847Y-74042893D01*
X138090862Y-73874534D01*
X138191877Y-73773519D01*
X138360236Y-73672503D01*
X138461251Y-73638832D01*
X138595938Y-73638832D01*
X138730625Y-73706175D01*
X138797969Y-73773519D01*
X138865312Y-73908206D01*
X138865312Y-73975549D01*
X138898984Y-75288748D02*
X138494923Y-74884687D01*
X138696954Y-75086717D02*
X139404061Y-74379610D01*
X139235702Y-74413282D01*
X139101015Y-74413282D01*
X139000000Y-74379610D01*
X139808122Y-74918358D02*
X139875465Y-74918358D01*
X139976480Y-74952030D01*
X140144839Y-75120389D01*
X140178511Y-75221404D01*
X140178511Y-75288748D01*
X140144839Y-75389763D01*
X140077496Y-75457106D01*
X139942809Y-75524450D01*
X139134687Y-75524450D01*
X139572419Y-75962183D01*
X140042893Y-72797969D02*
X139975549Y-72797969D01*
X139840862Y-72730625D01*
X139773519Y-72663282D01*
X139706175Y-72528595D01*
X139706175Y-72393908D01*
X139739847Y-72292893D01*
X139840862Y-72124534D01*
X139941877Y-72023519D01*
X140110236Y-71922503D01*
X140211251Y-71888832D01*
X140345938Y-71888832D01*
X140480625Y-71956175D01*
X140547969Y-72023519D01*
X140615312Y-72158206D01*
X140615312Y-72225549D01*
X140648984Y-73538748D02*
X140244923Y-73134687D01*
X140446954Y-73336717D02*
X141154061Y-72629610D01*
X140985702Y-72663282D01*
X140851015Y-72663282D01*
X140750000Y-72629610D01*
X141322419Y-74212183D02*
X140918358Y-73808122D01*
X141120389Y-74010152D02*
X141827496Y-73303045D01*
X141659137Y-73336717D01*
X141524450Y-73336717D01*
X141423435Y-73303045D01*
X149607142Y-91642857D02*
X149654761Y-91690476D01*
X149702380Y-91833333D01*
X149702380Y-91928571D01*
X149654761Y-92071428D01*
X149559523Y-92166666D01*
X149464285Y-92214285D01*
X149273809Y-92261904D01*
X149130952Y-92261904D01*
X148940476Y-92214285D01*
X148845238Y-92166666D01*
X148750000Y-92071428D01*
X148702380Y-91928571D01*
X148702380Y-91833333D01*
X148750000Y-91690476D01*
X148797619Y-91642857D01*
X149702380Y-90690476D02*
X149702380Y-91261904D01*
X149702380Y-90976190D02*
X148702380Y-90976190D01*
X148845238Y-91071428D01*
X148940476Y-91166666D01*
X148988095Y-91261904D01*
X148702380Y-90071428D02*
X148702380Y-89976190D01*
X148750000Y-89880952D01*
X148797619Y-89833333D01*
X148892857Y-89785714D01*
X149083333Y-89738095D01*
X149321428Y-89738095D01*
X149511904Y-89785714D01*
X149607142Y-89833333D01*
X149654761Y-89880952D01*
X149702380Y-89976190D01*
X149702380Y-90071428D01*
X149654761Y-90166666D01*
X149607142Y-90214285D01*
X149511904Y-90261904D01*
X149321428Y-90309523D01*
X149083333Y-90309523D01*
X148892857Y-90261904D01*
X148797619Y-90214285D01*
X148750000Y-90166666D01*
X148702380Y-90071428D01*
X135384687Y-74370389D02*
X135384687Y-74437732D01*
X135317343Y-74572419D01*
X135250000Y-74639763D01*
X135115312Y-74707106D01*
X134980625Y-74707106D01*
X134879610Y-74673435D01*
X134711251Y-74572419D01*
X134610236Y-74471404D01*
X134509221Y-74303045D01*
X134475549Y-74202030D01*
X134475549Y-74067343D01*
X134542893Y-73932656D01*
X134610236Y-73865312D01*
X134744923Y-73797969D01*
X134812267Y-73797969D01*
X135788748Y-74101015D02*
X135923435Y-73966328D01*
X135957106Y-73865312D01*
X135957106Y-73797969D01*
X135923435Y-73629610D01*
X135822419Y-73461251D01*
X135553045Y-73191877D01*
X135452030Y-73158206D01*
X135384687Y-73158206D01*
X135283671Y-73191877D01*
X135148984Y-73326564D01*
X135115312Y-73427580D01*
X135115312Y-73494923D01*
X135148984Y-73595938D01*
X135317343Y-73764297D01*
X135418358Y-73797969D01*
X135485702Y-73797969D01*
X135586717Y-73764297D01*
X135721404Y-73629610D01*
X135755076Y-73528595D01*
X135755076Y-73461251D01*
X135721404Y-73360236D01*
X132634687Y-77120389D02*
X132634687Y-77187732D01*
X132567343Y-77322419D01*
X132500000Y-77389763D01*
X132365312Y-77457106D01*
X132230625Y-77457106D01*
X132129610Y-77423435D01*
X131961251Y-77322419D01*
X131860236Y-77221404D01*
X131759221Y-77053045D01*
X131725549Y-76952030D01*
X131725549Y-76817343D01*
X131792893Y-76682656D01*
X131860236Y-76615312D01*
X131994923Y-76547969D01*
X132062267Y-76547969D01*
X132702030Y-76379610D02*
X132601015Y-76413282D01*
X132533671Y-76413282D01*
X132432656Y-76379610D01*
X132398984Y-76345938D01*
X132365312Y-76244923D01*
X132365312Y-76177580D01*
X132398984Y-76076564D01*
X132533671Y-75941877D01*
X132634687Y-75908206D01*
X132702030Y-75908206D01*
X132803045Y-75941877D01*
X132836717Y-75975549D01*
X132870389Y-76076564D01*
X132870389Y-76143908D01*
X132836717Y-76244923D01*
X132702030Y-76379610D01*
X132668358Y-76480625D01*
X132668358Y-76547969D01*
X132702030Y-76648984D01*
X132836717Y-76783671D01*
X132937732Y-76817343D01*
X133005076Y-76817343D01*
X133106091Y-76783671D01*
X133240778Y-76648984D01*
X133274450Y-76547969D01*
X133274450Y-76480625D01*
X133240778Y-76379610D01*
X133106091Y-76244923D01*
X133005076Y-76211251D01*
X132937732Y-76211251D01*
X132836717Y-76244923D01*
X128607142Y-99916666D02*
X128654761Y-99964285D01*
X128702380Y-100107142D01*
X128702380Y-100202380D01*
X128654761Y-100345238D01*
X128559523Y-100440476D01*
X128464285Y-100488095D01*
X128273809Y-100535714D01*
X128130952Y-100535714D01*
X127940476Y-100488095D01*
X127845238Y-100440476D01*
X127750000Y-100345238D01*
X127702380Y-100202380D01*
X127702380Y-100107142D01*
X127750000Y-99964285D01*
X127797619Y-99916666D01*
X127702380Y-99583333D02*
X127702380Y-98916666D01*
X128702380Y-99345238D01*
X144107142Y-86916666D02*
X144154761Y-86964285D01*
X144202380Y-87107142D01*
X144202380Y-87202380D01*
X144154761Y-87345238D01*
X144059523Y-87440476D01*
X143964285Y-87488095D01*
X143773809Y-87535714D01*
X143630952Y-87535714D01*
X143440476Y-87488095D01*
X143345238Y-87440476D01*
X143250000Y-87345238D01*
X143202380Y-87202380D01*
X143202380Y-87107142D01*
X143250000Y-86964285D01*
X143297619Y-86916666D01*
X143202380Y-86059523D02*
X143202380Y-86250000D01*
X143250000Y-86345238D01*
X143297619Y-86392857D01*
X143440476Y-86488095D01*
X143630952Y-86535714D01*
X144011904Y-86535714D01*
X144107142Y-86488095D01*
X144154761Y-86440476D01*
X144202380Y-86345238D01*
X144202380Y-86154761D01*
X144154761Y-86059523D01*
X144107142Y-86011904D01*
X144011904Y-85964285D01*
X143773809Y-85964285D01*
X143678571Y-86011904D01*
X143630952Y-86059523D01*
X143583333Y-86154761D01*
X143583333Y-86345238D01*
X143630952Y-86440476D01*
X143678571Y-86488095D01*
X143773809Y-86535714D01*
X145857142Y-95416666D02*
X145904761Y-95464285D01*
X145952380Y-95607142D01*
X145952380Y-95702380D01*
X145904761Y-95845238D01*
X145809523Y-95940476D01*
X145714285Y-95988095D01*
X145523809Y-96035714D01*
X145380952Y-96035714D01*
X145190476Y-95988095D01*
X145095238Y-95940476D01*
X145000000Y-95845238D01*
X144952380Y-95702380D01*
X144952380Y-95607142D01*
X145000000Y-95464285D01*
X145047619Y-95416666D01*
X144952380Y-94511904D02*
X144952380Y-94988095D01*
X145428571Y-95035714D01*
X145380952Y-94988095D01*
X145333333Y-94892857D01*
X145333333Y-94654761D01*
X145380952Y-94559523D01*
X145428571Y-94511904D01*
X145523809Y-94464285D01*
X145761904Y-94464285D01*
X145857142Y-94511904D01*
X145904761Y-94559523D01*
X145952380Y-94654761D01*
X145952380Y-94892857D01*
X145904761Y-94988095D01*
X145857142Y-95035714D01*
X132833333Y-84107142D02*
X132785714Y-84154761D01*
X132642857Y-84202380D01*
X132547619Y-84202380D01*
X132404761Y-84154761D01*
X132309523Y-84059523D01*
X132261904Y-83964285D01*
X132214285Y-83773809D01*
X132214285Y-83630952D01*
X132261904Y-83440476D01*
X132309523Y-83345238D01*
X132404761Y-83250000D01*
X132547619Y-83202380D01*
X132642857Y-83202380D01*
X132785714Y-83250000D01*
X132833333Y-83297619D01*
X133690476Y-83535714D02*
X133690476Y-84202380D01*
X133452380Y-83154761D02*
X133214285Y-83869047D01*
X133833333Y-83869047D01*
X147833333Y-78857142D02*
X147785714Y-78904761D01*
X147642857Y-78952380D01*
X147547619Y-78952380D01*
X147404761Y-78904761D01*
X147309523Y-78809523D01*
X147261904Y-78714285D01*
X147214285Y-78523809D01*
X147214285Y-78380952D01*
X147261904Y-78190476D01*
X147309523Y-78095238D01*
X147404761Y-78000000D01*
X147547619Y-77952380D01*
X147642857Y-77952380D01*
X147785714Y-78000000D01*
X147833333Y-78047619D01*
X148166666Y-77952380D02*
X148785714Y-77952380D01*
X148452380Y-78333333D01*
X148595238Y-78333333D01*
X148690476Y-78380952D01*
X148738095Y-78428571D01*
X148785714Y-78523809D01*
X148785714Y-78761904D01*
X148738095Y-78857142D01*
X148690476Y-78904761D01*
X148595238Y-78952380D01*
X148309523Y-78952380D01*
X148214285Y-78904761D01*
X148166666Y-78857142D01*
X145857142Y-99166666D02*
X145904761Y-99214285D01*
X145952380Y-99357142D01*
X145952380Y-99452380D01*
X145904761Y-99595238D01*
X145809523Y-99690476D01*
X145714285Y-99738095D01*
X145523809Y-99785714D01*
X145380952Y-99785714D01*
X145190476Y-99738095D01*
X145095238Y-99690476D01*
X145000000Y-99595238D01*
X144952380Y-99452380D01*
X144952380Y-99357142D01*
X145000000Y-99214285D01*
X145047619Y-99166666D01*
X145047619Y-98785714D02*
X145000000Y-98738095D01*
X144952380Y-98642857D01*
X144952380Y-98404761D01*
X145000000Y-98309523D01*
X145047619Y-98261904D01*
X145142857Y-98214285D01*
X145238095Y-98214285D01*
X145380952Y-98261904D01*
X145952380Y-98833333D01*
X145952380Y-98214285D01*
X131833333Y-88857142D02*
X131785714Y-88904761D01*
X131642857Y-88952380D01*
X131547619Y-88952380D01*
X131404761Y-88904761D01*
X131309523Y-88809523D01*
X131261904Y-88714285D01*
X131214285Y-88523809D01*
X131214285Y-88380952D01*
X131261904Y-88190476D01*
X131309523Y-88095238D01*
X131404761Y-88000000D01*
X131547619Y-87952380D01*
X131642857Y-87952380D01*
X131785714Y-88000000D01*
X131833333Y-88047619D01*
X132785714Y-88952380D02*
X132214285Y-88952380D01*
X132500000Y-88952380D02*
X132500000Y-87952380D01*
X132404761Y-88095238D01*
X132309523Y-88190476D01*
X132214285Y-88238095D01*
%LPC*%
G36*
G01*
X161150000Y-101950001D02*
X161150000Y-101049999D01*
G75*
G02*
X161399999Y-100800000I249999J0D01*
G01*
X161925001Y-100800000D01*
G75*
G02*
X162175000Y-101049999I0J-249999D01*
G01*
X162175000Y-101950001D01*
G75*
G02*
X161925001Y-102200000I-249999J0D01*
G01*
X161399999Y-102200000D01*
G75*
G02*
X161150000Y-101950001I0J249999D01*
G01*
G37*
G36*
G01*
X159325000Y-101950001D02*
X159325000Y-101049999D01*
G75*
G02*
X159574999Y-100800000I249999J0D01*
G01*
X160100001Y-100800000D01*
G75*
G02*
X160350000Y-101049999I0J-249999D01*
G01*
X160350000Y-101950001D01*
G75*
G02*
X160100001Y-102200000I-249999J0D01*
G01*
X159574999Y-102200000D01*
G75*
G02*
X159325000Y-101950001I0J249999D01*
G01*
G37*
G36*
G01*
X164799999Y-94900000D02*
X165700001Y-94900000D01*
G75*
G02*
X165950000Y-95149999I0J-249999D01*
G01*
X165950000Y-95675001D01*
G75*
G02*
X165700001Y-95925000I-249999J0D01*
G01*
X164799999Y-95925000D01*
G75*
G02*
X164550000Y-95675001I0J249999D01*
G01*
X164550000Y-95149999D01*
G75*
G02*
X164799999Y-94900000I249999J0D01*
G01*
G37*
G36*
G01*
X164799999Y-93075000D02*
X165700001Y-93075000D01*
G75*
G02*
X165950000Y-93324999I0J-249999D01*
G01*
X165950000Y-93850001D01*
G75*
G02*
X165700001Y-94100000I-249999J0D01*
G01*
X164799999Y-94100000D01*
G75*
G02*
X164550000Y-93850001I0J249999D01*
G01*
X164550000Y-93324999D01*
G75*
G02*
X164799999Y-93075000I249999J0D01*
G01*
G37*
G36*
G01*
X157400000Y-101950001D02*
X157400000Y-101049999D01*
G75*
G02*
X157649999Y-100800000I249999J0D01*
G01*
X158175001Y-100800000D01*
G75*
G02*
X158425000Y-101049999I0J-249999D01*
G01*
X158425000Y-101950001D01*
G75*
G02*
X158175001Y-102200000I-249999J0D01*
G01*
X157649999Y-102200000D01*
G75*
G02*
X157400000Y-101950001I0J249999D01*
G01*
G37*
G36*
G01*
X155575000Y-101950001D02*
X155575000Y-101049999D01*
G75*
G02*
X155824999Y-100800000I249999J0D01*
G01*
X156350001Y-100800000D01*
G75*
G02*
X156600000Y-101049999I0J-249999D01*
G01*
X156600000Y-101950001D01*
G75*
G02*
X156350001Y-102200000I-249999J0D01*
G01*
X155824999Y-102200000D01*
G75*
G02*
X155575000Y-101950001I0J249999D01*
G01*
G37*
G36*
G01*
X155799999Y-94900000D02*
X156700001Y-94900000D01*
G75*
G02*
X156950000Y-95149999I0J-249999D01*
G01*
X156950000Y-95675001D01*
G75*
G02*
X156700001Y-95925000I-249999J0D01*
G01*
X155799999Y-95925000D01*
G75*
G02*
X155550000Y-95675001I0J249999D01*
G01*
X155550000Y-95149999D01*
G75*
G02*
X155799999Y-94900000I249999J0D01*
G01*
G37*
G36*
G01*
X155799999Y-93075000D02*
X156700001Y-93075000D01*
G75*
G02*
X156950000Y-93324999I0J-249999D01*
G01*
X156950000Y-93850001D01*
G75*
G02*
X156700001Y-94100000I-249999J0D01*
G01*
X155799999Y-94100000D01*
G75*
G02*
X155550000Y-93850001I0J249999D01*
G01*
X155550000Y-93324999D01*
G75*
G02*
X155799999Y-93075000I249999J0D01*
G01*
G37*
D14*
X161750000Y-98500000D03*
X159750000Y-99450000D03*
X159750000Y-97550000D03*
X158000000Y-98500000D03*
X156000000Y-99450000D03*
X156000000Y-97550000D03*
D15*
X149500000Y-119500000D03*
G36*
G01*
X151300000Y-117745000D02*
X151300000Y-117445000D01*
G75*
G02*
X151450000Y-117295000I150000J0D01*
G01*
X152800000Y-117295000D01*
G75*
G02*
X152950000Y-117445000I0J-150000D01*
G01*
X152950000Y-117745000D01*
G75*
G02*
X152800000Y-117895000I-150000J0D01*
G01*
X151450000Y-117895000D01*
G75*
G02*
X151300000Y-117745000I0J150000D01*
G01*
G37*
G36*
G01*
X151300000Y-119015000D02*
X151300000Y-118715000D01*
G75*
G02*
X151450000Y-118565000I150000J0D01*
G01*
X152800000Y-118565000D01*
G75*
G02*
X152950000Y-118715000I0J-150000D01*
G01*
X152950000Y-119015000D01*
G75*
G02*
X152800000Y-119165000I-150000J0D01*
G01*
X151450000Y-119165000D01*
G75*
G02*
X151300000Y-119015000I0J150000D01*
G01*
G37*
G36*
G01*
X151300000Y-120285000D02*
X151300000Y-119985000D01*
G75*
G02*
X151450000Y-119835000I150000J0D01*
G01*
X152800000Y-119835000D01*
G75*
G02*
X152950000Y-119985000I0J-150000D01*
G01*
X152950000Y-120285000D01*
G75*
G02*
X152800000Y-120435000I-150000J0D01*
G01*
X151450000Y-120435000D01*
G75*
G02*
X151300000Y-120285000I0J150000D01*
G01*
G37*
G36*
G01*
X151300000Y-121555000D02*
X151300000Y-121255000D01*
G75*
G02*
X151450000Y-121105000I150000J0D01*
G01*
X152800000Y-121105000D01*
G75*
G02*
X152950000Y-121255000I0J-150000D01*
G01*
X152950000Y-121555000D01*
G75*
G02*
X152800000Y-121705000I-150000J0D01*
G01*
X151450000Y-121705000D01*
G75*
G02*
X151300000Y-121555000I0J150000D01*
G01*
G37*
G36*
G01*
X146050000Y-121555000D02*
X146050000Y-121255000D01*
G75*
G02*
X146200000Y-121105000I150000J0D01*
G01*
X147550000Y-121105000D01*
G75*
G02*
X147700000Y-121255000I0J-150000D01*
G01*
X147700000Y-121555000D01*
G75*
G02*
X147550000Y-121705000I-150000J0D01*
G01*
X146200000Y-121705000D01*
G75*
G02*
X146050000Y-121555000I0J150000D01*
G01*
G37*
G36*
G01*
X146050000Y-120285000D02*
X146050000Y-119985000D01*
G75*
G02*
X146200000Y-119835000I150000J0D01*
G01*
X147550000Y-119835000D01*
G75*
G02*
X147700000Y-119985000I0J-150000D01*
G01*
X147700000Y-120285000D01*
G75*
G02*
X147550000Y-120435000I-150000J0D01*
G01*
X146200000Y-120435000D01*
G75*
G02*
X146050000Y-120285000I0J150000D01*
G01*
G37*
G36*
G01*
X146050000Y-119015000D02*
X146050000Y-118715000D01*
G75*
G02*
X146200000Y-118565000I150000J0D01*
G01*
X147550000Y-118565000D01*
G75*
G02*
X147700000Y-118715000I0J-150000D01*
G01*
X147700000Y-119015000D01*
G75*
G02*
X147550000Y-119165000I-150000J0D01*
G01*
X146200000Y-119165000D01*
G75*
G02*
X146050000Y-119015000I0J150000D01*
G01*
G37*
G36*
G01*
X146050000Y-117745000D02*
X146050000Y-117445000D01*
G75*
G02*
X146200000Y-117295000I150000J0D01*
G01*
X147550000Y-117295000D01*
G75*
G02*
X147700000Y-117445000I0J-150000D01*
G01*
X147700000Y-117745000D01*
G75*
G02*
X147550000Y-117895000I-150000J0D01*
G01*
X146200000Y-117895000D01*
G75*
G02*
X146050000Y-117745000I0J150000D01*
G01*
G37*
X149500000Y-112500000D03*
G36*
G01*
X151300000Y-110745000D02*
X151300000Y-110445000D01*
G75*
G02*
X151450000Y-110295000I150000J0D01*
G01*
X152800000Y-110295000D01*
G75*
G02*
X152950000Y-110445000I0J-150000D01*
G01*
X152950000Y-110745000D01*
G75*
G02*
X152800000Y-110895000I-150000J0D01*
G01*
X151450000Y-110895000D01*
G75*
G02*
X151300000Y-110745000I0J150000D01*
G01*
G37*
G36*
G01*
X151300000Y-112015000D02*
X151300000Y-111715000D01*
G75*
G02*
X151450000Y-111565000I150000J0D01*
G01*
X152800000Y-111565000D01*
G75*
G02*
X152950000Y-111715000I0J-150000D01*
G01*
X152950000Y-112015000D01*
G75*
G02*
X152800000Y-112165000I-150000J0D01*
G01*
X151450000Y-112165000D01*
G75*
G02*
X151300000Y-112015000I0J150000D01*
G01*
G37*
G36*
G01*
X151300000Y-113285000D02*
X151300000Y-112985000D01*
G75*
G02*
X151450000Y-112835000I150000J0D01*
G01*
X152800000Y-112835000D01*
G75*
G02*
X152950000Y-112985000I0J-150000D01*
G01*
X152950000Y-113285000D01*
G75*
G02*
X152800000Y-113435000I-150000J0D01*
G01*
X151450000Y-113435000D01*
G75*
G02*
X151300000Y-113285000I0J150000D01*
G01*
G37*
G36*
G01*
X151300000Y-114555000D02*
X151300000Y-114255000D01*
G75*
G02*
X151450000Y-114105000I150000J0D01*
G01*
X152800000Y-114105000D01*
G75*
G02*
X152950000Y-114255000I0J-150000D01*
G01*
X152950000Y-114555000D01*
G75*
G02*
X152800000Y-114705000I-150000J0D01*
G01*
X151450000Y-114705000D01*
G75*
G02*
X151300000Y-114555000I0J150000D01*
G01*
G37*
G36*
G01*
X146050000Y-114555000D02*
X146050000Y-114255000D01*
G75*
G02*
X146200000Y-114105000I150000J0D01*
G01*
X147550000Y-114105000D01*
G75*
G02*
X147700000Y-114255000I0J-150000D01*
G01*
X147700000Y-114555000D01*
G75*
G02*
X147550000Y-114705000I-150000J0D01*
G01*
X146200000Y-114705000D01*
G75*
G02*
X146050000Y-114555000I0J150000D01*
G01*
G37*
G36*
G01*
X146050000Y-113285000D02*
X146050000Y-112985000D01*
G75*
G02*
X146200000Y-112835000I150000J0D01*
G01*
X147550000Y-112835000D01*
G75*
G02*
X147700000Y-112985000I0J-150000D01*
G01*
X147700000Y-113285000D01*
G75*
G02*
X147550000Y-113435000I-150000J0D01*
G01*
X146200000Y-113435000D01*
G75*
G02*
X146050000Y-113285000I0J150000D01*
G01*
G37*
G36*
G01*
X146050000Y-112015000D02*
X146050000Y-111715000D01*
G75*
G02*
X146200000Y-111565000I150000J0D01*
G01*
X147550000Y-111565000D01*
G75*
G02*
X147700000Y-111715000I0J-150000D01*
G01*
X147700000Y-112015000D01*
G75*
G02*
X147550000Y-112165000I-150000J0D01*
G01*
X146200000Y-112165000D01*
G75*
G02*
X146050000Y-112015000I0J150000D01*
G01*
G37*
G36*
G01*
X146050000Y-110745000D02*
X146050000Y-110445000D01*
G75*
G02*
X146200000Y-110295000I150000J0D01*
G01*
X147550000Y-110295000D01*
G75*
G02*
X147700000Y-110445000I0J-150000D01*
G01*
X147700000Y-110745000D01*
G75*
G02*
X147550000Y-110895000I-150000J0D01*
G01*
X146200000Y-110895000D01*
G75*
G02*
X146050000Y-110745000I0J150000D01*
G01*
G37*
X149500000Y-105500000D03*
G36*
G01*
X151300000Y-103745000D02*
X151300000Y-103445000D01*
G75*
G02*
X151450000Y-103295000I150000J0D01*
G01*
X152800000Y-103295000D01*
G75*
G02*
X152950000Y-103445000I0J-150000D01*
G01*
X152950000Y-103745000D01*
G75*
G02*
X152800000Y-103895000I-150000J0D01*
G01*
X151450000Y-103895000D01*
G75*
G02*
X151300000Y-103745000I0J150000D01*
G01*
G37*
G36*
G01*
X151300000Y-105015000D02*
X151300000Y-104715000D01*
G75*
G02*
X151450000Y-104565000I150000J0D01*
G01*
X152800000Y-104565000D01*
G75*
G02*
X152950000Y-104715000I0J-150000D01*
G01*
X152950000Y-105015000D01*
G75*
G02*
X152800000Y-105165000I-150000J0D01*
G01*
X151450000Y-105165000D01*
G75*
G02*
X151300000Y-105015000I0J150000D01*
G01*
G37*
G36*
G01*
X151300000Y-106285000D02*
X151300000Y-105985000D01*
G75*
G02*
X151450000Y-105835000I150000J0D01*
G01*
X152800000Y-105835000D01*
G75*
G02*
X152950000Y-105985000I0J-150000D01*
G01*
X152950000Y-106285000D01*
G75*
G02*
X152800000Y-106435000I-150000J0D01*
G01*
X151450000Y-106435000D01*
G75*
G02*
X151300000Y-106285000I0J150000D01*
G01*
G37*
G36*
G01*
X151300000Y-107555000D02*
X151300000Y-107255000D01*
G75*
G02*
X151450000Y-107105000I150000J0D01*
G01*
X152800000Y-107105000D01*
G75*
G02*
X152950000Y-107255000I0J-150000D01*
G01*
X152950000Y-107555000D01*
G75*
G02*
X152800000Y-107705000I-150000J0D01*
G01*
X151450000Y-107705000D01*
G75*
G02*
X151300000Y-107555000I0J150000D01*
G01*
G37*
G36*
G01*
X146050000Y-107555000D02*
X146050000Y-107255000D01*
G75*
G02*
X146200000Y-107105000I150000J0D01*
G01*
X147550000Y-107105000D01*
G75*
G02*
X147700000Y-107255000I0J-150000D01*
G01*
X147700000Y-107555000D01*
G75*
G02*
X147550000Y-107705000I-150000J0D01*
G01*
X146200000Y-107705000D01*
G75*
G02*
X146050000Y-107555000I0J150000D01*
G01*
G37*
G36*
G01*
X146050000Y-106285000D02*
X146050000Y-105985000D01*
G75*
G02*
X146200000Y-105835000I150000J0D01*
G01*
X147550000Y-105835000D01*
G75*
G02*
X147700000Y-105985000I0J-150000D01*
G01*
X147700000Y-106285000D01*
G75*
G02*
X147550000Y-106435000I-150000J0D01*
G01*
X146200000Y-106435000D01*
G75*
G02*
X146050000Y-106285000I0J150000D01*
G01*
G37*
G36*
G01*
X146050000Y-105015000D02*
X146050000Y-104715000D01*
G75*
G02*
X146200000Y-104565000I150000J0D01*
G01*
X147550000Y-104565000D01*
G75*
G02*
X147700000Y-104715000I0J-150000D01*
G01*
X147700000Y-105015000D01*
G75*
G02*
X147550000Y-105165000I-150000J0D01*
G01*
X146200000Y-105165000D01*
G75*
G02*
X146050000Y-105015000I0J150000D01*
G01*
G37*
G36*
G01*
X146050000Y-103745000D02*
X146050000Y-103445000D01*
G75*
G02*
X146200000Y-103295000I150000J0D01*
G01*
X147550000Y-103295000D01*
G75*
G02*
X147700000Y-103445000I0J-150000D01*
G01*
X147700000Y-103745000D01*
G75*
G02*
X147550000Y-103895000I-150000J0D01*
G01*
X146200000Y-103895000D01*
G75*
G02*
X146050000Y-103745000I0J150000D01*
G01*
G37*
D12*
G36*
X136500000Y-76881192D02*
G01*
X138868808Y-79250000D01*
X136500000Y-81618808D01*
X134131192Y-79250000D01*
X136500000Y-76881192D01*
G37*
G36*
G01*
X139142812Y-79594714D02*
X139620109Y-80072011D01*
G75*
G02*
X139620109Y-80160399I-44194J-44194D01*
G01*
X139531720Y-80248788D01*
G75*
G02*
X139443332Y-80248788I-44194J44194D01*
G01*
X138966035Y-79771491D01*
G75*
G02*
X138966035Y-79683103I44194J44194D01*
G01*
X139054424Y-79594714D01*
G75*
G02*
X139142812Y-79594714I44194J-44194D01*
G01*
G37*
G36*
G01*
X138789258Y-79948268D02*
X139266555Y-80425565D01*
G75*
G02*
X139266555Y-80513953I-44194J-44194D01*
G01*
X139178166Y-80602342D01*
G75*
G02*
X139089778Y-80602342I-44194J44194D01*
G01*
X138612481Y-80125045D01*
G75*
G02*
X138612481Y-80036657I44194J44194D01*
G01*
X138700870Y-79948268D01*
G75*
G02*
X138789258Y-79948268I44194J-44194D01*
G01*
G37*
G36*
G01*
X138435705Y-80301821D02*
X138913002Y-80779118D01*
G75*
G02*
X138913002Y-80867506I-44194J-44194D01*
G01*
X138824613Y-80955895D01*
G75*
G02*
X138736225Y-80955895I-44194J44194D01*
G01*
X138258928Y-80478598D01*
G75*
G02*
X138258928Y-80390210I44194J44194D01*
G01*
X138347317Y-80301821D01*
G75*
G02*
X138435705Y-80301821I44194J-44194D01*
G01*
G37*
G36*
G01*
X138082152Y-80655375D02*
X138559449Y-81132672D01*
G75*
G02*
X138559449Y-81221060I-44194J-44194D01*
G01*
X138471060Y-81309449D01*
G75*
G02*
X138382672Y-81309449I-44194J44194D01*
G01*
X137905375Y-80832152D01*
G75*
G02*
X137905375Y-80743764I44194J44194D01*
G01*
X137993764Y-80655375D01*
G75*
G02*
X138082152Y-80655375I44194J-44194D01*
G01*
G37*
G36*
G01*
X137728598Y-81008928D02*
X138205895Y-81486225D01*
G75*
G02*
X138205895Y-81574613I-44194J-44194D01*
G01*
X138117506Y-81663002D01*
G75*
G02*
X138029118Y-81663002I-44194J44194D01*
G01*
X137551821Y-81185705D01*
G75*
G02*
X137551821Y-81097317I44194J44194D01*
G01*
X137640210Y-81008928D01*
G75*
G02*
X137728598Y-81008928I44194J-44194D01*
G01*
G37*
G36*
G01*
X137375045Y-81362481D02*
X137852342Y-81839778D01*
G75*
G02*
X137852342Y-81928166I-44194J-44194D01*
G01*
X137763953Y-82016555D01*
G75*
G02*
X137675565Y-82016555I-44194J44194D01*
G01*
X137198268Y-81539258D01*
G75*
G02*
X137198268Y-81450870I44194J44194D01*
G01*
X137286657Y-81362481D01*
G75*
G02*
X137375045Y-81362481I44194J-44194D01*
G01*
G37*
G36*
G01*
X137021491Y-81716035D02*
X137498788Y-82193332D01*
G75*
G02*
X137498788Y-82281720I-44194J-44194D01*
G01*
X137410399Y-82370109D01*
G75*
G02*
X137322011Y-82370109I-44194J44194D01*
G01*
X136844714Y-81892812D01*
G75*
G02*
X136844714Y-81804424I44194J44194D01*
G01*
X136933103Y-81716035D01*
G75*
G02*
X137021491Y-81716035I44194J-44194D01*
G01*
G37*
G36*
G01*
X136066897Y-81716035D02*
X136155286Y-81804424D01*
G75*
G02*
X136155286Y-81892812I-44194J-44194D01*
G01*
X135677989Y-82370109D01*
G75*
G02*
X135589601Y-82370109I-44194J44194D01*
G01*
X135501212Y-82281720D01*
G75*
G02*
X135501212Y-82193332I44194J44194D01*
G01*
X135978509Y-81716035D01*
G75*
G02*
X136066897Y-81716035I44194J-44194D01*
G01*
G37*
G36*
G01*
X135713343Y-81362481D02*
X135801732Y-81450870D01*
G75*
G02*
X135801732Y-81539258I-44194J-44194D01*
G01*
X135324435Y-82016555D01*
G75*
G02*
X135236047Y-82016555I-44194J44194D01*
G01*
X135147658Y-81928166D01*
G75*
G02*
X135147658Y-81839778I44194J44194D01*
G01*
X135624955Y-81362481D01*
G75*
G02*
X135713343Y-81362481I44194J-44194D01*
G01*
G37*
G36*
G01*
X135359790Y-81008928D02*
X135448179Y-81097317D01*
G75*
G02*
X135448179Y-81185705I-44194J-44194D01*
G01*
X134970882Y-81663002D01*
G75*
G02*
X134882494Y-81663002I-44194J44194D01*
G01*
X134794105Y-81574613D01*
G75*
G02*
X134794105Y-81486225I44194J44194D01*
G01*
X135271402Y-81008928D01*
G75*
G02*
X135359790Y-81008928I44194J-44194D01*
G01*
G37*
G36*
G01*
X135006236Y-80655375D02*
X135094625Y-80743764D01*
G75*
G02*
X135094625Y-80832152I-44194J-44194D01*
G01*
X134617328Y-81309449D01*
G75*
G02*
X134528940Y-81309449I-44194J44194D01*
G01*
X134440551Y-81221060D01*
G75*
G02*
X134440551Y-81132672I44194J44194D01*
G01*
X134917848Y-80655375D01*
G75*
G02*
X135006236Y-80655375I44194J-44194D01*
G01*
G37*
G36*
G01*
X134652683Y-80301821D02*
X134741072Y-80390210D01*
G75*
G02*
X134741072Y-80478598I-44194J-44194D01*
G01*
X134263775Y-80955895D01*
G75*
G02*
X134175387Y-80955895I-44194J44194D01*
G01*
X134086998Y-80867506D01*
G75*
G02*
X134086998Y-80779118I44194J44194D01*
G01*
X134564295Y-80301821D01*
G75*
G02*
X134652683Y-80301821I44194J-44194D01*
G01*
G37*
G36*
G01*
X134299130Y-79948268D02*
X134387519Y-80036657D01*
G75*
G02*
X134387519Y-80125045I-44194J-44194D01*
G01*
X133910222Y-80602342D01*
G75*
G02*
X133821834Y-80602342I-44194J44194D01*
G01*
X133733445Y-80513953D01*
G75*
G02*
X133733445Y-80425565I44194J44194D01*
G01*
X134210742Y-79948268D01*
G75*
G02*
X134299130Y-79948268I44194J-44194D01*
G01*
G37*
G36*
G01*
X133945576Y-79594714D02*
X134033965Y-79683103D01*
G75*
G02*
X134033965Y-79771491I-44194J-44194D01*
G01*
X133556668Y-80248788D01*
G75*
G02*
X133468280Y-80248788I-44194J44194D01*
G01*
X133379891Y-80160399D01*
G75*
G02*
X133379891Y-80072011I44194J44194D01*
G01*
X133857188Y-79594714D01*
G75*
G02*
X133945576Y-79594714I44194J-44194D01*
G01*
G37*
G36*
G01*
X133556668Y-78251212D02*
X134033965Y-78728509D01*
G75*
G02*
X134033965Y-78816897I-44194J-44194D01*
G01*
X133945576Y-78905286D01*
G75*
G02*
X133857188Y-78905286I-44194J44194D01*
G01*
X133379891Y-78427989D01*
G75*
G02*
X133379891Y-78339601I44194J44194D01*
G01*
X133468280Y-78251212D01*
G75*
G02*
X133556668Y-78251212I44194J-44194D01*
G01*
G37*
G36*
G01*
X133910222Y-77897658D02*
X134387519Y-78374955D01*
G75*
G02*
X134387519Y-78463343I-44194J-44194D01*
G01*
X134299130Y-78551732D01*
G75*
G02*
X134210742Y-78551732I-44194J44194D01*
G01*
X133733445Y-78074435D01*
G75*
G02*
X133733445Y-77986047I44194J44194D01*
G01*
X133821834Y-77897658D01*
G75*
G02*
X133910222Y-77897658I44194J-44194D01*
G01*
G37*
G36*
G01*
X134263775Y-77544105D02*
X134741072Y-78021402D01*
G75*
G02*
X134741072Y-78109790I-44194J-44194D01*
G01*
X134652683Y-78198179D01*
G75*
G02*
X134564295Y-78198179I-44194J44194D01*
G01*
X134086998Y-77720882D01*
G75*
G02*
X134086998Y-77632494I44194J44194D01*
G01*
X134175387Y-77544105D01*
G75*
G02*
X134263775Y-77544105I44194J-44194D01*
G01*
G37*
G36*
G01*
X134617328Y-77190551D02*
X135094625Y-77667848D01*
G75*
G02*
X135094625Y-77756236I-44194J-44194D01*
G01*
X135006236Y-77844625D01*
G75*
G02*
X134917848Y-77844625I-44194J44194D01*
G01*
X134440551Y-77367328D01*
G75*
G02*
X134440551Y-77278940I44194J44194D01*
G01*
X134528940Y-77190551D01*
G75*
G02*
X134617328Y-77190551I44194J-44194D01*
G01*
G37*
G36*
G01*
X134970882Y-76836998D02*
X135448179Y-77314295D01*
G75*
G02*
X135448179Y-77402683I-44194J-44194D01*
G01*
X135359790Y-77491072D01*
G75*
G02*
X135271402Y-77491072I-44194J44194D01*
G01*
X134794105Y-77013775D01*
G75*
G02*
X134794105Y-76925387I44194J44194D01*
G01*
X134882494Y-76836998D01*
G75*
G02*
X134970882Y-76836998I44194J-44194D01*
G01*
G37*
G36*
G01*
X135324435Y-76483445D02*
X135801732Y-76960742D01*
G75*
G02*
X135801732Y-77049130I-44194J-44194D01*
G01*
X135713343Y-77137519D01*
G75*
G02*
X135624955Y-77137519I-44194J44194D01*
G01*
X135147658Y-76660222D01*
G75*
G02*
X135147658Y-76571834I44194J44194D01*
G01*
X135236047Y-76483445D01*
G75*
G02*
X135324435Y-76483445I44194J-44194D01*
G01*
G37*
G36*
G01*
X135677989Y-76129891D02*
X136155286Y-76607188D01*
G75*
G02*
X136155286Y-76695576I-44194J-44194D01*
G01*
X136066897Y-76783965D01*
G75*
G02*
X135978509Y-76783965I-44194J44194D01*
G01*
X135501212Y-76306668D01*
G75*
G02*
X135501212Y-76218280I44194J44194D01*
G01*
X135589601Y-76129891D01*
G75*
G02*
X135677989Y-76129891I44194J-44194D01*
G01*
G37*
G36*
G01*
X137410399Y-76129891D02*
X137498788Y-76218280D01*
G75*
G02*
X137498788Y-76306668I-44194J-44194D01*
G01*
X137021491Y-76783965D01*
G75*
G02*
X136933103Y-76783965I-44194J44194D01*
G01*
X136844714Y-76695576D01*
G75*
G02*
X136844714Y-76607188I44194J44194D01*
G01*
X137322011Y-76129891D01*
G75*
G02*
X137410399Y-76129891I44194J-44194D01*
G01*
G37*
G36*
G01*
X137763953Y-76483445D02*
X137852342Y-76571834D01*
G75*
G02*
X137852342Y-76660222I-44194J-44194D01*
G01*
X137375045Y-77137519D01*
G75*
G02*
X137286657Y-77137519I-44194J44194D01*
G01*
X137198268Y-77049130D01*
G75*
G02*
X137198268Y-76960742I44194J44194D01*
G01*
X137675565Y-76483445D01*
G75*
G02*
X137763953Y-76483445I44194J-44194D01*
G01*
G37*
G36*
G01*
X138117506Y-76836998D02*
X138205895Y-76925387D01*
G75*
G02*
X138205895Y-77013775I-44194J-44194D01*
G01*
X137728598Y-77491072D01*
G75*
G02*
X137640210Y-77491072I-44194J44194D01*
G01*
X137551821Y-77402683D01*
G75*
G02*
X137551821Y-77314295I44194J44194D01*
G01*
X138029118Y-76836998D01*
G75*
G02*
X138117506Y-76836998I44194J-44194D01*
G01*
G37*
G36*
G01*
X138471060Y-77190551D02*
X138559449Y-77278940D01*
G75*
G02*
X138559449Y-77367328I-44194J-44194D01*
G01*
X138082152Y-77844625D01*
G75*
G02*
X137993764Y-77844625I-44194J44194D01*
G01*
X137905375Y-77756236D01*
G75*
G02*
X137905375Y-77667848I44194J44194D01*
G01*
X138382672Y-77190551D01*
G75*
G02*
X138471060Y-77190551I44194J-44194D01*
G01*
G37*
G36*
G01*
X138824613Y-77544105D02*
X138913002Y-77632494D01*
G75*
G02*
X138913002Y-77720882I-44194J-44194D01*
G01*
X138435705Y-78198179D01*
G75*
G02*
X138347317Y-78198179I-44194J44194D01*
G01*
X138258928Y-78109790D01*
G75*
G02*
X138258928Y-78021402I44194J44194D01*
G01*
X138736225Y-77544105D01*
G75*
G02*
X138824613Y-77544105I44194J-44194D01*
G01*
G37*
G36*
G01*
X139178166Y-77897658D02*
X139266555Y-77986047D01*
G75*
G02*
X139266555Y-78074435I-44194J-44194D01*
G01*
X138789258Y-78551732D01*
G75*
G02*
X138700870Y-78551732I-44194J44194D01*
G01*
X138612481Y-78463343D01*
G75*
G02*
X138612481Y-78374955I44194J44194D01*
G01*
X139089778Y-77897658D01*
G75*
G02*
X139178166Y-77897658I44194J-44194D01*
G01*
G37*
G36*
G01*
X139531720Y-78251212D02*
X139620109Y-78339601D01*
G75*
G02*
X139620109Y-78427989I-44194J-44194D01*
G01*
X139142812Y-78905286D01*
G75*
G02*
X139054424Y-78905286I-44194J44194D01*
G01*
X138966035Y-78816897D01*
G75*
G02*
X138966035Y-78728509I44194J44194D01*
G01*
X139443332Y-78251212D01*
G75*
G02*
X139531720Y-78251212I44194J-44194D01*
G01*
G37*
D16*
X167600000Y-75750000D03*
X167600000Y-77750000D03*
X167600000Y-79750000D03*
X167600000Y-81750000D03*
X167600000Y-83750000D03*
X167600000Y-85750000D03*
X167600000Y-87750000D03*
X167600000Y-89750000D03*
D17*
X165000000Y-91250000D03*
X163000000Y-91250000D03*
X161000000Y-91250000D03*
X159000000Y-91250000D03*
X157000000Y-91250000D03*
X155000000Y-91250000D03*
D16*
X152400000Y-89750000D03*
X152400000Y-87750000D03*
X152400000Y-85750000D03*
X152400000Y-83750000D03*
X152400000Y-81750000D03*
X152400000Y-79750000D03*
X152400000Y-77750000D03*
X152400000Y-75750000D03*
D18*
X131000000Y-93750000D03*
G36*
G01*
X132755000Y-95550000D02*
X133055000Y-95550000D01*
G75*
G02*
X133205000Y-95700000I0J-150000D01*
G01*
X133205000Y-97050000D01*
G75*
G02*
X133055000Y-97200000I-150000J0D01*
G01*
X132755000Y-97200000D01*
G75*
G02*
X132605000Y-97050000I0J150000D01*
G01*
X132605000Y-95700000D01*
G75*
G02*
X132755000Y-95550000I150000J0D01*
G01*
G37*
G36*
G01*
X131485000Y-95550000D02*
X131785000Y-95550000D01*
G75*
G02*
X131935000Y-95700000I0J-150000D01*
G01*
X131935000Y-97050000D01*
G75*
G02*
X131785000Y-97200000I-150000J0D01*
G01*
X131485000Y-97200000D01*
G75*
G02*
X131335000Y-97050000I0J150000D01*
G01*
X131335000Y-95700000D01*
G75*
G02*
X131485000Y-95550000I150000J0D01*
G01*
G37*
G36*
G01*
X130215000Y-95550000D02*
X130515000Y-95550000D01*
G75*
G02*
X130665000Y-95700000I0J-150000D01*
G01*
X130665000Y-97050000D01*
G75*
G02*
X130515000Y-97200000I-150000J0D01*
G01*
X130215000Y-97200000D01*
G75*
G02*
X130065000Y-97050000I0J150000D01*
G01*
X130065000Y-95700000D01*
G75*
G02*
X130215000Y-95550000I150000J0D01*
G01*
G37*
G36*
G01*
X128945000Y-95550000D02*
X129245000Y-95550000D01*
G75*
G02*
X129395000Y-95700000I0J-150000D01*
G01*
X129395000Y-97050000D01*
G75*
G02*
X129245000Y-97200000I-150000J0D01*
G01*
X128945000Y-97200000D01*
G75*
G02*
X128795000Y-97050000I0J150000D01*
G01*
X128795000Y-95700000D01*
G75*
G02*
X128945000Y-95550000I150000J0D01*
G01*
G37*
G36*
G01*
X128945000Y-90300000D02*
X129245000Y-90300000D01*
G75*
G02*
X129395000Y-90450000I0J-150000D01*
G01*
X129395000Y-91800000D01*
G75*
G02*
X129245000Y-91950000I-150000J0D01*
G01*
X128945000Y-91950000D01*
G75*
G02*
X128795000Y-91800000I0J150000D01*
G01*
X128795000Y-90450000D01*
G75*
G02*
X128945000Y-90300000I150000J0D01*
G01*
G37*
G36*
G01*
X130215000Y-90300000D02*
X130515000Y-90300000D01*
G75*
G02*
X130665000Y-90450000I0J-150000D01*
G01*
X130665000Y-91800000D01*
G75*
G02*
X130515000Y-91950000I-150000J0D01*
G01*
X130215000Y-91950000D01*
G75*
G02*
X130065000Y-91800000I0J150000D01*
G01*
X130065000Y-90450000D01*
G75*
G02*
X130215000Y-90300000I150000J0D01*
G01*
G37*
G36*
G01*
X131485000Y-90300000D02*
X131785000Y-90300000D01*
G75*
G02*
X131935000Y-90450000I0J-150000D01*
G01*
X131935000Y-91800000D01*
G75*
G02*
X131785000Y-91950000I-150000J0D01*
G01*
X131485000Y-91950000D01*
G75*
G02*
X131335000Y-91800000I0J150000D01*
G01*
X131335000Y-90450000D01*
G75*
G02*
X131485000Y-90300000I150000J0D01*
G01*
G37*
G36*
G01*
X132755000Y-90300000D02*
X133055000Y-90300000D01*
G75*
G02*
X133205000Y-90450000I0J-150000D01*
G01*
X133205000Y-91800000D01*
G75*
G02*
X133055000Y-91950000I-150000J0D01*
G01*
X132755000Y-91950000D01*
G75*
G02*
X132605000Y-91800000I0J150000D01*
G01*
X132605000Y-90450000D01*
G75*
G02*
X132755000Y-90300000I150000J0D01*
G01*
G37*
D19*
X141050000Y-85850000D03*
X136450000Y-85850000D03*
X138750000Y-85850000D03*
D20*
X138750000Y-92150000D03*
D21*
X136350000Y-94950000D03*
X136350000Y-99550000D03*
X136350000Y-97250000D03*
D22*
X142650000Y-97250000D03*
D23*
X171750000Y-75800000D03*
X171750000Y-79200000D03*
X144250000Y-75300000D03*
X144250000Y-78700000D03*
G36*
G01*
X154850000Y-121299999D02*
X154850000Y-122200001D01*
G75*
G02*
X154600001Y-122450000I-249999J0D01*
G01*
X154074999Y-122450000D01*
G75*
G02*
X153825000Y-122200001I0J249999D01*
G01*
X153825000Y-121299999D01*
G75*
G02*
X154074999Y-121050000I249999J0D01*
G01*
X154600001Y-121050000D01*
G75*
G02*
X154850000Y-121299999I0J-249999D01*
G01*
G37*
G36*
G01*
X156675000Y-121299999D02*
X156675000Y-122200001D01*
G75*
G02*
X156425001Y-122450000I-249999J0D01*
G01*
X155899999Y-122450000D01*
G75*
G02*
X155650000Y-122200001I0J249999D01*
G01*
X155650000Y-121299999D01*
G75*
G02*
X155899999Y-121050000I249999J0D01*
G01*
X156425001Y-121050000D01*
G75*
G02*
X156675000Y-121299999I0J-249999D01*
G01*
G37*
G36*
G01*
X158600000Y-121299999D02*
X158600000Y-122200001D01*
G75*
G02*
X158350001Y-122450000I-249999J0D01*
G01*
X157824999Y-122450000D01*
G75*
G02*
X157575000Y-122200001I0J249999D01*
G01*
X157575000Y-121299999D01*
G75*
G02*
X157824999Y-121050000I249999J0D01*
G01*
X158350001Y-121050000D01*
G75*
G02*
X158600000Y-121299999I0J-249999D01*
G01*
G37*
G36*
G01*
X160425000Y-121299999D02*
X160425000Y-122200001D01*
G75*
G02*
X160175001Y-122450000I-249999J0D01*
G01*
X159649999Y-122450000D01*
G75*
G02*
X159400000Y-122200001I0J249999D01*
G01*
X159400000Y-121299999D01*
G75*
G02*
X159649999Y-121050000I249999J0D01*
G01*
X160175001Y-121050000D01*
G75*
G02*
X160425000Y-121299999I0J-249999D01*
G01*
G37*
G36*
G01*
X154850000Y-114299999D02*
X154850000Y-115200001D01*
G75*
G02*
X154600001Y-115450000I-249999J0D01*
G01*
X154074999Y-115450000D01*
G75*
G02*
X153825000Y-115200001I0J249999D01*
G01*
X153825000Y-114299999D01*
G75*
G02*
X154074999Y-114050000I249999J0D01*
G01*
X154600001Y-114050000D01*
G75*
G02*
X154850000Y-114299999I0J-249999D01*
G01*
G37*
G36*
G01*
X156675000Y-114299999D02*
X156675000Y-115200001D01*
G75*
G02*
X156425001Y-115450000I-249999J0D01*
G01*
X155899999Y-115450000D01*
G75*
G02*
X155650000Y-115200001I0J249999D01*
G01*
X155650000Y-114299999D01*
G75*
G02*
X155899999Y-114050000I249999J0D01*
G01*
X156425001Y-114050000D01*
G75*
G02*
X156675000Y-114299999I0J-249999D01*
G01*
G37*
G36*
G01*
X158600000Y-114299999D02*
X158600000Y-115200001D01*
G75*
G02*
X158350001Y-115450000I-249999J0D01*
G01*
X157824999Y-115450000D01*
G75*
G02*
X157575000Y-115200001I0J249999D01*
G01*
X157575000Y-114299999D01*
G75*
G02*
X157824999Y-114050000I249999J0D01*
G01*
X158350001Y-114050000D01*
G75*
G02*
X158600000Y-114299999I0J-249999D01*
G01*
G37*
G36*
G01*
X160425000Y-114299999D02*
X160425000Y-115200001D01*
G75*
G02*
X160175001Y-115450000I-249999J0D01*
G01*
X159649999Y-115450000D01*
G75*
G02*
X159400000Y-115200001I0J249999D01*
G01*
X159400000Y-114299999D01*
G75*
G02*
X159649999Y-114050000I249999J0D01*
G01*
X160175001Y-114050000D01*
G75*
G02*
X160425000Y-114299999I0J-249999D01*
G01*
G37*
G36*
G01*
X154850000Y-107299999D02*
X154850000Y-108200001D01*
G75*
G02*
X154600001Y-108450000I-249999J0D01*
G01*
X154074999Y-108450000D01*
G75*
G02*
X153825000Y-108200001I0J249999D01*
G01*
X153825000Y-107299999D01*
G75*
G02*
X154074999Y-107050000I249999J0D01*
G01*
X154600001Y-107050000D01*
G75*
G02*
X154850000Y-107299999I0J-249999D01*
G01*
G37*
G36*
G01*
X156675000Y-107299999D02*
X156675000Y-108200001D01*
G75*
G02*
X156425001Y-108450000I-249999J0D01*
G01*
X155899999Y-108450000D01*
G75*
G02*
X155650000Y-108200001I0J249999D01*
G01*
X155650000Y-107299999D01*
G75*
G02*
X155899999Y-107050000I249999J0D01*
G01*
X156425001Y-107050000D01*
G75*
G02*
X156675000Y-107299999I0J-249999D01*
G01*
G37*
G36*
G01*
X158600000Y-107299999D02*
X158600000Y-108200001D01*
G75*
G02*
X158350001Y-108450000I-249999J0D01*
G01*
X157824999Y-108450000D01*
G75*
G02*
X157575000Y-108200001I0J249999D01*
G01*
X157575000Y-107299999D01*
G75*
G02*
X157824999Y-107050000I249999J0D01*
G01*
X158350001Y-107050000D01*
G75*
G02*
X158600000Y-107299999I0J-249999D01*
G01*
G37*
G36*
G01*
X160425000Y-107299999D02*
X160425000Y-108200001D01*
G75*
G02*
X160175001Y-108450000I-249999J0D01*
G01*
X159649999Y-108450000D01*
G75*
G02*
X159400000Y-108200001I0J249999D01*
G01*
X159400000Y-107299999D01*
G75*
G02*
X159649999Y-107050000I249999J0D01*
G01*
X160175001Y-107050000D01*
G75*
G02*
X160425000Y-107299999I0J-249999D01*
G01*
G37*
G36*
G01*
X147600000Y-84799999D02*
X147600000Y-85700001D01*
G75*
G02*
X147350001Y-85950000I-249999J0D01*
G01*
X146824999Y-85950000D01*
G75*
G02*
X146575000Y-85700001I0J249999D01*
G01*
X146575000Y-84799999D01*
G75*
G02*
X146824999Y-84550000I249999J0D01*
G01*
X147350001Y-84550000D01*
G75*
G02*
X147600000Y-84799999I0J-249999D01*
G01*
G37*
G36*
G01*
X149425000Y-84799999D02*
X149425000Y-85700001D01*
G75*
G02*
X149175001Y-85950000I-249999J0D01*
G01*
X148649999Y-85950000D01*
G75*
G02*
X148400000Y-85700001I0J249999D01*
G01*
X148400000Y-84799999D01*
G75*
G02*
X148649999Y-84550000I249999J0D01*
G01*
X149175001Y-84550000D01*
G75*
G02*
X149425000Y-84799999I0J-249999D01*
G01*
G37*
G36*
G01*
X150850000Y-94049999D02*
X150850000Y-94950001D01*
G75*
G02*
X150600001Y-95200000I-249999J0D01*
G01*
X150074999Y-95200000D01*
G75*
G02*
X149825000Y-94950001I0J249999D01*
G01*
X149825000Y-94049999D01*
G75*
G02*
X150074999Y-93800000I249999J0D01*
G01*
X150600001Y-93800000D01*
G75*
G02*
X150850000Y-94049999I0J-249999D01*
G01*
G37*
G36*
G01*
X152675000Y-94049999D02*
X152675000Y-94950001D01*
G75*
G02*
X152425001Y-95200000I-249999J0D01*
G01*
X151899999Y-95200000D01*
G75*
G02*
X151650000Y-94950001I0J249999D01*
G01*
X151650000Y-94049999D01*
G75*
G02*
X151899999Y-93800000I249999J0D01*
G01*
X152425001Y-93800000D01*
G75*
G02*
X152675000Y-94049999I0J-249999D01*
G01*
G37*
G36*
G01*
X151650000Y-100950001D02*
X151650000Y-100049999D01*
G75*
G02*
X151899999Y-99800000I249999J0D01*
G01*
X152425001Y-99800000D01*
G75*
G02*
X152675000Y-100049999I0J-249999D01*
G01*
X152675000Y-100950001D01*
G75*
G02*
X152425001Y-101200000I-249999J0D01*
G01*
X151899999Y-101200000D01*
G75*
G02*
X151650000Y-100950001I0J249999D01*
G01*
G37*
G36*
G01*
X149825000Y-100950001D02*
X149825000Y-100049999D01*
G75*
G02*
X150074999Y-99800000I249999J0D01*
G01*
X150600001Y-99800000D01*
G75*
G02*
X150850000Y-100049999I0J-249999D01*
G01*
X150850000Y-100950001D01*
G75*
G02*
X150600001Y-101200000I-249999J0D01*
G01*
X150074999Y-101200000D01*
G75*
G02*
X149825000Y-100950001I0J249999D01*
G01*
G37*
G36*
G01*
X172150000Y-81700001D02*
X172150000Y-80799999D01*
G75*
G02*
X172399999Y-80550000I249999J0D01*
G01*
X172925001Y-80550000D01*
G75*
G02*
X173175000Y-80799999I0J-249999D01*
G01*
X173175000Y-81700001D01*
G75*
G02*
X172925001Y-81950000I-249999J0D01*
G01*
X172399999Y-81950000D01*
G75*
G02*
X172150000Y-81700001I0J249999D01*
G01*
G37*
G36*
G01*
X170325000Y-81700001D02*
X170325000Y-80799999D01*
G75*
G02*
X170574999Y-80550000I249999J0D01*
G01*
X171100001Y-80550000D01*
G75*
G02*
X171350000Y-80799999I0J-249999D01*
G01*
X171350000Y-81700001D01*
G75*
G02*
X171100001Y-81950000I-249999J0D01*
G01*
X170574999Y-81950000D01*
G75*
G02*
X170325000Y-81700001I0J249999D01*
G01*
G37*
G36*
G01*
X132400000Y-86700001D02*
X132400000Y-85799999D01*
G75*
G02*
X132649999Y-85550000I249999J0D01*
G01*
X133175001Y-85550000D01*
G75*
G02*
X133425000Y-85799999I0J-249999D01*
G01*
X133425000Y-86700001D01*
G75*
G02*
X133175001Y-86950000I-249999J0D01*
G01*
X132649999Y-86950000D01*
G75*
G02*
X132400000Y-86700001I0J249999D01*
G01*
G37*
G36*
G01*
X130575000Y-86700001D02*
X130575000Y-85799999D01*
G75*
G02*
X130824999Y-85550000I249999J0D01*
G01*
X131350001Y-85550000D01*
G75*
G02*
X131600000Y-85799999I0J-249999D01*
G01*
X131600000Y-86700001D01*
G75*
G02*
X131350001Y-86950000I-249999J0D01*
G01*
X130824999Y-86950000D01*
G75*
G02*
X130575000Y-86700001I0J249999D01*
G01*
G37*
G36*
G01*
X147600000Y-75799999D02*
X147600000Y-76700001D01*
G75*
G02*
X147350001Y-76950000I-249999J0D01*
G01*
X146824999Y-76950000D01*
G75*
G02*
X146575000Y-76700001I0J249999D01*
G01*
X146575000Y-75799999D01*
G75*
G02*
X146824999Y-75550000I249999J0D01*
G01*
X147350001Y-75550000D01*
G75*
G02*
X147600000Y-75799999I0J-249999D01*
G01*
G37*
G36*
G01*
X149425000Y-75799999D02*
X149425000Y-76700001D01*
G75*
G02*
X149175001Y-76950000I-249999J0D01*
G01*
X148649999Y-76950000D01*
G75*
G02*
X148400000Y-76700001I0J249999D01*
G01*
X148400000Y-75799999D01*
G75*
G02*
X148649999Y-75550000I249999J0D01*
G01*
X149175001Y-75550000D01*
G75*
G02*
X149425000Y-75799999I0J-249999D01*
G01*
G37*
G36*
G01*
X143850000Y-82549999D02*
X143850000Y-83450001D01*
G75*
G02*
X143600001Y-83700000I-249999J0D01*
G01*
X143074999Y-83700000D01*
G75*
G02*
X142825000Y-83450001I0J249999D01*
G01*
X142825000Y-82549999D01*
G75*
G02*
X143074999Y-82300000I249999J0D01*
G01*
X143600001Y-82300000D01*
G75*
G02*
X143850000Y-82549999I0J-249999D01*
G01*
G37*
G36*
G01*
X145675000Y-82549999D02*
X145675000Y-83450001D01*
G75*
G02*
X145425001Y-83700000I-249999J0D01*
G01*
X144899999Y-83700000D01*
G75*
G02*
X144650000Y-83450001I0J249999D01*
G01*
X144650000Y-82549999D01*
G75*
G02*
X144899999Y-82300000I249999J0D01*
G01*
X145425001Y-82300000D01*
G75*
G02*
X145675000Y-82549999I0J-249999D01*
G01*
G37*
G36*
G01*
X130049999Y-100237500D02*
X130950001Y-100237500D01*
G75*
G02*
X131200000Y-100487499I0J-249999D01*
G01*
X131200000Y-101012501D01*
G75*
G02*
X130950001Y-101262500I-249999J0D01*
G01*
X130049999Y-101262500D01*
G75*
G02*
X129800000Y-101012501I0J249999D01*
G01*
X129800000Y-100487499D01*
G75*
G02*
X130049999Y-100237500I249999J0D01*
G01*
G37*
G36*
G01*
X130049999Y-98412500D02*
X130950001Y-98412500D01*
G75*
G02*
X131200000Y-98662499I0J-249999D01*
G01*
X131200000Y-99187501D01*
G75*
G02*
X130950001Y-99437500I-249999J0D01*
G01*
X130049999Y-99437500D01*
G75*
G02*
X129800000Y-99187501I0J249999D01*
G01*
X129800000Y-98662499D01*
G75*
G02*
X130049999Y-98412500I249999J0D01*
G01*
G37*
G36*
G01*
X132299999Y-100237500D02*
X133200001Y-100237500D01*
G75*
G02*
X133450000Y-100487499I0J-249999D01*
G01*
X133450000Y-101012501D01*
G75*
G02*
X133200001Y-101262500I-249999J0D01*
G01*
X132299999Y-101262500D01*
G75*
G02*
X132050000Y-101012501I0J249999D01*
G01*
X132050000Y-100487499D01*
G75*
G02*
X132299999Y-100237500I249999J0D01*
G01*
G37*
G36*
G01*
X132299999Y-98412500D02*
X133200001Y-98412500D01*
G75*
G02*
X133450000Y-98662499I0J-249999D01*
G01*
X133450000Y-99187501D01*
G75*
G02*
X133200001Y-99437500I-249999J0D01*
G01*
X132299999Y-99437500D01*
G75*
G02*
X132050000Y-99187501I0J249999D01*
G01*
X132050000Y-98662499D01*
G75*
G02*
X132299999Y-98412500I249999J0D01*
G01*
G37*
G36*
G01*
X162549999Y-94900000D02*
X163450001Y-94900000D01*
G75*
G02*
X163700000Y-95149999I0J-249999D01*
G01*
X163700000Y-95675001D01*
G75*
G02*
X163450001Y-95925000I-249999J0D01*
G01*
X162549999Y-95925000D01*
G75*
G02*
X162300000Y-95675001I0J249999D01*
G01*
X162300000Y-95149999D01*
G75*
G02*
X162549999Y-94900000I249999J0D01*
G01*
G37*
G36*
G01*
X162549999Y-93075000D02*
X163450001Y-93075000D01*
G75*
G02*
X163700000Y-93324999I0J-249999D01*
G01*
X163700000Y-93850001D01*
G75*
G02*
X163450001Y-94100000I-249999J0D01*
G01*
X162549999Y-94100000D01*
G75*
G02*
X162300000Y-93850001I0J249999D01*
G01*
X162300000Y-93324999D01*
G75*
G02*
X162549999Y-93075000I249999J0D01*
G01*
G37*
G36*
G01*
X147600000Y-80299999D02*
X147600000Y-81200001D01*
G75*
G02*
X147350001Y-81450000I-249999J0D01*
G01*
X146824999Y-81450000D01*
G75*
G02*
X146575000Y-81200001I0J249999D01*
G01*
X146575000Y-80299999D01*
G75*
G02*
X146824999Y-80050000I249999J0D01*
G01*
X147350001Y-80050000D01*
G75*
G02*
X147600000Y-80299999I0J-249999D01*
G01*
G37*
G36*
G01*
X149425000Y-80299999D02*
X149425000Y-81200001D01*
G75*
G02*
X149175001Y-81450000I-249999J0D01*
G01*
X148649999Y-81450000D01*
G75*
G02*
X148400000Y-81200001I0J249999D01*
G01*
X148400000Y-80299999D01*
G75*
G02*
X148649999Y-80050000I249999J0D01*
G01*
X149175001Y-80050000D01*
G75*
G02*
X149425000Y-80299999I0J-249999D01*
G01*
G37*
G36*
G01*
X147600000Y-82549999D02*
X147600000Y-83450001D01*
G75*
G02*
X147350001Y-83700000I-249999J0D01*
G01*
X146824999Y-83700000D01*
G75*
G02*
X146575000Y-83450001I0J249999D01*
G01*
X146575000Y-82549999D01*
G75*
G02*
X146824999Y-82300000I249999J0D01*
G01*
X147350001Y-82300000D01*
G75*
G02*
X147600000Y-82549999I0J-249999D01*
G01*
G37*
G36*
G01*
X149425000Y-82549999D02*
X149425000Y-83450001D01*
G75*
G02*
X149175001Y-83700000I-249999J0D01*
G01*
X148649999Y-83700000D01*
G75*
G02*
X148400000Y-83450001I0J249999D01*
G01*
X148400000Y-82549999D01*
G75*
G02*
X148649999Y-82300000I249999J0D01*
G01*
X149175001Y-82300000D01*
G75*
G02*
X149425000Y-82549999I0J-249999D01*
G01*
G37*
G36*
G01*
X160299999Y-94900000D02*
X161200001Y-94900000D01*
G75*
G02*
X161450000Y-95149999I0J-249999D01*
G01*
X161450000Y-95675001D01*
G75*
G02*
X161200001Y-95925000I-249999J0D01*
G01*
X160299999Y-95925000D01*
G75*
G02*
X160050000Y-95675001I0J249999D01*
G01*
X160050000Y-95149999D01*
G75*
G02*
X160299999Y-94900000I249999J0D01*
G01*
G37*
G36*
G01*
X160299999Y-93075000D02*
X161200001Y-93075000D01*
G75*
G02*
X161450000Y-93324999I0J-249999D01*
G01*
X161450000Y-93850001D01*
G75*
G02*
X161200001Y-94100000I-249999J0D01*
G01*
X160299999Y-94100000D01*
G75*
G02*
X160050000Y-93850001I0J249999D01*
G01*
X160050000Y-93324999D01*
G75*
G02*
X160299999Y-93075000I249999J0D01*
G01*
G37*
G36*
G01*
X158049999Y-94900000D02*
X158950001Y-94900000D01*
G75*
G02*
X159200000Y-95149999I0J-249999D01*
G01*
X159200000Y-95675001D01*
G75*
G02*
X158950001Y-95925000I-249999J0D01*
G01*
X158049999Y-95925000D01*
G75*
G02*
X157800000Y-95675001I0J249999D01*
G01*
X157800000Y-95149999D01*
G75*
G02*
X158049999Y-94900000I249999J0D01*
G01*
G37*
G36*
G01*
X158049999Y-93075000D02*
X158950001Y-93075000D01*
G75*
G02*
X159200000Y-93324999I0J-249999D01*
G01*
X159200000Y-93850001D01*
G75*
G02*
X158950001Y-94100000I-249999J0D01*
G01*
X158049999Y-94100000D01*
G75*
G02*
X157800000Y-93850001I0J249999D01*
G01*
X157800000Y-93324999D01*
G75*
G02*
X158049999Y-93075000I249999J0D01*
G01*
G37*
G36*
G01*
X129325001Y-86350000D02*
X127174999Y-86350000D01*
G75*
G02*
X126925000Y-86100001I0J249999D01*
G01*
X126925000Y-85474999D01*
G75*
G02*
X127174999Y-85225000I249999J0D01*
G01*
X129325001Y-85225000D01*
G75*
G02*
X129575000Y-85474999I0J-249999D01*
G01*
X129575000Y-86100001D01*
G75*
G02*
X129325001Y-86350000I-249999J0D01*
G01*
G37*
G36*
G01*
X129325001Y-89275000D02*
X127174999Y-89275000D01*
G75*
G02*
X126925000Y-89025001I0J249999D01*
G01*
X126925000Y-88399999D01*
G75*
G02*
X127174999Y-88150000I249999J0D01*
G01*
X129325001Y-88150000D01*
G75*
G02*
X129575000Y-88399999I0J-249999D01*
G01*
X129575000Y-89025001D01*
G75*
G02*
X129325001Y-89275000I-249999J0D01*
G01*
G37*
D14*
X154250000Y-97500000D03*
X152250000Y-98450000D03*
X152250000Y-96550000D03*
X148250000Y-97500000D03*
X150250000Y-96550000D03*
X150250000Y-98450000D03*
G36*
G01*
X144950001Y-118450000D02*
X143549999Y-118450000D01*
G75*
G02*
X143300000Y-118200001I0J249999D01*
G01*
X143300000Y-117649999D01*
G75*
G02*
X143549999Y-117400000I249999J0D01*
G01*
X144950001Y-117400000D01*
G75*
G02*
X145200000Y-117649999I0J-249999D01*
G01*
X145200000Y-118200001D01*
G75*
G02*
X144950001Y-118450000I-249999J0D01*
G01*
G37*
G36*
G01*
X144950001Y-121600000D02*
X143549999Y-121600000D01*
G75*
G02*
X143300000Y-121350001I0J249999D01*
G01*
X143300000Y-120799999D01*
G75*
G02*
X143549999Y-120550000I249999J0D01*
G01*
X144950001Y-120550000D01*
G75*
G02*
X145200000Y-120799999I0J-249999D01*
G01*
X145200000Y-121350001D01*
G75*
G02*
X144950001Y-121600000I-249999J0D01*
G01*
G37*
G36*
G01*
X144950001Y-111450000D02*
X143549999Y-111450000D01*
G75*
G02*
X143300000Y-111200001I0J249999D01*
G01*
X143300000Y-110649999D01*
G75*
G02*
X143549999Y-110400000I249999J0D01*
G01*
X144950001Y-110400000D01*
G75*
G02*
X145200000Y-110649999I0J-249999D01*
G01*
X145200000Y-111200001D01*
G75*
G02*
X144950001Y-111450000I-249999J0D01*
G01*
G37*
G36*
G01*
X144950001Y-114600000D02*
X143549999Y-114600000D01*
G75*
G02*
X143300000Y-114350001I0J249999D01*
G01*
X143300000Y-113799999D01*
G75*
G02*
X143549999Y-113550000I249999J0D01*
G01*
X144950001Y-113550000D01*
G75*
G02*
X145200000Y-113799999I0J-249999D01*
G01*
X145200000Y-114350001D01*
G75*
G02*
X144950001Y-114600000I-249999J0D01*
G01*
G37*
G36*
G01*
X144950001Y-104450000D02*
X143549999Y-104450000D01*
G75*
G02*
X143300000Y-104200001I0J249999D01*
G01*
X143300000Y-103649999D01*
G75*
G02*
X143549999Y-103400000I249999J0D01*
G01*
X144950001Y-103400000D01*
G75*
G02*
X145200000Y-103649999I0J-249999D01*
G01*
X145200000Y-104200001D01*
G75*
G02*
X144950001Y-104450000I-249999J0D01*
G01*
G37*
G36*
G01*
X144950001Y-107600000D02*
X143549999Y-107600000D01*
G75*
G02*
X143300000Y-107350001I0J249999D01*
G01*
X143300000Y-106799999D01*
G75*
G02*
X143549999Y-106550000I249999J0D01*
G01*
X144950001Y-106550000D01*
G75*
G02*
X145200000Y-106799999I0J-249999D01*
G01*
X145200000Y-107350001D01*
G75*
G02*
X144950001Y-107600000I-249999J0D01*
G01*
G37*
G36*
G01*
X172750000Y-98000000D02*
X171250000Y-98000000D01*
G75*
G02*
X171000000Y-97750000I0J250000D01*
G01*
X171000000Y-97250000D01*
G75*
G02*
X171250000Y-97000000I250000J0D01*
G01*
X172750000Y-97000000D01*
G75*
G02*
X173000000Y-97250000I0J-250000D01*
G01*
X173000000Y-97750000D01*
G75*
G02*
X172750000Y-98000000I-250000J0D01*
G01*
G37*
G36*
G01*
X172750000Y-103000000D02*
X171250000Y-103000000D01*
G75*
G02*
X171000000Y-102750000I0J250000D01*
G01*
X171000000Y-102250000D01*
G75*
G02*
X171250000Y-102000000I250000J0D01*
G01*
X172750000Y-102000000D01*
G75*
G02*
X173000000Y-102250000I0J-250000D01*
G01*
X173000000Y-102750000D01*
G75*
G02*
X172750000Y-103000000I-250000J0D01*
G01*
G37*
D24*
X167980000Y-120500000D03*
X167980000Y-109750000D03*
X131000000Y-120500000D03*
D25*
X126050000Y-79550000D03*
D26*
X126050000Y-76850000D03*
D27*
X126050000Y-81375000D03*
X126050000Y-74625000D03*
D28*
X128625000Y-80487500D03*
X128625000Y-75512500D03*
D29*
X128710000Y-79300000D03*
X128710000Y-78650000D03*
X128710000Y-78000000D03*
X128710000Y-77350000D03*
X128710000Y-76700000D03*
D24*
X131000000Y-109750000D03*
G36*
G01*
X143780000Y-80293750D02*
X143780000Y-81206250D01*
G75*
G02*
X143536250Y-81450000I-243750J0D01*
G01*
X143048750Y-81450000D01*
G75*
G02*
X142805000Y-81206250I0J243750D01*
G01*
X142805000Y-80293750D01*
G75*
G02*
X143048750Y-80050000I243750J0D01*
G01*
X143536250Y-80050000D01*
G75*
G02*
X143780000Y-80293750I0J-243750D01*
G01*
G37*
G36*
G01*
X145655000Y-80293750D02*
X145655000Y-81206250D01*
G75*
G02*
X145411250Y-81450000I-243750J0D01*
G01*
X144923750Y-81450000D01*
G75*
G02*
X144680000Y-81206250I0J243750D01*
G01*
X144680000Y-80293750D01*
G75*
G02*
X144923750Y-80050000I243750J0D01*
G01*
X145411250Y-80050000D01*
G75*
G02*
X145655000Y-80293750I0J-243750D01*
G01*
G37*
G36*
G01*
X127206250Y-91550000D02*
X126293750Y-91550000D01*
G75*
G02*
X126050000Y-91306250I0J243750D01*
G01*
X126050000Y-90818750D01*
G75*
G02*
X126293750Y-90575000I243750J0D01*
G01*
X127206250Y-90575000D01*
G75*
G02*
X127450000Y-90818750I0J-243750D01*
G01*
X127450000Y-91306250D01*
G75*
G02*
X127206250Y-91550000I-243750J0D01*
G01*
G37*
G36*
G01*
X127206250Y-93425000D02*
X126293750Y-93425000D01*
G75*
G02*
X126050000Y-93181250I0J243750D01*
G01*
X126050000Y-92693750D01*
G75*
G02*
X126293750Y-92450000I243750J0D01*
G01*
X127206250Y-92450000D01*
G75*
G02*
X127450000Y-92693750I0J-243750D01*
G01*
X127450000Y-93181250D01*
G75*
G02*
X127206250Y-93425000I-243750J0D01*
G01*
G37*
G36*
G01*
X127206250Y-95300000D02*
X126293750Y-95300000D01*
G75*
G02*
X126050000Y-95056250I0J243750D01*
G01*
X126050000Y-94568750D01*
G75*
G02*
X126293750Y-94325000I243750J0D01*
G01*
X127206250Y-94325000D01*
G75*
G02*
X127450000Y-94568750I0J-243750D01*
G01*
X127450000Y-95056250D01*
G75*
G02*
X127206250Y-95300000I-243750J0D01*
G01*
G37*
G36*
G01*
X127206250Y-97175000D02*
X126293750Y-97175000D01*
G75*
G02*
X126050000Y-96931250I0J243750D01*
G01*
X126050000Y-96443750D01*
G75*
G02*
X126293750Y-96200000I243750J0D01*
G01*
X127206250Y-96200000D01*
G75*
G02*
X127450000Y-96443750I0J-243750D01*
G01*
X127450000Y-96931250D01*
G75*
G02*
X127206250Y-97175000I-243750J0D01*
G01*
G37*
G36*
G01*
X158775000Y-118950000D02*
X159725000Y-118950000D01*
G75*
G02*
X159975000Y-119200000I0J-250000D01*
G01*
X159975000Y-119700000D01*
G75*
G02*
X159725000Y-119950000I-250000J0D01*
G01*
X158775000Y-119950000D01*
G75*
G02*
X158525000Y-119700000I0J250000D01*
G01*
X158525000Y-119200000D01*
G75*
G02*
X158775000Y-118950000I250000J0D01*
G01*
G37*
G36*
G01*
X158775000Y-117050000D02*
X159725000Y-117050000D01*
G75*
G02*
X159975000Y-117300000I0J-250000D01*
G01*
X159975000Y-117800000D01*
G75*
G02*
X159725000Y-118050000I-250000J0D01*
G01*
X158775000Y-118050000D01*
G75*
G02*
X158525000Y-117800000I0J250000D01*
G01*
X158525000Y-117300000D01*
G75*
G02*
X158775000Y-117050000I250000J0D01*
G01*
G37*
G36*
G01*
X158775000Y-111950000D02*
X159725000Y-111950000D01*
G75*
G02*
X159975000Y-112200000I0J-250000D01*
G01*
X159975000Y-112700000D01*
G75*
G02*
X159725000Y-112950000I-250000J0D01*
G01*
X158775000Y-112950000D01*
G75*
G02*
X158525000Y-112700000I0J250000D01*
G01*
X158525000Y-112200000D01*
G75*
G02*
X158775000Y-111950000I250000J0D01*
G01*
G37*
G36*
G01*
X158775000Y-110050000D02*
X159725000Y-110050000D01*
G75*
G02*
X159975000Y-110300000I0J-250000D01*
G01*
X159975000Y-110800000D01*
G75*
G02*
X159725000Y-111050000I-250000J0D01*
G01*
X158775000Y-111050000D01*
G75*
G02*
X158525000Y-110800000I0J250000D01*
G01*
X158525000Y-110300000D01*
G75*
G02*
X158775000Y-110050000I250000J0D01*
G01*
G37*
G36*
G01*
X154275000Y-105000000D02*
X155225000Y-105000000D01*
G75*
G02*
X155475000Y-105250000I0J-250000D01*
G01*
X155475000Y-105750000D01*
G75*
G02*
X155225000Y-106000000I-250000J0D01*
G01*
X154275000Y-106000000D01*
G75*
G02*
X154025000Y-105750000I0J250000D01*
G01*
X154025000Y-105250000D01*
G75*
G02*
X154275000Y-105000000I250000J0D01*
G01*
G37*
G36*
G01*
X154275000Y-103100000D02*
X155225000Y-103100000D01*
G75*
G02*
X155475000Y-103350000I0J-250000D01*
G01*
X155475000Y-103850000D01*
G75*
G02*
X155225000Y-104100000I-250000J0D01*
G01*
X154275000Y-104100000D01*
G75*
G02*
X154025000Y-103850000I0J250000D01*
G01*
X154025000Y-103350000D01*
G75*
G02*
X154275000Y-103100000I250000J0D01*
G01*
G37*
G36*
G01*
X156525000Y-118950000D02*
X157475000Y-118950000D01*
G75*
G02*
X157725000Y-119200000I0J-250000D01*
G01*
X157725000Y-119700000D01*
G75*
G02*
X157475000Y-119950000I-250000J0D01*
G01*
X156525000Y-119950000D01*
G75*
G02*
X156275000Y-119700000I0J250000D01*
G01*
X156275000Y-119200000D01*
G75*
G02*
X156525000Y-118950000I250000J0D01*
G01*
G37*
G36*
G01*
X156525000Y-117050000D02*
X157475000Y-117050000D01*
G75*
G02*
X157725000Y-117300000I0J-250000D01*
G01*
X157725000Y-117800000D01*
G75*
G02*
X157475000Y-118050000I-250000J0D01*
G01*
X156525000Y-118050000D01*
G75*
G02*
X156275000Y-117800000I0J250000D01*
G01*
X156275000Y-117300000D01*
G75*
G02*
X156525000Y-117050000I250000J0D01*
G01*
G37*
G36*
G01*
X156525000Y-111950000D02*
X157475000Y-111950000D01*
G75*
G02*
X157725000Y-112200000I0J-250000D01*
G01*
X157725000Y-112700000D01*
G75*
G02*
X157475000Y-112950000I-250000J0D01*
G01*
X156525000Y-112950000D01*
G75*
G02*
X156275000Y-112700000I0J250000D01*
G01*
X156275000Y-112200000D01*
G75*
G02*
X156525000Y-111950000I250000J0D01*
G01*
G37*
G36*
G01*
X156525000Y-110050000D02*
X157475000Y-110050000D01*
G75*
G02*
X157725000Y-110300000I0J-250000D01*
G01*
X157725000Y-110800000D01*
G75*
G02*
X157475000Y-111050000I-250000J0D01*
G01*
X156525000Y-111050000D01*
G75*
G02*
X156275000Y-110800000I0J250000D01*
G01*
X156275000Y-110300000D01*
G75*
G02*
X156525000Y-110050000I250000J0D01*
G01*
G37*
G36*
G01*
X156525000Y-105000000D02*
X157475000Y-105000000D01*
G75*
G02*
X157725000Y-105250000I0J-250000D01*
G01*
X157725000Y-105750000D01*
G75*
G02*
X157475000Y-106000000I-250000J0D01*
G01*
X156525000Y-106000000D01*
G75*
G02*
X156275000Y-105750000I0J250000D01*
G01*
X156275000Y-105250000D01*
G75*
G02*
X156525000Y-105000000I250000J0D01*
G01*
G37*
G36*
G01*
X156525000Y-103100000D02*
X157475000Y-103100000D01*
G75*
G02*
X157725000Y-103350000I0J-250000D01*
G01*
X157725000Y-103850000D01*
G75*
G02*
X157475000Y-104100000I-250000J0D01*
G01*
X156525000Y-104100000D01*
G75*
G02*
X156275000Y-103850000I0J250000D01*
G01*
X156275000Y-103350000D01*
G75*
G02*
X156525000Y-103100000I250000J0D01*
G01*
G37*
G36*
G01*
X154275000Y-118950000D02*
X155225000Y-118950000D01*
G75*
G02*
X155475000Y-119200000I0J-250000D01*
G01*
X155475000Y-119700000D01*
G75*
G02*
X155225000Y-119950000I-250000J0D01*
G01*
X154275000Y-119950000D01*
G75*
G02*
X154025000Y-119700000I0J250000D01*
G01*
X154025000Y-119200000D01*
G75*
G02*
X154275000Y-118950000I250000J0D01*
G01*
G37*
G36*
G01*
X154275000Y-117050000D02*
X155225000Y-117050000D01*
G75*
G02*
X155475000Y-117300000I0J-250000D01*
G01*
X155475000Y-117800000D01*
G75*
G02*
X155225000Y-118050000I-250000J0D01*
G01*
X154275000Y-118050000D01*
G75*
G02*
X154025000Y-117800000I0J250000D01*
G01*
X154025000Y-117300000D01*
G75*
G02*
X154275000Y-117050000I250000J0D01*
G01*
G37*
G36*
G01*
X154275000Y-111950000D02*
X155225000Y-111950000D01*
G75*
G02*
X155475000Y-112200000I0J-250000D01*
G01*
X155475000Y-112700000D01*
G75*
G02*
X155225000Y-112950000I-250000J0D01*
G01*
X154275000Y-112950000D01*
G75*
G02*
X154025000Y-112700000I0J250000D01*
G01*
X154025000Y-112200000D01*
G75*
G02*
X154275000Y-111950000I250000J0D01*
G01*
G37*
G36*
G01*
X154275000Y-110050000D02*
X155225000Y-110050000D01*
G75*
G02*
X155475000Y-110300000I0J-250000D01*
G01*
X155475000Y-110800000D01*
G75*
G02*
X155225000Y-111050000I-250000J0D01*
G01*
X154275000Y-111050000D01*
G75*
G02*
X154025000Y-110800000I0J250000D01*
G01*
X154025000Y-110300000D01*
G75*
G02*
X154275000Y-110050000I250000J0D01*
G01*
G37*
G36*
G01*
X158775000Y-105000000D02*
X159725000Y-105000000D01*
G75*
G02*
X159975000Y-105250000I0J-250000D01*
G01*
X159975000Y-105750000D01*
G75*
G02*
X159725000Y-106000000I-250000J0D01*
G01*
X158775000Y-106000000D01*
G75*
G02*
X158525000Y-105750000I0J250000D01*
G01*
X158525000Y-105250000D01*
G75*
G02*
X158775000Y-105000000I250000J0D01*
G01*
G37*
G36*
G01*
X158775000Y-103100000D02*
X159725000Y-103100000D01*
G75*
G02*
X159975000Y-103350000I0J-250000D01*
G01*
X159975000Y-103850000D01*
G75*
G02*
X159725000Y-104100000I-250000J0D01*
G01*
X158775000Y-104100000D01*
G75*
G02*
X158525000Y-103850000I0J250000D01*
G01*
X158525000Y-103350000D01*
G75*
G02*
X158775000Y-103100000I250000J0D01*
G01*
G37*
G36*
G01*
X142225000Y-119050000D02*
X141275000Y-119050000D01*
G75*
G02*
X141025000Y-118800000I0J250000D01*
G01*
X141025000Y-118300000D01*
G75*
G02*
X141275000Y-118050000I250000J0D01*
G01*
X142225000Y-118050000D01*
G75*
G02*
X142475000Y-118300000I0J-250000D01*
G01*
X142475000Y-118800000D01*
G75*
G02*
X142225000Y-119050000I-250000J0D01*
G01*
G37*
G36*
G01*
X142225000Y-120950000D02*
X141275000Y-120950000D01*
G75*
G02*
X141025000Y-120700000I0J250000D01*
G01*
X141025000Y-120200000D01*
G75*
G02*
X141275000Y-119950000I250000J0D01*
G01*
X142225000Y-119950000D01*
G75*
G02*
X142475000Y-120200000I0J-250000D01*
G01*
X142475000Y-120700000D01*
G75*
G02*
X142225000Y-120950000I-250000J0D01*
G01*
G37*
G36*
G01*
X142225000Y-112050000D02*
X141275000Y-112050000D01*
G75*
G02*
X141025000Y-111800000I0J250000D01*
G01*
X141025000Y-111300000D01*
G75*
G02*
X141275000Y-111050000I250000J0D01*
G01*
X142225000Y-111050000D01*
G75*
G02*
X142475000Y-111300000I0J-250000D01*
G01*
X142475000Y-111800000D01*
G75*
G02*
X142225000Y-112050000I-250000J0D01*
G01*
G37*
G36*
G01*
X142225000Y-113950000D02*
X141275000Y-113950000D01*
G75*
G02*
X141025000Y-113700000I0J250000D01*
G01*
X141025000Y-113200000D01*
G75*
G02*
X141275000Y-112950000I250000J0D01*
G01*
X142225000Y-112950000D01*
G75*
G02*
X142475000Y-113200000I0J-250000D01*
G01*
X142475000Y-113700000D01*
G75*
G02*
X142225000Y-113950000I-250000J0D01*
G01*
G37*
G36*
G01*
X139975000Y-105050000D02*
X139025000Y-105050000D01*
G75*
G02*
X138775000Y-104800000I0J250000D01*
G01*
X138775000Y-104300000D01*
G75*
G02*
X139025000Y-104050000I250000J0D01*
G01*
X139975000Y-104050000D01*
G75*
G02*
X140225000Y-104300000I0J-250000D01*
G01*
X140225000Y-104800000D01*
G75*
G02*
X139975000Y-105050000I-250000J0D01*
G01*
G37*
G36*
G01*
X139975000Y-106950000D02*
X139025000Y-106950000D01*
G75*
G02*
X138775000Y-106700000I0J250000D01*
G01*
X138775000Y-106200000D01*
G75*
G02*
X139025000Y-105950000I250000J0D01*
G01*
X139975000Y-105950000D01*
G75*
G02*
X140225000Y-106200000I0J-250000D01*
G01*
X140225000Y-106700000D01*
G75*
G02*
X139975000Y-106950000I-250000J0D01*
G01*
G37*
G36*
G01*
X139975000Y-119050000D02*
X139025000Y-119050000D01*
G75*
G02*
X138775000Y-118800000I0J250000D01*
G01*
X138775000Y-118300000D01*
G75*
G02*
X139025000Y-118050000I250000J0D01*
G01*
X139975000Y-118050000D01*
G75*
G02*
X140225000Y-118300000I0J-250000D01*
G01*
X140225000Y-118800000D01*
G75*
G02*
X139975000Y-119050000I-250000J0D01*
G01*
G37*
G36*
G01*
X139975000Y-120950000D02*
X139025000Y-120950000D01*
G75*
G02*
X138775000Y-120700000I0J250000D01*
G01*
X138775000Y-120200000D01*
G75*
G02*
X139025000Y-119950000I250000J0D01*
G01*
X139975000Y-119950000D01*
G75*
G02*
X140225000Y-120200000I0J-250000D01*
G01*
X140225000Y-120700000D01*
G75*
G02*
X139975000Y-120950000I-250000J0D01*
G01*
G37*
G36*
G01*
X139975000Y-112050000D02*
X139025000Y-112050000D01*
G75*
G02*
X138775000Y-111800000I0J250000D01*
G01*
X138775000Y-111300000D01*
G75*
G02*
X139025000Y-111050000I250000J0D01*
G01*
X139975000Y-111050000D01*
G75*
G02*
X140225000Y-111300000I0J-250000D01*
G01*
X140225000Y-111800000D01*
G75*
G02*
X139975000Y-112050000I-250000J0D01*
G01*
G37*
G36*
G01*
X139975000Y-113950000D02*
X139025000Y-113950000D01*
G75*
G02*
X138775000Y-113700000I0J250000D01*
G01*
X138775000Y-113200000D01*
G75*
G02*
X139025000Y-112950000I250000J0D01*
G01*
X139975000Y-112950000D01*
G75*
G02*
X140225000Y-113200000I0J-250000D01*
G01*
X140225000Y-113700000D01*
G75*
G02*
X139975000Y-113950000I-250000J0D01*
G01*
G37*
G36*
G01*
X142225000Y-105050000D02*
X141275000Y-105050000D01*
G75*
G02*
X141025000Y-104800000I0J250000D01*
G01*
X141025000Y-104300000D01*
G75*
G02*
X141275000Y-104050000I250000J0D01*
G01*
X142225000Y-104050000D01*
G75*
G02*
X142475000Y-104300000I0J-250000D01*
G01*
X142475000Y-104800000D01*
G75*
G02*
X142225000Y-105050000I-250000J0D01*
G01*
G37*
G36*
G01*
X142225000Y-106950000D02*
X141275000Y-106950000D01*
G75*
G02*
X141025000Y-106700000I0J250000D01*
G01*
X141025000Y-106200000D01*
G75*
G02*
X141275000Y-105950000I250000J0D01*
G01*
X142225000Y-105950000D01*
G75*
G02*
X142475000Y-106200000I0J-250000D01*
G01*
X142475000Y-106700000D01*
G75*
G02*
X142225000Y-106950000I-250000J0D01*
G01*
G37*
G36*
G01*
X138982322Y-75404073D02*
X139654073Y-74732322D01*
G75*
G02*
X140007627Y-74732322I176777J-176777D01*
G01*
X140361180Y-75085875D01*
G75*
G02*
X140361180Y-75439429I-176777J-176777D01*
G01*
X139689429Y-76111180D01*
G75*
G02*
X139335875Y-76111180I-176777J176777D01*
G01*
X138982322Y-75757627D01*
G75*
G02*
X138982322Y-75404073I176777J176777D01*
G01*
G37*
G36*
G01*
X137638820Y-74060571D02*
X138310571Y-73388820D01*
G75*
G02*
X138664125Y-73388820I176777J-176777D01*
G01*
X139017678Y-73742373D01*
G75*
G02*
X139017678Y-74095927I-176777J-176777D01*
G01*
X138345927Y-74767678D01*
G75*
G02*
X137992373Y-74767678I-176777J176777D01*
G01*
X137638820Y-74414125D01*
G75*
G02*
X137638820Y-74060571I176777J176777D01*
G01*
G37*
G36*
G01*
X140732322Y-73654073D02*
X141404073Y-72982322D01*
G75*
G02*
X141757627Y-72982322I176777J-176777D01*
G01*
X142111180Y-73335875D01*
G75*
G02*
X142111180Y-73689429I-176777J-176777D01*
G01*
X141439429Y-74361180D01*
G75*
G02*
X141085875Y-74361180I-176777J176777D01*
G01*
X140732322Y-74007627D01*
G75*
G02*
X140732322Y-73654073I176777J176777D01*
G01*
G37*
G36*
G01*
X139388820Y-72310571D02*
X140060571Y-71638820D01*
G75*
G02*
X140414125Y-71638820I176777J-176777D01*
G01*
X140767678Y-71992373D01*
G75*
G02*
X140767678Y-72345927I-176777J-176777D01*
G01*
X140095927Y-73017678D01*
G75*
G02*
X139742373Y-73017678I-176777J176777D01*
G01*
X139388820Y-72664125D01*
G75*
G02*
X139388820Y-72310571I176777J176777D01*
G01*
G37*
G36*
G01*
X149725000Y-90550000D02*
X148775000Y-90550000D01*
G75*
G02*
X148525000Y-90300000I0J250000D01*
G01*
X148525000Y-89800000D01*
G75*
G02*
X148775000Y-89550000I250000J0D01*
G01*
X149725000Y-89550000D01*
G75*
G02*
X149975000Y-89800000I0J-250000D01*
G01*
X149975000Y-90300000D01*
G75*
G02*
X149725000Y-90550000I-250000J0D01*
G01*
G37*
G36*
G01*
X149725000Y-92450000D02*
X148775000Y-92450000D01*
G75*
G02*
X148525000Y-92200000I0J250000D01*
G01*
X148525000Y-91700000D01*
G75*
G02*
X148775000Y-91450000I250000J0D01*
G01*
X149725000Y-91450000D01*
G75*
G02*
X149975000Y-91700000I0J-250000D01*
G01*
X149975000Y-92200000D01*
G75*
G02*
X149725000Y-92450000I-250000J0D01*
G01*
G37*
G36*
G01*
X135904073Y-74017678D02*
X135232322Y-73345927D01*
G75*
G02*
X135232322Y-72992373I176777J176777D01*
G01*
X135585875Y-72638820D01*
G75*
G02*
X135939429Y-72638820I176777J-176777D01*
G01*
X136611180Y-73310571D01*
G75*
G02*
X136611180Y-73664125I-176777J-176777D01*
G01*
X136257627Y-74017678D01*
G75*
G02*
X135904073Y-74017678I-176777J176777D01*
G01*
G37*
G36*
G01*
X134560571Y-75361180D02*
X133888820Y-74689429D01*
G75*
G02*
X133888820Y-74335875I176777J176777D01*
G01*
X134242373Y-73982322D01*
G75*
G02*
X134595927Y-73982322I176777J-176777D01*
G01*
X135267678Y-74654073D01*
G75*
G02*
X135267678Y-75007627I-176777J-176777D01*
G01*
X134914125Y-75361180D01*
G75*
G02*
X134560571Y-75361180I-176777J176777D01*
G01*
G37*
G36*
G01*
X131845927Y-76732322D02*
X132517678Y-77404073D01*
G75*
G02*
X132517678Y-77757627I-176777J-176777D01*
G01*
X132164125Y-78111180D01*
G75*
G02*
X131810571Y-78111180I-176777J176777D01*
G01*
X131138820Y-77439429D01*
G75*
G02*
X131138820Y-77085875I176777J176777D01*
G01*
X131492373Y-76732322D01*
G75*
G02*
X131845927Y-76732322I176777J-176777D01*
G01*
G37*
G36*
G01*
X133189429Y-75388820D02*
X133861180Y-76060571D01*
G75*
G02*
X133861180Y-76414125I-176777J-176777D01*
G01*
X133507627Y-76767678D01*
G75*
G02*
X133154073Y-76767678I-176777J176777D01*
G01*
X132482322Y-76095927D01*
G75*
G02*
X132482322Y-75742373I176777J176777D01*
G01*
X132835875Y-75388820D01*
G75*
G02*
X133189429Y-75388820I176777J-176777D01*
G01*
G37*
G36*
G01*
X127775000Y-100200000D02*
X128725000Y-100200000D01*
G75*
G02*
X128975000Y-100450000I0J-250000D01*
G01*
X128975000Y-100950000D01*
G75*
G02*
X128725000Y-101200000I-250000J0D01*
G01*
X127775000Y-101200000D01*
G75*
G02*
X127525000Y-100950000I0J250000D01*
G01*
X127525000Y-100450000D01*
G75*
G02*
X127775000Y-100200000I250000J0D01*
G01*
G37*
G36*
G01*
X127775000Y-98300000D02*
X128725000Y-98300000D01*
G75*
G02*
X128975000Y-98550000I0J-250000D01*
G01*
X128975000Y-99050000D01*
G75*
G02*
X128725000Y-99300000I-250000J0D01*
G01*
X127775000Y-99300000D01*
G75*
G02*
X127525000Y-99050000I0J250000D01*
G01*
X127525000Y-98550000D01*
G75*
G02*
X127775000Y-98300000I250000J0D01*
G01*
G37*
G36*
G01*
X144225000Y-86300000D02*
X143275000Y-86300000D01*
G75*
G02*
X143025000Y-86050000I0J250000D01*
G01*
X143025000Y-85550000D01*
G75*
G02*
X143275000Y-85300000I250000J0D01*
G01*
X144225000Y-85300000D01*
G75*
G02*
X144475000Y-85550000I0J-250000D01*
G01*
X144475000Y-86050000D01*
G75*
G02*
X144225000Y-86300000I-250000J0D01*
G01*
G37*
G36*
G01*
X144225000Y-88200000D02*
X143275000Y-88200000D01*
G75*
G02*
X143025000Y-87950000I0J250000D01*
G01*
X143025000Y-87450000D01*
G75*
G02*
X143275000Y-87200000I250000J0D01*
G01*
X144225000Y-87200000D01*
G75*
G02*
X144475000Y-87450000I0J-250000D01*
G01*
X144475000Y-87950000D01*
G75*
G02*
X144225000Y-88200000I-250000J0D01*
G01*
G37*
G36*
G01*
X145025000Y-95700000D02*
X145975000Y-95700000D01*
G75*
G02*
X146225000Y-95950000I0J-250000D01*
G01*
X146225000Y-96450000D01*
G75*
G02*
X145975000Y-96700000I-250000J0D01*
G01*
X145025000Y-96700000D01*
G75*
G02*
X144775000Y-96450000I0J250000D01*
G01*
X144775000Y-95950000D01*
G75*
G02*
X145025000Y-95700000I250000J0D01*
G01*
G37*
G36*
G01*
X145025000Y-93800000D02*
X145975000Y-93800000D01*
G75*
G02*
X146225000Y-94050000I0J-250000D01*
G01*
X146225000Y-94550000D01*
G75*
G02*
X145975000Y-94800000I-250000J0D01*
G01*
X145025000Y-94800000D01*
G75*
G02*
X144775000Y-94550000I0J250000D01*
G01*
X144775000Y-94050000D01*
G75*
G02*
X145025000Y-93800000I250000J0D01*
G01*
G37*
G36*
G01*
X132550000Y-83275000D02*
X132550000Y-84225000D01*
G75*
G02*
X132300000Y-84475000I-250000J0D01*
G01*
X131800000Y-84475000D01*
G75*
G02*
X131550000Y-84225000I0J250000D01*
G01*
X131550000Y-83275000D01*
G75*
G02*
X131800000Y-83025000I250000J0D01*
G01*
X132300000Y-83025000D01*
G75*
G02*
X132550000Y-83275000I0J-250000D01*
G01*
G37*
G36*
G01*
X134450000Y-83275000D02*
X134450000Y-84225000D01*
G75*
G02*
X134200000Y-84475000I-250000J0D01*
G01*
X133700000Y-84475000D01*
G75*
G02*
X133450000Y-84225000I0J250000D01*
G01*
X133450000Y-83275000D01*
G75*
G02*
X133700000Y-83025000I250000J0D01*
G01*
X134200000Y-83025000D01*
G75*
G02*
X134450000Y-83275000I0J-250000D01*
G01*
G37*
G36*
G01*
X147550000Y-78025000D02*
X147550000Y-78975000D01*
G75*
G02*
X147300000Y-79225000I-250000J0D01*
G01*
X146800000Y-79225000D01*
G75*
G02*
X146550000Y-78975000I0J250000D01*
G01*
X146550000Y-78025000D01*
G75*
G02*
X146800000Y-77775000I250000J0D01*
G01*
X147300000Y-77775000D01*
G75*
G02*
X147550000Y-78025000I0J-250000D01*
G01*
G37*
G36*
G01*
X149450000Y-78025000D02*
X149450000Y-78975000D01*
G75*
G02*
X149200000Y-79225000I-250000J0D01*
G01*
X148700000Y-79225000D01*
G75*
G02*
X148450000Y-78975000I0J250000D01*
G01*
X148450000Y-78025000D01*
G75*
G02*
X148700000Y-77775000I250000J0D01*
G01*
X149200000Y-77775000D01*
G75*
G02*
X149450000Y-78025000I0J-250000D01*
G01*
G37*
G36*
G01*
X145975000Y-98550000D02*
X145025000Y-98550000D01*
G75*
G02*
X144775000Y-98300000I0J250000D01*
G01*
X144775000Y-97800000D01*
G75*
G02*
X145025000Y-97550000I250000J0D01*
G01*
X145975000Y-97550000D01*
G75*
G02*
X146225000Y-97800000I0J-250000D01*
G01*
X146225000Y-98300000D01*
G75*
G02*
X145975000Y-98550000I-250000J0D01*
G01*
G37*
G36*
G01*
X145975000Y-100450000D02*
X145025000Y-100450000D01*
G75*
G02*
X144775000Y-100200000I0J250000D01*
G01*
X144775000Y-99700000D01*
G75*
G02*
X145025000Y-99450000I250000J0D01*
G01*
X145975000Y-99450000D01*
G75*
G02*
X146225000Y-99700000I0J-250000D01*
G01*
X146225000Y-100200000D01*
G75*
G02*
X145975000Y-100450000I-250000J0D01*
G01*
G37*
G36*
G01*
X132450000Y-88975000D02*
X132450000Y-88025000D01*
G75*
G02*
X132700000Y-87775000I250000J0D01*
G01*
X133200000Y-87775000D01*
G75*
G02*
X133450000Y-88025000I0J-250000D01*
G01*
X133450000Y-88975000D01*
G75*
G02*
X133200000Y-89225000I-250000J0D01*
G01*
X132700000Y-89225000D01*
G75*
G02*
X132450000Y-88975000I0J250000D01*
G01*
G37*
G36*
G01*
X130550000Y-88975000D02*
X130550000Y-88025000D01*
G75*
G02*
X130800000Y-87775000I250000J0D01*
G01*
X131300000Y-87775000D01*
G75*
G02*
X131550000Y-88025000I0J-250000D01*
G01*
X131550000Y-88975000D01*
G75*
G02*
X131300000Y-89225000I-250000J0D01*
G01*
X130800000Y-89225000D01*
G75*
G02*
X130550000Y-88975000I0J250000D01*
G01*
G37*
M02*
