G04 #@! TF.GenerationSoftware,KiCad,Pcbnew,(5.1.10)-1*
G04 #@! TF.CreationDate,2021-12-14T19:18:36+11:00*
G04 #@! TF.ProjectId,WLED_Controller,574c4544-5f43-46f6-9e74-726f6c6c6572,1.0*
G04 #@! TF.SameCoordinates,Original*
G04 #@! TF.FileFunction,Legend,Bot*
G04 #@! TF.FilePolarity,Positive*
%FSLAX46Y46*%
G04 Gerber Fmt 4.6, Leading zero omitted, Abs format (unit mm)*
G04 Created by KiCad (PCBNEW (5.1.10)-1) date 2021-12-14 19:18:36*
%MOMM*%
%LPD*%
G01*
G04 APERTURE LIST*
%ADD10C,0.100000*%
G04 APERTURE END LIST*
D10*
G36*
X169732668Y-97844433D02*
G01*
X169409431Y-98238013D01*
X169242581Y-98166070D01*
X169051314Y-98142089D01*
X168883365Y-98158819D01*
X168739188Y-98209010D01*
X168618782Y-98292661D01*
X168525377Y-98405897D01*
X168462202Y-98544842D01*
X168429259Y-98709496D01*
X168653664Y-98709496D01*
X168699736Y-98535088D01*
X168779819Y-98416491D01*
X168896236Y-98348472D01*
X169051314Y-98325799D01*
X169183670Y-98343369D01*
X169295485Y-98396079D01*
X169386758Y-98483929D01*
X169454261Y-98604205D01*
X169494762Y-98754196D01*
X169508263Y-98933901D01*
X169508263Y-99097845D01*
X169495473Y-99269023D01*
X169457103Y-99415138D01*
X169393153Y-99536190D01*
X169306208Y-99626624D01*
X169198850Y-99680884D01*
X169071080Y-99698971D01*
X168906701Y-99677896D01*
X168785632Y-99614673D01*
X168702934Y-99499128D01*
X168653664Y-99321087D01*
X168429259Y-99321087D01*
X168124626Y-99858263D01*
X168124626Y-98165343D01*
X167900221Y-98165343D01*
X167900221Y-99675716D01*
X166814822Y-99503052D01*
X166862558Y-99375347D01*
X166891820Y-99234852D01*
X166902608Y-99081566D01*
X166902608Y-98959481D01*
X166893177Y-98803031D01*
X166864884Y-98659241D01*
X166817729Y-98528112D01*
X166715265Y-98362860D01*
X166577628Y-98241501D01*
X166411213Y-98166942D01*
X166222417Y-98142089D01*
X166031004Y-98166651D01*
X165863718Y-98240339D01*
X165726371Y-98360680D01*
X165624779Y-98525205D01*
X165578270Y-98656399D01*
X165550365Y-98801157D01*
X165541063Y-98959481D01*
X165541063Y-99066451D01*
X165550365Y-99225292D01*
X165578270Y-99370050D01*
X165624779Y-99500727D01*
X165162634Y-99549779D01*
X165219135Y-99414976D01*
X165253035Y-99262006D01*
X165264336Y-99090868D01*
X165264336Y-98928087D01*
X165254969Y-98777063D01*
X165226870Y-98638699D01*
X165180038Y-98512997D01*
X165078155Y-98354721D01*
X164941100Y-98238013D01*
X164774249Y-98166070D01*
X164582982Y-98142089D01*
X164415033Y-98158819D01*
X164270856Y-98209010D01*
X164150450Y-98292661D01*
X164057045Y-98405897D01*
X163993871Y-98544842D01*
X163960927Y-98709496D01*
X164185332Y-98709496D01*
X164231404Y-98535088D01*
X164311487Y-98416491D01*
X164427904Y-98348472D01*
X164582982Y-98325799D01*
X164715338Y-98343369D01*
X164827153Y-98396079D01*
X164918427Y-98483929D01*
X164985929Y-98604205D01*
X165026430Y-98754196D01*
X165039931Y-98933901D01*
X165039931Y-99097845D01*
X165027141Y-99269023D01*
X164988771Y-99415138D01*
X164924821Y-99536190D01*
X164837876Y-99626624D01*
X164730518Y-99680884D01*
X164602748Y-99698971D01*
X164438369Y-99677896D01*
X164317300Y-99614673D01*
X164234602Y-99499128D01*
X164185332Y-99321087D01*
X163960927Y-99321087D01*
X163996907Y-99486516D01*
X164062988Y-99624686D01*
X163656294Y-99858263D01*
X163656294Y-98165343D01*
X163433052Y-98165343D01*
X163433052Y-99002502D01*
X162680772Y-98165343D01*
X162411021Y-98165343D01*
X160382076Y-99093194D01*
X160382076Y-98945528D01*
X160370921Y-98765016D01*
X160337456Y-98606014D01*
X160281682Y-98468522D01*
X160203598Y-98352541D01*
X160105312Y-98260468D01*
X159988931Y-98194702D01*
X159854455Y-98155242D01*
X159701884Y-98142089D01*
X159536649Y-98157140D01*
X159394410Y-98202292D01*
X159275166Y-98277546D01*
X159181374Y-98380446D01*
X159115486Y-98508539D01*
X159077504Y-98661825D01*
X159300746Y-98661825D01*
X159349290Y-98514813D01*
X159432133Y-98409805D01*
X159549277Y-98346800D01*
X159700722Y-98325799D01*
X159838246Y-98343304D01*
X159951611Y-98395820D01*
X160040817Y-98483347D01*
X160105219Y-98604076D01*
X160144170Y-98756199D01*
X160157671Y-98939715D01*
X160157671Y-99078078D01*
X160143201Y-99255006D01*
X160099793Y-99405965D01*
X160027446Y-99530958D01*
X159930423Y-99624298D01*
X159812989Y-99680303D01*
X159675142Y-99698971D01*
X159557417Y-99691994D01*
X159455388Y-99671065D01*
X159299583Y-99576885D01*
X159299583Y-99196676D01*
X159691420Y-99196676D01*
X159691420Y-99015291D01*
X159077504Y-99015291D01*
X158705434Y-99858263D01*
X158705434Y-98165343D01*
X158081053Y-98165343D01*
X157909164Y-98181105D01*
X157764018Y-98228389D01*
X157645615Y-98307195D01*
X157558088Y-98411969D01*
X157505571Y-98537155D01*
X157488066Y-98682754D01*
X157505184Y-98834489D01*
X157556537Y-98961031D01*
X157642126Y-99062382D01*
X157759626Y-99136343D01*
X157906710Y-99180721D01*
X158083379Y-99195513D01*
X158482191Y-99195513D01*
X158482191Y-99858263D01*
X158705434Y-99858263D01*
X159077504Y-99015291D01*
X159077504Y-99636184D01*
X159180550Y-99743881D01*
X159317606Y-99820475D01*
X159484311Y-99866257D01*
X159676305Y-99881518D01*
X159871642Y-99857246D01*
X160043724Y-99784431D01*
X160186012Y-99666851D01*
X160291965Y-99508285D01*
X160340993Y-99382582D01*
X160371030Y-99244218D01*
X160382076Y-99093194D01*
X162411021Y-98165343D01*
X163077260Y-98912972D01*
X161727342Y-99226906D01*
X161727342Y-99051336D01*
X161159935Y-99051336D01*
X161159935Y-99226906D01*
X161727342Y-99226906D01*
X163077260Y-98912972D01*
X162358699Y-99858263D01*
X162626125Y-99858263D01*
X163226088Y-99071102D01*
X163433052Y-99286205D01*
X163433052Y-99858263D01*
X163656294Y-99858263D01*
X164062988Y-99624686D01*
X164159171Y-99735596D01*
X164282613Y-99816664D01*
X164430472Y-99865304D01*
X164602748Y-99881518D01*
X164789494Y-99857617D01*
X164949755Y-99785916D01*
X165083533Y-99666414D01*
X165162634Y-99549779D01*
X165624779Y-99500727D01*
X165725935Y-99664234D01*
X165861974Y-99783849D01*
X166028242Y-99857101D01*
X166220091Y-99881518D01*
X166408743Y-99856955D01*
X166574721Y-99783268D01*
X166712067Y-99664089D01*
X166814822Y-99503052D01*
X167900221Y-99675716D01*
X167097945Y-99675716D01*
X161862736Y-102075319D01*
X161862736Y-101928727D01*
X161851662Y-101749527D01*
X161818441Y-101591682D01*
X161763073Y-101455190D01*
X161685556Y-101340052D01*
X161551469Y-101223984D01*
X161385447Y-101154343D01*
X161187491Y-101131130D01*
X161023457Y-101146071D01*
X160882252Y-101190895D01*
X160763875Y-101265602D01*
X156963680Y-99858263D01*
X157186922Y-99858263D01*
X157186922Y-98165343D01*
X156963680Y-98165343D01*
X156963680Y-99858263D01*
X160763875Y-101265602D01*
X160670765Y-101367754D01*
X160605356Y-101494916D01*
X160567650Y-101647086D01*
X160789269Y-101647086D01*
X160837460Y-101501144D01*
X160919701Y-101396899D01*
X161035993Y-101334353D01*
X161186337Y-101313504D01*
X161322861Y-101330882D01*
X161435401Y-101383016D01*
X161523959Y-101469907D01*
X161587893Y-101589758D01*
X161626561Y-101740774D01*
X161639963Y-101922956D01*
X161639963Y-102060314D01*
X161625599Y-102235954D01*
X161582506Y-102385816D01*
X161510685Y-102509900D01*
X161414368Y-102602562D01*
X161297787Y-102658159D01*
X161160943Y-102676691D01*
X161044073Y-102669766D01*
X160942787Y-102648989D01*
X160788115Y-102555493D01*
X160788115Y-102178049D01*
X161177102Y-102178049D01*
X161177102Y-101997983D01*
X160567650Y-101997983D01*
X160567650Y-102614361D01*
X160198285Y-102834826D01*
X160198285Y-101154215D01*
X159578445Y-101154215D01*
X159407806Y-101169862D01*
X159263715Y-101216802D01*
X159146172Y-101295035D01*
X159059282Y-101399048D01*
X159007147Y-101523323D01*
X158989769Y-101667863D01*
X159006762Y-101818495D01*
X159057742Y-101944117D01*
X159142709Y-102044731D01*
X159259354Y-102118155D01*
X159405369Y-102162210D01*
X159580753Y-102176894D01*
X159976666Y-102176894D01*
X159976666Y-102834826D01*
X160198285Y-102834826D01*
X160567650Y-102614361D01*
X160669947Y-102721275D01*
X160806006Y-102797312D01*
X160971499Y-102842761D01*
X161162097Y-102857911D01*
X161356014Y-102833816D01*
X161526845Y-102761530D01*
X161668098Y-102644805D01*
X161773281Y-102487392D01*
X161821952Y-102362603D01*
X161851771Y-102225245D01*
X161862736Y-102075319D01*
X167097945Y-99675716D01*
X167097945Y-99858263D01*
X168124626Y-99858263D01*
X168429259Y-99321087D01*
X168465238Y-99486516D01*
X168531320Y-99624686D01*
X168627502Y-99735596D01*
X166722195Y-101154215D01*
X165422491Y-101154215D01*
X165422491Y-101336589D01*
X165962688Y-101336589D01*
X165335922Y-102834826D01*
X164694150Y-101154215D01*
X164500233Y-101154215D01*
X163198222Y-102033765D01*
X162634940Y-102033765D01*
X162634940Y-102208060D01*
X163198222Y-102208060D01*
X163198222Y-102033765D01*
X164500233Y-101154215D01*
X163857307Y-102834826D01*
X164084698Y-102834826D01*
X164245140Y-102396205D01*
X164949243Y-102396205D01*
X165107377Y-102834826D01*
X165335922Y-102834826D01*
X165962688Y-101336589D01*
X165962688Y-102834826D01*
X166183152Y-102834826D01*
X166183152Y-101336589D01*
X166722195Y-101336589D01*
X166722195Y-101154215D01*
X168627502Y-99735596D01*
X168750945Y-99816664D01*
X168898804Y-99865304D01*
X169071080Y-99881518D01*
X169257826Y-99857617D01*
X169418087Y-99785916D01*
X169551865Y-99666414D01*
X169630966Y-99549779D01*
X169687467Y-99414976D01*
X169721367Y-99262006D01*
X169732668Y-99090868D01*
X169732668Y-98928087D01*
X169723301Y-98777063D01*
X169695202Y-98638699D01*
X169648370Y-98512997D01*
X169546487Y-98354721D01*
X169409431Y-98238013D01*
X169732668Y-97844433D01*
X170030324Y-97844433D01*
X169675960Y-102834826D01*
X169675960Y-101154215D01*
X169201557Y-101154215D01*
X169060993Y-101164988D01*
X168931715Y-101197308D01*
X168813724Y-101251173D01*
X168664391Y-101368620D01*
X168553437Y-101527043D01*
X168502329Y-101652216D01*
X168471356Y-101789189D01*
X168460519Y-101937961D01*
X168460519Y-102045308D01*
X168470715Y-102197286D01*
X168501303Y-102336183D01*
X168552283Y-102461998D01*
X168663669Y-102620132D01*
X168288533Y-102834826D01*
X167646761Y-101154215D01*
X167452845Y-101154215D01*
X166809919Y-102834826D01*
X167037309Y-102834826D01*
X167197752Y-102396205D01*
X167901854Y-102396205D01*
X168059988Y-102834826D01*
X168288533Y-102834826D01*
X168663669Y-102620132D01*
X168814301Y-102736713D01*
X168934024Y-102790194D01*
X169066187Y-102822898D01*
X169210791Y-102834826D01*
X169675960Y-102834826D01*
X170030324Y-97844433D01*
X170030324Y-103155567D01*
X158469195Y-102834826D01*
X158690814Y-102834826D01*
X158690814Y-101154215D01*
X158469195Y-101154215D01*
X158038654Y-101514346D01*
X157936935Y-101350296D01*
X157800298Y-101229819D01*
X157635094Y-101155802D01*
X157447670Y-101131130D01*
X157257649Y-101155514D01*
X157091579Y-101228665D01*
X156955232Y-101348132D01*
X156854378Y-101511460D01*
X156808207Y-101641700D01*
X156780505Y-101785406D01*
X156771271Y-101942578D01*
X156771271Y-102048771D01*
X156780505Y-102206456D01*
X156808207Y-102350162D01*
X156854378Y-102479889D01*
X156954799Y-102642208D01*
X157089848Y-102760953D01*
X157254908Y-102833671D01*
X157445362Y-102857911D01*
X157632641Y-102833527D01*
X157797413Y-102760376D01*
X157933760Y-102642063D01*
X158035769Y-102482198D01*
X158083158Y-102355421D01*
X158112207Y-102215947D01*
X158122916Y-102063776D01*
X158122916Y-101942578D01*
X158113553Y-101787266D01*
X158085466Y-101644521D01*
X158038654Y-101514346D01*
X158469195Y-101154215D01*
X158469195Y-102834826D01*
X170030324Y-103155567D01*
X169732668Y-103155567D01*
X155393077Y-102834826D01*
X156494247Y-102834826D01*
X156494247Y-102681308D01*
X155912497Y-102034920D01*
X155803275Y-101902035D01*
X155734163Y-101796564D01*
X155697371Y-101703213D01*
X155685107Y-101606687D01*
X155705018Y-101486932D01*
X155764751Y-101390839D01*
X155857669Y-101327643D01*
X155977136Y-101306578D01*
X156118678Y-101329231D01*
X156224726Y-101397188D01*
X156290952Y-101505545D01*
X156313027Y-101649395D01*
X156526566Y-101649395D01*
X156509958Y-101504599D01*
X156460132Y-101379553D01*
X156377089Y-101274259D01*
X156266215Y-101194743D01*
X156132898Y-101147033D01*
X155977136Y-101131130D01*
X155831827Y-101144788D01*
X155708320Y-101185765D01*
X155606617Y-101254059D01*
X155504464Y-101397332D01*
X155470413Y-101581293D01*
X155490180Y-101711292D01*
X155549480Y-101853123D01*
X155648314Y-102006784D01*
X155786682Y-102172277D01*
X156236846Y-102660532D01*
X155393077Y-102660532D01*
X155393077Y-102834826D01*
X169732668Y-103155567D01*
X154267332Y-103155567D01*
X155253319Y-99066451D01*
X155262621Y-99225292D01*
X155290526Y-99370050D01*
X155337035Y-99500727D01*
X155438191Y-99664234D01*
X155574229Y-99783849D01*
X155740498Y-99857101D01*
X155932347Y-99881518D01*
X156120998Y-99856955D01*
X156286977Y-99783268D01*
X156424323Y-99664089D01*
X156527078Y-99503052D01*
X156574814Y-99375347D01*
X156604076Y-99234852D01*
X156614864Y-99081566D01*
X156614864Y-98959481D01*
X156605433Y-98803031D01*
X156577140Y-98659241D01*
X156529985Y-98528112D01*
X156427520Y-98362860D01*
X156289883Y-98241501D01*
X156123469Y-98166942D01*
X155934673Y-98142089D01*
X155743260Y-98166651D01*
X155575974Y-98240339D01*
X155438627Y-98360680D01*
X155337035Y-98525205D01*
X155290526Y-98656399D01*
X155262621Y-98801157D01*
X155253319Y-98959481D01*
X155253319Y-99066451D01*
X154267332Y-103155567D01*
X153969676Y-103155567D01*
X154267332Y-99858263D01*
X154483598Y-99858263D01*
X154483598Y-98424630D01*
X154917293Y-98583922D01*
X154917293Y-98388586D01*
X154301051Y-98157204D01*
X154267332Y-98157204D01*
X154267332Y-99858263D01*
X153969676Y-103155567D01*
X153969676Y-97844433D01*
X154267332Y-97844433D01*
X169732668Y-97844433D01*
G37*
G36*
X165763142Y-98957155D02*
G01*
X165776578Y-98771960D01*
X165816886Y-98617900D01*
X165884065Y-98494974D01*
X165975403Y-98405510D01*
X166088187Y-98351831D01*
X166222417Y-98333938D01*
X166353481Y-98351831D01*
X166464521Y-98405510D01*
X166555536Y-98494974D01*
X166623426Y-98616220D01*
X166665090Y-98765242D01*
X166680528Y-98942040D01*
X166680528Y-99066451D01*
X166666899Y-99247125D01*
X166626010Y-99400022D01*
X166557861Y-99525144D01*
X166465813Y-99617839D01*
X166353223Y-99673455D01*
X166220091Y-99691994D01*
X166086766Y-99674489D01*
X165975145Y-99621973D01*
X165885228Y-99534446D01*
X165818953Y-99414234D01*
X165778258Y-99263661D01*
X165763142Y-99082729D01*
X165763142Y-98957155D01*
G37*
G36*
X155475398Y-98957155D02*
G01*
X155488834Y-98771960D01*
X155529142Y-98617900D01*
X155596321Y-98494974D01*
X155687659Y-98405510D01*
X155800443Y-98351831D01*
X155934673Y-98333938D01*
X156065737Y-98351831D01*
X156176777Y-98405510D01*
X156267792Y-98494974D01*
X156335682Y-98616220D01*
X156377346Y-98765242D01*
X156392784Y-98942040D01*
X156392784Y-99066451D01*
X156379154Y-99247125D01*
X156338265Y-99400022D01*
X156270117Y-99525144D01*
X156178069Y-99617839D01*
X156065479Y-99673455D01*
X155932347Y-99691994D01*
X155799022Y-99674489D01*
X155687401Y-99621973D01*
X155597484Y-99534446D01*
X155531209Y-99414234D01*
X155490514Y-99263661D01*
X155475398Y-99082729D01*
X155475398Y-98957155D01*
G37*
G36*
X156991735Y-101940270D02*
G01*
X157005073Y-101756421D01*
X157045088Y-101603481D01*
X157111779Y-101481449D01*
X157202453Y-101392635D01*
X157314417Y-101339346D01*
X157447670Y-101321584D01*
X157577782Y-101339346D01*
X157688014Y-101392635D01*
X157778367Y-101481449D01*
X157845764Y-101601814D01*
X157887125Y-101749752D01*
X157902451Y-101925264D01*
X157902451Y-102048771D01*
X157888920Y-102228131D01*
X157848329Y-102379917D01*
X157780676Y-102504129D01*
X157689296Y-102596149D01*
X157577525Y-102651362D01*
X157445362Y-102669766D01*
X157313006Y-102652388D01*
X157202196Y-102600253D01*
X157112933Y-102513363D01*
X157047140Y-102394025D01*
X157006741Y-102244547D01*
X156991735Y-102064931D01*
X156991735Y-101940270D01*
G37*
G36*
X169454341Y-101336589D02*
G01*
X169454341Y-102653606D01*
X169221180Y-102653606D01*
X169062981Y-102635907D01*
X168930048Y-102582811D01*
X168822381Y-102494317D01*
X168743185Y-102373119D01*
X168695668Y-102221911D01*
X168679829Y-102040691D01*
X168679829Y-101942578D01*
X168694770Y-101765912D01*
X168739594Y-101617589D01*
X168814301Y-101497609D01*
X168916454Y-101409179D01*
X169043615Y-101355506D01*
X169195786Y-101336589D01*
X169454341Y-101336589D01*
G37*
G36*
X158482191Y-99012966D02*
G01*
X158081053Y-99012966D01*
X157922923Y-98991892D01*
X157806651Y-98928669D01*
X157735144Y-98825623D01*
X157711308Y-98685079D01*
X157735144Y-98549041D01*
X157806651Y-98443233D01*
X157919726Y-98374342D01*
X158068263Y-98349053D01*
X158482191Y-98349053D01*
X158482191Y-99012966D01*
G37*
G36*
X159976666Y-101995675D02*
G01*
X159578445Y-101995675D01*
X159421464Y-101974754D01*
X159306038Y-101911990D01*
X159235051Y-101809694D01*
X159211388Y-101670172D01*
X159235051Y-101535123D01*
X159306038Y-101430084D01*
X159418290Y-101361694D01*
X159565748Y-101336589D01*
X159976666Y-101336589D01*
X159976666Y-101995675D01*
G37*
G36*
X167834907Y-102213831D02*
G01*
X167263545Y-102213831D01*
X167549803Y-101427776D01*
X167834907Y-102213831D01*
G37*
G36*
X164882295Y-102213831D02*
G01*
X164310934Y-102213831D01*
X164597192Y-101427776D01*
X164882295Y-102213831D01*
G37*
G36*
X168126452Y-86896997D02*
G01*
X167841974Y-87561298D01*
X167685653Y-87464404D01*
X167500909Y-87406268D01*
X167287744Y-87386890D01*
X167067796Y-87409369D01*
X166873041Y-87476807D01*
X166711423Y-87583777D01*
X166590887Y-87724854D01*
X166515892Y-87890347D01*
X166149829Y-89675122D01*
X166149829Y-87293872D01*
X165863025Y-87293872D01*
X165863025Y-88200793D01*
X165723154Y-88070741D01*
X165557789Y-87992710D01*
X165366931Y-87966699D01*
X165175315Y-87990698D01*
X165025867Y-88062693D01*
X164918586Y-88182686D01*
X164853474Y-88350676D01*
X164830530Y-88566663D01*
X164830530Y-89675122D01*
X165117334Y-89675122D01*
X165117334Y-88565112D01*
X165138844Y-88407370D01*
X165200275Y-88296912D01*
X165304338Y-88231799D01*
X165453747Y-88210095D01*
X165584747Y-88228699D01*
X165698694Y-88284509D01*
X165863025Y-88479846D01*
X165863025Y-89675122D01*
X166149829Y-89675122D01*
X166515892Y-87890347D01*
X166490893Y-88070569D01*
X166790100Y-88070569D01*
X166822656Y-87887828D01*
X166920325Y-87748883D01*
X167077292Y-87661098D01*
X167287744Y-87631836D01*
X167483662Y-87656059D01*
X167631134Y-87728729D01*
X167723570Y-87844420D01*
X167754382Y-87997705D01*
X167725120Y-88125023D01*
X167637335Y-88231024D01*
X167479205Y-88322298D01*
X167238910Y-88405432D01*
X166988150Y-88488567D01*
X166798627Y-88579840D01*
X166660263Y-88683128D01*
X166562982Y-88802307D01*
X166505427Y-88940671D01*
X166486243Y-89101514D01*
X166510014Y-89272304D01*
X166581327Y-89418807D01*
X166700183Y-89541022D01*
X166858830Y-89632747D01*
X167049516Y-89687783D01*
X167272241Y-89706128D01*
X167497034Y-89683842D01*
X167706323Y-89616986D01*
X167884801Y-89511372D01*
X168017157Y-89372815D01*
X168099129Y-89207321D01*
X168126452Y-89020898D01*
X167827246Y-89020898D01*
X167789458Y-89204027D01*
X167676092Y-89344135D01*
X167499553Y-89433083D01*
X167272241Y-89462732D01*
X167064114Y-89438702D01*
X166911023Y-89366614D01*
X166816842Y-89253055D01*
X166785449Y-89104614D01*
X166814517Y-88957530D01*
X166901721Y-88848041D01*
X167065277Y-88757930D01*
X167323401Y-88668982D01*
X167555514Y-88590003D01*
X167741291Y-88499828D01*
X167880731Y-88398456D01*
X168011537Y-88219203D01*
X168055139Y-88002356D01*
X168031454Y-87834838D01*
X167960399Y-87687819D01*
X167841974Y-87561298D01*
X168126452Y-86896997D01*
X168523327Y-86896997D01*
X168680449Y-86904716D01*
X168836058Y-86927798D01*
X168988655Y-86966022D01*
X169136770Y-87019018D01*
X169278978Y-87086278D01*
X169413908Y-87167152D01*
X169540262Y-87260862D01*
X169656822Y-87366506D01*
X169762466Y-87483066D01*
X169856176Y-87609419D01*
X169937050Y-87744350D01*
X170004309Y-87886557D01*
X170057306Y-88034673D01*
X170095529Y-88187270D01*
X170118612Y-88342878D01*
X170126330Y-88500000D01*
X170118612Y-88657122D01*
X170095529Y-88812730D01*
X170057306Y-88965327D01*
X170004309Y-89113443D01*
X169937050Y-89255650D01*
X169856176Y-89390581D01*
X169762466Y-89516934D01*
X169656822Y-89633494D01*
X169540262Y-89739138D01*
X169413908Y-89832848D01*
X163883301Y-89706128D01*
X164109062Y-89671053D01*
X164290253Y-89565826D01*
X164409431Y-89406728D01*
X164449158Y-89210034D01*
X164399354Y-88977296D01*
X164249945Y-88803082D01*
X164099136Y-88722553D01*
X163912326Y-88674236D01*
X163689514Y-88658130D01*
X163410461Y-88658130D01*
X163410461Y-88526355D01*
X163432941Y-88391286D01*
X163500378Y-88286835D01*
X163611612Y-88219978D01*
X163765478Y-88197693D01*
X163906555Y-88217072D01*
X164022827Y-88275208D01*
X164126697Y-88462793D01*
X164415051Y-88462793D01*
X164392766Y-88339351D01*
X164325909Y-88220172D01*
X164220877Y-88115334D01*
X164084064Y-88034912D01*
X163923802Y-87983752D01*
X163748425Y-87966699D01*
X163489914Y-88002937D01*
X163294189Y-88111652D01*
X163169391Y-88283928D01*
X163123657Y-88510852D01*
X163123657Y-89282898D01*
X163108929Y-89490250D01*
X163064746Y-89650317D01*
X163064746Y-89675122D01*
X163365503Y-89675122D01*
X163405810Y-89498389D01*
X163547748Y-89613799D01*
X163706912Y-89683046D01*
X163883301Y-89706128D01*
X169413908Y-89832848D01*
X169278978Y-89913722D01*
X169136770Y-89980982D01*
X168988655Y-90033978D01*
X168836058Y-90072202D01*
X168680449Y-90095284D01*
X168523327Y-90103003D01*
X168126452Y-90103003D01*
X145873547Y-90103003D01*
X161328418Y-89675122D01*
X161591968Y-89675122D01*
X161605920Y-89495288D01*
X161735628Y-89612421D01*
X161895308Y-89682701D01*
X162084961Y-89706128D01*
X162267292Y-89679601D01*
X162425681Y-89600019D01*
X162560126Y-89467383D01*
X162662187Y-89292027D01*
X162723423Y-89084288D01*
X162743835Y-88844165D01*
X162743835Y-88822461D01*
X162723509Y-88581907D01*
X162662531Y-88374943D01*
X162560901Y-88201569D01*
X162426370Y-88071086D01*
X162266690Y-87992796D01*
X162081860Y-87966699D01*
X161899098Y-87989092D01*
X161743552Y-88056272D01*
X161615222Y-88168237D01*
X161615222Y-87293872D01*
X161328418Y-87293872D01*
X160613733Y-87997705D01*
X160605981Y-88183740D01*
X160468694Y-88063162D01*
X160302813Y-87990815D01*
X160108337Y-87966699D01*
X159898703Y-87996672D01*
X159739023Y-88086589D01*
X159629297Y-88236450D01*
X159532985Y-88127155D01*
X159411481Y-88041113D01*
X159265172Y-87985303D01*
X159094446Y-87966699D01*
X158895388Y-87990078D01*
X158739739Y-88060213D01*
X158627497Y-88177105D01*
X158558664Y-88340754D01*
X158533240Y-88551160D01*
X158533240Y-89675122D01*
X158820044Y-89675122D01*
X158820044Y-88568213D01*
X158840585Y-88411052D01*
X158902209Y-88299237D01*
X159012280Y-88232381D01*
X159178161Y-88210095D01*
X159324277Y-88233931D01*
X159443262Y-88305438D01*
X159526590Y-88417253D01*
X159565735Y-88562012D01*
X159565735Y-89675122D01*
X159854089Y-89675122D01*
X159854089Y-88575964D01*
X159893880Y-88372704D01*
X160013253Y-88250747D01*
X160212207Y-88210095D01*
X160380500Y-88236795D01*
X160509174Y-88316893D01*
X160598230Y-88450391D01*
X160598230Y-89675122D01*
X160885034Y-89675122D01*
X160885034Y-87997705D01*
X160613733Y-87997705D01*
X161328418Y-87293872D01*
X161328418Y-89675122D01*
X145873547Y-90103003D01*
X145476672Y-90103003D01*
X157065112Y-89675122D01*
X157105420Y-89498389D01*
X157247358Y-89613799D01*
X157406521Y-89683046D01*
X157582910Y-89706128D01*
X157808671Y-89671053D01*
X157989862Y-89565826D01*
X158109041Y-89406728D01*
X158148767Y-89210034D01*
X158098964Y-88977296D01*
X157949554Y-88803082D01*
X157798745Y-88722553D01*
X157611935Y-88674236D01*
X157389123Y-88658130D01*
X157110071Y-88658130D01*
X157110071Y-88526355D01*
X157132550Y-88391286D01*
X157199988Y-88286835D01*
X157311221Y-88219978D01*
X157465088Y-88197693D01*
X157606164Y-88217072D01*
X157722436Y-88275208D01*
X157826306Y-88462793D01*
X158114660Y-88462793D01*
X158092375Y-88339351D01*
X158025519Y-88220172D01*
X157920486Y-88115334D01*
X157783673Y-88034912D01*
X157623411Y-87983752D01*
X157448035Y-87966699D01*
X157189523Y-88002937D01*
X156993799Y-88111652D01*
X156869000Y-88283928D01*
X156823266Y-88510852D01*
X156373681Y-89675122D01*
X156373681Y-87997705D01*
X156102380Y-87997705D01*
X156093078Y-88208545D01*
X155951830Y-88074186D01*
X155784398Y-87993571D01*
X155590784Y-87966699D01*
X155399167Y-87990698D01*
X155249719Y-88062693D01*
X155142439Y-88182686D01*
X155077327Y-88350676D01*
X155054382Y-88566663D01*
X155054382Y-89675122D01*
X155341186Y-89675122D01*
X155341186Y-88565112D01*
X155362697Y-88407370D01*
X155424127Y-88296912D01*
X155528190Y-88231799D01*
X155677600Y-88210095D01*
X155808600Y-88228699D01*
X155922546Y-88284509D01*
X156086877Y-88479846D01*
X156086877Y-89675122D01*
X156373681Y-89675122D01*
X156823266Y-88510852D01*
X156823266Y-89282898D01*
X156808539Y-89490250D01*
X156764355Y-89650317D01*
X156764355Y-89675122D01*
X157065112Y-89675122D01*
X145476672Y-90103003D01*
X145319550Y-90095284D01*
X152056116Y-89675122D01*
X152355322Y-89675122D01*
X152355322Y-88631775D01*
X153493237Y-88631775D01*
X153493237Y-89675122D01*
X153790893Y-89675122D01*
X153790893Y-87417896D01*
X153493237Y-87417896D01*
X153493237Y-88388379D01*
X152355322Y-88388379D01*
X152355322Y-87417896D01*
X152056116Y-87417896D01*
X152056116Y-89675122D01*
X145319550Y-90095284D01*
X145163942Y-90072202D01*
X150536828Y-89675122D01*
X150577136Y-89498389D01*
X150719074Y-89613799D01*
X150878237Y-89683046D01*
X151054626Y-89706128D01*
X151280388Y-89671053D01*
X151461578Y-89565826D01*
X151580757Y-89406728D01*
X151620483Y-89210034D01*
X151570680Y-88977296D01*
X151421271Y-88803082D01*
X151270462Y-88722553D01*
X151083651Y-88674236D01*
X150860840Y-88658130D01*
X150581787Y-88658130D01*
X150581787Y-88526355D01*
X150604266Y-88391286D01*
X150671704Y-88286835D01*
X150782937Y-88219978D01*
X150936804Y-88197693D01*
X151077881Y-88217072D01*
X151194153Y-88275208D01*
X151298022Y-88462793D01*
X151586377Y-88462793D01*
X151564091Y-88339351D01*
X151497235Y-88220172D01*
X151392203Y-88115334D01*
X151255389Y-88034912D01*
X151095128Y-87983752D01*
X150919751Y-87966699D01*
X150661239Y-88002937D01*
X150465515Y-88111652D01*
X150340716Y-88283928D01*
X150294983Y-88510852D01*
X149845398Y-89675122D01*
X149845398Y-87293872D01*
X149558594Y-87293872D01*
X149558594Y-88182190D01*
X149428197Y-88062473D01*
X149268517Y-87990643D01*
X149079553Y-87966699D01*
X148890503Y-87992365D01*
X148730565Y-88069363D01*
X148599737Y-88197693D01*
X148502844Y-88370637D01*
X148444708Y-88581477D01*
X148425329Y-88830212D01*
X148425329Y-88855017D01*
X148062561Y-87552771D01*
X148019928Y-87434949D01*
X147893579Y-87386890D01*
X147766455Y-87434949D01*
X147723047Y-87552771D01*
X147766455Y-87669043D01*
X147893579Y-87715552D01*
X148019928Y-87669043D01*
X148062561Y-87552771D01*
X148425329Y-88855017D01*
X148444966Y-89094537D01*
X148503878Y-89300468D01*
X148602063Y-89472809D01*
X148733321Y-89602431D01*
X148891451Y-89680204D01*
X149076452Y-89706128D01*
X149272306Y-89681151D01*
X149436120Y-89606220D01*
X149567895Y-89481335D01*
X149581848Y-89675122D01*
X149845398Y-89675122D01*
X150294983Y-88510852D01*
X150294983Y-89282898D01*
X150280255Y-89490250D01*
X150236072Y-89650317D01*
X150236072Y-89675122D01*
X150536828Y-89675122D01*
X145163942Y-90072202D01*
X145011345Y-90033978D01*
X147752502Y-89675122D01*
X148039306Y-89675122D01*
X148039306Y-87997705D01*
X147752502Y-87997705D01*
X147752502Y-89675122D01*
X145011345Y-90033978D01*
X144863230Y-89980982D01*
X145873547Y-88855017D01*
X145893184Y-89094537D01*
X145952095Y-89300468D01*
X146050281Y-89472809D01*
X146181539Y-89602431D01*
X146339669Y-89680204D01*
X146524670Y-89706128D01*
X146720524Y-89681151D01*
X146884338Y-89606220D01*
X147016113Y-89481335D01*
X147030066Y-89675122D01*
X147293616Y-89675122D01*
X147293616Y-87293872D01*
X147006811Y-87293872D01*
X147006811Y-88182190D01*
X146876415Y-88062473D01*
X146716734Y-87990643D01*
X146527771Y-87966699D01*
X146338721Y-87992365D01*
X146178783Y-88069363D01*
X146047955Y-88197693D01*
X145951062Y-88370637D01*
X145892926Y-88581477D01*
X145873547Y-88830212D01*
X145873547Y-88855017D01*
X144863230Y-89980982D01*
X144721022Y-89913722D01*
X144586092Y-89832848D01*
X144459738Y-89739138D01*
X144343178Y-89633494D01*
X144237534Y-89516934D01*
X144143824Y-89390581D01*
X144062950Y-89255650D01*
X143995691Y-89113443D01*
X143942694Y-88965327D01*
X143904471Y-88812730D01*
X143881388Y-88657122D01*
X143873670Y-88500000D01*
X143881388Y-88342878D01*
X143904471Y-88187270D01*
X143942694Y-88034673D01*
X143995691Y-87886557D01*
X144062950Y-87744350D01*
X144143824Y-87609419D01*
X144237534Y-87483066D01*
X144343178Y-87366506D01*
X144459738Y-87260862D01*
X144586092Y-87167152D01*
X144721022Y-87086278D01*
X144863230Y-87019018D01*
X145011345Y-86966022D01*
X145163942Y-86927798D01*
X145319550Y-86904716D01*
X145476672Y-86896997D01*
X145873547Y-86896997D01*
X168126452Y-86896997D01*
G37*
G36*
X146160351Y-88822461D02*
G01*
X146188644Y-88562787D01*
X146273523Y-88369775D01*
X146411499Y-88250015D01*
X146599084Y-88210095D01*
X146770478Y-88239379D01*
X146906387Y-88327228D01*
X147006811Y-88473645D01*
X147006811Y-89199182D01*
X146902597Y-89345599D01*
X146765655Y-89433449D01*
X146595984Y-89462732D01*
X146412662Y-89422812D01*
X146275073Y-89303052D01*
X146189032Y-89103064D01*
X146160351Y-88822461D01*
G37*
G36*
X148712134Y-88822461D02*
G01*
X148740426Y-88562787D01*
X148825305Y-88369775D01*
X148963281Y-88250015D01*
X149150867Y-88210095D01*
X149322260Y-88239379D01*
X149458169Y-88327228D01*
X149558594Y-88473645D01*
X149558594Y-89199182D01*
X149454379Y-89345599D01*
X149317437Y-89433449D01*
X149147766Y-89462732D01*
X148964444Y-89422812D01*
X148826855Y-89303052D01*
X148740814Y-89103064D01*
X148712134Y-88822461D01*
G37*
G36*
X162457031Y-88855017D02*
G01*
X162427576Y-89109265D01*
X162339209Y-89301501D01*
X162198907Y-89422424D01*
X162013647Y-89462732D01*
X161848110Y-89435516D01*
X161715302Y-89353867D01*
X161615222Y-89217786D01*
X161615222Y-88447290D01*
X161716336Y-88315515D01*
X161848110Y-88236450D01*
X162010547Y-88210095D01*
X162198132Y-88250790D01*
X162339209Y-88372876D01*
X162427576Y-88574802D01*
X162457031Y-88855017D01*
G37*
G36*
X151012768Y-89456531D02*
G01*
X150881381Y-89439090D01*
X150756970Y-89386768D01*
X150581787Y-89205383D01*
X150581787Y-88861218D01*
X150806579Y-88861218D01*
X151037186Y-88880500D01*
X151201904Y-88938345D01*
X151300735Y-89034754D01*
X151333679Y-89169727D01*
X151243762Y-89380566D01*
X151012768Y-89456531D01*
G37*
G36*
X157541052Y-89456531D02*
G01*
X157409665Y-89439090D01*
X157285254Y-89386768D01*
X157110071Y-89205383D01*
X157110071Y-88861218D01*
X157334863Y-88861218D01*
X157565469Y-88880500D01*
X157730188Y-88938345D01*
X157829019Y-89034754D01*
X157861963Y-89169727D01*
X157772046Y-89380566D01*
X157541052Y-89456531D01*
G37*
G36*
X163841443Y-89456531D02*
G01*
X163710055Y-89439090D01*
X163585644Y-89386768D01*
X163410461Y-89205383D01*
X163410461Y-88861218D01*
X163635254Y-88861218D01*
X163865860Y-88880500D01*
X164030578Y-88938345D01*
X164129410Y-89034754D01*
X164162353Y-89169727D01*
X164072436Y-89380566D01*
X163841443Y-89456531D01*
G37*
G36*
X169480685Y-80595496D02*
G01*
X169480685Y-81376843D01*
X169034201Y-81376843D01*
X168499350Y-83695306D01*
X168434238Y-84141791D01*
X168338895Y-83739490D01*
X167669168Y-81376843D01*
X167292447Y-81376843D01*
X166638998Y-83739490D01*
X166545981Y-84148767D01*
X166473892Y-83692981D01*
X165948343Y-81376843D01*
X165499533Y-81376843D01*
X165004214Y-84762683D01*
X165004214Y-81376843D01*
X164555405Y-81376843D01*
X164555405Y-84397589D01*
X162950851Y-84397589D01*
X162441580Y-84762683D01*
X162441580Y-81376843D01*
X160313803Y-81376843D01*
X160313803Y-81744263D01*
X161995096Y-81744263D01*
X161995096Y-82832568D01*
X160527744Y-82832568D01*
X160527744Y-83197662D01*
X161995096Y-83197662D01*
X161995096Y-84397589D01*
X160290549Y-84397589D01*
X160290549Y-84762683D01*
X162441580Y-84762683D01*
X162950851Y-84397589D01*
X162950851Y-84762683D01*
X165004214Y-84762683D01*
X165499533Y-81376843D01*
X166320413Y-84762683D01*
X166727365Y-84762683D01*
X167424997Y-82295392D01*
X167478482Y-82037268D01*
X167531967Y-82295392D01*
X168255179Y-84762683D01*
X168662131Y-84762683D01*
X169480685Y-81376843D01*
X169480685Y-80595496D01*
X170075998Y-80595496D01*
X170075998Y-85404504D01*
X159734769Y-84762683D01*
X159734769Y-81376843D01*
X158779013Y-81376843D01*
X158495826Y-81398547D01*
X158235377Y-81463660D01*
X157997665Y-81572180D01*
X157788505Y-81720750D01*
X157613710Y-81906010D01*
X157473279Y-82127960D01*
X155548978Y-82902332D01*
X155530245Y-82600283D01*
X155474047Y-82323556D01*
X155380383Y-82072150D01*
X155176617Y-81755599D01*
X154902505Y-81522183D01*
X154568805Y-81378297D01*
X154186270Y-81330334D01*
X153850373Y-81363795D01*
X153562019Y-81464176D01*
X153321207Y-81631479D01*
X153134396Y-81857951D01*
X149277267Y-82246558D01*
X149263315Y-82562817D01*
X149051441Y-82361279D01*
X148800294Y-82240356D01*
X148509872Y-82200049D01*
X148222448Y-82236047D01*
X147998276Y-82344040D01*
X147837355Y-82524029D01*
X147739687Y-82776014D01*
X147705270Y-83099994D01*
X147705270Y-84762683D01*
X148135477Y-84762683D01*
X148135477Y-83097668D01*
X148167742Y-82861055D01*
X148259888Y-82695367D01*
X148415983Y-82597699D01*
X148640097Y-82565143D01*
X148836597Y-82593048D01*
X149007516Y-82676764D01*
X149254013Y-82969769D01*
X149254013Y-84762683D01*
X149684219Y-84762683D01*
X149684219Y-82246558D01*
X149277267Y-82246558D01*
X153134396Y-81857951D01*
X153008047Y-82135841D01*
X152942160Y-82465149D01*
X153390970Y-82465149D01*
X153483115Y-82116333D01*
X153643280Y-81879138D01*
X153876115Y-81743100D01*
X154186270Y-81697754D01*
X154450983Y-81732894D01*
X154674612Y-81838314D01*
X154857159Y-82014014D01*
X154992164Y-82254567D01*
X155073167Y-82554549D01*
X152514279Y-83481366D01*
X152477944Y-83130225D01*
X152368939Y-82816290D01*
X152195113Y-82554678D01*
X151964313Y-82360504D01*
X151686713Y-82240163D01*
X151372488Y-82200049D01*
X151051707Y-82239581D01*
X150774592Y-82358179D01*
X150541144Y-82555841D01*
X150364798Y-82819132D01*
X150258990Y-83134617D01*
X150223721Y-83502295D01*
X150223721Y-83532526D01*
X150258894Y-83881051D01*
X150364410Y-84191788D01*
X150535330Y-84451365D01*
X150766711Y-84646411D01*
X151047799Y-84768497D01*
X151367838Y-84809192D01*
X151687327Y-84769659D01*
X151963667Y-84651062D01*
X152196857Y-84453400D01*
X152373203Y-84190625D01*
X152479010Y-83876691D01*
X152514279Y-83511597D01*
X152514279Y-83481366D01*
X155073167Y-82554549D01*
X155100168Y-82913959D01*
X155100168Y-83241846D01*
X155074588Y-83584202D01*
X154997849Y-83876432D01*
X154869949Y-84118536D01*
X154696058Y-84299404D01*
X154481343Y-84407924D01*
X154225803Y-84444098D01*
X153897044Y-84401949D01*
X153654907Y-84275504D01*
X153489510Y-84044413D01*
X153390970Y-83688330D01*
X152942160Y-83688330D01*
X153014119Y-84019188D01*
X153146282Y-84295528D01*
X153338647Y-84517349D01*
X153585532Y-84679484D01*
X153881250Y-84776765D01*
X154225803Y-84809192D01*
X154599294Y-84761391D01*
X154919817Y-84617989D01*
X155187372Y-84378986D01*
X155345574Y-84145715D01*
X155458576Y-83876109D01*
X155526377Y-83570169D01*
X155548978Y-83227893D01*
X155548978Y-82902332D01*
X157473279Y-82127960D01*
X157370314Y-82380141D01*
X157307914Y-82656093D01*
X157286081Y-82955817D01*
X157286081Y-83172083D01*
X157306622Y-83478265D01*
X157368246Y-83758093D01*
X157470953Y-84011566D01*
X157611772Y-84233258D01*
X157787730Y-84417743D01*
X157998828Y-84565021D01*
X158240028Y-84672766D01*
X158506291Y-84738654D01*
X158797617Y-84762683D01*
X159734769Y-84762683D01*
X170075998Y-85404504D01*
X169480685Y-85404504D01*
X140705698Y-84762683D01*
X141135904Y-84762683D01*
X141135904Y-81190808D01*
X140705698Y-81190808D01*
X140705698Y-84762683D01*
X169480685Y-85404504D01*
X135122318Y-85404504D01*
X139549954Y-84762683D01*
X139980161Y-84762683D01*
X139980161Y-81190808D01*
X139549954Y-81190808D01*
X139549954Y-84762683D01*
X135122318Y-85404504D01*
X134527005Y-85404504D01*
X137817502Y-84809192D01*
X138137379Y-84771856D01*
X138414881Y-84659847D01*
X138650009Y-84473166D01*
X138828293Y-84223956D01*
X138935263Y-83924362D01*
X138970920Y-83574384D01*
X138970920Y-83495319D01*
X138935166Y-83140980D01*
X138827905Y-82826755D01*
X138656404Y-82564561D01*
X138427930Y-82366318D01*
X138160213Y-82241616D01*
X137870987Y-82200049D01*
X137568163Y-82235964D01*
X137313915Y-82343709D01*
X137108243Y-82523285D01*
X136957089Y-82769781D01*
X136866397Y-83078290D01*
X136836166Y-83448810D01*
X136836166Y-83627869D01*
X138540714Y-83627869D01*
X138481705Y-83964185D01*
X138323285Y-84228995D01*
X138086962Y-84400787D01*
X137794247Y-84458051D01*
X137583795Y-84434796D01*
X137408224Y-84365033D01*
X137131497Y-84118536D01*
X136868723Y-84323175D01*
X137046619Y-84535807D01*
X137264047Y-84687688D01*
X137521008Y-84778816D01*
X137817502Y-84809192D01*
X134527005Y-85404504D01*
X132924002Y-83000000D01*
X135122318Y-82632581D01*
X135333932Y-82616302D01*
X135585855Y-82656352D01*
X135777316Y-82776499D01*
X135908316Y-82976746D01*
X135908316Y-84762683D01*
X136338522Y-84762683D01*
X136338522Y-82246558D01*
X135919943Y-82246558D01*
X135912967Y-82537238D01*
X135657169Y-82284346D01*
X135313004Y-82200049D01*
X135122318Y-82232605D01*
X135122318Y-82632581D01*
X132924002Y-83000000D01*
X134527005Y-80595496D01*
X146472787Y-81637292D01*
X146472787Y-82246558D01*
X146003049Y-82246558D01*
X146003049Y-82579095D01*
X146472787Y-82579095D01*
X145500754Y-84762683D01*
X145500754Y-82246558D01*
X145082175Y-82246558D01*
X145075198Y-82537238D01*
X144819400Y-82284346D01*
X144475235Y-82200049D01*
X144284549Y-82232605D01*
X144284549Y-82632581D01*
X144496164Y-82616302D01*
X144748087Y-82656352D01*
X144939548Y-82776499D01*
X144003171Y-83481366D01*
X143966836Y-83130225D01*
X143857831Y-82816290D01*
X143684004Y-82554678D01*
X143453204Y-82360504D01*
X143175605Y-82240163D01*
X142861380Y-82200049D01*
X142540599Y-82239581D01*
X142263484Y-82358179D01*
X142030035Y-82555841D01*
X141853690Y-82819132D01*
X141747882Y-83134617D01*
X141712613Y-83502295D01*
X141712613Y-83532526D01*
X141747785Y-83881051D01*
X141853302Y-84191788D01*
X142024222Y-84451365D01*
X142255603Y-84646411D01*
X142536691Y-84768497D01*
X142856729Y-84809192D01*
X143176219Y-84769659D01*
X143452558Y-84651062D01*
X143685748Y-84453400D01*
X143862094Y-84190625D01*
X143967902Y-83876691D01*
X144003171Y-83511597D01*
X144003171Y-83481366D01*
X144939548Y-82776499D01*
X145070547Y-82976746D01*
X145070547Y-84762683D01*
X145500754Y-84762683D01*
X146472787Y-82579095D01*
X146472787Y-84139465D01*
X146410001Y-84366196D01*
X146196060Y-84441772D01*
X145991422Y-84413867D01*
X145991422Y-84762683D01*
X146321634Y-84809192D01*
X146574525Y-84765590D01*
X146756491Y-84634784D01*
X146866368Y-84423750D01*
X146902994Y-84139465D01*
X146902994Y-82579095D01*
X147361105Y-82579095D01*
X147361105Y-82246558D01*
X146902994Y-82246558D01*
X146902994Y-81637292D01*
X146472787Y-81637292D01*
X134527005Y-80595496D01*
X135122318Y-80595496D01*
X169480685Y-80595496D01*
G37*
G36*
X159288284Y-81744263D02*
G01*
X159288284Y-84397589D01*
X158818546Y-84397589D01*
X158499831Y-84361932D01*
X158232018Y-84254962D01*
X158015106Y-84076678D01*
X157855555Y-83832507D01*
X157759825Y-83527875D01*
X157727914Y-83162781D01*
X157727914Y-82965118D01*
X157758016Y-82609197D01*
X157848321Y-82310378D01*
X157998828Y-82068661D01*
X158204630Y-81890507D01*
X158460815Y-81782374D01*
X158767386Y-81744263D01*
X159288284Y-81744263D01*
G37*
G36*
X143570639Y-83532526D02*
G01*
X143522095Y-83909828D01*
X143376465Y-84204578D01*
X143149444Y-84394682D01*
X142856729Y-84458051D01*
X142562561Y-84393810D01*
X142335831Y-84201089D01*
X142191072Y-83892678D01*
X142142819Y-83481366D01*
X142191944Y-83106680D01*
X142339319Y-82810477D01*
X142568084Y-82617756D01*
X142861380Y-82553516D01*
X143149153Y-82616884D01*
X143375302Y-82806989D01*
X143521805Y-83115109D01*
X143570639Y-83532526D01*
G37*
G36*
X152081747Y-83532526D02*
G01*
X152033204Y-83909828D01*
X151887573Y-84204578D01*
X151660552Y-84394682D01*
X151367838Y-84458051D01*
X151073669Y-84393810D01*
X150846939Y-84201089D01*
X150702180Y-83892678D01*
X150653928Y-83481366D01*
X150703053Y-83106680D01*
X150850427Y-82810477D01*
X151079192Y-82617756D01*
X151372488Y-82553516D01*
X151660262Y-82616884D01*
X151886411Y-82806989D01*
X152032913Y-83115109D01*
X152081747Y-83532526D01*
G37*
G36*
X137870987Y-82553516D02*
G01*
X138110507Y-82600896D01*
X138308170Y-82743039D01*
X138451184Y-82970641D01*
X138526761Y-83274402D01*
X137266373Y-83274402D01*
X137266373Y-83241846D01*
X137319858Y-82950875D01*
X137443106Y-82733737D01*
X137629141Y-82598571D01*
X137870987Y-82553516D01*
G37*
%LPC*%
M02*
