%TF.GenerationSoftware,KiCad,Pcbnew,(6.0.0-0)*%
%TF.CreationDate,2022-10-20T15:52:38+11:00*%
%TF.ProjectId,WLED_Controller,574c4544-5f43-46f6-9e74-726f6c6c6572,rev?*%
%TF.SameCoordinates,Original*%
%TF.FileFunction,Legend,Top*%
%TF.FilePolarity,Positive*%
%FSLAX46Y46*%
G04 Gerber Fmt 4.6, Leading zero omitted, Abs format (unit mm)*
G04 Created by KiCad (PCBNEW (6.0.0-0)) date 2022-10-20 15:52:38*
%MOMM*%
%LPD*%
G01*
G04 APERTURE LIST*
G04 Aperture macros list*
%AMRoundRect*
0 Rectangle with rounded corners*
0 $1 Rounding radius*
0 $2 $3 $4 $5 $6 $7 $8 $9 X,Y pos of 4 corners*
0 Add a 4 corners polygon primitive as box body*
4,1,4,$2,$3,$4,$5,$6,$7,$8,$9,$2,$3,0*
0 Add four circle primitives for the rounded corners*
1,1,$1+$1,$2,$3*
1,1,$1+$1,$4,$5*
1,1,$1+$1,$6,$7*
1,1,$1+$1,$8,$9*
0 Add four rect primitives between the rounded corners*
20,1,$1+$1,$2,$3,$4,$5,0*
20,1,$1+$1,$4,$5,$6,$7,0*
20,1,$1+$1,$6,$7,$8,$9,0*
20,1,$1+$1,$8,$9,$2,$3,0*%
G04 Aperture macros list end*
%ADD10C,0.153000*%
%ADD11C,0.120000*%
%ADD12RoundRect,0.050000X-0.400000X-0.250000X0.400000X-0.250000X0.400000X0.250000X-0.400000X0.250000X0*%
%ADD13RoundRect,0.050000X-0.400000X-0.200000X0.400000X-0.200000X0.400000X0.200000X-0.400000X0.200000X0*%
%ADD14RoundRect,0.050000X0.250000X-0.400000X0.250000X0.400000X-0.250000X0.400000X-0.250000X-0.400000X0*%
%ADD15RoundRect,0.050000X0.200000X-0.400000X0.200000X0.400000X-0.200000X0.400000X-0.200000X-0.400000X0*%
%ADD16RoundRect,0.275000X-0.250000X0.225000X-0.250000X-0.225000X0.250000X-0.225000X0.250000X0.225000X0*%
%ADD17RoundRect,0.275000X-0.225000X-0.250000X0.225000X-0.250000X0.225000X0.250000X-0.225000X0.250000X0*%
%ADD18RoundRect,0.250000X-0.275000X0.200000X-0.275000X-0.200000X0.275000X-0.200000X0.275000X0.200000X0*%
%ADD19RoundRect,0.250000X-0.200000X-0.275000X0.200000X-0.275000X0.200000X0.275000X-0.200000X0.275000X0*%
%ADD20RoundRect,0.200000X-0.512500X-0.150000X0.512500X-0.150000X0.512500X0.150000X-0.512500X0.150000X0*%
%ADD21RoundRect,0.275000X0.225000X0.250000X-0.225000X0.250000X-0.225000X-0.250000X0.225000X-0.250000X0*%
%ADD22RoundRect,0.300000X-0.350000X-0.625000X0.350000X-0.625000X0.350000X0.625000X-0.350000X0.625000X0*%
%ADD23O,1.300000X1.850000*%
%ADD24RoundRect,0.275000X0.250000X-0.225000X0.250000X0.225000X-0.250000X0.225000X-0.250000X-0.225000X0*%
%ADD25RoundRect,0.112500X-0.337500X-0.062500X0.337500X-0.062500X0.337500X0.062500X-0.337500X0.062500X0*%
%ADD26RoundRect,0.112500X-0.062500X-0.337500X0.062500X-0.337500X0.062500X0.337500X-0.062500X0.337500X0*%
%ADD27RoundRect,0.050000X-1.675000X-1.675000X1.675000X-1.675000X1.675000X1.675000X-1.675000X1.675000X0*%
%ADD28RoundRect,0.050000X0.225000X-0.300000X0.225000X0.300000X-0.225000X0.300000X-0.225000X-0.300000X0*%
%ADD29RoundRect,0.250000X0.275000X-0.200000X0.275000X0.200000X-0.275000X0.200000X-0.275000X-0.200000X0*%
%ADD30RoundRect,0.050000X0.850000X-0.850000X0.850000X0.850000X-0.850000X0.850000X-0.850000X-0.850000X0*%
%ADD31O,1.800000X1.800000*%
%ADD32RoundRect,0.050000X0.500000X-0.850000X0.500000X0.850000X-0.500000X0.850000X-0.500000X-0.850000X0*%
%ADD33RoundRect,0.268750X-0.256250X0.218750X-0.256250X-0.218750X0.256250X-0.218750X0.256250X0.218750X0*%
%ADD34RoundRect,0.200000X0.150000X-0.587500X0.150000X0.587500X-0.150000X0.587500X-0.150000X-0.587500X0*%
%ADD35RoundRect,0.250000X0.200000X0.275000X-0.200000X0.275000X-0.200000X-0.275000X0.200000X-0.275000X0*%
%ADD36RoundRect,0.050000X-0.500000X0.850000X-0.500000X-0.850000X0.500000X-0.850000X0.500000X0.850000X0*%
%ADD37RoundRect,0.200000X-0.150000X0.587500X-0.150000X-0.587500X0.150000X-0.587500X0.150000X0.587500X0*%
G04 APERTURE END LIST*
D10*
X68452380Y-103952380D02*
X67976190Y-104285714D01*
X68452380Y-104523809D02*
X67452380Y-104523809D01*
X67452380Y-104142857D01*
X67500000Y-104047619D01*
X67547619Y-104000000D01*
X67642857Y-103952380D01*
X67785714Y-103952380D01*
X67880952Y-104000000D01*
X67928571Y-104047619D01*
X67976190Y-104142857D01*
X67976190Y-104523809D01*
X67928571Y-103523809D02*
X67928571Y-103190476D01*
X68452380Y-103047619D02*
X68452380Y-103523809D01*
X67452380Y-103523809D01*
X67452380Y-103047619D01*
X68404761Y-102666666D02*
X68452380Y-102523809D01*
X68452380Y-102285714D01*
X68404761Y-102190476D01*
X68357142Y-102142857D01*
X68261904Y-102095238D01*
X68166666Y-102095238D01*
X68071428Y-102142857D01*
X68023809Y-102190476D01*
X67976190Y-102285714D01*
X67928571Y-102476190D01*
X67880952Y-102571428D01*
X67833333Y-102619047D01*
X67738095Y-102666666D01*
X67642857Y-102666666D01*
X67547619Y-102619047D01*
X67500000Y-102571428D01*
X67452380Y-102476190D01*
X67452380Y-102238095D01*
X67500000Y-102095238D01*
X67928571Y-101666666D02*
X67928571Y-101333333D01*
X68452380Y-101190476D02*
X68452380Y-101666666D01*
X67452380Y-101666666D01*
X67452380Y-101190476D01*
X67452380Y-100904761D02*
X67452380Y-100333333D01*
X68452380Y-100619047D02*
X67452380Y-100619047D01*
X56971428Y-100809523D02*
X56971428Y-100476190D01*
X56447619Y-100476190D02*
X57447619Y-100476190D01*
X57447619Y-100952380D01*
X56447619Y-101809523D02*
X56447619Y-101333333D01*
X57447619Y-101333333D01*
X56733333Y-102095238D02*
X56733333Y-102571428D01*
X56447619Y-102000000D02*
X57447619Y-102333333D01*
X56447619Y-102666666D01*
X56495238Y-102952380D02*
X56447619Y-103095238D01*
X56447619Y-103333333D01*
X56495238Y-103428571D01*
X56542857Y-103476190D01*
X56638095Y-103523809D01*
X56733333Y-103523809D01*
X56828571Y-103476190D01*
X56876190Y-103428571D01*
X56923809Y-103333333D01*
X56971428Y-103142857D01*
X57019047Y-103047619D01*
X57066666Y-103000000D01*
X57161904Y-102952380D01*
X57257142Y-102952380D01*
X57352380Y-103000000D01*
X57400000Y-103047619D01*
X57447619Y-103142857D01*
X57447619Y-103380952D01*
X57400000Y-103523809D01*
X56447619Y-103952380D02*
X57447619Y-103952380D01*
X56971428Y-103952380D02*
X56971428Y-104523809D01*
X56447619Y-104523809D02*
X57447619Y-104523809D01*
X50742857Y-113485714D02*
X50695238Y-113438095D01*
X50647619Y-113295238D01*
X50647619Y-113200000D01*
X50695238Y-113057142D01*
X50790476Y-112961904D01*
X50885714Y-112914285D01*
X51076190Y-112866666D01*
X51219047Y-112866666D01*
X51409523Y-112914285D01*
X51504761Y-112961904D01*
X51600000Y-113057142D01*
X51647619Y-113200000D01*
X51647619Y-113295238D01*
X51600000Y-113438095D01*
X51552380Y-113485714D01*
X50647619Y-113914285D02*
X51647619Y-113914285D01*
X51171428Y-113914285D02*
X51171428Y-114485714D01*
X50647619Y-114485714D02*
X51647619Y-114485714D01*
X50647619Y-115533333D02*
X51123809Y-115200000D01*
X50647619Y-114961904D02*
X51647619Y-114961904D01*
X51647619Y-115342857D01*
X51600000Y-115438095D01*
X51552380Y-115485714D01*
X51457142Y-115533333D01*
X51314285Y-115533333D01*
X51219047Y-115485714D01*
X51171428Y-115438095D01*
X51123809Y-115342857D01*
X51123809Y-114961904D01*
X51600000Y-116485714D02*
X51647619Y-116390476D01*
X51647619Y-116247619D01*
X51600000Y-116104761D01*
X51504761Y-116009523D01*
X51409523Y-115961904D01*
X51219047Y-115914285D01*
X51076190Y-115914285D01*
X50885714Y-115961904D01*
X50790476Y-116009523D01*
X50695238Y-116104761D01*
X50647619Y-116247619D01*
X50647619Y-116342857D01*
X50695238Y-116485714D01*
X50742857Y-116533333D01*
X51076190Y-116533333D01*
X51076190Y-116342857D01*
X51619047Y-121471428D02*
X52380952Y-121471428D01*
X52000000Y-121852380D02*
X52000000Y-121090476D01*
X53619047Y-121471428D02*
X54380952Y-121471428D01*
D11*
X71250000Y-110430000D02*
X70250000Y-110430000D01*
X71250000Y-107070000D02*
X70250000Y-107070000D01*
X61780000Y-113300000D02*
X61780000Y-114300000D01*
X58420000Y-113300000D02*
X58420000Y-114300000D01*
X66990000Y-117109420D02*
X66990000Y-117390580D01*
X68010000Y-117109420D02*
X68010000Y-117390580D01*
X72859420Y-118440000D02*
X73140580Y-118440000D01*
X72859420Y-119460000D02*
X73140580Y-119460000D01*
X69859420Y-121010000D02*
X70140580Y-121010000D01*
X69859420Y-119990000D02*
X70140580Y-119990000D01*
X61327500Y-109125242D02*
X61327500Y-109599758D01*
X62372500Y-109125242D02*
X62372500Y-109599758D01*
X53512742Y-117022500D02*
X53987258Y-117022500D01*
X53512742Y-115977500D02*
X53987258Y-115977500D01*
X59687742Y-115977500D02*
X60162258Y-115977500D01*
X59687742Y-117022500D02*
X60162258Y-117022500D01*
X67350000Y-122890000D02*
X68150000Y-122890000D01*
X67350000Y-126010000D02*
X66550000Y-126010000D01*
X67350000Y-126010000D02*
X68150000Y-126010000D01*
X67350000Y-122890000D02*
X65550000Y-122890000D01*
X65840580Y-102690000D02*
X65559420Y-102690000D01*
X65840580Y-103710000D02*
X65559420Y-103710000D01*
X69740000Y-124309420D02*
X69740000Y-124590580D01*
X70760000Y-124309420D02*
X70760000Y-124590580D01*
X57500000Y-117490000D02*
X58300000Y-117490000D01*
X57500000Y-120610000D02*
X58300000Y-120610000D01*
X57500000Y-117490000D02*
X55700000Y-117490000D01*
X57500000Y-120610000D02*
X56700000Y-120610000D01*
X55140000Y-123690000D02*
X54860000Y-123690000D01*
X50860000Y-122090000D02*
X49940000Y-122090000D01*
X50860000Y-123690000D02*
X50860000Y-122090000D01*
X49940000Y-123690000D02*
X50860000Y-123690000D01*
X52500000Y-129910000D02*
X52500000Y-125550000D01*
X55300000Y-126050000D02*
X55300000Y-127650000D01*
X51140000Y-123690000D02*
X51140000Y-122475000D01*
X51140000Y-123690000D02*
X50860000Y-123690000D01*
X55300000Y-127650000D02*
X54300000Y-127650000D01*
X51200000Y-127650000D02*
X51200000Y-129910000D01*
X49940000Y-122090000D02*
X49940000Y-129910000D01*
X56060000Y-129910000D02*
X56060000Y-122090000D01*
X54300000Y-127650000D02*
X54300000Y-126050000D01*
X50700000Y-127650000D02*
X51700000Y-127650000D01*
X51700000Y-127650000D02*
X51700000Y-129910000D01*
X56060000Y-123690000D02*
X55140000Y-123690000D01*
X51700000Y-126050000D02*
X50700000Y-126050000D01*
X56060000Y-122090000D02*
X55140000Y-122090000D01*
X49940000Y-129910000D02*
X56060000Y-129910000D01*
X52500000Y-125550000D02*
X53500000Y-125550000D01*
X54300000Y-126050000D02*
X55300000Y-126050000D01*
X55140000Y-122090000D02*
X55140000Y-123690000D01*
X53500000Y-125550000D02*
X53500000Y-129910000D01*
X50700000Y-126050000D02*
X50700000Y-127650000D01*
X51700000Y-127650000D02*
X51700000Y-126050000D01*
X61010000Y-119140580D02*
X61010000Y-118859420D01*
X59990000Y-119140580D02*
X59990000Y-118859420D01*
X74110000Y-112140000D02*
X74110000Y-112865000D01*
X68890000Y-117360000D02*
X68890000Y-116635000D01*
X69615000Y-112140000D02*
X68890000Y-112140000D01*
X73385000Y-112140000D02*
X74110000Y-112140000D01*
X74110000Y-117360000D02*
X74110000Y-116635000D01*
X69615000Y-117360000D02*
X68890000Y-117360000D01*
X73385000Y-117360000D02*
X74110000Y-117360000D01*
X62850000Y-125750000D02*
X62850000Y-123200000D01*
X61150000Y-125750000D02*
X62850000Y-125750000D01*
X61150000Y-125750000D02*
X61150000Y-123200000D01*
X67372500Y-109599758D02*
X67372500Y-109125242D01*
X66327500Y-109599758D02*
X66327500Y-109125242D01*
X59970000Y-127070000D02*
X67650000Y-127070000D01*
X59970000Y-129730000D02*
X67650000Y-129730000D01*
X58700000Y-129730000D02*
X57370000Y-129730000D01*
X67650000Y-129730000D02*
X67650000Y-127070000D01*
X57370000Y-129730000D02*
X57370000Y-128400000D01*
X59970000Y-129730000D02*
X59970000Y-127070000D01*
X53359420Y-119440000D02*
X53640580Y-119440000D01*
X53359420Y-120460000D02*
X53640580Y-120460000D01*
X68010000Y-113140580D02*
X68010000Y-112859420D01*
X66990000Y-113140580D02*
X66990000Y-112859420D01*
X52000000Y-105250000D02*
X54000000Y-105250000D01*
X50250000Y-103750000D02*
X50250000Y-101250000D01*
X50700000Y-104200000D02*
X50250000Y-103750000D01*
X55300000Y-100800000D02*
X55750000Y-101250000D01*
X55300000Y-104200000D02*
X55750000Y-103750000D01*
X55750000Y-103750000D02*
X55750000Y-101250000D01*
X50700000Y-100800000D02*
X50250000Y-101250000D01*
X52000000Y-99750000D02*
X54000000Y-99750000D01*
X74735000Y-109550000D02*
X74735000Y-107265000D01*
X74735000Y-107265000D02*
X73265000Y-107265000D01*
X73265000Y-107265000D02*
X73265000Y-109550000D01*
X65910000Y-107362500D02*
X65910000Y-108012500D01*
X62790000Y-107362500D02*
X62790000Y-109037500D01*
X65910000Y-107362500D02*
X65910000Y-106712500D01*
X62790000Y-107362500D02*
X62790000Y-106712500D01*
X51735000Y-117015000D02*
X50265000Y-117015000D01*
X51735000Y-119300000D02*
X51735000Y-117015000D01*
X50265000Y-117015000D02*
X50265000Y-119300000D01*
X64760000Y-124640580D02*
X64760000Y-124359420D01*
X63740000Y-124640580D02*
X63740000Y-124359420D01*
X57074758Y-115977500D02*
X56600242Y-115977500D01*
X57074758Y-117022500D02*
X56600242Y-117022500D01*
X53737258Y-118772500D02*
X53262742Y-118772500D01*
X53737258Y-117727500D02*
X53262742Y-117727500D01*
X62762742Y-121622500D02*
X63237258Y-121622500D01*
X62762742Y-120577500D02*
X63237258Y-120577500D01*
X69700000Y-104200000D02*
X69250000Y-103750000D01*
X74300000Y-100800000D02*
X74750000Y-101250000D01*
X74300000Y-104200000D02*
X74750000Y-103750000D01*
X69700000Y-100800000D02*
X69250000Y-101250000D01*
X73000000Y-105250000D02*
X71000000Y-105250000D01*
X74750000Y-101250000D02*
X74750000Y-103750000D01*
X69250000Y-101250000D02*
X69250000Y-103750000D01*
X73000000Y-99750000D02*
X71000000Y-99750000D01*
X61690000Y-118400000D02*
X61690000Y-117750000D01*
X64810000Y-118400000D02*
X64810000Y-119050000D01*
X64810000Y-118400000D02*
X64810000Y-117750000D01*
X61690000Y-118400000D02*
X61690000Y-120075000D01*
X70140580Y-118440000D02*
X69859420Y-118440000D01*
X70140580Y-119460000D02*
X69859420Y-119460000D01*
X59237258Y-121227500D02*
X58762742Y-121227500D01*
X59237258Y-122272500D02*
X58762742Y-122272500D01*
X60310000Y-124500000D02*
X60310000Y-122825000D01*
X57190000Y-124500000D02*
X57190000Y-125150000D01*
X57190000Y-124500000D02*
X57190000Y-123850000D01*
X60310000Y-124500000D02*
X60310000Y-125150000D01*
X62790000Y-111362500D02*
X62790000Y-110712500D01*
X65910000Y-111362500D02*
X65910000Y-112012500D01*
X65910000Y-111362500D02*
X65910000Y-109687500D01*
X62790000Y-111362500D02*
X62790000Y-112012500D01*
%LPC*%
D12*
X69850000Y-107550000D03*
D13*
X69850000Y-109150000D03*
X69850000Y-108350000D03*
D12*
X69850000Y-109950000D03*
D13*
X71650000Y-108350000D03*
D12*
X71650000Y-107550000D03*
D13*
X71650000Y-109150000D03*
D12*
X71650000Y-109950000D03*
D14*
X58900000Y-114700000D03*
D15*
X60500000Y-114700000D03*
X59700000Y-114700000D03*
D14*
X61300000Y-114700000D03*
D15*
X59700000Y-112900000D03*
D14*
X58900000Y-112900000D03*
D15*
X60500000Y-112900000D03*
D14*
X61300000Y-112900000D03*
D16*
X67500000Y-116475000D03*
X67500000Y-118025000D03*
D17*
X72225000Y-118950000D03*
X73775000Y-118950000D03*
X69225000Y-120500000D03*
X70775000Y-120500000D03*
D18*
X61850000Y-108537500D03*
X61850000Y-110187500D03*
D19*
X52925000Y-116500000D03*
X54575000Y-116500000D03*
X59100000Y-116500000D03*
X60750000Y-116500000D03*
D20*
X66212500Y-123500000D03*
X66212500Y-124450000D03*
X66212500Y-125400000D03*
X68487500Y-125400000D03*
X68487500Y-123500000D03*
D21*
X64925000Y-103200000D03*
X66475000Y-103200000D03*
D16*
X70250000Y-123675000D03*
X70250000Y-125225000D03*
D20*
X56362500Y-118100000D03*
X56362500Y-119050000D03*
X56362500Y-120000000D03*
X58637500Y-120000000D03*
X58637500Y-118100000D03*
D22*
X52000000Y-123550000D03*
D23*
X54000000Y-123550000D03*
D24*
X60500000Y-119775000D03*
X60500000Y-118225000D03*
D25*
X69050000Y-113250000D03*
X69050000Y-113750000D03*
X69050000Y-114250000D03*
X69050000Y-114750000D03*
X69050000Y-115250000D03*
X69050000Y-115750000D03*
X69050000Y-116250000D03*
D26*
X70000000Y-117200000D03*
X70500000Y-117200000D03*
X71000000Y-117200000D03*
X71500000Y-117200000D03*
X72000000Y-117200000D03*
X72500000Y-117200000D03*
X73000000Y-117200000D03*
D25*
X73950000Y-116250000D03*
X73950000Y-115750000D03*
X73950000Y-115250000D03*
X73950000Y-114750000D03*
X73950000Y-114250000D03*
X73950000Y-113750000D03*
X73950000Y-113250000D03*
D26*
X73000000Y-112300000D03*
X72500000Y-112300000D03*
X72000000Y-112300000D03*
X71500000Y-112300000D03*
X71000000Y-112300000D03*
X70500000Y-112300000D03*
X70000000Y-112300000D03*
D27*
X71500000Y-114750000D03*
D28*
X62000000Y-125300000D03*
X62000000Y-123200000D03*
D29*
X66850000Y-110187500D03*
X66850000Y-108537500D03*
D30*
X58700000Y-128400000D03*
D31*
X61240000Y-128400000D03*
X63780000Y-128400000D03*
X66320000Y-128400000D03*
D17*
X52725000Y-119950000D03*
X54275000Y-119950000D03*
D24*
X67500000Y-113775000D03*
X67500000Y-112225000D03*
D32*
X51100000Y-105650000D03*
X51100000Y-99350000D03*
X54900000Y-105650000D03*
X54900000Y-99350000D03*
D33*
X74000000Y-107962500D03*
X74000000Y-109537500D03*
D34*
X63400000Y-108300000D03*
X65300000Y-108300000D03*
X64350000Y-106425000D03*
D33*
X51000000Y-117712500D03*
X51000000Y-119287500D03*
D24*
X64250000Y-125275000D03*
X64250000Y-123725000D03*
D35*
X57662500Y-116500000D03*
X56012500Y-116500000D03*
X54325000Y-118250000D03*
X52675000Y-118250000D03*
D19*
X62175000Y-121100000D03*
X63825000Y-121100000D03*
D36*
X73900000Y-105650000D03*
X73900000Y-99350000D03*
X70100000Y-105650000D03*
X70100000Y-99350000D03*
D34*
X62300000Y-119337500D03*
X64200000Y-119337500D03*
X63250000Y-117462500D03*
D21*
X70775000Y-118950000D03*
X69225000Y-118950000D03*
D35*
X59825000Y-121750000D03*
X58175000Y-121750000D03*
D37*
X59700000Y-123562500D03*
X57800000Y-123562500D03*
X58750000Y-125437500D03*
X65300000Y-110425000D03*
X63400000Y-110425000D03*
X64350000Y-112300000D03*
M02*
