%TF.GenerationSoftware,KiCad,Pcbnew,(6.0.0-0)*%
%TF.CreationDate,2022-10-20T15:52:38+11:00*%
%TF.ProjectId,WLED_Controller,574c4544-5f43-46f6-9e74-726f6c6c6572,rev?*%
%TF.SameCoordinates,Original*%
%TF.FileFunction,Legend,Bot*%
%TF.FilePolarity,Positive*%
%FSLAX46Y46*%
G04 Gerber Fmt 4.6, Leading zero omitted, Abs format (unit mm)*
G04 Created by KiCad (PCBNEW (6.0.0-0)) date 2022-10-20 15:52:38*
%MOMM*%
%LPD*%
G01*
G04 APERTURE LIST*
G04 Aperture macros list*
%AMRoundRect*
0 Rectangle with rounded corners*
0 $1 Rounding radius*
0 $2 $3 $4 $5 $6 $7 $8 $9 X,Y pos of 4 corners*
0 Add a 4 corners polygon primitive as box body*
4,1,4,$2,$3,$4,$5,$6,$7,$8,$9,$2,$3,0*
0 Add four circle primitives for the rounded corners*
1,1,$1+$1,$2,$3*
1,1,$1+$1,$4,$5*
1,1,$1+$1,$6,$7*
1,1,$1+$1,$8,$9*
0 Add four rect primitives between the rounded corners*
20,1,$1+$1,$2,$3,$4,$5,0*
20,1,$1+$1,$4,$5,$6,$7,0*
20,1,$1+$1,$6,$7,$8,$9,0*
20,1,$1+$1,$8,$9,$2,$3,0*%
G04 Aperture macros list end*
%ADD10C,0.153000*%
%ADD11C,0.120000*%
%ADD12RoundRect,0.300000X-0.350000X-0.625000X0.350000X-0.625000X0.350000X0.625000X-0.350000X0.625000X0*%
%ADD13O,1.300000X1.850000*%
%ADD14RoundRect,0.050000X0.850000X-0.850000X0.850000X0.850000X-0.850000X0.850000X-0.850000X-0.850000X0*%
%ADD15O,1.800000X1.800000*%
%ADD16RoundRect,0.300000X0.750000X-0.250000X0.750000X0.250000X-0.750000X0.250000X-0.750000X-0.250000X0*%
%ADD17RoundRect,0.050000X1.250000X0.500000X-1.250000X0.500000X-1.250000X-0.500000X1.250000X-0.500000X0*%
%ADD18RoundRect,0.050000X0.500000X0.900000X-0.500000X0.900000X-0.500000X-0.900000X0.500000X-0.900000X0*%
G04 APERTURE END LIST*
D10*
X73652380Y-101580952D02*
X72652380Y-101580952D01*
X72652380Y-101819047D01*
X72700000Y-101961904D01*
X72795238Y-102057142D01*
X72890476Y-102104761D01*
X73080952Y-102152380D01*
X73223809Y-102152380D01*
X73414285Y-102104761D01*
X73509523Y-102057142D01*
X73604761Y-101961904D01*
X73652380Y-101819047D01*
X73652380Y-101580952D01*
X73604761Y-102961904D02*
X73652380Y-102866666D01*
X73652380Y-102676190D01*
X73604761Y-102580952D01*
X73509523Y-102533333D01*
X73128571Y-102533333D01*
X73033333Y-102580952D01*
X72985714Y-102676190D01*
X72985714Y-102866666D01*
X73033333Y-102961904D01*
X73128571Y-103009523D01*
X73223809Y-103009523D01*
X73319047Y-102533333D01*
X73604761Y-103390476D02*
X73652380Y-103485714D01*
X73652380Y-103676190D01*
X73604761Y-103771428D01*
X73509523Y-103819047D01*
X73461904Y-103819047D01*
X73366666Y-103771428D01*
X73319047Y-103676190D01*
X73319047Y-103533333D01*
X73271428Y-103438095D01*
X73176190Y-103390476D01*
X73128571Y-103390476D01*
X73033333Y-103438095D01*
X72985714Y-103533333D01*
X72985714Y-103676190D01*
X73033333Y-103771428D01*
X73652380Y-104247619D02*
X72985714Y-104247619D01*
X72652380Y-104247619D02*
X72700000Y-104200000D01*
X72747619Y-104247619D01*
X72700000Y-104295238D01*
X72652380Y-104247619D01*
X72747619Y-104247619D01*
X72985714Y-105152380D02*
X73795238Y-105152380D01*
X73890476Y-105104761D01*
X73938095Y-105057142D01*
X73985714Y-104961904D01*
X73985714Y-104819047D01*
X73938095Y-104723809D01*
X73604761Y-105152380D02*
X73652380Y-105057142D01*
X73652380Y-104866666D01*
X73604761Y-104771428D01*
X73557142Y-104723809D01*
X73461904Y-104676190D01*
X73176190Y-104676190D01*
X73080952Y-104723809D01*
X73033333Y-104771428D01*
X72985714Y-104866666D01*
X72985714Y-105057142D01*
X73033333Y-105152380D01*
X72985714Y-105628571D02*
X73652380Y-105628571D01*
X73080952Y-105628571D02*
X73033333Y-105676190D01*
X72985714Y-105771428D01*
X72985714Y-105914285D01*
X73033333Y-106009523D01*
X73128571Y-106057142D01*
X73652380Y-106057142D01*
X73604761Y-106914285D02*
X73652380Y-106819047D01*
X73652380Y-106628571D01*
X73604761Y-106533333D01*
X73509523Y-106485714D01*
X73128571Y-106485714D01*
X73033333Y-106533333D01*
X72985714Y-106628571D01*
X72985714Y-106819047D01*
X73033333Y-106914285D01*
X73128571Y-106961904D01*
X73223809Y-106961904D01*
X73319047Y-106485714D01*
X73652380Y-107819047D02*
X72652380Y-107819047D01*
X73604761Y-107819047D02*
X73652380Y-107723809D01*
X73652380Y-107533333D01*
X73604761Y-107438095D01*
X73557142Y-107390476D01*
X73461904Y-107342857D01*
X73176190Y-107342857D01*
X73080952Y-107390476D01*
X73033333Y-107438095D01*
X72985714Y-107533333D01*
X72985714Y-107723809D01*
X73033333Y-107819047D01*
X73652380Y-109057142D02*
X72652380Y-109057142D01*
X73033333Y-109057142D02*
X72985714Y-109152380D01*
X72985714Y-109342857D01*
X73033333Y-109438095D01*
X73080952Y-109485714D01*
X73176190Y-109533333D01*
X73461904Y-109533333D01*
X73557142Y-109485714D01*
X73604761Y-109438095D01*
X73652380Y-109342857D01*
X73652380Y-109152380D01*
X73604761Y-109057142D01*
X72985714Y-109866666D02*
X73652380Y-110104761D01*
X72985714Y-110342857D02*
X73652380Y-110104761D01*
X73890476Y-110009523D01*
X73938095Y-109961904D01*
X73985714Y-109866666D01*
X73604761Y-111438095D02*
X73652380Y-111580952D01*
X73652380Y-111819047D01*
X73604761Y-111914285D01*
X73557142Y-111961904D01*
X73461904Y-112009523D01*
X73366666Y-112009523D01*
X73271428Y-111961904D01*
X73223809Y-111914285D01*
X73176190Y-111819047D01*
X73128571Y-111628571D01*
X73080952Y-111533333D01*
X73033333Y-111485714D01*
X72938095Y-111438095D01*
X72842857Y-111438095D01*
X72747619Y-111485714D01*
X72700000Y-111533333D01*
X72652380Y-111628571D01*
X72652380Y-111866666D01*
X72700000Y-112009523D01*
X73652380Y-112438095D02*
X72652380Y-112438095D01*
X73652380Y-112866666D02*
X73128571Y-112866666D01*
X73033333Y-112819047D01*
X72985714Y-112723809D01*
X72985714Y-112580952D01*
X73033333Y-112485714D01*
X73080952Y-112438095D01*
X73652380Y-113771428D02*
X73128571Y-113771428D01*
X73033333Y-113723809D01*
X72985714Y-113628571D01*
X72985714Y-113438095D01*
X73033333Y-113342857D01*
X73604761Y-113771428D02*
X73652380Y-113676190D01*
X73652380Y-113438095D01*
X73604761Y-113342857D01*
X73509523Y-113295238D01*
X73414285Y-113295238D01*
X73319047Y-113342857D01*
X73271428Y-113438095D01*
X73271428Y-113676190D01*
X73223809Y-113771428D01*
X73652380Y-114676190D02*
X72652380Y-114676190D01*
X73604761Y-114676190D02*
X73652380Y-114580952D01*
X73652380Y-114390476D01*
X73604761Y-114295238D01*
X73557142Y-114247619D01*
X73461904Y-114200000D01*
X73176190Y-114200000D01*
X73080952Y-114247619D01*
X73033333Y-114295238D01*
X72985714Y-114390476D01*
X72985714Y-114580952D01*
X73033333Y-114676190D01*
X73652380Y-115152380D02*
X72985714Y-115152380D01*
X73080952Y-115152380D02*
X73033333Y-115200000D01*
X72985714Y-115295238D01*
X72985714Y-115438095D01*
X73033333Y-115533333D01*
X73128571Y-115580952D01*
X73652380Y-115580952D01*
X73128571Y-115580952D02*
X73033333Y-115628571D01*
X72985714Y-115723809D01*
X72985714Y-115866666D01*
X73033333Y-115961904D01*
X73128571Y-116009523D01*
X73652380Y-116009523D01*
X73652380Y-116914285D02*
X73128571Y-116914285D01*
X73033333Y-116866666D01*
X72985714Y-116771428D01*
X72985714Y-116580952D01*
X73033333Y-116485714D01*
X73604761Y-116914285D02*
X73652380Y-116819047D01*
X73652380Y-116580952D01*
X73604761Y-116485714D01*
X73509523Y-116438095D01*
X73414285Y-116438095D01*
X73319047Y-116485714D01*
X73271428Y-116580952D01*
X73271428Y-116819047D01*
X73223809Y-116914285D01*
X72985714Y-117390476D02*
X73652380Y-117390476D01*
X73080952Y-117390476D02*
X73033333Y-117438095D01*
X72985714Y-117533333D01*
X72985714Y-117676190D01*
X73033333Y-117771428D01*
X73128571Y-117819047D01*
X73652380Y-117819047D01*
X73652380Y-119057142D02*
X72652380Y-119057142D01*
X73128571Y-119057142D02*
X73128571Y-119628571D01*
X73652380Y-119628571D02*
X72652380Y-119628571D01*
X73652380Y-120533333D02*
X73128571Y-120533333D01*
X73033333Y-120485714D01*
X72985714Y-120390476D01*
X72985714Y-120200000D01*
X73033333Y-120104761D01*
X73604761Y-120533333D02*
X73652380Y-120438095D01*
X73652380Y-120200000D01*
X73604761Y-120104761D01*
X73509523Y-120057142D01*
X73414285Y-120057142D01*
X73319047Y-120104761D01*
X73271428Y-120200000D01*
X73271428Y-120438095D01*
X73223809Y-120533333D01*
X73652380Y-121009523D02*
X72652380Y-121009523D01*
X73033333Y-121009523D02*
X72985714Y-121104761D01*
X72985714Y-121295238D01*
X73033333Y-121390476D01*
X73080952Y-121438095D01*
X73176190Y-121485714D01*
X73461904Y-121485714D01*
X73557142Y-121438095D01*
X73604761Y-121390476D01*
X73652380Y-121295238D01*
X73652380Y-121104761D01*
X73604761Y-121009523D01*
X73652380Y-121914285D02*
X72985714Y-121914285D01*
X72652380Y-121914285D02*
X72700000Y-121866666D01*
X72747619Y-121914285D01*
X72700000Y-121961904D01*
X72652380Y-121914285D01*
X72747619Y-121914285D01*
X73652380Y-122390476D02*
X72652380Y-122390476D01*
X73033333Y-122390476D02*
X72985714Y-122485714D01*
X72985714Y-122676190D01*
X73033333Y-122771428D01*
X73080952Y-122819047D01*
X73176190Y-122866666D01*
X73461904Y-122866666D01*
X73557142Y-122819047D01*
X73604761Y-122771428D01*
X73652380Y-122676190D01*
X73652380Y-122485714D01*
X73604761Y-122390476D01*
X51142857Y-101395238D02*
X51095238Y-101442857D01*
X51047619Y-101585714D01*
X51047619Y-101680952D01*
X51095238Y-101823809D01*
X51190476Y-101919047D01*
X51285714Y-101966666D01*
X51476190Y-102014285D01*
X51619047Y-102014285D01*
X51809523Y-101966666D01*
X51904761Y-101919047D01*
X52000000Y-101823809D01*
X52047619Y-101680952D01*
X52047619Y-101585714D01*
X52000000Y-101442857D01*
X51952380Y-101395238D01*
X51047619Y-100490476D02*
X51047619Y-100966666D01*
X52047619Y-100966666D01*
X51047619Y-100157142D02*
X52047619Y-100157142D01*
X51047619Y-99585714D02*
X51619047Y-100014285D01*
X52047619Y-99585714D02*
X51476190Y-100157142D01*
X51047619Y-106942857D02*
X52047619Y-106942857D01*
X52047619Y-106704761D01*
X52000000Y-106561904D01*
X51904761Y-106466666D01*
X51809523Y-106419047D01*
X51619047Y-106371428D01*
X51476190Y-106371428D01*
X51285714Y-106419047D01*
X51190476Y-106466666D01*
X51095238Y-106561904D01*
X51047619Y-106704761D01*
X51047619Y-106942857D01*
X52047619Y-106085714D02*
X52047619Y-105514285D01*
X51047619Y-105800000D02*
X52047619Y-105800000D01*
X52047619Y-111938095D02*
X52047619Y-111319047D01*
X51666666Y-111652380D01*
X51666666Y-111509523D01*
X51619047Y-111414285D01*
X51571428Y-111366666D01*
X51476190Y-111319047D01*
X51238095Y-111319047D01*
X51142857Y-111366666D01*
X51095238Y-111414285D01*
X51047619Y-111509523D01*
X51047619Y-111795238D01*
X51095238Y-111890476D01*
X51142857Y-111938095D01*
X52047619Y-111033333D02*
X51047619Y-110700000D01*
X52047619Y-110366666D01*
X52047619Y-110128571D02*
X52047619Y-109509523D01*
X51666666Y-109842857D01*
X51666666Y-109700000D01*
X51619047Y-109604761D01*
X51571428Y-109557142D01*
X51476190Y-109509523D01*
X51238095Y-109509523D01*
X51142857Y-109557142D01*
X51095238Y-109604761D01*
X51047619Y-109700000D01*
X51047619Y-109985714D01*
X51095238Y-110080952D01*
X51142857Y-110128571D01*
X52000000Y-116461904D02*
X52047619Y-116557142D01*
X52047619Y-116700000D01*
X52000000Y-116842857D01*
X51904761Y-116938095D01*
X51809523Y-116985714D01*
X51619047Y-117033333D01*
X51476190Y-117033333D01*
X51285714Y-116985714D01*
X51190476Y-116938095D01*
X51095238Y-116842857D01*
X51047619Y-116700000D01*
X51047619Y-116604761D01*
X51095238Y-116461904D01*
X51142857Y-116414285D01*
X51476190Y-116414285D01*
X51476190Y-116604761D01*
X51047619Y-115985714D02*
X52047619Y-115985714D01*
X51047619Y-115414285D01*
X52047619Y-115414285D01*
X51047619Y-114938095D02*
X52047619Y-114938095D01*
X52047619Y-114700000D01*
X52000000Y-114557142D01*
X51904761Y-114461904D01*
X51809523Y-114414285D01*
X51619047Y-114366666D01*
X51476190Y-114366666D01*
X51285714Y-114414285D01*
X51190476Y-114461904D01*
X51095238Y-114557142D01*
X51047619Y-114700000D01*
X51047619Y-114938095D01*
X54380952Y-125371428D02*
X53619047Y-125371428D01*
X52380952Y-125371428D02*
X51619047Y-125371428D01*
X52000000Y-125752380D02*
X52000000Y-124990476D01*
X67747619Y-125800000D02*
X67842857Y-125752380D01*
X67985714Y-125752380D01*
X68128571Y-125800000D01*
X68223809Y-125895238D01*
X68271428Y-125990476D01*
X68319047Y-126180952D01*
X68319047Y-126323809D01*
X68271428Y-126514285D01*
X68223809Y-126609523D01*
X68128571Y-126704761D01*
X67985714Y-126752380D01*
X67890476Y-126752380D01*
X67747619Y-126704761D01*
X67700000Y-126657142D01*
X67700000Y-126323809D01*
X67890476Y-126323809D01*
X67271428Y-126752380D02*
X67271428Y-125752380D01*
X66700000Y-126752380D01*
X66700000Y-125752380D01*
X66223809Y-126752380D02*
X66223809Y-125752380D01*
X65985714Y-125752380D01*
X65842857Y-125800000D01*
X65747619Y-125895238D01*
X65700000Y-125990476D01*
X65652380Y-126180952D01*
X65652380Y-126323809D01*
X65700000Y-126514285D01*
X65747619Y-126609523D01*
X65842857Y-126704761D01*
X65985714Y-126752380D01*
X66223809Y-126752380D01*
X64461904Y-126752380D02*
X64461904Y-125752380D01*
X64223809Y-125752380D01*
X64080952Y-125800000D01*
X63985714Y-125895238D01*
X63938095Y-125990476D01*
X63890476Y-126180952D01*
X63890476Y-126323809D01*
X63938095Y-126514285D01*
X63985714Y-126609523D01*
X64080952Y-126704761D01*
X64223809Y-126752380D01*
X64461904Y-126752380D01*
X63461904Y-126371428D02*
X62700000Y-126371428D01*
X61461904Y-126752380D02*
X61461904Y-125752380D01*
X61223809Y-125752380D01*
X61080952Y-125800000D01*
X60985714Y-125895238D01*
X60938095Y-125990476D01*
X60890476Y-126180952D01*
X60890476Y-126323809D01*
X60938095Y-126514285D01*
X60985714Y-126609523D01*
X61080952Y-126704761D01*
X61223809Y-126752380D01*
X61461904Y-126752380D01*
X60461904Y-126371428D02*
X59700000Y-126371428D01*
X60080952Y-126752380D02*
X60080952Y-125990476D01*
X57985714Y-125752380D02*
X58461904Y-125752380D01*
X58509523Y-126228571D01*
X58461904Y-126180952D01*
X58366666Y-126133333D01*
X58128571Y-126133333D01*
X58033333Y-126180952D01*
X57985714Y-126228571D01*
X57938095Y-126323809D01*
X57938095Y-126561904D01*
X57985714Y-126657142D01*
X58033333Y-126704761D01*
X58128571Y-126752380D01*
X58366666Y-126752380D01*
X58461904Y-126704761D01*
X58509523Y-126657142D01*
X57652380Y-125752380D02*
X57319047Y-126752380D01*
X56985714Y-125752380D01*
G36*
X67762567Y-121222325D02*
G01*
X67926212Y-121246599D01*
X68086690Y-121286797D01*
X68242455Y-121342531D01*
X68392007Y-121413264D01*
X68533906Y-121498315D01*
X68666786Y-121596865D01*
X68789366Y-121707965D01*
X68900466Y-121830544D01*
X68999016Y-121963424D01*
X69084067Y-122105323D01*
X69154800Y-122254875D01*
X69210533Y-122410640D01*
X69250731Y-122571118D01*
X69275005Y-122734763D01*
X69283123Y-122900000D01*
X69275005Y-123065237D01*
X69250731Y-123228882D01*
X69210533Y-123389360D01*
X69154800Y-123545125D01*
X69084067Y-123694677D01*
X68999016Y-123836576D01*
X68900466Y-123969456D01*
X68789366Y-124092035D01*
X68666786Y-124203135D01*
X68533906Y-124301685D01*
X68392007Y-124386736D01*
X68242455Y-124457469D01*
X68086690Y-124513203D01*
X67926212Y-124553401D01*
X67762567Y-124577675D01*
X67597330Y-124585793D01*
X57402670Y-124585793D01*
X57237433Y-124577675D01*
X57073788Y-124553401D01*
X56913310Y-124513203D01*
X56757545Y-124457469D01*
X56607993Y-124386736D01*
X56466094Y-124301685D01*
X56333214Y-124203135D01*
X56210634Y-124092035D01*
X56099534Y-123969456D01*
X56000984Y-123836576D01*
X55915933Y-123694677D01*
X55845200Y-123545125D01*
X55789467Y-123389360D01*
X55749269Y-123228882D01*
X55724995Y-123065237D01*
X55716877Y-122900000D01*
X55717189Y-122893650D01*
X57915300Y-122893650D01*
X57936632Y-123127112D01*
X58000628Y-123343309D01*
X58107288Y-123542243D01*
X58256613Y-123723913D01*
X58436298Y-123875320D01*
X58634041Y-123983469D01*
X58849841Y-124048358D01*
X59083700Y-124069988D01*
X59664725Y-124069988D01*
X59821888Y-124050144D01*
X59906025Y-123990613D01*
X59942934Y-123793763D01*
X60150500Y-123793763D01*
X60179869Y-123969975D01*
X60267975Y-124054113D01*
X60433075Y-124073163D01*
X61690375Y-124073163D01*
X61866588Y-124043000D01*
X61950725Y-123952513D01*
X61964359Y-123836625D01*
X62176150Y-123836625D01*
X62192025Y-123971563D01*
X62246000Y-124041413D01*
X62411100Y-124073163D01*
X63554100Y-124073163D01*
X63730313Y-124043000D01*
X63814450Y-123952513D01*
X63833500Y-123790588D01*
X63833500Y-122025287D01*
X63830739Y-121961787D01*
X64008125Y-121961787D01*
X64046225Y-122117362D01*
X64655825Y-123879488D01*
X64678050Y-123933463D01*
X64762188Y-124017600D01*
X64924113Y-124069988D01*
X65086038Y-124017600D01*
X65176525Y-123914412D01*
X65548000Y-122819037D01*
X65675127Y-123194704D01*
X65774568Y-123488582D01*
X65846323Y-123700672D01*
X65890392Y-123830974D01*
X65906775Y-123879488D01*
X65935350Y-123933463D01*
X65986150Y-123996963D01*
X66160775Y-124069988D01*
X66327463Y-124022363D01*
X66414775Y-123927113D01*
X66437000Y-123879488D01*
X67049775Y-122117362D01*
X67084700Y-121961787D01*
X67031519Y-121848281D01*
X66871975Y-121761762D01*
X66705288Y-121730012D01*
X66590988Y-121780812D01*
X66519550Y-121936387D01*
X66170300Y-122996838D01*
X65824225Y-121952262D01*
X65761519Y-121839550D01*
X65662300Y-121768112D01*
X65530538Y-121745887D01*
X65379725Y-121798275D01*
X65290825Y-121901462D01*
X64925700Y-123003188D01*
X64576450Y-121936387D01*
X64535175Y-121828437D01*
X64476438Y-121760175D01*
X64370075Y-121726837D01*
X64220850Y-121758587D01*
X64061306Y-121847487D01*
X64008125Y-121961787D01*
X63830739Y-121961787D01*
X63828738Y-121915750D01*
X63798575Y-121831612D01*
X63714438Y-121767319D01*
X63550925Y-121745887D01*
X63373919Y-121775256D01*
X63287400Y-121863362D01*
X63271525Y-122028462D01*
X63271525Y-123603263D01*
X62407925Y-123603263D01*
X62255525Y-123627075D01*
X62192025Y-123701688D01*
X62176150Y-123836625D01*
X61964359Y-123836625D01*
X61969775Y-123790588D01*
X61969775Y-122025287D01*
X61909450Y-121804625D01*
X61680850Y-121745887D01*
X60429900Y-121745887D01*
X60320363Y-121750650D01*
X60236225Y-121780812D01*
X60171931Y-121864950D01*
X60150500Y-122028462D01*
X60179869Y-122204675D01*
X60267975Y-122288812D01*
X60433075Y-122307862D01*
X61407800Y-122307862D01*
X61407800Y-122628537D01*
X60779150Y-122628537D01*
X60669613Y-122633300D01*
X60585475Y-122663462D01*
X60521181Y-122747600D01*
X60499750Y-122911113D01*
X60529913Y-123087325D01*
X60620400Y-123171463D01*
X60785500Y-123190513D01*
X61407800Y-123190513D01*
X61407800Y-123511188D01*
X60429900Y-123511188D01*
X60320363Y-123515950D01*
X60236225Y-123546113D01*
X60171931Y-123630250D01*
X60150500Y-123793763D01*
X59942934Y-123793763D01*
X59944125Y-123787413D01*
X59944125Y-122022112D01*
X59939363Y-121910987D01*
X59909200Y-121828437D01*
X59825063Y-121764144D01*
X59661550Y-121742712D01*
X59074175Y-121745887D01*
X58850933Y-121766624D01*
X58641581Y-121828834D01*
X58446120Y-121932518D01*
X58264550Y-122077675D01*
X58111753Y-122253094D01*
X58002613Y-122447562D01*
X57937128Y-122661081D01*
X57915300Y-122893650D01*
X55717189Y-122893650D01*
X55724995Y-122734763D01*
X55749269Y-122571118D01*
X55789467Y-122410640D01*
X55845200Y-122254875D01*
X55915933Y-122105323D01*
X56000984Y-121963424D01*
X56099534Y-121830544D01*
X56210634Y-121707965D01*
X56333214Y-121596865D01*
X56466094Y-121498315D01*
X56607993Y-121413264D01*
X56757545Y-121342531D01*
X56913310Y-121286797D01*
X57073788Y-121246599D01*
X57237433Y-121222325D01*
X57402670Y-121214207D01*
X67597330Y-121214207D01*
X67762567Y-121222325D01*
G37*
G36*
X59382150Y-123508013D02*
G01*
X59074175Y-123508013D01*
X58856688Y-123465547D01*
X58661425Y-123338150D01*
X58523313Y-123146459D01*
X58477275Y-122911113D01*
X58522122Y-122674972D01*
X58656663Y-122480900D01*
X58851528Y-122351122D01*
X59077350Y-122307862D01*
X59382150Y-122307862D01*
X59382150Y-123508013D01*
G37*
D11*
X54380000Y-118700000D02*
X54380000Y-119320000D01*
X70620000Y-102700000D02*
X71230000Y-102700000D01*
X54380000Y-95080000D02*
X54380000Y-102700000D01*
X70620000Y-95080000D02*
X54380000Y-95080000D01*
X68500000Y-119320000D02*
X70620000Y-119320000D01*
X70620000Y-102700000D02*
X70620000Y-95080000D01*
X54380000Y-119320000D02*
X56500000Y-119320000D01*
X70620000Y-119320000D02*
X70620000Y-118700000D01*
%LPC*%
D12*
X52000000Y-123550000D03*
D13*
X54000000Y-123550000D03*
D14*
X58700000Y-128400000D03*
D15*
X61240000Y-128400000D03*
X63780000Y-128400000D03*
X66320000Y-128400000D03*
D16*
X51500000Y-113000000D03*
X51500000Y-103000000D03*
D17*
X70100000Y-103700000D03*
X70100000Y-105700000D03*
X70100000Y-107700000D03*
X70100000Y-109700000D03*
X70100000Y-111700000D03*
X70100000Y-113700000D03*
X70100000Y-115700000D03*
X70100000Y-117700000D03*
D18*
X67500000Y-119200000D03*
X65500000Y-119200000D03*
X63500000Y-119200000D03*
X61500000Y-119200000D03*
X59500000Y-119200000D03*
X57500000Y-119200000D03*
D17*
X54900000Y-117700000D03*
X54900000Y-115700000D03*
X54900000Y-113700000D03*
X54900000Y-111700000D03*
X54900000Y-109700000D03*
X54900000Y-107700000D03*
X54900000Y-105700000D03*
X54900000Y-103700000D03*
D16*
X51500000Y-108000000D03*
X51500000Y-118000000D03*
M02*
