M48
; DRILL file {KiCad (5.1.10)-1} date 12/14/21 19:18:38
; FORMAT={-:-/ absolute / metric / decimal}
; #@! TF.CreationDate,2021-12-14T19:18:38+11:00
; #@! TF.GenerationSoftware,Kicad,Pcbnew,(5.1.10)-1
; #@! TF.FileFunction,Plated,1,2,PTH
FMAT,2
METRIC
T1C0.200
T2C0.400
%
G90
G05
T1
X130.25Y-77.35
X130.25Y-78.0
X139.27Y-76.77
X139.73Y-77.23
T2
X126.05Y-78.45
X126.75Y-100.0
X127.237Y-75.513
X127.45Y-79.55
X127.625Y-81.375
X127.75Y-92.0
X128.25Y-96.0
X128.25Y-97.5
X128.25Y-102.5
X129.75Y-102.5
X130.0Y-90.0
X130.0Y-93.25
X130.0Y-94.25
X130.5Y-83.75
X131.0Y-93.25
X131.0Y-94.25
X131.25Y-102.5
X131.75Y-79.25
X132.0Y-93.25
X132.0Y-94.25
X132.0Y-119.0
X132.0Y-120.5
X132.0Y-122.0
X133.251Y-94.5
X133.5Y-119.0
X133.5Y-120.5
X133.5Y-122.0
X134.25Y-86.25
X134.25Y-88.5
X134.25Y-91.25
X134.5Y-93.5
X134.75Y-72.5
X135.0Y-119.0
X135.0Y-120.5
X135.0Y-122.0
X135.5Y-79.25
X136.5Y-80.25
X137.5Y-79.25
X138.75Y-83.0
X139.5Y-103.25
X139.5Y-110.25
X139.5Y-117.25
X140.75Y-76.25
X141.0Y-81.5
X141.0Y-87.75
X141.75Y-103.25
X141.75Y-110.25
X141.75Y-117.25
X142.0Y-75.25
X144.25Y-76.5
X145.5Y-86.5
X146.0Y-82.0
X147.0Y-96.25
X147.0Y-98.0
X147.75Y-74.75
X149.0Y-104.5
X149.0Y-105.5
X149.0Y-106.5
X149.0Y-111.5
X149.0Y-112.5
X149.0Y-113.5
X149.0Y-118.5
X149.0Y-119.5
X149.0Y-120.5
X149.25Y-87.5
X149.25Y-93.5
X150.0Y-104.5
X150.0Y-105.5
X150.0Y-106.5
X150.0Y-109.0
X150.0Y-111.5
X150.0Y-112.5
X150.0Y-113.5
X150.0Y-116.0
X150.0Y-118.5
X150.0Y-119.5
X150.0Y-120.5
X150.25Y-79.75
X150.75Y-93.0
X154.0Y-93.5
X154.25Y-95.887
X154.5Y-123.25
X157.0Y-106.5
X157.0Y-113.5
X157.0Y-120.5
X157.5Y-92.75
X159.0Y-106.5
X159.0Y-113.5
X159.0Y-120.5
X160.808Y-96.982
X161.0Y-105.5
X161.0Y-112.5
X161.0Y-119.5
X164.0Y-119.0
X164.0Y-120.5
X164.0Y-122.0
X165.5Y-119.0
X165.5Y-120.5
X165.5Y-122.0
X167.0Y-119.0
X167.0Y-120.5
X167.0Y-122.0
X170.5Y-88.25
X171.75Y-91.0
T0
M30
