%TF.GenerationSoftware,KiCad,Pcbnew,(6.0.0-0)*%
%TF.CreationDate,2022-10-20T15:52:37+11:00*%
%TF.ProjectId,WLED_Controller,574c4544-5f43-46f6-9e74-726f6c6c6572,rev?*%
%TF.SameCoordinates,Original*%
%TF.FileFunction,Copper,L2,Bot*%
%TF.FilePolarity,Positive*%
%FSLAX46Y46*%
G04 Gerber Fmt 4.6, Leading zero omitted, Abs format (unit mm)*
G04 Created by KiCad (PCBNEW (6.0.0-0)) date 2022-10-20 15:52:37*
%MOMM*%
%LPD*%
G01*
G04 APERTURE LIST*
G04 Aperture macros list*
%AMRoundRect*
0 Rectangle with rounded corners*
0 $1 Rounding radius*
0 $2 $3 $4 $5 $6 $7 $8 $9 X,Y pos of 4 corners*
0 Add a 4 corners polygon primitive as box body*
4,1,4,$2,$3,$4,$5,$6,$7,$8,$9,$2,$3,0*
0 Add four circle primitives for the rounded corners*
1,1,$1+$1,$2,$3*
1,1,$1+$1,$4,$5*
1,1,$1+$1,$6,$7*
1,1,$1+$1,$8,$9*
0 Add four rect primitives between the rounded corners*
20,1,$1+$1,$2,$3,$4,$5,0*
20,1,$1+$1,$4,$5,$6,$7,0*
20,1,$1+$1,$6,$7,$8,$9,0*
20,1,$1+$1,$8,$9,$2,$3,0*%
G04 Aperture macros list end*
%TA.AperFunction,ComponentPad*%
%ADD10RoundRect,0.250000X-0.350000X-0.625000X0.350000X-0.625000X0.350000X0.625000X-0.350000X0.625000X0*%
%TD*%
%TA.AperFunction,ComponentPad*%
%ADD11O,1.200000X1.750000*%
%TD*%
%TA.AperFunction,ComponentPad*%
%ADD12R,1.700000X1.700000*%
%TD*%
%TA.AperFunction,ComponentPad*%
%ADD13O,1.700000X1.700000*%
%TD*%
%TA.AperFunction,SMDPad,CuDef*%
%ADD14RoundRect,0.250000X0.750000X-0.250000X0.750000X0.250000X-0.750000X0.250000X-0.750000X-0.250000X0*%
%TD*%
%TA.AperFunction,SMDPad,CuDef*%
%ADD15R,2.500000X1.000000*%
%TD*%
%TA.AperFunction,SMDPad,CuDef*%
%ADD16R,1.000000X1.800000*%
%TD*%
%TA.AperFunction,ViaPad*%
%ADD17C,0.400000*%
%TD*%
%TA.AperFunction,Conductor*%
%ADD18C,0.250000*%
%TD*%
%TA.AperFunction,Conductor*%
%ADD19C,0.200000*%
%TD*%
G04 APERTURE END LIST*
D10*
X52000000Y-123550000D03*
D11*
X54000000Y-123550000D03*
D12*
X58700000Y-128400000D03*
D13*
X61240000Y-128400000D03*
X63780000Y-128400000D03*
X66320000Y-128400000D03*
D14*
X51500000Y-113000000D03*
X51500000Y-103000000D03*
D15*
X70100000Y-103700000D03*
X70100000Y-105700000D03*
X70100000Y-107700000D03*
X70100000Y-109700000D03*
X70100000Y-111700000D03*
X70100000Y-113700000D03*
X70100000Y-115700000D03*
X70100000Y-117700000D03*
D16*
X67500000Y-119200000D03*
X65500000Y-119200000D03*
X63500000Y-119200000D03*
X61500000Y-119200000D03*
X59500000Y-119200000D03*
X57500000Y-119200000D03*
D15*
X54900000Y-117700000D03*
X54900000Y-115700000D03*
X54900000Y-113700000D03*
X54900000Y-111700000D03*
X54900000Y-109700000D03*
X54900000Y-107700000D03*
X54900000Y-105700000D03*
X54900000Y-103700000D03*
D14*
X51500000Y-108000000D03*
X51500000Y-118000000D03*
D17*
X68500000Y-103700000D03*
X67088737Y-106000011D03*
X61000000Y-122000000D03*
X65000000Y-122000000D03*
X67000000Y-122000000D03*
X65000000Y-121000000D03*
X67000000Y-121000000D03*
X66000000Y-121000000D03*
X66000000Y-122000000D03*
X61000000Y-121000000D03*
X68337500Y-118062500D03*
X72500000Y-115500000D03*
X69500000Y-126100000D03*
X55250000Y-119050000D03*
X65150000Y-124450000D03*
X52900000Y-105650000D03*
X74000000Y-117700000D03*
X72500000Y-113900000D03*
X60750000Y-117350000D03*
X62389464Y-118010536D03*
X68400000Y-112800000D03*
X72200000Y-103700000D03*
X62900000Y-107100000D03*
X70999502Y-104700000D03*
X60000000Y-111700000D03*
X69000000Y-121500000D03*
X69475500Y-117700000D03*
X71000000Y-121500000D03*
X70000000Y-122500000D03*
X70000000Y-121500000D03*
X69000000Y-122500000D03*
X50750000Y-111000000D03*
X50750000Y-110250000D03*
X50750000Y-109500000D03*
X71000000Y-122500000D03*
X70717200Y-109507371D03*
X66400000Y-115000000D03*
X67582411Y-120598555D03*
X66000000Y-117700000D03*
X68350407Y-120291877D03*
X66929810Y-115529810D03*
X66584440Y-117254177D03*
X58000000Y-113300000D03*
X72400000Y-111400000D03*
X68200000Y-108500000D03*
X63651570Y-111678223D03*
X68450498Y-112000000D03*
X58000000Y-111700000D03*
X68200000Y-107700000D03*
X64074107Y-107547385D03*
X60900000Y-111700000D03*
X58500000Y-116224980D03*
X68000989Y-109948402D03*
X71524500Y-110800000D03*
X72420389Y-108879611D03*
X52540466Y-102169069D03*
D18*
X67088737Y-106000011D02*
X69388748Y-103700000D01*
X69388748Y-103700000D02*
X70100000Y-103700000D01*
D19*
X63780000Y-124685006D02*
X63780000Y-128400000D01*
X68350407Y-120291877D02*
X68132412Y-120509872D01*
X68132412Y-120509872D02*
X68132412Y-122785788D01*
X68132412Y-122785788D02*
X67193200Y-123725000D01*
X67193200Y-123725000D02*
X64740006Y-123725000D01*
X64740006Y-123725000D02*
X63780000Y-124685006D01*
X66000000Y-117700000D02*
X66000000Y-117132201D01*
X66000000Y-117132201D02*
X66175301Y-116956900D01*
X66175301Y-116956900D02*
X66175301Y-115224699D01*
X66175301Y-115224699D02*
X66400000Y-115000000D01*
D18*
X60000000Y-110000000D02*
X62900000Y-107100000D01*
X60000000Y-111700000D02*
X60000000Y-110000000D01*
X70999502Y-104599502D02*
X70100000Y-103700000D01*
X70999502Y-104700000D02*
X70999502Y-104599502D01*
X68500000Y-103700000D02*
X70100000Y-103700000D01*
X70100000Y-109700000D02*
X70800000Y-109700000D01*
D19*
X64625000Y-123275000D02*
X67006800Y-123275000D01*
X67682410Y-120698554D02*
X67582411Y-120598555D01*
X67006800Y-123275000D02*
X67682410Y-122599390D01*
X61240000Y-128400000D02*
X61240000Y-126660000D01*
X67682410Y-122599390D02*
X67682410Y-120698554D01*
X61240000Y-126660000D02*
X64625000Y-123275000D01*
X66584440Y-117254177D02*
X66574821Y-117244558D01*
X66788389Y-115529810D02*
X66929810Y-115529810D01*
X66574821Y-115743378D02*
X66788389Y-115529810D01*
X66574821Y-117244558D02*
X66574821Y-115743378D01*
D18*
X58000000Y-113300000D02*
X57600000Y-113700000D01*
X51500000Y-110699022D02*
X54500978Y-113700000D01*
X57600000Y-113700000D02*
X54900000Y-113700000D01*
X54500978Y-113700000D02*
X54900000Y-113700000D01*
X51500000Y-108000000D02*
X51500000Y-110699022D01*
X71323533Y-108524511D02*
X68224511Y-108524511D01*
X72400000Y-111400000D02*
X72400000Y-109600978D01*
X68224511Y-108524511D02*
X68200000Y-108500000D01*
X72400000Y-109600978D02*
X71323533Y-108524511D01*
X68450498Y-112000000D02*
X68128721Y-111678223D01*
X68128721Y-111678223D02*
X63651570Y-111678223D01*
X58000000Y-111700000D02*
X54900000Y-111700000D01*
X60900000Y-111700000D02*
X60900000Y-110500000D01*
X68200000Y-107700000D02*
X70100000Y-107700000D01*
X60900000Y-110100000D02*
X63100000Y-107900000D01*
X63100000Y-107900000D02*
X63452615Y-107547385D01*
X63452615Y-107547385D02*
X64074107Y-107547385D01*
X60900000Y-110500000D02*
X60900000Y-110100000D01*
X57975020Y-115700000D02*
X54900000Y-115700000D01*
X58500000Y-116224980D02*
X57975020Y-115700000D01*
X67150480Y-109097893D02*
X67150480Y-108086198D01*
X64764282Y-105700000D02*
X54900000Y-105700000D01*
X68000989Y-109948402D02*
X67150480Y-109097893D01*
X67150480Y-108086198D02*
X64764282Y-105700000D01*
X51500000Y-103000000D02*
X52200000Y-103700000D01*
X68525489Y-109567261D02*
X67600000Y-108641772D01*
X67600000Y-108641772D02*
X67600000Y-107900000D01*
X63082141Y-103382141D02*
X55217858Y-103382141D01*
X67600000Y-107900000D02*
X63082141Y-103382141D01*
X71524500Y-110800000D02*
X68800978Y-110800000D01*
X68800978Y-110800000D02*
X68525489Y-110524511D01*
X52200000Y-103700000D02*
X54900000Y-103700000D01*
X68525489Y-110524511D02*
X68525489Y-109567261D01*
X63211207Y-102875489D02*
X53624511Y-102875489D01*
X53246886Y-102875489D02*
X53624511Y-102875489D01*
X52540466Y-102169069D02*
X53246886Y-102875489D01*
X66860229Y-106524511D02*
X63211207Y-102875489D01*
X72420389Y-107621367D02*
X71323533Y-106524511D01*
X72420389Y-108879611D02*
X72420389Y-107621367D01*
X71323533Y-106524511D02*
X66860229Y-106524511D01*
%TA.AperFunction,Conductor*%
G36*
X74688121Y-103020002D02*
G01*
X74734614Y-103073658D01*
X74746000Y-103126000D01*
X74746000Y-127462575D01*
X74743579Y-127487153D01*
X74741024Y-127500000D01*
X74743445Y-127512170D01*
X74743445Y-127524583D01*
X74743120Y-127524583D01*
X74743858Y-127535420D01*
X74737746Y-127636455D01*
X74730084Y-127763118D01*
X74728250Y-127778222D01*
X74682109Y-128030005D01*
X74678468Y-128044778D01*
X74613786Y-128252352D01*
X74602313Y-128289169D01*
X74596919Y-128303392D01*
X74527311Y-128458053D01*
X74491864Y-128536814D01*
X74484793Y-128550287D01*
X74352364Y-128769351D01*
X74343721Y-128781873D01*
X74185851Y-128983379D01*
X74175761Y-128994767D01*
X73994767Y-129175761D01*
X73983379Y-129185851D01*
X73781873Y-129343721D01*
X73769351Y-129352364D01*
X73550287Y-129484793D01*
X73536817Y-129491862D01*
X73303392Y-129596919D01*
X73289174Y-129602311D01*
X73064437Y-129672342D01*
X73044778Y-129678468D01*
X73030005Y-129682109D01*
X72778222Y-129728250D01*
X72763118Y-129730084D01*
X72695441Y-129734178D01*
X72535420Y-129743858D01*
X72524583Y-129743120D01*
X72524583Y-129743445D01*
X72512170Y-129743445D01*
X72500000Y-129741024D01*
X72487153Y-129743579D01*
X72462575Y-129746000D01*
X67165270Y-129746000D01*
X67097149Y-129725998D01*
X67050656Y-129672342D01*
X67040552Y-129602068D01*
X67070046Y-129537488D01*
X67092102Y-129517421D01*
X67195328Y-129443792D01*
X67203200Y-129437139D01*
X67354052Y-129286812D01*
X67360730Y-129278965D01*
X67485003Y-129106020D01*
X67490313Y-129097183D01*
X67584670Y-128906267D01*
X67588469Y-128896672D01*
X67650377Y-128692910D01*
X67652555Y-128682837D01*
X67653986Y-128671962D01*
X67651775Y-128657778D01*
X67638617Y-128654000D01*
X66192000Y-128654000D01*
X66123879Y-128633998D01*
X66077386Y-128580342D01*
X66066000Y-128528000D01*
X66066000Y-128127885D01*
X66574000Y-128127885D01*
X66578475Y-128143124D01*
X66579865Y-128144329D01*
X66587548Y-128146000D01*
X67638344Y-128146000D01*
X67651875Y-128142027D01*
X67653180Y-128132947D01*
X67611214Y-127965875D01*
X67607894Y-127956124D01*
X67522972Y-127760814D01*
X67518105Y-127751739D01*
X67402426Y-127572926D01*
X67396136Y-127564757D01*
X67337211Y-127500000D01*
X71241210Y-127500000D01*
X71260334Y-127718587D01*
X71261758Y-127723900D01*
X71261758Y-127723902D01*
X71315584Y-127924783D01*
X71317124Y-127930532D01*
X71319446Y-127935512D01*
X71319447Y-127935514D01*
X71407530Y-128124408D01*
X71407533Y-128124413D01*
X71409856Y-128129395D01*
X71413012Y-128133902D01*
X71413013Y-128133904D01*
X71531693Y-128303396D01*
X71535711Y-128309135D01*
X71690865Y-128464289D01*
X71695373Y-128467446D01*
X71695376Y-128467448D01*
X71838630Y-128567755D01*
X71870605Y-128590144D01*
X71875587Y-128592467D01*
X71875592Y-128592470D01*
X72046063Y-128671962D01*
X72069468Y-128682876D01*
X72074776Y-128684298D01*
X72074778Y-128684299D01*
X72276098Y-128738242D01*
X72276100Y-128738242D01*
X72281413Y-128739666D01*
X72500000Y-128758790D01*
X72718587Y-128739666D01*
X72723900Y-128738242D01*
X72723902Y-128738242D01*
X72925222Y-128684299D01*
X72925224Y-128684298D01*
X72930532Y-128682876D01*
X72953937Y-128671962D01*
X73124408Y-128592470D01*
X73124413Y-128592467D01*
X73129395Y-128590144D01*
X73161370Y-128567755D01*
X73304624Y-128467448D01*
X73304627Y-128467446D01*
X73309135Y-128464289D01*
X73464289Y-128309135D01*
X73468308Y-128303396D01*
X73586987Y-128133904D01*
X73586988Y-128133902D01*
X73590144Y-128129395D01*
X73592467Y-128124413D01*
X73592470Y-128124408D01*
X73680553Y-127935514D01*
X73680554Y-127935512D01*
X73682876Y-127930532D01*
X73684417Y-127924783D01*
X73738242Y-127723902D01*
X73738242Y-127723900D01*
X73739666Y-127718587D01*
X73758790Y-127500000D01*
X73739666Y-127281413D01*
X73736132Y-127268222D01*
X73684299Y-127074778D01*
X73684298Y-127074776D01*
X73682876Y-127069468D01*
X73680553Y-127064486D01*
X73592470Y-126875592D01*
X73592467Y-126875587D01*
X73590144Y-126870605D01*
X73586987Y-126866096D01*
X73467448Y-126695376D01*
X73467446Y-126695373D01*
X73464289Y-126690865D01*
X73309135Y-126535711D01*
X73304627Y-126532554D01*
X73304624Y-126532552D01*
X73133904Y-126413013D01*
X73133902Y-126413012D01*
X73129395Y-126409856D01*
X73124413Y-126407533D01*
X73124408Y-126407530D01*
X72935514Y-126319447D01*
X72935512Y-126319446D01*
X72930532Y-126317124D01*
X72925224Y-126315702D01*
X72925222Y-126315701D01*
X72723902Y-126261758D01*
X72723900Y-126261758D01*
X72718587Y-126260334D01*
X72500000Y-126241210D01*
X72281413Y-126260334D01*
X72276100Y-126261758D01*
X72276098Y-126261758D01*
X72074778Y-126315701D01*
X72074776Y-126315702D01*
X72069468Y-126317124D01*
X72064488Y-126319446D01*
X72064486Y-126319447D01*
X71875592Y-126407530D01*
X71875587Y-126407533D01*
X71870605Y-126409856D01*
X71866098Y-126413012D01*
X71866096Y-126413013D01*
X71695376Y-126532552D01*
X71695373Y-126532554D01*
X71690865Y-126535711D01*
X71535711Y-126690865D01*
X71532554Y-126695373D01*
X71532552Y-126695376D01*
X71413013Y-126866096D01*
X71409856Y-126870605D01*
X71407533Y-126875587D01*
X71407530Y-126875592D01*
X71319447Y-127064486D01*
X71317124Y-127069468D01*
X71315702Y-127074776D01*
X71315701Y-127074778D01*
X71263868Y-127268222D01*
X71260334Y-127281413D01*
X71242121Y-127489584D01*
X71241210Y-127500000D01*
X67337211Y-127500000D01*
X67252806Y-127407240D01*
X67245273Y-127400215D01*
X67078139Y-127268222D01*
X67069552Y-127262517D01*
X66883117Y-127159599D01*
X66873705Y-127155369D01*
X66672959Y-127084280D01*
X66662988Y-127081646D01*
X66591837Y-127068972D01*
X66578540Y-127070432D01*
X66574000Y-127084989D01*
X66574000Y-128127885D01*
X66066000Y-128127885D01*
X66066000Y-127083102D01*
X66062082Y-127069758D01*
X66047806Y-127067771D01*
X66009324Y-127073660D01*
X65999288Y-127076051D01*
X65796868Y-127142212D01*
X65787359Y-127146209D01*
X65598463Y-127244542D01*
X65589738Y-127250036D01*
X65419433Y-127377905D01*
X65411726Y-127384748D01*
X65264590Y-127538717D01*
X65258104Y-127546727D01*
X65138098Y-127722649D01*
X65133000Y-127731623D01*
X65043338Y-127924783D01*
X65039777Y-127934464D01*
X65035291Y-127950640D01*
X64997813Y-128010939D01*
X64933684Y-128041403D01*
X64863266Y-128032360D01*
X64808915Y-127986682D01*
X64800867Y-127972698D01*
X64728331Y-127825609D01*
X64725776Y-127820428D01*
X64604320Y-127657779D01*
X64455258Y-127519987D01*
X64450375Y-127516906D01*
X64450371Y-127516903D01*
X64288464Y-127414748D01*
X64283581Y-127411667D01*
X64272485Y-127407240D01*
X64213809Y-127383830D01*
X64157950Y-127340008D01*
X64134500Y-127266800D01*
X64134500Y-124884035D01*
X64154502Y-124815914D01*
X64171405Y-124794940D01*
X64849940Y-124116405D01*
X64912252Y-124082379D01*
X64939035Y-124079500D01*
X67141943Y-124079500D01*
X67161737Y-124081606D01*
X67166090Y-124081811D01*
X67176270Y-124084003D01*
X67206940Y-124080373D01*
X67212283Y-124080058D01*
X67212272Y-124079928D01*
X67217452Y-124079500D01*
X67222651Y-124079500D01*
X67227775Y-124078647D01*
X67227788Y-124078646D01*
X67240241Y-124076573D01*
X67246116Y-124075736D01*
X67283129Y-124071355D01*
X67293470Y-124070131D01*
X67301178Y-124066430D01*
X67309617Y-124065025D01*
X67351601Y-124042371D01*
X67356864Y-124039690D01*
X67365070Y-124035750D01*
X67399858Y-124019045D01*
X67403850Y-124015689D01*
X67405797Y-124013742D01*
X67407422Y-124012252D01*
X67407854Y-124012019D01*
X67407887Y-124012055D01*
X67408045Y-124011916D01*
X67413480Y-124008983D01*
X67447557Y-123972119D01*
X67450986Y-123968553D01*
X67780905Y-123638634D01*
X67843217Y-123604608D01*
X67914032Y-123609673D01*
X67970868Y-123652220D01*
X67995679Y-123718740D01*
X67996000Y-123727729D01*
X67996000Y-124124000D01*
X68001804Y-124177990D01*
X68002522Y-124181290D01*
X68002522Y-124181291D01*
X68006567Y-124199884D01*
X68013190Y-124230332D01*
X68020384Y-124256555D01*
X68040479Y-124291843D01*
X68066362Y-124337298D01*
X68066365Y-124337302D01*
X68069425Y-124342676D01*
X68082686Y-124357980D01*
X68106898Y-124385922D01*
X68115918Y-124396332D01*
X68148502Y-124427773D01*
X68236319Y-124473709D01*
X68304440Y-124493711D01*
X68308899Y-124494352D01*
X68308903Y-124494353D01*
X68330639Y-124497478D01*
X68376000Y-124504000D01*
X71374000Y-124504000D01*
X71377347Y-124503640D01*
X71377351Y-124503640D01*
X71424626Y-124498558D01*
X71424633Y-124498557D01*
X71427990Y-124498196D01*
X71431291Y-124497478D01*
X71478678Y-124487170D01*
X71478685Y-124487168D01*
X71480332Y-124486810D01*
X71506555Y-124479616D01*
X71547320Y-124456403D01*
X71587298Y-124433638D01*
X71587302Y-124433635D01*
X71592676Y-124430575D01*
X71619458Y-124407368D01*
X71644209Y-124385922D01*
X71644214Y-124385917D01*
X71646332Y-124384082D01*
X71677773Y-124351498D01*
X71723709Y-124263681D01*
X71743711Y-124195560D01*
X71754000Y-124124000D01*
X71754000Y-116626000D01*
X71748196Y-116572010D01*
X71744374Y-116554440D01*
X71737170Y-116521322D01*
X71737168Y-116521315D01*
X71736810Y-116519668D01*
X71729616Y-116493445D01*
X71699031Y-116439734D01*
X71683638Y-116412702D01*
X71683635Y-116412698D01*
X71680575Y-116407324D01*
X71634082Y-116353668D01*
X71633189Y-116352806D01*
X71600961Y-116289825D01*
X71601177Y-116241773D01*
X71603293Y-116231135D01*
X71604500Y-116225067D01*
X71604499Y-115174934D01*
X71593148Y-115117864D01*
X71592156Y-115112874D01*
X71592155Y-115112872D01*
X71589734Y-115100699D01*
X71572939Y-115075563D01*
X71540377Y-115026832D01*
X71533484Y-115016516D01*
X71449301Y-114960266D01*
X71375067Y-114945500D01*
X70100207Y-114945500D01*
X68824934Y-114945501D01*
X68789182Y-114952612D01*
X68762874Y-114957844D01*
X68762872Y-114957845D01*
X68750699Y-114960266D01*
X68740379Y-114967161D01*
X68740378Y-114967162D01*
X68692603Y-114999085D01*
X68666516Y-115016516D01*
X68610266Y-115100699D01*
X68595500Y-115174933D01*
X68595501Y-115677495D01*
X68595501Y-116120000D01*
X68575499Y-116188121D01*
X68521843Y-116234614D01*
X68469501Y-116246000D01*
X68376000Y-116246000D01*
X68372653Y-116246360D01*
X68372649Y-116246360D01*
X68325374Y-116251442D01*
X68325367Y-116251443D01*
X68322010Y-116251804D01*
X68318710Y-116252522D01*
X68318709Y-116252522D01*
X68271322Y-116262830D01*
X68271315Y-116262832D01*
X68269668Y-116263190D01*
X68243445Y-116270384D01*
X68214041Y-116287128D01*
X68162702Y-116316362D01*
X68162698Y-116316365D01*
X68157324Y-116319425D01*
X68152647Y-116323478D01*
X68123815Y-116348461D01*
X68103668Y-116365918D01*
X68072227Y-116398502D01*
X68026291Y-116486319D01*
X68006289Y-116554440D01*
X68005648Y-116558899D01*
X68005647Y-116558903D01*
X68003279Y-116575374D01*
X67996000Y-116626000D01*
X67996000Y-117482188D01*
X68001641Y-117535422D01*
X68002339Y-117538677D01*
X68002339Y-117538679D01*
X68010043Y-117574620D01*
X68012710Y-117587064D01*
X68013131Y-117588626D01*
X68013134Y-117588639D01*
X68017545Y-117605010D01*
X68019582Y-117612570D01*
X68023415Y-117619397D01*
X68023415Y-117619398D01*
X68065066Y-117693592D01*
X68065069Y-117693597D01*
X68068097Y-117698990D01*
X68114261Y-117752928D01*
X68116258Y-117754879D01*
X68116264Y-117754885D01*
X68140205Y-117778270D01*
X68146650Y-117784565D01*
X68154604Y-117788788D01*
X68154607Y-117788790D01*
X68193692Y-117809540D01*
X68234185Y-117831037D01*
X68302182Y-117851455D01*
X68306619Y-117852121D01*
X68306625Y-117852122D01*
X68352581Y-117859016D01*
X68369985Y-117862903D01*
X68405186Y-117873430D01*
X68437618Y-117888416D01*
X68455533Y-117900028D01*
X68482453Y-117923513D01*
X68496385Y-117939682D01*
X68515633Y-117969777D01*
X68524471Y-117989215D01*
X68534498Y-118023508D01*
X68537656Y-118045563D01*
X68537182Y-118084323D01*
X68533486Y-118106295D01*
X68522625Y-118140331D01*
X68513317Y-118159543D01*
X68493339Y-118189161D01*
X68479014Y-118204987D01*
X68451529Y-118227806D01*
X68433331Y-118238980D01*
X68400547Y-118253167D01*
X68380300Y-118258687D01*
X68309319Y-118257307D01*
X68250351Y-118217770D01*
X68239947Y-118200556D01*
X68239734Y-118200699D01*
X68190377Y-118126832D01*
X68183484Y-118116516D01*
X68099301Y-118060266D01*
X68025067Y-118045500D01*
X67500085Y-118045500D01*
X66974934Y-118045501D01*
X66939182Y-118052612D01*
X66912874Y-118057844D01*
X66912872Y-118057845D01*
X66900699Y-118060266D01*
X66890379Y-118067161D01*
X66890378Y-118067162D01*
X66850363Y-118093900D01*
X66816516Y-118116516D01*
X66760266Y-118200699D01*
X66745500Y-118274933D01*
X66745501Y-118728171D01*
X66745501Y-119120000D01*
X66725499Y-119188121D01*
X66671843Y-119234614D01*
X66619501Y-119246000D01*
X66380500Y-119246000D01*
X66312379Y-119225998D01*
X66265886Y-119172342D01*
X66254500Y-119120000D01*
X66254499Y-118281123D01*
X66254499Y-118274934D01*
X66247348Y-118238980D01*
X66242155Y-118212869D01*
X66242154Y-118212867D01*
X66239734Y-118200699D01*
X66239966Y-118200653D01*
X66233385Y-118139424D01*
X66265166Y-118075938D01*
X66279295Y-118064375D01*
X66278750Y-118063718D01*
X66285654Y-118057986D01*
X66293306Y-118053288D01*
X66300299Y-118045563D01*
X66374644Y-117963427D01*
X66374645Y-117963426D01*
X66380672Y-117956767D01*
X66396784Y-117923513D01*
X66433522Y-117847685D01*
X66433522Y-117847684D01*
X66437437Y-117839604D01*
X66438926Y-117830755D01*
X66438927Y-117830751D01*
X66441817Y-117813570D01*
X66472843Y-117749712D01*
X66533469Y-117712765D01*
X66568379Y-117708495D01*
X66641195Y-117709830D01*
X66710871Y-117690834D01*
X66758141Y-117677947D01*
X66758143Y-117677946D01*
X66766800Y-117675586D01*
X66877746Y-117607465D01*
X66883770Y-117600810D01*
X66959084Y-117517604D01*
X66959085Y-117517603D01*
X66965112Y-117510944D01*
X67021877Y-117393781D01*
X67043477Y-117265396D01*
X67043614Y-117254177D01*
X67025158Y-117125302D01*
X66971272Y-117006787D01*
X66965418Y-116999993D01*
X66965416Y-116999990D01*
X66960672Y-116994485D01*
X66959868Y-116993552D01*
X66930554Y-116928890D01*
X66929321Y-116911304D01*
X66929321Y-116097316D01*
X66949323Y-116029195D01*
X67002979Y-115982702D01*
X67022178Y-115975754D01*
X67112170Y-115951219D01*
X67223116Y-115883098D01*
X67231279Y-115874080D01*
X67304454Y-115793237D01*
X67304455Y-115793236D01*
X67310482Y-115786577D01*
X67315065Y-115777119D01*
X67363332Y-115677495D01*
X67363332Y-115677494D01*
X67367247Y-115669414D01*
X67388847Y-115541029D01*
X67388984Y-115529810D01*
X67370528Y-115400935D01*
X67334175Y-115320982D01*
X67320358Y-115290592D01*
X67320357Y-115290590D01*
X67316642Y-115282420D01*
X67231660Y-115183793D01*
X67122411Y-115112982D01*
X66997680Y-115075680D01*
X66988705Y-115075625D01*
X66988704Y-115075625D01*
X66986617Y-115075612D01*
X66978467Y-115075563D01*
X66910471Y-115055146D01*
X66864306Y-115001208D01*
X66854511Y-114967436D01*
X66840718Y-114871125D01*
X66786832Y-114752610D01*
X66701850Y-114653983D01*
X66592601Y-114583172D01*
X66467870Y-114545870D01*
X66458894Y-114545815D01*
X66458893Y-114545815D01*
X66405678Y-114545490D01*
X66337683Y-114545074D01*
X66212505Y-114580850D01*
X66102400Y-114650321D01*
X66016219Y-114747903D01*
X65960890Y-114865751D01*
X65959509Y-114874622D01*
X65954668Y-114905710D01*
X65929119Y-114964328D01*
X65914292Y-114983137D01*
X65910742Y-114987132D01*
X65910841Y-114987216D01*
X65907483Y-114991179D01*
X65903807Y-114994855D01*
X65900784Y-114999084D01*
X65900784Y-114999085D01*
X65893447Y-115009351D01*
X65889886Y-115014094D01*
X65866804Y-115043374D01*
X65866802Y-115043378D01*
X65860355Y-115051556D01*
X65857522Y-115059624D01*
X65852548Y-115066584D01*
X65849564Y-115076562D01*
X65838881Y-115112285D01*
X65837045Y-115117934D01*
X65821251Y-115162907D01*
X65820801Y-115168103D01*
X65820801Y-115170808D01*
X65820704Y-115173064D01*
X65820561Y-115173540D01*
X65820515Y-115173538D01*
X65820502Y-115173737D01*
X65818733Y-115179654D01*
X65819142Y-115190058D01*
X65820704Y-115229823D01*
X65820801Y-115234769D01*
X65820801Y-116757276D01*
X65800799Y-116825397D01*
X65773601Y-116852654D01*
X65774569Y-116853718D01*
X65766868Y-116860726D01*
X65758118Y-116866376D01*
X65738991Y-116890639D01*
X65735441Y-116894634D01*
X65735540Y-116894718D01*
X65732182Y-116898681D01*
X65728506Y-116902357D01*
X65725483Y-116906586D01*
X65725483Y-116906587D01*
X65718146Y-116916853D01*
X65714585Y-116921596D01*
X65691503Y-116950876D01*
X65691501Y-116950880D01*
X65685054Y-116959058D01*
X65682221Y-116967126D01*
X65677247Y-116974086D01*
X65674263Y-116984064D01*
X65663580Y-117019787D01*
X65661744Y-117025436D01*
X65645950Y-117070409D01*
X65645500Y-117075605D01*
X65645500Y-117078310D01*
X65645403Y-117080566D01*
X65645260Y-117081042D01*
X65645214Y-117081040D01*
X65645201Y-117081239D01*
X65643432Y-117087156D01*
X65643841Y-117097560D01*
X65645403Y-117137325D01*
X65645500Y-117142271D01*
X65645500Y-117367963D01*
X65624812Y-117437139D01*
X65622161Y-117441175D01*
X65616219Y-117447903D01*
X65560890Y-117565751D01*
X65559509Y-117574620D01*
X65553664Y-117612161D01*
X65540860Y-117694390D01*
X65542024Y-117703292D01*
X65542024Y-117703295D01*
X65556445Y-117813570D01*
X65557741Y-117823481D01*
X65577662Y-117868756D01*
X65586790Y-117939160D01*
X65556403Y-118003326D01*
X65496150Y-118040877D01*
X65462333Y-118045500D01*
X64993399Y-118045501D01*
X64974934Y-118045501D01*
X64939182Y-118052612D01*
X64912874Y-118057844D01*
X64912872Y-118057845D01*
X64900699Y-118060266D01*
X64890379Y-118067161D01*
X64890378Y-118067162D01*
X64850363Y-118093900D01*
X64816516Y-118116516D01*
X64760266Y-118200699D01*
X64745500Y-118274933D01*
X64745501Y-118728171D01*
X64745501Y-119120000D01*
X64725499Y-119188121D01*
X64671843Y-119234614D01*
X64619501Y-119246000D01*
X64380500Y-119246000D01*
X64312379Y-119225998D01*
X64265886Y-119172342D01*
X64254500Y-119120000D01*
X64254499Y-118281123D01*
X64254499Y-118274934D01*
X64247348Y-118238980D01*
X64242156Y-118212874D01*
X64242155Y-118212872D01*
X64239734Y-118200699D01*
X64232025Y-118189161D01*
X64190377Y-118126832D01*
X64183484Y-118116516D01*
X64099301Y-118060266D01*
X64025067Y-118045500D01*
X63500085Y-118045500D01*
X62974934Y-118045501D01*
X62939182Y-118052612D01*
X62912874Y-118057844D01*
X62912872Y-118057845D01*
X62900699Y-118060266D01*
X62890379Y-118067161D01*
X62890378Y-118067162D01*
X62850363Y-118093900D01*
X62816516Y-118116516D01*
X62760266Y-118200699D01*
X62745500Y-118274933D01*
X62745501Y-118728171D01*
X62745501Y-119120000D01*
X62725499Y-119188121D01*
X62671843Y-119234614D01*
X62619501Y-119246000D01*
X62380500Y-119246000D01*
X62312379Y-119225998D01*
X62265886Y-119172342D01*
X62254500Y-119120000D01*
X62254499Y-118281123D01*
X62254499Y-118274934D01*
X62247348Y-118238980D01*
X62242156Y-118212874D01*
X62242155Y-118212872D01*
X62239734Y-118200699D01*
X62232025Y-118189161D01*
X62190377Y-118126832D01*
X62183484Y-118116516D01*
X62099301Y-118060266D01*
X62025067Y-118045500D01*
X61500085Y-118045500D01*
X60974934Y-118045501D01*
X60939182Y-118052612D01*
X60912874Y-118057844D01*
X60912872Y-118057845D01*
X60900699Y-118060266D01*
X60890379Y-118067161D01*
X60890378Y-118067162D01*
X60850363Y-118093900D01*
X60816516Y-118116516D01*
X60760266Y-118200699D01*
X60745500Y-118274933D01*
X60745501Y-118728171D01*
X60745501Y-119120000D01*
X60725499Y-119188121D01*
X60671843Y-119234614D01*
X60619501Y-119246000D01*
X60380500Y-119246000D01*
X60312379Y-119225998D01*
X60265886Y-119172342D01*
X60254500Y-119120000D01*
X60254499Y-118281123D01*
X60254499Y-118274934D01*
X60247348Y-118238980D01*
X60242156Y-118212874D01*
X60242155Y-118212872D01*
X60239734Y-118200699D01*
X60232025Y-118189161D01*
X60190377Y-118126832D01*
X60183484Y-118116516D01*
X60099301Y-118060266D01*
X60025067Y-118045500D01*
X59500085Y-118045500D01*
X58974934Y-118045501D01*
X58939182Y-118052612D01*
X58912874Y-118057844D01*
X58912872Y-118057845D01*
X58900699Y-118060266D01*
X58890379Y-118067161D01*
X58890378Y-118067162D01*
X58850363Y-118093900D01*
X58816516Y-118116516D01*
X58760266Y-118200699D01*
X58745500Y-118274933D01*
X58745501Y-118728171D01*
X58745501Y-119120000D01*
X58725499Y-119188121D01*
X58671843Y-119234614D01*
X58619501Y-119246000D01*
X58380500Y-119246000D01*
X58312379Y-119225998D01*
X58265886Y-119172342D01*
X58254500Y-119120000D01*
X58254499Y-118281123D01*
X58254499Y-118274934D01*
X58247348Y-118238980D01*
X58242156Y-118212874D01*
X58242155Y-118212872D01*
X58239734Y-118200699D01*
X58232025Y-118189161D01*
X58190377Y-118126832D01*
X58183484Y-118116516D01*
X58099301Y-118060266D01*
X58025067Y-118045500D01*
X57500085Y-118045500D01*
X56974934Y-118045501D01*
X56939182Y-118052612D01*
X56912874Y-118057844D01*
X56912872Y-118057845D01*
X56900699Y-118060266D01*
X56890379Y-118067161D01*
X56890378Y-118067162D01*
X56854002Y-118091468D01*
X56786249Y-118112683D01*
X56717782Y-118093900D01*
X56670339Y-118041083D01*
X56658000Y-117986703D01*
X56658000Y-117972115D01*
X56653525Y-117956876D01*
X56652135Y-117955671D01*
X56644452Y-117954000D01*
X55172115Y-117954000D01*
X55156876Y-117958475D01*
X55155671Y-117959865D01*
X55154000Y-117967548D01*
X55154000Y-118689884D01*
X55158475Y-118705123D01*
X55159865Y-118706328D01*
X55167548Y-118707999D01*
X56194669Y-118707999D01*
X56201490Y-118707629D01*
X56252352Y-118702105D01*
X56267604Y-118698479D01*
X56388054Y-118653324D01*
X56403649Y-118644786D01*
X56505724Y-118568285D01*
X56518284Y-118555725D01*
X56518673Y-118555206D01*
X56519188Y-118554821D01*
X56524635Y-118549374D01*
X56525421Y-118550160D01*
X56575532Y-118512690D01*
X56646351Y-118507664D01*
X56708644Y-118541723D01*
X56742635Y-118604054D01*
X56745500Y-118630770D01*
X56745501Y-119668463D01*
X56725499Y-119736584D01*
X56671843Y-119783077D01*
X56620097Y-119792888D01*
X56620150Y-119794071D01*
X56613973Y-119794347D01*
X56607784Y-119794015D01*
X56601650Y-119794897D01*
X56601648Y-119794897D01*
X56540303Y-119803717D01*
X56540294Y-119803719D01*
X56537510Y-119804119D01*
X56493445Y-119814532D01*
X56485611Y-119818993D01*
X56412702Y-119860510D01*
X56412698Y-119860513D01*
X56407324Y-119863573D01*
X56353668Y-119910066D01*
X56322227Y-119942650D01*
X56276291Y-120030467D01*
X56256289Y-120098588D01*
X56246000Y-120170148D01*
X56246000Y-129620000D01*
X56225998Y-129688121D01*
X56172342Y-129734614D01*
X56120000Y-129746000D01*
X52537425Y-129746000D01*
X52512847Y-129743579D01*
X52500000Y-129741024D01*
X52487830Y-129743445D01*
X52475417Y-129743445D01*
X52475417Y-129743120D01*
X52464580Y-129743858D01*
X52304559Y-129734178D01*
X52236882Y-129730084D01*
X52221778Y-129728250D01*
X51969995Y-129682109D01*
X51955222Y-129678468D01*
X51935563Y-129672342D01*
X51710826Y-129602311D01*
X51696608Y-129596919D01*
X51463183Y-129491862D01*
X51449713Y-129484793D01*
X51230649Y-129352364D01*
X51218127Y-129343721D01*
X51016621Y-129185851D01*
X51005233Y-129175761D01*
X50824239Y-128994767D01*
X50814149Y-128983379D01*
X50656279Y-128781873D01*
X50647636Y-128769351D01*
X50515207Y-128550287D01*
X50508136Y-128536814D01*
X50472689Y-128458053D01*
X50403081Y-128303392D01*
X50397687Y-128289169D01*
X50386215Y-128252352D01*
X50321532Y-128044778D01*
X50317891Y-128030005D01*
X50271750Y-127778222D01*
X50269916Y-127763118D01*
X50262254Y-127636455D01*
X50256142Y-127535420D01*
X50256880Y-127524583D01*
X50256555Y-127524583D01*
X50256555Y-127512170D01*
X50258976Y-127500000D01*
X51241210Y-127500000D01*
X51260334Y-127718587D01*
X51261758Y-127723900D01*
X51261758Y-127723902D01*
X51315584Y-127924783D01*
X51317124Y-127930532D01*
X51319446Y-127935512D01*
X51319447Y-127935514D01*
X51407530Y-128124408D01*
X51407533Y-128124413D01*
X51409856Y-128129395D01*
X51413012Y-128133902D01*
X51413013Y-128133904D01*
X51531693Y-128303396D01*
X51535711Y-128309135D01*
X51690865Y-128464289D01*
X51695373Y-128467446D01*
X51695376Y-128467448D01*
X51838630Y-128567755D01*
X51870605Y-128590144D01*
X51875587Y-128592467D01*
X51875592Y-128592470D01*
X52046063Y-128671962D01*
X52069468Y-128682876D01*
X52074776Y-128684298D01*
X52074778Y-128684299D01*
X52276098Y-128738242D01*
X52276100Y-128738242D01*
X52281413Y-128739666D01*
X52500000Y-128758790D01*
X52718587Y-128739666D01*
X52723900Y-128738242D01*
X52723902Y-128738242D01*
X52925222Y-128684299D01*
X52925224Y-128684298D01*
X52930532Y-128682876D01*
X52953937Y-128671962D01*
X53124408Y-128592470D01*
X53124413Y-128592467D01*
X53129395Y-128590144D01*
X53161370Y-128567755D01*
X53304624Y-128467448D01*
X53304627Y-128467446D01*
X53309135Y-128464289D01*
X53464289Y-128309135D01*
X53468308Y-128303396D01*
X53586987Y-128133904D01*
X53586988Y-128133902D01*
X53590144Y-128129395D01*
X53592467Y-128124413D01*
X53592470Y-128124408D01*
X53680553Y-127935514D01*
X53680554Y-127935512D01*
X53682876Y-127930532D01*
X53684417Y-127924783D01*
X53738242Y-127723902D01*
X53738242Y-127723900D01*
X53739666Y-127718587D01*
X53758790Y-127500000D01*
X53739666Y-127281413D01*
X53736132Y-127268222D01*
X53684299Y-127074778D01*
X53684298Y-127074776D01*
X53682876Y-127069468D01*
X53680553Y-127064486D01*
X53592470Y-126875592D01*
X53592467Y-126875587D01*
X53590144Y-126870605D01*
X53586987Y-126866096D01*
X53467448Y-126695376D01*
X53467446Y-126695373D01*
X53464289Y-126690865D01*
X53309135Y-126535711D01*
X53304627Y-126532554D01*
X53304624Y-126532552D01*
X53133904Y-126413013D01*
X53133902Y-126413012D01*
X53129395Y-126409856D01*
X53124413Y-126407533D01*
X53124408Y-126407530D01*
X52935514Y-126319447D01*
X52935512Y-126319446D01*
X52930532Y-126317124D01*
X52925224Y-126315702D01*
X52925222Y-126315701D01*
X52723902Y-126261758D01*
X52723900Y-126261758D01*
X52718587Y-126260334D01*
X52500000Y-126241210D01*
X52281413Y-126260334D01*
X52276100Y-126261758D01*
X52276098Y-126261758D01*
X52074778Y-126315701D01*
X52074776Y-126315702D01*
X52069468Y-126317124D01*
X52064488Y-126319446D01*
X52064486Y-126319447D01*
X51875592Y-126407530D01*
X51875587Y-126407533D01*
X51870605Y-126409856D01*
X51866098Y-126413012D01*
X51866096Y-126413013D01*
X51695376Y-126532552D01*
X51695373Y-126532554D01*
X51690865Y-126535711D01*
X51535711Y-126690865D01*
X51532554Y-126695373D01*
X51532552Y-126695376D01*
X51413013Y-126866096D01*
X51409856Y-126870605D01*
X51407533Y-126875587D01*
X51407530Y-126875592D01*
X51319447Y-127064486D01*
X51317124Y-127069468D01*
X51315702Y-127074776D01*
X51315701Y-127074778D01*
X51263868Y-127268222D01*
X51260334Y-127281413D01*
X51242121Y-127489584D01*
X51241210Y-127500000D01*
X50258976Y-127500000D01*
X50256421Y-127487153D01*
X50254000Y-127462575D01*
X50254000Y-124222756D01*
X51145500Y-124222756D01*
X51152202Y-124284448D01*
X51202929Y-124419764D01*
X51208309Y-124426943D01*
X51208311Y-124426946D01*
X51265579Y-124503358D01*
X51289596Y-124535404D01*
X51296776Y-124540785D01*
X51398054Y-124616689D01*
X51398057Y-124616691D01*
X51405236Y-124622071D01*
X51494954Y-124655704D01*
X51533157Y-124670026D01*
X51533159Y-124670026D01*
X51540552Y-124672798D01*
X51548402Y-124673651D01*
X51548403Y-124673651D01*
X51598847Y-124679131D01*
X51602244Y-124679500D01*
X52397756Y-124679500D01*
X52401153Y-124679131D01*
X52451597Y-124673651D01*
X52451598Y-124673651D01*
X52459448Y-124672798D01*
X52466841Y-124670026D01*
X52466843Y-124670026D01*
X52505046Y-124655704D01*
X52594764Y-124622071D01*
X52601943Y-124616691D01*
X52601946Y-124616689D01*
X52703224Y-124540785D01*
X52710404Y-124535404D01*
X52734421Y-124503358D01*
X52791689Y-124426946D01*
X52791691Y-124426943D01*
X52797071Y-124419764D01*
X52808020Y-124390557D01*
X52850662Y-124333793D01*
X52917224Y-124309093D01*
X52986572Y-124324301D01*
X53038018Y-124377095D01*
X53060619Y-124420978D01*
X53067069Y-124431024D01*
X53190262Y-124587857D01*
X53198499Y-124596506D01*
X53349123Y-124727212D01*
X53358847Y-124734147D01*
X53531467Y-124834010D01*
X53542331Y-124838984D01*
X53730727Y-124904407D01*
X53731716Y-124904648D01*
X53742008Y-124903180D01*
X53746000Y-124889615D01*
X53746000Y-124885402D01*
X54254000Y-124885402D01*
X54257973Y-124898933D01*
X54267399Y-124900288D01*
X54356537Y-124878806D01*
X54367832Y-124874917D01*
X54549382Y-124792371D01*
X54559724Y-124786424D01*
X54722397Y-124671032D01*
X54731425Y-124663239D01*
X54869342Y-124519169D01*
X54876738Y-124509804D01*
X54984921Y-124342259D01*
X54990417Y-124331655D01*
X55064961Y-124146688D01*
X55068355Y-124135230D01*
X55106857Y-123938072D01*
X55107934Y-123929209D01*
X55108000Y-123926500D01*
X55108000Y-123822115D01*
X55103525Y-123806876D01*
X55102135Y-123805671D01*
X55094452Y-123804000D01*
X54272115Y-123804000D01*
X54256876Y-123808475D01*
X54255671Y-123809865D01*
X54254000Y-123817548D01*
X54254000Y-124885402D01*
X53746000Y-124885402D01*
X53746000Y-123277885D01*
X54254000Y-123277885D01*
X54258475Y-123293124D01*
X54259865Y-123294329D01*
X54267548Y-123296000D01*
X55089885Y-123296000D01*
X55105124Y-123291525D01*
X55106329Y-123290135D01*
X55108000Y-123282452D01*
X55108000Y-123225168D01*
X55107715Y-123219192D01*
X55093529Y-123070506D01*
X55091270Y-123058772D01*
X55035128Y-122867401D01*
X55030698Y-122856325D01*
X54939381Y-122679022D01*
X54932931Y-122668976D01*
X54809738Y-122512143D01*
X54801501Y-122503494D01*
X54650877Y-122372788D01*
X54641153Y-122365853D01*
X54468533Y-122265990D01*
X54457669Y-122261016D01*
X54269273Y-122195593D01*
X54268284Y-122195352D01*
X54257992Y-122196820D01*
X54254000Y-122210385D01*
X54254000Y-123277885D01*
X53746000Y-123277885D01*
X53746000Y-122214598D01*
X53742027Y-122201067D01*
X53732601Y-122199712D01*
X53643463Y-122221194D01*
X53632168Y-122225083D01*
X53450618Y-122307629D01*
X53440276Y-122313576D01*
X53277603Y-122428968D01*
X53268575Y-122436761D01*
X53130658Y-122580831D01*
X53123262Y-122590196D01*
X53031427Y-122732423D01*
X52977672Y-122778801D01*
X52907376Y-122788754D01*
X52842859Y-122759122D01*
X52807593Y-122708304D01*
X52800221Y-122688639D01*
X52797071Y-122680236D01*
X52791691Y-122673057D01*
X52791689Y-122673054D01*
X52715785Y-122571776D01*
X52710404Y-122564596D01*
X52640416Y-122512143D01*
X52601946Y-122483311D01*
X52601943Y-122483309D01*
X52594764Y-122477929D01*
X52484947Y-122436761D01*
X52466843Y-122429974D01*
X52466841Y-122429974D01*
X52459448Y-122427202D01*
X52451598Y-122426349D01*
X52451597Y-122426349D01*
X52401153Y-122420869D01*
X52401152Y-122420869D01*
X52397756Y-122420500D01*
X51602244Y-122420500D01*
X51598848Y-122420869D01*
X51598847Y-122420869D01*
X51548403Y-122426349D01*
X51548402Y-122426349D01*
X51540552Y-122427202D01*
X51533159Y-122429974D01*
X51533157Y-122429974D01*
X51515053Y-122436761D01*
X51405236Y-122477929D01*
X51398057Y-122483309D01*
X51398054Y-122483311D01*
X51359584Y-122512143D01*
X51289596Y-122564596D01*
X51284215Y-122571776D01*
X51208311Y-122673054D01*
X51208309Y-122673057D01*
X51202929Y-122680236D01*
X51152202Y-122815552D01*
X51145500Y-122877244D01*
X51145500Y-124222756D01*
X50254000Y-124222756D01*
X50254000Y-119057611D01*
X50274002Y-118989490D01*
X50327658Y-118942997D01*
X50397932Y-118932893D01*
X50427464Y-118941692D01*
X50427475Y-118941658D01*
X50428576Y-118942023D01*
X50433244Y-118943414D01*
X50434415Y-118943960D01*
X50588710Y-118995138D01*
X50602086Y-118998005D01*
X50696438Y-119007672D01*
X50702854Y-119008000D01*
X51227885Y-119008000D01*
X51243124Y-119003525D01*
X51244329Y-119002135D01*
X51246000Y-118994452D01*
X51246000Y-118989884D01*
X51754000Y-118989884D01*
X51758475Y-119005123D01*
X51759865Y-119006328D01*
X51767548Y-119007999D01*
X52297095Y-119007999D01*
X52303614Y-119007662D01*
X52399206Y-118997743D01*
X52412600Y-118994851D01*
X52566784Y-118943412D01*
X52579962Y-118937239D01*
X52717807Y-118851937D01*
X52729208Y-118842901D01*
X52843739Y-118728171D01*
X52852751Y-118716760D01*
X52937816Y-118578757D01*
X52943964Y-118565574D01*
X52974524Y-118473438D01*
X53014955Y-118415078D01*
X53080519Y-118387841D01*
X53150400Y-118400374D01*
X53198950Y-118447120D01*
X53199828Y-118446462D01*
X53203873Y-118451860D01*
X53204636Y-118452594D01*
X53205212Y-118453646D01*
X53281715Y-118555724D01*
X53294276Y-118568285D01*
X53396351Y-118644786D01*
X53411946Y-118653324D01*
X53532394Y-118698478D01*
X53547649Y-118702105D01*
X53598514Y-118707631D01*
X53605328Y-118708000D01*
X54627885Y-118708000D01*
X54643124Y-118703525D01*
X54644329Y-118702135D01*
X54646000Y-118694452D01*
X54646000Y-117572000D01*
X54666002Y-117503879D01*
X54719658Y-117457386D01*
X54772000Y-117446000D01*
X56639884Y-117446000D01*
X56655123Y-117441525D01*
X56656328Y-117440135D01*
X56657999Y-117432452D01*
X56657999Y-117155331D01*
X56657629Y-117148510D01*
X56652105Y-117097648D01*
X56648479Y-117082396D01*
X56603324Y-116961946D01*
X56594786Y-116946351D01*
X56518285Y-116844276D01*
X56505724Y-116831715D01*
X56403649Y-116755214D01*
X56388054Y-116746676D01*
X56267606Y-116701522D01*
X56252351Y-116697895D01*
X56227171Y-116695159D01*
X56161609Y-116667916D01*
X56121184Y-116609553D01*
X56118729Y-116538599D01*
X56155025Y-116477581D01*
X56216198Y-116446318D01*
X56249301Y-116439734D01*
X56259621Y-116432839D01*
X56259622Y-116432838D01*
X56323168Y-116390377D01*
X56333484Y-116383484D01*
X56389734Y-116299301D01*
X56404500Y-116225067D01*
X56404500Y-116205500D01*
X56424502Y-116137379D01*
X56478158Y-116090886D01*
X56530500Y-116079500D01*
X57765636Y-116079500D01*
X57833757Y-116099502D01*
X57854731Y-116116405D01*
X58024948Y-116286622D01*
X58056777Y-116341088D01*
X58057741Y-116348461D01*
X58110174Y-116467625D01*
X58193946Y-116567283D01*
X58201414Y-116572254D01*
X58201415Y-116572255D01*
X58294850Y-116634452D01*
X58294853Y-116634453D01*
X58302320Y-116639424D01*
X58310887Y-116642100D01*
X58310888Y-116642101D01*
X58332171Y-116648750D01*
X58426587Y-116678247D01*
X58435560Y-116678411D01*
X58435563Y-116678412D01*
X58492790Y-116679461D01*
X58556755Y-116680633D01*
X58608917Y-116666412D01*
X58673701Y-116648750D01*
X58673703Y-116648749D01*
X58682360Y-116646389D01*
X58793306Y-116578268D01*
X58799330Y-116571613D01*
X58874644Y-116488407D01*
X58874645Y-116488406D01*
X58880672Y-116481747D01*
X58897838Y-116446318D01*
X58933522Y-116372665D01*
X58933522Y-116372664D01*
X58937437Y-116364584D01*
X58959037Y-116236199D01*
X58959174Y-116224980D01*
X58940718Y-116096105D01*
X58886832Y-115977590D01*
X58844341Y-115928277D01*
X58807713Y-115885767D01*
X58807712Y-115885766D01*
X58801850Y-115878963D01*
X58692601Y-115808152D01*
X58619322Y-115786237D01*
X58566329Y-115754615D01*
X58281498Y-115469784D01*
X58266356Y-115451036D01*
X58265241Y-115449811D01*
X58259591Y-115441060D01*
X58251413Y-115434613D01*
X58251411Y-115434611D01*
X58233220Y-115420271D01*
X58228779Y-115416325D01*
X58228717Y-115416398D01*
X58224753Y-115413039D01*
X58221076Y-115409362D01*
X58205328Y-115398108D01*
X58200658Y-115394602D01*
X58160373Y-115362844D01*
X58151739Y-115359812D01*
X58144286Y-115354486D01*
X58095170Y-115339797D01*
X58089528Y-115337964D01*
X58048653Y-115323610D01*
X58048652Y-115323610D01*
X58041169Y-115320982D01*
X58035604Y-115320500D01*
X58032896Y-115320500D01*
X58030262Y-115320386D01*
X58030164Y-115320357D01*
X58030171Y-115320193D01*
X58029467Y-115320149D01*
X58023242Y-115318287D01*
X57969385Y-115320403D01*
X57964438Y-115320500D01*
X56530499Y-115320500D01*
X56462378Y-115300498D01*
X56415885Y-115246842D01*
X56404499Y-115194500D01*
X56404499Y-115174934D01*
X56393148Y-115117864D01*
X56392156Y-115112874D01*
X56392155Y-115112872D01*
X56389734Y-115100699D01*
X56372939Y-115075563D01*
X56340377Y-115026832D01*
X56333484Y-115016516D01*
X56249301Y-114960266D01*
X56175067Y-114945500D01*
X54900207Y-114945500D01*
X53624934Y-114945501D01*
X53589182Y-114952612D01*
X53562874Y-114957844D01*
X53562872Y-114957845D01*
X53550699Y-114960266D01*
X53540379Y-114967161D01*
X53540378Y-114967162D01*
X53492603Y-114999085D01*
X53466516Y-115016516D01*
X53410266Y-115100699D01*
X53395500Y-115174933D01*
X53395501Y-116225066D01*
X53400747Y-116251442D01*
X53404515Y-116270384D01*
X53410266Y-116299301D01*
X53417161Y-116309620D01*
X53417162Y-116309622D01*
X53448605Y-116356679D01*
X53466516Y-116383484D01*
X53550699Y-116439734D01*
X53583801Y-116446318D01*
X53646710Y-116479224D01*
X53681843Y-116540919D01*
X53678043Y-116611814D01*
X53636519Y-116669400D01*
X53572826Y-116695160D01*
X53547648Y-116697895D01*
X53532396Y-116701521D01*
X53411946Y-116746676D01*
X53396351Y-116755214D01*
X53294276Y-116831715D01*
X53281715Y-116844276D01*
X53205214Y-116946351D01*
X53196676Y-116961946D01*
X53151522Y-117082394D01*
X53147895Y-117097649D01*
X53142369Y-117148514D01*
X53142000Y-117155328D01*
X53142000Y-117307870D01*
X53121998Y-117375991D01*
X53068342Y-117422484D01*
X52998068Y-117432588D01*
X52933488Y-117403094D01*
X52908856Y-117374173D01*
X52851937Y-117282193D01*
X52842901Y-117270792D01*
X52728171Y-117156261D01*
X52716760Y-117147249D01*
X52578757Y-117062184D01*
X52565576Y-117056037D01*
X52411290Y-117004862D01*
X52397914Y-117001995D01*
X52303562Y-116992328D01*
X52297145Y-116992000D01*
X51772115Y-116992000D01*
X51756876Y-116996475D01*
X51755671Y-116997865D01*
X51754000Y-117005548D01*
X51754000Y-118989884D01*
X51246000Y-118989884D01*
X51246000Y-117010116D01*
X51241525Y-116994877D01*
X51240135Y-116993672D01*
X51232452Y-116992001D01*
X50702905Y-116992001D01*
X50696386Y-116992338D01*
X50600794Y-117002257D01*
X50587400Y-117005149D01*
X50426268Y-117058906D01*
X50425848Y-117057646D01*
X50363273Y-117067261D01*
X50298410Y-117038392D01*
X50259452Y-116979039D01*
X50254000Y-116942376D01*
X50254000Y-115380000D01*
X50274002Y-115311879D01*
X50327658Y-115265386D01*
X50380000Y-115254000D01*
X51874000Y-115254000D01*
X51877347Y-115253640D01*
X51877351Y-115253640D01*
X51924626Y-115248558D01*
X51924633Y-115248557D01*
X51927990Y-115248196D01*
X51931291Y-115247478D01*
X51978678Y-115237170D01*
X51978685Y-115237168D01*
X51980332Y-115236810D01*
X52006555Y-115229616D01*
X52047320Y-115206403D01*
X52087298Y-115183638D01*
X52087302Y-115183635D01*
X52092676Y-115180575D01*
X52146332Y-115134082D01*
X52177773Y-115101498D01*
X52223709Y-115013681D01*
X52243711Y-114945560D01*
X52254000Y-114874000D01*
X52254000Y-114133999D01*
X52253640Y-114130648D01*
X52248558Y-114083373D01*
X52248557Y-114083366D01*
X52248196Y-114080009D01*
X52246170Y-114070694D01*
X52237170Y-114029321D01*
X52237168Y-114029314D01*
X52236810Y-114027667D01*
X52229616Y-114001444D01*
X52225717Y-113994597D01*
X52225715Y-113994592D01*
X52196011Y-113942429D01*
X52179684Y-113873336D01*
X52203303Y-113806383D01*
X52259371Y-113762829D01*
X52297614Y-113754500D01*
X52297756Y-113754500D01*
X52343596Y-113749520D01*
X52351597Y-113748651D01*
X52351598Y-113748651D01*
X52359448Y-113747798D01*
X52366841Y-113745026D01*
X52366843Y-113745026D01*
X52405046Y-113730704D01*
X52494764Y-113697071D01*
X52501943Y-113691691D01*
X52501946Y-113691689D01*
X52603224Y-113615785D01*
X52610404Y-113610404D01*
X52656661Y-113548683D01*
X52691689Y-113501946D01*
X52691691Y-113501943D01*
X52697071Y-113494764D01*
X52747798Y-113359448D01*
X52754500Y-113297756D01*
X52754500Y-112794406D01*
X52774502Y-112726285D01*
X52828158Y-112679792D01*
X52898432Y-112669688D01*
X52963012Y-112699182D01*
X52969595Y-112705311D01*
X53358595Y-113094311D01*
X53392621Y-113156623D01*
X53395500Y-113183406D01*
X53395501Y-113702876D01*
X53395501Y-114225066D01*
X53410266Y-114299301D01*
X53466516Y-114383484D01*
X53550699Y-114439734D01*
X53624933Y-114454500D01*
X54899793Y-114454500D01*
X56175066Y-114454499D01*
X56210818Y-114447388D01*
X56237126Y-114442156D01*
X56237128Y-114442155D01*
X56249301Y-114439734D01*
X56259621Y-114432839D01*
X56259622Y-114432838D01*
X56323168Y-114390377D01*
X56333484Y-114383484D01*
X56389734Y-114299301D01*
X56404500Y-114225067D01*
X56404500Y-114205500D01*
X56424502Y-114137379D01*
X56478158Y-114090886D01*
X56530500Y-114079500D01*
X57546080Y-114079500D01*
X57570028Y-114082049D01*
X57571693Y-114082128D01*
X57581876Y-114084320D01*
X57592217Y-114083096D01*
X57615223Y-114080373D01*
X57621154Y-114080023D01*
X57621146Y-114079928D01*
X57626324Y-114079500D01*
X57631524Y-114079500D01*
X57636653Y-114078646D01*
X57636656Y-114078646D01*
X57650565Y-114076331D01*
X57656443Y-114075494D01*
X57697001Y-114070694D01*
X57697002Y-114070694D01*
X57707341Y-114069470D01*
X57715593Y-114065507D01*
X57724626Y-114064004D01*
X57733795Y-114059057D01*
X57733797Y-114059056D01*
X57769732Y-114039666D01*
X57775025Y-114036969D01*
X57814082Y-114018215D01*
X57814086Y-114018212D01*
X57821232Y-114014781D01*
X57825508Y-114011186D01*
X57827431Y-114009263D01*
X57829363Y-114007491D01*
X57829442Y-114007448D01*
X57829555Y-114007572D01*
X57830095Y-114007096D01*
X57835814Y-114004010D01*
X57872417Y-113964413D01*
X57875846Y-113960848D01*
X58066479Y-113770215D01*
X58122433Y-113737747D01*
X58173700Y-113723770D01*
X58182360Y-113721409D01*
X58293306Y-113653288D01*
X58327252Y-113615785D01*
X58374644Y-113563427D01*
X58374645Y-113563426D01*
X58380672Y-113556767D01*
X58437437Y-113439604D01*
X58459037Y-113311219D01*
X58459174Y-113300000D01*
X58441263Y-113174933D01*
X68595500Y-113174933D01*
X68595501Y-114225066D01*
X68610266Y-114299301D01*
X68666516Y-114383484D01*
X68750699Y-114439734D01*
X68824933Y-114454500D01*
X70099793Y-114454500D01*
X71375066Y-114454499D01*
X71410818Y-114447388D01*
X71437126Y-114442156D01*
X71437128Y-114442155D01*
X71449301Y-114439734D01*
X71459621Y-114432839D01*
X71459622Y-114432838D01*
X71523168Y-114390377D01*
X71533484Y-114383484D01*
X71589734Y-114299301D01*
X71604500Y-114225067D01*
X71604499Y-113174934D01*
X71589734Y-113100699D01*
X71533484Y-113016516D01*
X71449301Y-112960266D01*
X71375067Y-112945500D01*
X70100207Y-112945500D01*
X68824934Y-112945501D01*
X68789182Y-112952612D01*
X68762874Y-112957844D01*
X68762872Y-112957845D01*
X68750699Y-112960266D01*
X68740379Y-112967161D01*
X68740378Y-112967162D01*
X68679985Y-113007516D01*
X68666516Y-113016516D01*
X68610266Y-113100699D01*
X68595500Y-113174933D01*
X58441263Y-113174933D01*
X58440718Y-113171125D01*
X58408697Y-113100699D01*
X58390548Y-113060782D01*
X58390547Y-113060780D01*
X58386832Y-113052610D01*
X58301850Y-112953983D01*
X58192601Y-112883172D01*
X58067870Y-112845870D01*
X58058894Y-112845815D01*
X58058893Y-112845815D01*
X58005678Y-112845490D01*
X57937683Y-112845074D01*
X57812505Y-112880850D01*
X57702400Y-112950321D01*
X57696458Y-112957049D01*
X57696457Y-112957050D01*
X57650027Y-113009623D01*
X57616219Y-113047903D01*
X57612404Y-113056028D01*
X57612403Y-113056030D01*
X57564706Y-113157623D01*
X57560890Y-113165751D01*
X57559509Y-113174621D01*
X57556884Y-113183206D01*
X57553969Y-113182315D01*
X57530221Y-113232767D01*
X57525050Y-113238256D01*
X57479711Y-113283595D01*
X57417399Y-113317621D01*
X57390616Y-113320500D01*
X56530499Y-113320500D01*
X56462378Y-113300498D01*
X56415885Y-113246842D01*
X56404499Y-113194500D01*
X56404499Y-113174934D01*
X56389734Y-113100699D01*
X56333484Y-113016516D01*
X56249301Y-112960266D01*
X56175067Y-112945500D01*
X55974558Y-112945500D01*
X54335364Y-112945501D01*
X54267243Y-112925499D01*
X54246269Y-112908596D01*
X54007268Y-112669595D01*
X53973242Y-112607283D01*
X53978307Y-112536468D01*
X54020854Y-112479632D01*
X54087374Y-112454821D01*
X54096363Y-112454500D01*
X56127551Y-112454499D01*
X56175066Y-112454499D01*
X56210818Y-112447388D01*
X56237126Y-112442156D01*
X56237128Y-112442155D01*
X56249301Y-112439734D01*
X56259621Y-112432839D01*
X56259622Y-112432838D01*
X56323168Y-112390377D01*
X56333484Y-112383484D01*
X56389734Y-112299301D01*
X56404500Y-112225067D01*
X56404500Y-112205500D01*
X56424502Y-112137379D01*
X56478158Y-112090886D01*
X56530500Y-112079500D01*
X57711723Y-112079500D01*
X57781542Y-112100613D01*
X57802320Y-112114444D01*
X57926587Y-112153267D01*
X57935560Y-112153431D01*
X57935563Y-112153432D01*
X57992790Y-112154481D01*
X58056755Y-112155653D01*
X58137237Y-112133711D01*
X58173701Y-112123770D01*
X58173703Y-112123769D01*
X58182360Y-112121409D01*
X58293306Y-112053288D01*
X58309467Y-112035434D01*
X58374644Y-111963427D01*
X58374645Y-111963426D01*
X58380672Y-111956767D01*
X58429662Y-111855653D01*
X58433522Y-111847685D01*
X58433522Y-111847684D01*
X58437437Y-111839604D01*
X58459037Y-111711219D01*
X58459174Y-111700000D01*
X58458371Y-111694390D01*
X59540860Y-111694390D01*
X59542024Y-111703292D01*
X59542024Y-111703295D01*
X59556559Y-111814444D01*
X59557741Y-111823481D01*
X59610174Y-111942645D01*
X59693946Y-112042303D01*
X59701414Y-112047274D01*
X59701415Y-112047275D01*
X59794850Y-112109472D01*
X59794853Y-112109473D01*
X59802320Y-112114444D01*
X59810887Y-112117120D01*
X59810888Y-112117121D01*
X59848310Y-112128812D01*
X59926587Y-112153267D01*
X59935560Y-112153431D01*
X59935563Y-112153432D01*
X59992790Y-112154481D01*
X60056755Y-112155653D01*
X60137237Y-112133711D01*
X60173701Y-112123770D01*
X60173703Y-112123769D01*
X60182360Y-112121409D01*
X60293306Y-112053288D01*
X60336398Y-112005681D01*
X60357045Y-111982870D01*
X60417588Y-111945789D01*
X60488568Y-111947326D01*
X60546910Y-111986349D01*
X60588168Y-112035431D01*
X60588174Y-112035436D01*
X60593946Y-112042303D01*
X60601414Y-112047274D01*
X60601415Y-112047275D01*
X60694850Y-112109472D01*
X60694853Y-112109473D01*
X60702320Y-112114444D01*
X60710887Y-112117120D01*
X60710888Y-112117121D01*
X60748310Y-112128812D01*
X60826587Y-112153267D01*
X60835560Y-112153431D01*
X60835563Y-112153432D01*
X60892790Y-112154481D01*
X60956755Y-112155653D01*
X61037237Y-112133711D01*
X61073701Y-112123770D01*
X61073703Y-112123769D01*
X61082360Y-112121409D01*
X61193306Y-112053288D01*
X61209467Y-112035434D01*
X61274644Y-111963427D01*
X61274645Y-111963426D01*
X61280672Y-111956767D01*
X61329662Y-111855653D01*
X61333522Y-111847685D01*
X61333522Y-111847684D01*
X61337437Y-111839604D01*
X61359037Y-111711219D01*
X61359174Y-111700000D01*
X61340718Y-111571125D01*
X61337003Y-111562955D01*
X61337001Y-111562947D01*
X61290800Y-111461335D01*
X61279500Y-111409183D01*
X61279500Y-110309384D01*
X61299502Y-110241263D01*
X61316405Y-110220289D01*
X63572904Y-107963790D01*
X63635216Y-107929764D01*
X63661999Y-107926885D01*
X63785830Y-107926885D01*
X63855649Y-107947998D01*
X63876427Y-107961829D01*
X64000694Y-108000652D01*
X64009667Y-108000816D01*
X64009670Y-108000817D01*
X64066897Y-108001866D01*
X64130862Y-108003038D01*
X64183024Y-107988817D01*
X64247808Y-107971155D01*
X64247810Y-107971154D01*
X64256467Y-107968794D01*
X64367413Y-107900673D01*
X64454779Y-107804152D01*
X64502498Y-107705661D01*
X64507629Y-107695070D01*
X64507629Y-107695069D01*
X64511544Y-107686989D01*
X64533144Y-107558604D01*
X64533281Y-107547385D01*
X64514825Y-107418510D01*
X64481639Y-107345521D01*
X64464655Y-107308167D01*
X64464654Y-107308165D01*
X64460939Y-107299995D01*
X64375957Y-107201368D01*
X64266708Y-107130557D01*
X64141977Y-107093255D01*
X64133001Y-107093200D01*
X64133000Y-107093200D01*
X64079785Y-107092875D01*
X64011790Y-107092459D01*
X63886612Y-107128235D01*
X63854576Y-107148448D01*
X63787343Y-107167885D01*
X63506535Y-107167885D01*
X63482587Y-107165336D01*
X63480922Y-107165257D01*
X63470739Y-107163065D01*
X63467719Y-107163422D01*
X63404677Y-107141636D01*
X63360765Y-107085849D01*
X63352993Y-107056837D01*
X63340718Y-106971125D01*
X63286832Y-106852610D01*
X63201850Y-106753983D01*
X63092601Y-106683172D01*
X62967870Y-106645870D01*
X62958894Y-106645815D01*
X62958893Y-106645815D01*
X62905678Y-106645490D01*
X62837683Y-106645074D01*
X62712505Y-106680850D01*
X62602400Y-106750321D01*
X62516219Y-106847903D01*
X62512404Y-106856028D01*
X62512403Y-106856030D01*
X62489726Y-106904332D01*
X62460890Y-106965751D01*
X62459509Y-106974621D01*
X62456884Y-106983206D01*
X62453969Y-106982315D01*
X62430221Y-107032767D01*
X62425050Y-107038256D01*
X59769784Y-109693522D01*
X59751036Y-109708664D01*
X59749811Y-109709779D01*
X59741060Y-109715429D01*
X59734613Y-109723607D01*
X59734611Y-109723609D01*
X59720271Y-109741800D01*
X59716325Y-109746241D01*
X59716398Y-109746303D01*
X59713039Y-109750267D01*
X59709362Y-109753944D01*
X59698108Y-109769692D01*
X59694602Y-109774362D01*
X59662844Y-109814647D01*
X59659812Y-109823281D01*
X59654486Y-109830734D01*
X59651501Y-109840715D01*
X59639799Y-109879844D01*
X59637964Y-109885492D01*
X59620982Y-109933851D01*
X59620500Y-109939416D01*
X59620500Y-109942124D01*
X59620386Y-109944758D01*
X59620357Y-109944856D01*
X59620193Y-109944849D01*
X59620149Y-109945553D01*
X59618287Y-109951778D01*
X59618696Y-109962183D01*
X59620403Y-110005635D01*
X59620500Y-110010582D01*
X59620500Y-111410679D01*
X59608555Y-111464227D01*
X59580736Y-111523481D01*
X59560890Y-111565751D01*
X59559509Y-111574620D01*
X59544251Y-111672613D01*
X59540860Y-111694390D01*
X58458371Y-111694390D01*
X58440718Y-111571125D01*
X58386832Y-111452610D01*
X58328203Y-111384567D01*
X58307713Y-111360787D01*
X58307712Y-111360786D01*
X58301850Y-111353983D01*
X58192601Y-111283172D01*
X58067870Y-111245870D01*
X58058894Y-111245815D01*
X58058893Y-111245815D01*
X58005678Y-111245490D01*
X57937683Y-111245074D01*
X57929051Y-111247541D01*
X57911490Y-111252560D01*
X57812505Y-111280850D01*
X57780469Y-111301063D01*
X57713236Y-111320500D01*
X56530499Y-111320500D01*
X56462378Y-111300498D01*
X56415885Y-111246842D01*
X56404499Y-111194500D01*
X56404499Y-111174934D01*
X56389734Y-111100699D01*
X56380388Y-111086711D01*
X56340377Y-111026832D01*
X56333484Y-111016516D01*
X56249301Y-110960266D01*
X56175067Y-110945500D01*
X54900207Y-110945500D01*
X53624934Y-110945501D01*
X53589182Y-110952612D01*
X53562874Y-110957844D01*
X53562872Y-110957845D01*
X53550699Y-110960266D01*
X53540379Y-110967161D01*
X53540378Y-110967162D01*
X53479985Y-111007516D01*
X53466516Y-111016516D01*
X53410266Y-111100699D01*
X53395500Y-111174933D01*
X53395501Y-111580015D01*
X53395501Y-111753638D01*
X53375499Y-111821759D01*
X53321843Y-111868252D01*
X53251570Y-111878356D01*
X53186989Y-111848863D01*
X53180406Y-111842733D01*
X51916405Y-110578733D01*
X51882380Y-110516421D01*
X51879500Y-110489638D01*
X51879500Y-109174933D01*
X53395500Y-109174933D01*
X53395501Y-110225066D01*
X53410266Y-110299301D01*
X53466516Y-110383484D01*
X53550699Y-110439734D01*
X53624933Y-110454500D01*
X54899793Y-110454500D01*
X56175066Y-110454499D01*
X56210818Y-110447388D01*
X56237126Y-110442156D01*
X56237128Y-110442155D01*
X56249301Y-110439734D01*
X56259621Y-110432839D01*
X56259622Y-110432838D01*
X56323168Y-110390377D01*
X56333484Y-110383484D01*
X56389734Y-110299301D01*
X56404500Y-110225067D01*
X56404499Y-109174934D01*
X56393671Y-109120492D01*
X56392156Y-109112874D01*
X56392155Y-109112872D01*
X56389734Y-109100699D01*
X56333484Y-109016516D01*
X56249301Y-108960266D01*
X56175067Y-108945500D01*
X54900207Y-108945500D01*
X53624934Y-108945501D01*
X53589182Y-108952612D01*
X53562874Y-108957844D01*
X53562872Y-108957845D01*
X53550699Y-108960266D01*
X53540379Y-108967161D01*
X53540378Y-108967162D01*
X53479985Y-109007516D01*
X53466516Y-109016516D01*
X53410266Y-109100699D01*
X53395500Y-109174933D01*
X51879500Y-109174933D01*
X51879500Y-108880500D01*
X51899502Y-108812379D01*
X51953158Y-108765886D01*
X52005500Y-108754500D01*
X52297756Y-108754500D01*
X52332404Y-108750736D01*
X52351597Y-108748651D01*
X52351598Y-108748651D01*
X52359448Y-108747798D01*
X52366841Y-108745026D01*
X52366843Y-108745026D01*
X52405046Y-108730704D01*
X52494764Y-108697071D01*
X52501943Y-108691691D01*
X52501946Y-108691689D01*
X52603224Y-108615785D01*
X52610404Y-108610404D01*
X52626600Y-108588794D01*
X52691689Y-108501946D01*
X52691691Y-108501943D01*
X52697071Y-108494764D01*
X52736203Y-108390377D01*
X52745026Y-108366843D01*
X52745026Y-108366841D01*
X52747798Y-108359448D01*
X52754500Y-108297756D01*
X52754500Y-107702244D01*
X52747798Y-107640552D01*
X52697071Y-107505236D01*
X52691691Y-107498057D01*
X52691689Y-107498054D01*
X52623662Y-107407286D01*
X52610404Y-107389596D01*
X52589977Y-107374287D01*
X52501946Y-107308311D01*
X52501943Y-107308309D01*
X52494764Y-107302929D01*
X52405046Y-107269296D01*
X52366843Y-107254974D01*
X52366841Y-107254974D01*
X52359448Y-107252202D01*
X52351598Y-107251349D01*
X52351597Y-107251349D01*
X52301153Y-107245869D01*
X52301152Y-107245869D01*
X52297756Y-107245500D01*
X50702244Y-107245500D01*
X50698848Y-107245869D01*
X50698847Y-107245869D01*
X50648403Y-107251349D01*
X50648402Y-107251349D01*
X50640552Y-107252202D01*
X50633159Y-107254974D01*
X50633157Y-107254974D01*
X50594954Y-107269296D01*
X50505236Y-107302929D01*
X50455563Y-107340157D01*
X50389058Y-107365003D01*
X50319676Y-107349950D01*
X50269446Y-107299775D01*
X50254000Y-107239329D01*
X50254000Y-107174933D01*
X53395500Y-107174933D01*
X53395501Y-108225066D01*
X53410266Y-108299301D01*
X53417161Y-108309620D01*
X53417162Y-108309622D01*
X53450455Y-108359448D01*
X53466516Y-108383484D01*
X53550699Y-108439734D01*
X53624933Y-108454500D01*
X54899793Y-108454500D01*
X56175066Y-108454499D01*
X56210818Y-108447388D01*
X56237126Y-108442156D01*
X56237128Y-108442155D01*
X56249301Y-108439734D01*
X56259621Y-108432839D01*
X56259622Y-108432838D01*
X56323168Y-108390377D01*
X56333484Y-108383484D01*
X56389734Y-108299301D01*
X56404500Y-108225067D01*
X56404499Y-107174934D01*
X56395161Y-107127985D01*
X56392156Y-107112874D01*
X56392155Y-107112872D01*
X56389734Y-107100699D01*
X56379812Y-107085849D01*
X56340377Y-107026832D01*
X56333484Y-107016516D01*
X56249301Y-106960266D01*
X56175067Y-106945500D01*
X54900207Y-106945500D01*
X53624934Y-106945501D01*
X53589182Y-106952612D01*
X53562874Y-106957844D01*
X53562872Y-106957845D01*
X53550699Y-106960266D01*
X53540379Y-106967161D01*
X53540378Y-106967162D01*
X53516367Y-106983206D01*
X53466516Y-107016516D01*
X53410266Y-107100699D01*
X53395500Y-107174933D01*
X50254000Y-107174933D01*
X50254000Y-103760671D01*
X50274002Y-103692550D01*
X50327658Y-103646057D01*
X50397932Y-103635953D01*
X50455563Y-103659843D01*
X50505236Y-103697071D01*
X50594954Y-103730704D01*
X50633157Y-103745026D01*
X50633159Y-103745026D01*
X50640552Y-103747798D01*
X50648402Y-103748651D01*
X50648403Y-103748651D01*
X50698847Y-103754131D01*
X50702244Y-103754500D01*
X51665615Y-103754500D01*
X51733736Y-103774502D01*
X51754710Y-103791405D01*
X51893524Y-103930219D01*
X51908661Y-103948961D01*
X51909779Y-103950190D01*
X51915429Y-103958940D01*
X51923607Y-103965387D01*
X51941799Y-103979728D01*
X51946241Y-103983676D01*
X51946303Y-103983603D01*
X51950268Y-103986963D01*
X51953943Y-103990638D01*
X51958165Y-103993655D01*
X51958171Y-103993660D01*
X51969650Y-104001862D01*
X51974399Y-104005428D01*
X52014647Y-104037156D01*
X52023284Y-104040189D01*
X52030734Y-104045513D01*
X52040710Y-104048497D01*
X52040711Y-104048497D01*
X52056046Y-104053083D01*
X52079849Y-104060202D01*
X52085486Y-104062034D01*
X52126367Y-104076390D01*
X52133851Y-104079018D01*
X52139416Y-104079500D01*
X52142124Y-104079500D01*
X52144758Y-104079614D01*
X52144856Y-104079643D01*
X52144849Y-104079807D01*
X52145553Y-104079851D01*
X52151778Y-104081713D01*
X52205635Y-104079597D01*
X52210582Y-104079500D01*
X53269501Y-104079500D01*
X53337622Y-104099502D01*
X53384115Y-104153158D01*
X53395501Y-104205500D01*
X53395501Y-104225066D01*
X53402612Y-104260818D01*
X53405884Y-104277267D01*
X53410266Y-104299301D01*
X53466516Y-104383484D01*
X53550699Y-104439734D01*
X53624933Y-104454500D01*
X54899793Y-104454500D01*
X56175066Y-104454499D01*
X56210818Y-104447388D01*
X56237126Y-104442156D01*
X56237128Y-104442155D01*
X56249301Y-104439734D01*
X56259621Y-104432839D01*
X56259622Y-104432838D01*
X56323168Y-104390377D01*
X56333484Y-104383484D01*
X56389734Y-104299301D01*
X56404500Y-104225067D01*
X56404500Y-103887641D01*
X56424502Y-103819520D01*
X56478158Y-103773027D01*
X56530500Y-103761641D01*
X62872757Y-103761641D01*
X62940878Y-103781643D01*
X62961852Y-103798546D01*
X64268711Y-105105405D01*
X64302737Y-105167717D01*
X64297672Y-105238532D01*
X64255125Y-105295368D01*
X64188605Y-105320179D01*
X64179616Y-105320500D01*
X56530499Y-105320500D01*
X56462378Y-105300498D01*
X56415885Y-105246842D01*
X56404499Y-105194500D01*
X56404499Y-105174934D01*
X56389734Y-105100699D01*
X56333484Y-105016516D01*
X56249301Y-104960266D01*
X56175067Y-104945500D01*
X54900207Y-104945500D01*
X53624934Y-104945501D01*
X53589182Y-104952612D01*
X53562874Y-104957844D01*
X53562872Y-104957845D01*
X53550699Y-104960266D01*
X53540379Y-104967161D01*
X53540378Y-104967162D01*
X53514854Y-104984217D01*
X53466516Y-105016516D01*
X53410266Y-105100699D01*
X53395500Y-105174933D01*
X53395501Y-106225066D01*
X53410266Y-106299301D01*
X53466516Y-106383484D01*
X53550699Y-106439734D01*
X53624933Y-106454500D01*
X54899793Y-106454500D01*
X56175066Y-106454499D01*
X56210818Y-106447388D01*
X56237126Y-106442156D01*
X56237128Y-106442155D01*
X56249301Y-106439734D01*
X56259621Y-106432839D01*
X56259622Y-106432838D01*
X56323168Y-106390377D01*
X56333484Y-106383484D01*
X56389734Y-106299301D01*
X56404500Y-106225067D01*
X56404500Y-106205500D01*
X56424502Y-106137379D01*
X56478158Y-106090886D01*
X56530500Y-106079500D01*
X64554898Y-106079500D01*
X64623019Y-106099502D01*
X64643993Y-106116405D01*
X66734075Y-108206487D01*
X66768101Y-108268799D01*
X66770980Y-108295582D01*
X66770980Y-109043973D01*
X66768431Y-109067921D01*
X66768352Y-109069586D01*
X66766160Y-109079769D01*
X66767384Y-109090110D01*
X66770107Y-109113116D01*
X66770457Y-109119047D01*
X66770552Y-109119039D01*
X66770980Y-109124217D01*
X66770980Y-109129417D01*
X66771834Y-109134546D01*
X66771834Y-109134549D01*
X66774149Y-109148458D01*
X66774986Y-109154336D01*
X66776706Y-109168865D01*
X66781010Y-109205234D01*
X66784973Y-109213486D01*
X66786476Y-109222519D01*
X66791423Y-109231688D01*
X66791424Y-109231690D01*
X66810814Y-109267625D01*
X66813511Y-109272918D01*
X66832265Y-109311975D01*
X66832268Y-109311979D01*
X66835699Y-109319125D01*
X66839294Y-109323401D01*
X66841217Y-109325324D01*
X66842989Y-109327256D01*
X66843032Y-109327335D01*
X66842908Y-109327448D01*
X66843384Y-109327988D01*
X66846470Y-109333707D01*
X66854115Y-109340774D01*
X66886066Y-109370309D01*
X66889632Y-109373739D01*
X67525937Y-110010044D01*
X67557766Y-110064510D01*
X67558730Y-110071883D01*
X67611163Y-110191047D01*
X67694935Y-110290705D01*
X67702403Y-110295676D01*
X67702404Y-110295677D01*
X67795839Y-110357874D01*
X67795842Y-110357875D01*
X67803309Y-110362846D01*
X67811876Y-110365522D01*
X67811877Y-110365523D01*
X67836348Y-110373168D01*
X67927576Y-110401669D01*
X67936549Y-110401833D01*
X67936552Y-110401834D01*
X68019315Y-110403351D01*
X68087057Y-110424599D01*
X68132559Y-110479098D01*
X68142132Y-110514522D01*
X68145116Y-110539736D01*
X68145466Y-110545665D01*
X68145561Y-110545657D01*
X68145989Y-110550835D01*
X68145989Y-110556035D01*
X68146843Y-110561164D01*
X68146843Y-110561167D01*
X68149158Y-110575076D01*
X68149995Y-110580954D01*
X68156019Y-110631852D01*
X68159982Y-110640104D01*
X68161485Y-110649137D01*
X68166432Y-110658306D01*
X68166433Y-110658308D01*
X68185823Y-110694243D01*
X68188520Y-110699536D01*
X68207274Y-110738593D01*
X68207277Y-110738597D01*
X68210708Y-110745743D01*
X68214303Y-110750019D01*
X68216226Y-110751942D01*
X68217998Y-110753874D01*
X68218041Y-110753953D01*
X68217917Y-110754066D01*
X68218393Y-110754606D01*
X68221479Y-110760325D01*
X68229124Y-110767392D01*
X68261075Y-110796927D01*
X68264641Y-110800357D01*
X68494500Y-111030216D01*
X68509642Y-111048964D01*
X68510757Y-111050189D01*
X68516407Y-111058940D01*
X68524585Y-111065387D01*
X68524587Y-111065389D01*
X68542778Y-111079729D01*
X68547216Y-111083673D01*
X68547278Y-111083599D01*
X68550951Y-111086711D01*
X68551397Y-111087388D01*
X68553868Y-111089584D01*
X68554922Y-111090638D01*
X68554087Y-111091473D01*
X68589995Y-111146008D01*
X68595500Y-111182845D01*
X68595500Y-111303150D01*
X68575498Y-111371271D01*
X68521842Y-111417764D01*
X68451568Y-111427868D01*
X68391493Y-111402099D01*
X68386915Y-111398490D01*
X68382480Y-111394548D01*
X68382418Y-111394621D01*
X68378454Y-111391262D01*
X68374777Y-111387585D01*
X68359029Y-111376331D01*
X68354359Y-111372825D01*
X68314074Y-111341067D01*
X68305440Y-111338035D01*
X68297987Y-111332709D01*
X68248871Y-111318020D01*
X68243229Y-111316187D01*
X68202354Y-111301833D01*
X68202353Y-111301833D01*
X68194870Y-111299205D01*
X68189305Y-111298723D01*
X68186597Y-111298723D01*
X68183963Y-111298609D01*
X68183865Y-111298580D01*
X68183872Y-111298416D01*
X68183168Y-111298372D01*
X68176943Y-111296510D01*
X68123086Y-111298626D01*
X68118139Y-111298723D01*
X63939024Y-111298723D01*
X63870492Y-111278455D01*
X63851703Y-111266277D01*
X63844171Y-111261395D01*
X63719440Y-111224093D01*
X63710464Y-111224038D01*
X63710463Y-111224038D01*
X63657248Y-111223713D01*
X63589253Y-111223297D01*
X63464075Y-111259073D01*
X63456488Y-111263860D01*
X63456486Y-111263861D01*
X63418143Y-111288054D01*
X63353970Y-111328544D01*
X63348028Y-111335272D01*
X63348027Y-111335273D01*
X63335816Y-111349100D01*
X63267789Y-111426126D01*
X63263974Y-111434251D01*
X63263973Y-111434253D01*
X63226259Y-111514582D01*
X63212460Y-111543974D01*
X63192430Y-111672613D01*
X63193594Y-111681515D01*
X63193594Y-111681518D01*
X63204465Y-111764649D01*
X63209311Y-111801704D01*
X63261744Y-111920868D01*
X63345516Y-112020526D01*
X63352984Y-112025497D01*
X63352985Y-112025498D01*
X63446420Y-112087695D01*
X63446423Y-112087696D01*
X63453890Y-112092667D01*
X63462457Y-112095343D01*
X63462458Y-112095344D01*
X63479324Y-112100613D01*
X63578157Y-112131490D01*
X63587130Y-112131654D01*
X63587133Y-112131655D01*
X63644360Y-112132704D01*
X63708325Y-112133876D01*
X63754053Y-112121409D01*
X63825268Y-112101994D01*
X63825271Y-112101993D01*
X63833930Y-112099632D01*
X63841580Y-112094935D01*
X63841582Y-112094934D01*
X63871852Y-112076348D01*
X63937780Y-112057723D01*
X67897088Y-112057723D01*
X67965209Y-112077725D01*
X68012417Y-112132977D01*
X68057056Y-112234427D01*
X68060672Y-112242645D01*
X68144444Y-112342303D01*
X68151912Y-112347274D01*
X68151913Y-112347275D01*
X68245348Y-112409472D01*
X68245351Y-112409473D01*
X68252818Y-112414444D01*
X68261385Y-112417120D01*
X68261386Y-112417121D01*
X68308255Y-112431763D01*
X68377085Y-112453267D01*
X68386058Y-112453431D01*
X68386061Y-112453432D01*
X68443288Y-112454481D01*
X68507253Y-112455653D01*
X68632858Y-112421409D01*
X68633256Y-112422870D01*
X68693952Y-112415377D01*
X68728528Y-112429024D01*
X68728915Y-112428090D01*
X68740381Y-112432840D01*
X68750699Y-112439734D01*
X68762868Y-112442155D01*
X68762869Y-112442155D01*
X68805271Y-112450589D01*
X68824933Y-112454500D01*
X70099793Y-112454500D01*
X71375066Y-112454499D01*
X71410818Y-112447388D01*
X71437126Y-112442156D01*
X71437128Y-112442155D01*
X71449301Y-112439734D01*
X71459621Y-112432839D01*
X71459622Y-112432838D01*
X71523168Y-112390377D01*
X71533484Y-112383484D01*
X71589734Y-112299301D01*
X71604500Y-112225067D01*
X71604499Y-111345563D01*
X71624501Y-111277442D01*
X71678157Y-111230949D01*
X71697351Y-111224002D01*
X71706860Y-111221409D01*
X71762995Y-111186942D01*
X71831513Y-111168344D01*
X71899208Y-111189741D01*
X71944589Y-111244341D01*
X71953424Y-111313701D01*
X71948463Y-111345563D01*
X71942390Y-111384567D01*
X71940860Y-111394390D01*
X71942024Y-111403292D01*
X71942024Y-111403295D01*
X71948473Y-111452610D01*
X71957741Y-111523481D01*
X72010174Y-111642645D01*
X72093946Y-111742303D01*
X72101414Y-111747274D01*
X72101415Y-111747275D01*
X72194850Y-111809472D01*
X72194853Y-111809473D01*
X72202320Y-111814444D01*
X72210887Y-111817120D01*
X72210888Y-111817121D01*
X72225734Y-111821759D01*
X72326587Y-111853267D01*
X72335560Y-111853431D01*
X72335563Y-111853432D01*
X72392790Y-111854481D01*
X72456755Y-111855653D01*
X72544628Y-111831696D01*
X72573701Y-111823770D01*
X72573703Y-111823769D01*
X72582360Y-111821409D01*
X72693306Y-111753288D01*
X72709467Y-111735434D01*
X72774644Y-111663427D01*
X72774645Y-111663426D01*
X72780672Y-111656767D01*
X72823226Y-111568937D01*
X72833522Y-111547685D01*
X72833522Y-111547684D01*
X72837437Y-111539604D01*
X72859037Y-111411219D01*
X72859174Y-111400000D01*
X72840718Y-111271125D01*
X72837003Y-111262955D01*
X72837001Y-111262947D01*
X72790800Y-111161335D01*
X72779500Y-111109183D01*
X72779500Y-109654898D01*
X72782049Y-109630951D01*
X72782128Y-109629285D01*
X72784320Y-109619102D01*
X72783096Y-109608760D01*
X72783096Y-109608757D01*
X72780374Y-109585765D01*
X72780023Y-109579824D01*
X72779928Y-109579832D01*
X72779500Y-109574652D01*
X72779500Y-109569454D01*
X72776329Y-109550402D01*
X72775492Y-109544525D01*
X72770693Y-109503975D01*
X72770692Y-109503973D01*
X72769469Y-109493637D01*
X72765508Y-109485388D01*
X72764004Y-109476352D01*
X72759056Y-109467181D01*
X72739652Y-109431218D01*
X72736957Y-109425929D01*
X72718213Y-109386896D01*
X72714780Y-109379746D01*
X72711186Y-109375470D01*
X72710615Y-109374899D01*
X72690594Y-109307243D01*
X72710452Y-109239080D01*
X72723179Y-109222421D01*
X72726888Y-109218324D01*
X72766163Y-109174933D01*
X72795033Y-109143038D01*
X72795034Y-109143037D01*
X72801061Y-109136378D01*
X72812332Y-109113116D01*
X72853911Y-109027296D01*
X72853911Y-109027295D01*
X72857826Y-109019215D01*
X72879426Y-108890830D01*
X72879563Y-108879611D01*
X72861107Y-108750736D01*
X72857392Y-108742566D01*
X72857390Y-108742558D01*
X72811189Y-108640946D01*
X72799889Y-108588794D01*
X72799889Y-107675292D01*
X72802439Y-107651334D01*
X72802517Y-107649675D01*
X72804710Y-107639491D01*
X72803486Y-107629149D01*
X72803486Y-107629146D01*
X72800763Y-107606146D01*
X72800413Y-107600215D01*
X72800317Y-107600223D01*
X72799889Y-107595047D01*
X72799889Y-107589843D01*
X72796716Y-107570779D01*
X72795885Y-107564933D01*
X72793808Y-107547385D01*
X72789859Y-107514026D01*
X72785896Y-107505774D01*
X72784393Y-107496741D01*
X72760054Y-107451633D01*
X72757358Y-107446342D01*
X72738604Y-107407286D01*
X72738603Y-107407285D01*
X72735170Y-107400135D01*
X72731576Y-107395860D01*
X72729651Y-107393935D01*
X72727880Y-107392005D01*
X72727834Y-107391920D01*
X72727957Y-107391808D01*
X72727485Y-107391273D01*
X72724399Y-107385553D01*
X72684802Y-107348950D01*
X72681237Y-107345521D01*
X71641405Y-106305689D01*
X71607379Y-106243377D01*
X71604500Y-106216594D01*
X71604499Y-105181123D01*
X71604499Y-105174934D01*
X71589734Y-105100699D01*
X71533484Y-105016516D01*
X71485144Y-104984216D01*
X71439617Y-104929740D01*
X71430769Y-104859297D01*
X71434058Y-104845550D01*
X71436939Y-104839604D01*
X71458539Y-104711219D01*
X71458676Y-104700000D01*
X71440220Y-104571125D01*
X71436506Y-104562957D01*
X71434407Y-104555778D01*
X71434487Y-104484782D01*
X71472939Y-104425099D01*
X71485335Y-104415656D01*
X71533484Y-104383484D01*
X71589734Y-104299301D01*
X71604500Y-104225067D01*
X71604499Y-103174934D01*
X71599655Y-103150579D01*
X71605984Y-103079865D01*
X71649540Y-103023799D01*
X71723234Y-103000000D01*
X74620000Y-103000000D01*
X74688121Y-103020002D01*
G37*
%TD.AperFunction*%
%TA.AperFunction,Conductor*%
G36*
X51062621Y-109020002D02*
G01*
X51109114Y-109073658D01*
X51120500Y-109126000D01*
X51120500Y-110645102D01*
X51117951Y-110669050D01*
X51117872Y-110670715D01*
X51115680Y-110680898D01*
X51116904Y-110691239D01*
X51119627Y-110714245D01*
X51119977Y-110720176D01*
X51120072Y-110720168D01*
X51120500Y-110725346D01*
X51120500Y-110730546D01*
X51121354Y-110735675D01*
X51121354Y-110735678D01*
X51123669Y-110749587D01*
X51124506Y-110755465D01*
X51130530Y-110806363D01*
X51134493Y-110814615D01*
X51135996Y-110823648D01*
X51140943Y-110832817D01*
X51140944Y-110832819D01*
X51160334Y-110868754D01*
X51163031Y-110874047D01*
X51181785Y-110913104D01*
X51181788Y-110913108D01*
X51185219Y-110920254D01*
X51188814Y-110924530D01*
X51190737Y-110926453D01*
X51192509Y-110928385D01*
X51192552Y-110928464D01*
X51192428Y-110928577D01*
X51192904Y-110929117D01*
X51195990Y-110934836D01*
X51203635Y-110941903D01*
X51235586Y-110971438D01*
X51239152Y-110974868D01*
X51963095Y-111698811D01*
X51997121Y-111761123D01*
X52000000Y-111787906D01*
X52000000Y-111866000D01*
X51979998Y-111934121D01*
X51926342Y-111980614D01*
X51874000Y-111992000D01*
X51772115Y-111992000D01*
X51756876Y-111996475D01*
X51755671Y-111997865D01*
X51754000Y-112005548D01*
X51754000Y-113989884D01*
X51758475Y-114005123D01*
X51759865Y-114006328D01*
X51767548Y-114007999D01*
X51874000Y-114007999D01*
X51942121Y-114028001D01*
X51988614Y-114081657D01*
X52000000Y-114133999D01*
X52000000Y-114874000D01*
X51979998Y-114942121D01*
X51926342Y-114988614D01*
X51874000Y-115000000D01*
X50380000Y-115000000D01*
X50311879Y-114979998D01*
X50265386Y-114926342D01*
X50254000Y-114874000D01*
X50254000Y-114057611D01*
X50274002Y-113989490D01*
X50327658Y-113942997D01*
X50397932Y-113932893D01*
X50427464Y-113941692D01*
X50427475Y-113941658D01*
X50428576Y-113942023D01*
X50433244Y-113943414D01*
X50434415Y-113943960D01*
X50588710Y-113995138D01*
X50602086Y-113998005D01*
X50696438Y-114007672D01*
X50702854Y-114008000D01*
X51227885Y-114008000D01*
X51243124Y-114003525D01*
X51244329Y-114002135D01*
X51246000Y-113994452D01*
X51246000Y-112010116D01*
X51241525Y-111994877D01*
X51240135Y-111993672D01*
X51232452Y-111992001D01*
X50702905Y-111992001D01*
X50696386Y-111992338D01*
X50600794Y-112002257D01*
X50587400Y-112005149D01*
X50426268Y-112058906D01*
X50425848Y-112057646D01*
X50363273Y-112067261D01*
X50298410Y-112038392D01*
X50259452Y-111979039D01*
X50254000Y-111942376D01*
X50254000Y-109126000D01*
X50274002Y-109057879D01*
X50327658Y-109011386D01*
X50380000Y-109000000D01*
X50994500Y-109000000D01*
X51062621Y-109020002D01*
G37*
%TD.AperFunction*%
%TA.AperFunction,Conductor*%
G36*
X58687622Y-119520002D02*
G01*
X58734115Y-119573658D01*
X58745501Y-119625999D01*
X58745501Y-120125066D01*
X58749579Y-120145569D01*
X58754468Y-120170148D01*
X58760266Y-120199301D01*
X58816516Y-120283484D01*
X58900699Y-120339734D01*
X58974933Y-120354500D01*
X59499915Y-120354500D01*
X60025066Y-120354499D01*
X60060818Y-120347388D01*
X60087126Y-120342156D01*
X60087128Y-120342155D01*
X60099301Y-120339734D01*
X60109621Y-120332839D01*
X60109622Y-120332838D01*
X60173168Y-120290377D01*
X60183484Y-120283484D01*
X60239734Y-120199301D01*
X60254500Y-120125067D01*
X60254500Y-119626000D01*
X60274502Y-119557879D01*
X60328158Y-119511386D01*
X60380500Y-119500000D01*
X60619501Y-119500000D01*
X60687622Y-119520002D01*
X60734115Y-119573658D01*
X60745501Y-119625999D01*
X60745501Y-120125066D01*
X60749579Y-120145569D01*
X60754468Y-120170148D01*
X60760266Y-120199301D01*
X60816516Y-120283484D01*
X60900699Y-120339734D01*
X60974933Y-120354500D01*
X61499915Y-120354500D01*
X62025066Y-120354499D01*
X62060818Y-120347388D01*
X62087126Y-120342156D01*
X62087128Y-120342155D01*
X62099301Y-120339734D01*
X62109621Y-120332839D01*
X62109622Y-120332838D01*
X62173168Y-120290377D01*
X62183484Y-120283484D01*
X62239734Y-120199301D01*
X62254500Y-120125067D01*
X62254500Y-119626000D01*
X62274502Y-119557879D01*
X62328158Y-119511386D01*
X62380500Y-119500000D01*
X62619501Y-119500000D01*
X62687622Y-119520002D01*
X62734115Y-119573658D01*
X62745501Y-119625999D01*
X62745501Y-120125066D01*
X62749579Y-120145569D01*
X62754468Y-120170148D01*
X62760266Y-120199301D01*
X62816516Y-120283484D01*
X62900699Y-120339734D01*
X62974933Y-120354500D01*
X63499915Y-120354500D01*
X64025066Y-120354499D01*
X64060818Y-120347388D01*
X64087126Y-120342156D01*
X64087128Y-120342155D01*
X64099301Y-120339734D01*
X64109621Y-120332839D01*
X64109622Y-120332838D01*
X64173168Y-120290377D01*
X64183484Y-120283484D01*
X64239734Y-120199301D01*
X64254500Y-120125067D01*
X64254500Y-119626000D01*
X64274502Y-119557879D01*
X64328158Y-119511386D01*
X64380500Y-119500000D01*
X64619501Y-119500000D01*
X64687622Y-119520002D01*
X64734115Y-119573658D01*
X64745501Y-119625999D01*
X64745501Y-120125066D01*
X64749579Y-120145569D01*
X64754468Y-120170148D01*
X64760266Y-120199301D01*
X64816516Y-120283484D01*
X64900699Y-120339734D01*
X64974933Y-120354500D01*
X65499915Y-120354500D01*
X66025066Y-120354499D01*
X66060818Y-120347388D01*
X66087126Y-120342156D01*
X66087128Y-120342155D01*
X66099301Y-120339734D01*
X66109621Y-120332839D01*
X66109622Y-120332838D01*
X66173168Y-120290377D01*
X66183484Y-120283484D01*
X66239734Y-120199301D01*
X66254500Y-120125067D01*
X66254500Y-119626000D01*
X66274502Y-119557879D01*
X66328158Y-119511386D01*
X66380500Y-119500000D01*
X66619501Y-119500000D01*
X66687622Y-119520002D01*
X66734115Y-119573658D01*
X66745501Y-119625999D01*
X66745501Y-120125066D01*
X66749579Y-120145569D01*
X66754468Y-120170148D01*
X66760266Y-120199301D01*
X66816516Y-120283484D01*
X66900699Y-120339734D01*
X66974933Y-120354500D01*
X67013261Y-120354500D01*
X67081382Y-120374502D01*
X67127875Y-120428158D01*
X67137761Y-120499885D01*
X67123271Y-120592945D01*
X67124435Y-120601847D01*
X67124435Y-120601850D01*
X67131103Y-120652838D01*
X67140152Y-120722036D01*
X67192585Y-120841200D01*
X67276357Y-120940858D01*
X67283831Y-120945833D01*
X67285891Y-120947675D01*
X67323343Y-121007990D01*
X67327910Y-121041607D01*
X67327910Y-122400360D01*
X67307908Y-122468481D01*
X67291006Y-122489455D01*
X66896867Y-122883595D01*
X66834554Y-122917620D01*
X66807771Y-122920500D01*
X64676257Y-122920500D01*
X64656463Y-122918394D01*
X64652110Y-122918189D01*
X64641930Y-122915997D01*
X64611260Y-122919627D01*
X64605917Y-122919942D01*
X64605928Y-122920072D01*
X64600748Y-122920500D01*
X64595549Y-122920500D01*
X64590425Y-122921353D01*
X64590412Y-122921354D01*
X64577959Y-122923427D01*
X64572084Y-122924264D01*
X64535071Y-122928645D01*
X64524730Y-122929869D01*
X64517022Y-122933570D01*
X64508583Y-122934975D01*
X64466599Y-122957629D01*
X64461336Y-122960310D01*
X64418670Y-122980797D01*
X64418668Y-122980798D01*
X64418342Y-122980955D01*
X64418317Y-122980902D01*
X64353535Y-123000000D01*
X60500000Y-123000000D01*
X60500000Y-127522705D01*
X60479998Y-127590826D01*
X60457077Y-127617437D01*
X60439738Y-127632643D01*
X60439734Y-127632647D01*
X60435392Y-127636455D01*
X60309720Y-127795869D01*
X60307031Y-127800980D01*
X60307029Y-127800983D01*
X60295507Y-127822883D01*
X60246087Y-127873856D01*
X60176955Y-127890018D01*
X60110059Y-127866239D01*
X60066638Y-127810068D01*
X60057999Y-127764215D01*
X60057999Y-127505331D01*
X60057629Y-127498510D01*
X60052105Y-127447648D01*
X60048479Y-127432396D01*
X60003324Y-127311946D01*
X59994786Y-127296351D01*
X59918285Y-127194276D01*
X59905724Y-127181715D01*
X59803649Y-127105214D01*
X59788054Y-127096676D01*
X59667606Y-127051522D01*
X59652351Y-127047895D01*
X59601486Y-127042369D01*
X59594672Y-127042000D01*
X58972115Y-127042000D01*
X58956876Y-127046475D01*
X58955671Y-127047865D01*
X58954000Y-127055548D01*
X58954000Y-128528000D01*
X58933998Y-128596121D01*
X58880342Y-128642614D01*
X58828000Y-128654000D01*
X57360116Y-128654000D01*
X57344877Y-128658475D01*
X57343672Y-128659865D01*
X57342001Y-128667548D01*
X57342001Y-129294669D01*
X57342371Y-129301490D01*
X57347895Y-129352352D01*
X57351521Y-129367604D01*
X57396676Y-129488054D01*
X57405214Y-129503648D01*
X57435782Y-129544435D01*
X57460630Y-129610941D01*
X57445577Y-129680324D01*
X57395403Y-129730554D01*
X57334956Y-129746000D01*
X56626000Y-129746000D01*
X56557879Y-129725998D01*
X56511386Y-129672342D01*
X56500000Y-129620000D01*
X56500000Y-128127885D01*
X57342000Y-128127885D01*
X57346475Y-128143124D01*
X57347865Y-128144329D01*
X57355548Y-128146000D01*
X58427885Y-128146000D01*
X58443124Y-128141525D01*
X58444329Y-128140135D01*
X58446000Y-128132452D01*
X58446000Y-127060116D01*
X58441525Y-127044877D01*
X58440135Y-127043672D01*
X58432452Y-127042001D01*
X57805331Y-127042001D01*
X57798510Y-127042371D01*
X57747648Y-127047895D01*
X57732396Y-127051521D01*
X57611946Y-127096676D01*
X57596351Y-127105214D01*
X57494276Y-127181715D01*
X57481715Y-127194276D01*
X57405214Y-127296351D01*
X57396676Y-127311946D01*
X57351522Y-127432394D01*
X57347895Y-127447649D01*
X57342369Y-127498514D01*
X57342000Y-127505328D01*
X57342000Y-128127885D01*
X56500000Y-128127885D01*
X56500000Y-120170148D01*
X56520002Y-120102027D01*
X56573658Y-120055534D01*
X56643932Y-120045430D01*
X56708512Y-120074924D01*
X56746896Y-120134650D01*
X56749579Y-120145569D01*
X56754468Y-120170148D01*
X56760266Y-120199301D01*
X56816516Y-120283484D01*
X56900699Y-120339734D01*
X56974933Y-120354500D01*
X57499915Y-120354500D01*
X58025066Y-120354499D01*
X58060818Y-120347388D01*
X58087126Y-120342156D01*
X58087128Y-120342155D01*
X58099301Y-120339734D01*
X58109621Y-120332839D01*
X58109622Y-120332838D01*
X58173168Y-120290377D01*
X58183484Y-120283484D01*
X58239734Y-120199301D01*
X58254500Y-120125067D01*
X58254500Y-119626000D01*
X58274502Y-119557879D01*
X58328158Y-119511386D01*
X58380500Y-119500000D01*
X58619501Y-119500000D01*
X58687622Y-119520002D01*
G37*
%TD.AperFunction*%
%TA.AperFunction,Conductor*%
G36*
X71442121Y-116520002D02*
G01*
X71488614Y-116573658D01*
X71500000Y-116626000D01*
X71500000Y-124124000D01*
X71479998Y-124192121D01*
X71426342Y-124238614D01*
X71374000Y-124250000D01*
X68376000Y-124250000D01*
X68307879Y-124229998D01*
X68261386Y-124176342D01*
X68250000Y-124124000D01*
X68250000Y-123221729D01*
X68270002Y-123153608D01*
X68286905Y-123132634D01*
X68346835Y-123072704D01*
X68362321Y-123060196D01*
X68365546Y-123057262D01*
X68374294Y-123051613D01*
X68393415Y-123027358D01*
X68396971Y-123023357D01*
X68396871Y-123023272D01*
X68400224Y-123019315D01*
X68403906Y-123015633D01*
X68414294Y-123001097D01*
X68417813Y-122996410D01*
X68447358Y-122958931D01*
X68450191Y-122950863D01*
X68455165Y-122943903D01*
X68468832Y-122898202D01*
X68470668Y-122892553D01*
X68483836Y-122855057D01*
X68486462Y-122847580D01*
X68486912Y-122842384D01*
X68486912Y-122839679D01*
X68487009Y-122837423D01*
X68487152Y-122836947D01*
X68487198Y-122836949D01*
X68487211Y-122836750D01*
X68488980Y-122830833D01*
X68487009Y-122780664D01*
X68486912Y-122775718D01*
X68486912Y-120811932D01*
X68506914Y-120743811D01*
X68546984Y-120704557D01*
X68636062Y-120649863D01*
X68636063Y-120649862D01*
X68643713Y-120645165D01*
X68731079Y-120548644D01*
X68775039Y-120457912D01*
X68783929Y-120439562D01*
X68783929Y-120439561D01*
X68787844Y-120431481D01*
X68809444Y-120303096D01*
X68809581Y-120291877D01*
X68791125Y-120163002D01*
X68737239Y-120044487D01*
X68652257Y-119945860D01*
X68543008Y-119875049D01*
X68418277Y-119837747D01*
X68409300Y-119837692D01*
X68409299Y-119837692D01*
X68379729Y-119837511D01*
X68311732Y-119817092D01*
X68265568Y-119763153D01*
X68254500Y-119711513D01*
X68254499Y-118643922D01*
X68274501Y-118575801D01*
X68328157Y-118529308D01*
X68376393Y-118519277D01*
X68376371Y-118519098D01*
X68378577Y-118518823D01*
X68382809Y-118517943D01*
X68394255Y-118518153D01*
X68446417Y-118503932D01*
X68511201Y-118486270D01*
X68511203Y-118486269D01*
X68519860Y-118483909D01*
X68630806Y-118415788D01*
X68718172Y-118319267D01*
X68774937Y-118202104D01*
X68796537Y-118073719D01*
X68796674Y-118062500D01*
X68778218Y-117933625D01*
X68724332Y-117815110D01*
X68639350Y-117716483D01*
X68530101Y-117645672D01*
X68405370Y-117608370D01*
X68396394Y-117608315D01*
X68396393Y-117608315D01*
X68390317Y-117608278D01*
X68375230Y-117608186D01*
X68307233Y-117587768D01*
X68261069Y-117533830D01*
X68250000Y-117482188D01*
X68250000Y-116626000D01*
X68270002Y-116557879D01*
X68323658Y-116511386D01*
X68376000Y-116500000D01*
X71374000Y-116500000D01*
X71442121Y-116520002D01*
G37*
%TD.AperFunction*%
M02*
