M48
; DRILL file {KiCad (6.0.0-0)} date Thursday, 20 October 2022 at 03:52:43 pm
; FORMAT={-:-/ absolute / metric / decimal}
; #@! TF.CreationDate,2022-10-20T15:52:43+11:00
; #@! TF.GenerationSoftware,Kicad,Pcbnew,(6.0.0-0)
; #@! TF.FileFunction,Plated,1,2,PTH
FMAT,2
METRIC
; #@! TA.AperFunction,Plated,PTH,ViaDrill
T1C0.200
; #@! TA.AperFunction,Plated,PTH,ComponentDrill
T2C0.750
; #@! TA.AperFunction,Plated,PTH,ComponentDrill
T3C1.000
%
G90
G05
T1
X50.75Y-109.5
X50.75Y-110.25
X50.75Y-111.0
X52.54Y-102.169
X52.9Y-105.65
X55.25Y-119.05
X58.0Y-111.7
X58.0Y-113.3
X58.5Y-116.225
X60.0Y-111.7
X60.75Y-117.35
X60.9Y-111.7
X61.0Y-121.0
X61.0Y-122.0
X62.389Y-118.011
X62.9Y-107.1
X63.652Y-111.678
X64.074Y-107.547
X65.0Y-121.0
X65.0Y-122.0
X65.15Y-124.45
X66.0Y-117.7
X66.0Y-121.0
X66.0Y-122.0
X66.4Y-115.0
X66.584Y-117.254
X66.93Y-115.53
X67.0Y-121.0
X67.0Y-122.0
X67.089Y-106.0
X67.582Y-120.599
X68.001Y-109.948
X68.2Y-107.7
X68.2Y-108.5
X68.337Y-118.062
X68.35Y-120.292
X68.4Y-112.8
X68.45Y-112.0
X68.5Y-103.7
X69.0Y-121.5
X69.0Y-122.5
X69.475Y-117.7
X69.5Y-126.1
X70.0Y-121.5
X70.0Y-122.5
X70.717Y-109.507
X71.0Y-104.7
X71.0Y-121.5
X71.0Y-122.5
X71.525Y-110.8
X72.2Y-103.7
X72.4Y-111.4
X72.42Y-108.88
X72.5Y-113.9
X72.5Y-115.5
X74.0Y-117.7
T2
X52.0Y-123.55
X54.0Y-123.55
T3
X58.7Y-128.4
X61.24Y-128.4
X63.78Y-128.4
X66.32Y-128.4
T0
M30
