G04 #@! TF.GenerationSoftware,KiCad,Pcbnew,(5.1.10)-1*
G04 #@! TF.CreationDate,2021-12-14T19:18:36+11:00*
G04 #@! TF.ProjectId,WLED_Controller,574c4544-5f43-46f6-9e74-726f6c6c6572,1.0*
G04 #@! TF.SameCoordinates,Original*
G04 #@! TF.FileFunction,Paste,Top*
G04 #@! TF.FilePolarity,Positive*
%FSLAX46Y46*%
G04 Gerber Fmt 4.6, Leading zero omitted, Abs format (unit mm)*
G04 Created by KiCad (PCBNEW (5.1.10)-1) date 2021-12-14 19:18:36*
%MOMM*%
%LPD*%
G01*
G04 APERTURE LIST*
%ADD10R,0.900000X0.800000*%
%ADD11R,2.413000X3.302000*%
%ADD12R,2.500000X1.000000*%
%ADD13R,1.000000X1.800000*%
%ADD14R,3.302000X2.413000*%
%ADD15R,1.500000X2.000000*%
%ADD16R,3.800000X2.000000*%
%ADD17R,2.000000X1.500000*%
%ADD18R,2.000000X3.800000*%
%ADD19R,1.700000X0.900000*%
%ADD20R,10.000000X5.000000*%
%ADD21R,1.900000X1.000000*%
%ADD22R,1.900000X1.800000*%
%ADD23R,1.300000X1.650000*%
%ADD24R,1.550000X1.425000*%
%ADD25R,1.380000X0.450000*%
G04 APERTURE END LIST*
G36*
G01*
X161150000Y-101950001D02*
X161150000Y-101049999D01*
G75*
G02*
X161399999Y-100800000I249999J0D01*
G01*
X161925001Y-100800000D01*
G75*
G02*
X162175000Y-101049999I0J-249999D01*
G01*
X162175000Y-101950001D01*
G75*
G02*
X161925001Y-102200000I-249999J0D01*
G01*
X161399999Y-102200000D01*
G75*
G02*
X161150000Y-101950001I0J249999D01*
G01*
G37*
G36*
G01*
X159325000Y-101950001D02*
X159325000Y-101049999D01*
G75*
G02*
X159574999Y-100800000I249999J0D01*
G01*
X160100001Y-100800000D01*
G75*
G02*
X160350000Y-101049999I0J-249999D01*
G01*
X160350000Y-101950001D01*
G75*
G02*
X160100001Y-102200000I-249999J0D01*
G01*
X159574999Y-102200000D01*
G75*
G02*
X159325000Y-101950001I0J249999D01*
G01*
G37*
G36*
G01*
X164799999Y-94900000D02*
X165700001Y-94900000D01*
G75*
G02*
X165950000Y-95149999I0J-249999D01*
G01*
X165950000Y-95675001D01*
G75*
G02*
X165700001Y-95925000I-249999J0D01*
G01*
X164799999Y-95925000D01*
G75*
G02*
X164550000Y-95675001I0J249999D01*
G01*
X164550000Y-95149999D01*
G75*
G02*
X164799999Y-94900000I249999J0D01*
G01*
G37*
G36*
G01*
X164799999Y-93075000D02*
X165700001Y-93075000D01*
G75*
G02*
X165950000Y-93324999I0J-249999D01*
G01*
X165950000Y-93850001D01*
G75*
G02*
X165700001Y-94100000I-249999J0D01*
G01*
X164799999Y-94100000D01*
G75*
G02*
X164550000Y-93850001I0J249999D01*
G01*
X164550000Y-93324999D01*
G75*
G02*
X164799999Y-93075000I249999J0D01*
G01*
G37*
G36*
G01*
X157400000Y-101950001D02*
X157400000Y-101049999D01*
G75*
G02*
X157649999Y-100800000I249999J0D01*
G01*
X158175001Y-100800000D01*
G75*
G02*
X158425000Y-101049999I0J-249999D01*
G01*
X158425000Y-101950001D01*
G75*
G02*
X158175001Y-102200000I-249999J0D01*
G01*
X157649999Y-102200000D01*
G75*
G02*
X157400000Y-101950001I0J249999D01*
G01*
G37*
G36*
G01*
X155575000Y-101950001D02*
X155575000Y-101049999D01*
G75*
G02*
X155824999Y-100800000I249999J0D01*
G01*
X156350001Y-100800000D01*
G75*
G02*
X156600000Y-101049999I0J-249999D01*
G01*
X156600000Y-101950001D01*
G75*
G02*
X156350001Y-102200000I-249999J0D01*
G01*
X155824999Y-102200000D01*
G75*
G02*
X155575000Y-101950001I0J249999D01*
G01*
G37*
G36*
G01*
X155799999Y-94900000D02*
X156700001Y-94900000D01*
G75*
G02*
X156950000Y-95149999I0J-249999D01*
G01*
X156950000Y-95675001D01*
G75*
G02*
X156700001Y-95925000I-249999J0D01*
G01*
X155799999Y-95925000D01*
G75*
G02*
X155550000Y-95675001I0J249999D01*
G01*
X155550000Y-95149999D01*
G75*
G02*
X155799999Y-94900000I249999J0D01*
G01*
G37*
G36*
G01*
X155799999Y-93075000D02*
X156700001Y-93075000D01*
G75*
G02*
X156950000Y-93324999I0J-249999D01*
G01*
X156950000Y-93850001D01*
G75*
G02*
X156700001Y-94100000I-249999J0D01*
G01*
X155799999Y-94100000D01*
G75*
G02*
X155550000Y-93850001I0J249999D01*
G01*
X155550000Y-93324999D01*
G75*
G02*
X155799999Y-93075000I249999J0D01*
G01*
G37*
D10*
X161750000Y-98500000D03*
X159750000Y-99450000D03*
X159750000Y-97550000D03*
X158000000Y-98500000D03*
X156000000Y-99450000D03*
X156000000Y-97550000D03*
D11*
X149500000Y-119500000D03*
G36*
G01*
X151300000Y-117745000D02*
X151300000Y-117445000D01*
G75*
G02*
X151450000Y-117295000I150000J0D01*
G01*
X152800000Y-117295000D01*
G75*
G02*
X152950000Y-117445000I0J-150000D01*
G01*
X152950000Y-117745000D01*
G75*
G02*
X152800000Y-117895000I-150000J0D01*
G01*
X151450000Y-117895000D01*
G75*
G02*
X151300000Y-117745000I0J150000D01*
G01*
G37*
G36*
G01*
X151300000Y-119015000D02*
X151300000Y-118715000D01*
G75*
G02*
X151450000Y-118565000I150000J0D01*
G01*
X152800000Y-118565000D01*
G75*
G02*
X152950000Y-118715000I0J-150000D01*
G01*
X152950000Y-119015000D01*
G75*
G02*
X152800000Y-119165000I-150000J0D01*
G01*
X151450000Y-119165000D01*
G75*
G02*
X151300000Y-119015000I0J150000D01*
G01*
G37*
G36*
G01*
X151300000Y-120285000D02*
X151300000Y-119985000D01*
G75*
G02*
X151450000Y-119835000I150000J0D01*
G01*
X152800000Y-119835000D01*
G75*
G02*
X152950000Y-119985000I0J-150000D01*
G01*
X152950000Y-120285000D01*
G75*
G02*
X152800000Y-120435000I-150000J0D01*
G01*
X151450000Y-120435000D01*
G75*
G02*
X151300000Y-120285000I0J150000D01*
G01*
G37*
G36*
G01*
X151300000Y-121555000D02*
X151300000Y-121255000D01*
G75*
G02*
X151450000Y-121105000I150000J0D01*
G01*
X152800000Y-121105000D01*
G75*
G02*
X152950000Y-121255000I0J-150000D01*
G01*
X152950000Y-121555000D01*
G75*
G02*
X152800000Y-121705000I-150000J0D01*
G01*
X151450000Y-121705000D01*
G75*
G02*
X151300000Y-121555000I0J150000D01*
G01*
G37*
G36*
G01*
X146050000Y-121555000D02*
X146050000Y-121255000D01*
G75*
G02*
X146200000Y-121105000I150000J0D01*
G01*
X147550000Y-121105000D01*
G75*
G02*
X147700000Y-121255000I0J-150000D01*
G01*
X147700000Y-121555000D01*
G75*
G02*
X147550000Y-121705000I-150000J0D01*
G01*
X146200000Y-121705000D01*
G75*
G02*
X146050000Y-121555000I0J150000D01*
G01*
G37*
G36*
G01*
X146050000Y-120285000D02*
X146050000Y-119985000D01*
G75*
G02*
X146200000Y-119835000I150000J0D01*
G01*
X147550000Y-119835000D01*
G75*
G02*
X147700000Y-119985000I0J-150000D01*
G01*
X147700000Y-120285000D01*
G75*
G02*
X147550000Y-120435000I-150000J0D01*
G01*
X146200000Y-120435000D01*
G75*
G02*
X146050000Y-120285000I0J150000D01*
G01*
G37*
G36*
G01*
X146050000Y-119015000D02*
X146050000Y-118715000D01*
G75*
G02*
X146200000Y-118565000I150000J0D01*
G01*
X147550000Y-118565000D01*
G75*
G02*
X147700000Y-118715000I0J-150000D01*
G01*
X147700000Y-119015000D01*
G75*
G02*
X147550000Y-119165000I-150000J0D01*
G01*
X146200000Y-119165000D01*
G75*
G02*
X146050000Y-119015000I0J150000D01*
G01*
G37*
G36*
G01*
X146050000Y-117745000D02*
X146050000Y-117445000D01*
G75*
G02*
X146200000Y-117295000I150000J0D01*
G01*
X147550000Y-117295000D01*
G75*
G02*
X147700000Y-117445000I0J-150000D01*
G01*
X147700000Y-117745000D01*
G75*
G02*
X147550000Y-117895000I-150000J0D01*
G01*
X146200000Y-117895000D01*
G75*
G02*
X146050000Y-117745000I0J150000D01*
G01*
G37*
X149500000Y-112500000D03*
G36*
G01*
X151300000Y-110745000D02*
X151300000Y-110445000D01*
G75*
G02*
X151450000Y-110295000I150000J0D01*
G01*
X152800000Y-110295000D01*
G75*
G02*
X152950000Y-110445000I0J-150000D01*
G01*
X152950000Y-110745000D01*
G75*
G02*
X152800000Y-110895000I-150000J0D01*
G01*
X151450000Y-110895000D01*
G75*
G02*
X151300000Y-110745000I0J150000D01*
G01*
G37*
G36*
G01*
X151300000Y-112015000D02*
X151300000Y-111715000D01*
G75*
G02*
X151450000Y-111565000I150000J0D01*
G01*
X152800000Y-111565000D01*
G75*
G02*
X152950000Y-111715000I0J-150000D01*
G01*
X152950000Y-112015000D01*
G75*
G02*
X152800000Y-112165000I-150000J0D01*
G01*
X151450000Y-112165000D01*
G75*
G02*
X151300000Y-112015000I0J150000D01*
G01*
G37*
G36*
G01*
X151300000Y-113285000D02*
X151300000Y-112985000D01*
G75*
G02*
X151450000Y-112835000I150000J0D01*
G01*
X152800000Y-112835000D01*
G75*
G02*
X152950000Y-112985000I0J-150000D01*
G01*
X152950000Y-113285000D01*
G75*
G02*
X152800000Y-113435000I-150000J0D01*
G01*
X151450000Y-113435000D01*
G75*
G02*
X151300000Y-113285000I0J150000D01*
G01*
G37*
G36*
G01*
X151300000Y-114555000D02*
X151300000Y-114255000D01*
G75*
G02*
X151450000Y-114105000I150000J0D01*
G01*
X152800000Y-114105000D01*
G75*
G02*
X152950000Y-114255000I0J-150000D01*
G01*
X152950000Y-114555000D01*
G75*
G02*
X152800000Y-114705000I-150000J0D01*
G01*
X151450000Y-114705000D01*
G75*
G02*
X151300000Y-114555000I0J150000D01*
G01*
G37*
G36*
G01*
X146050000Y-114555000D02*
X146050000Y-114255000D01*
G75*
G02*
X146200000Y-114105000I150000J0D01*
G01*
X147550000Y-114105000D01*
G75*
G02*
X147700000Y-114255000I0J-150000D01*
G01*
X147700000Y-114555000D01*
G75*
G02*
X147550000Y-114705000I-150000J0D01*
G01*
X146200000Y-114705000D01*
G75*
G02*
X146050000Y-114555000I0J150000D01*
G01*
G37*
G36*
G01*
X146050000Y-113285000D02*
X146050000Y-112985000D01*
G75*
G02*
X146200000Y-112835000I150000J0D01*
G01*
X147550000Y-112835000D01*
G75*
G02*
X147700000Y-112985000I0J-150000D01*
G01*
X147700000Y-113285000D01*
G75*
G02*
X147550000Y-113435000I-150000J0D01*
G01*
X146200000Y-113435000D01*
G75*
G02*
X146050000Y-113285000I0J150000D01*
G01*
G37*
G36*
G01*
X146050000Y-112015000D02*
X146050000Y-111715000D01*
G75*
G02*
X146200000Y-111565000I150000J0D01*
G01*
X147550000Y-111565000D01*
G75*
G02*
X147700000Y-111715000I0J-150000D01*
G01*
X147700000Y-112015000D01*
G75*
G02*
X147550000Y-112165000I-150000J0D01*
G01*
X146200000Y-112165000D01*
G75*
G02*
X146050000Y-112015000I0J150000D01*
G01*
G37*
G36*
G01*
X146050000Y-110745000D02*
X146050000Y-110445000D01*
G75*
G02*
X146200000Y-110295000I150000J0D01*
G01*
X147550000Y-110295000D01*
G75*
G02*
X147700000Y-110445000I0J-150000D01*
G01*
X147700000Y-110745000D01*
G75*
G02*
X147550000Y-110895000I-150000J0D01*
G01*
X146200000Y-110895000D01*
G75*
G02*
X146050000Y-110745000I0J150000D01*
G01*
G37*
X149500000Y-105500000D03*
G36*
G01*
X151300000Y-103745000D02*
X151300000Y-103445000D01*
G75*
G02*
X151450000Y-103295000I150000J0D01*
G01*
X152800000Y-103295000D01*
G75*
G02*
X152950000Y-103445000I0J-150000D01*
G01*
X152950000Y-103745000D01*
G75*
G02*
X152800000Y-103895000I-150000J0D01*
G01*
X151450000Y-103895000D01*
G75*
G02*
X151300000Y-103745000I0J150000D01*
G01*
G37*
G36*
G01*
X151300000Y-105015000D02*
X151300000Y-104715000D01*
G75*
G02*
X151450000Y-104565000I150000J0D01*
G01*
X152800000Y-104565000D01*
G75*
G02*
X152950000Y-104715000I0J-150000D01*
G01*
X152950000Y-105015000D01*
G75*
G02*
X152800000Y-105165000I-150000J0D01*
G01*
X151450000Y-105165000D01*
G75*
G02*
X151300000Y-105015000I0J150000D01*
G01*
G37*
G36*
G01*
X151300000Y-106285000D02*
X151300000Y-105985000D01*
G75*
G02*
X151450000Y-105835000I150000J0D01*
G01*
X152800000Y-105835000D01*
G75*
G02*
X152950000Y-105985000I0J-150000D01*
G01*
X152950000Y-106285000D01*
G75*
G02*
X152800000Y-106435000I-150000J0D01*
G01*
X151450000Y-106435000D01*
G75*
G02*
X151300000Y-106285000I0J150000D01*
G01*
G37*
G36*
G01*
X151300000Y-107555000D02*
X151300000Y-107255000D01*
G75*
G02*
X151450000Y-107105000I150000J0D01*
G01*
X152800000Y-107105000D01*
G75*
G02*
X152950000Y-107255000I0J-150000D01*
G01*
X152950000Y-107555000D01*
G75*
G02*
X152800000Y-107705000I-150000J0D01*
G01*
X151450000Y-107705000D01*
G75*
G02*
X151300000Y-107555000I0J150000D01*
G01*
G37*
G36*
G01*
X146050000Y-107555000D02*
X146050000Y-107255000D01*
G75*
G02*
X146200000Y-107105000I150000J0D01*
G01*
X147550000Y-107105000D01*
G75*
G02*
X147700000Y-107255000I0J-150000D01*
G01*
X147700000Y-107555000D01*
G75*
G02*
X147550000Y-107705000I-150000J0D01*
G01*
X146200000Y-107705000D01*
G75*
G02*
X146050000Y-107555000I0J150000D01*
G01*
G37*
G36*
G01*
X146050000Y-106285000D02*
X146050000Y-105985000D01*
G75*
G02*
X146200000Y-105835000I150000J0D01*
G01*
X147550000Y-105835000D01*
G75*
G02*
X147700000Y-105985000I0J-150000D01*
G01*
X147700000Y-106285000D01*
G75*
G02*
X147550000Y-106435000I-150000J0D01*
G01*
X146200000Y-106435000D01*
G75*
G02*
X146050000Y-106285000I0J150000D01*
G01*
G37*
G36*
G01*
X146050000Y-105015000D02*
X146050000Y-104715000D01*
G75*
G02*
X146200000Y-104565000I150000J0D01*
G01*
X147550000Y-104565000D01*
G75*
G02*
X147700000Y-104715000I0J-150000D01*
G01*
X147700000Y-105015000D01*
G75*
G02*
X147550000Y-105165000I-150000J0D01*
G01*
X146200000Y-105165000D01*
G75*
G02*
X146050000Y-105015000I0J150000D01*
G01*
G37*
G36*
G01*
X146050000Y-103745000D02*
X146050000Y-103445000D01*
G75*
G02*
X146200000Y-103295000I150000J0D01*
G01*
X147550000Y-103295000D01*
G75*
G02*
X147700000Y-103445000I0J-150000D01*
G01*
X147700000Y-103745000D01*
G75*
G02*
X147550000Y-103895000I-150000J0D01*
G01*
X146200000Y-103895000D01*
G75*
G02*
X146050000Y-103745000I0J150000D01*
G01*
G37*
G36*
G01*
X135075180Y-78772703D02*
X135393378Y-79090901D01*
G75*
G02*
X135393378Y-79409099I-159099J-159099D01*
G01*
X135075180Y-79727297D01*
G75*
G02*
X134756982Y-79727297I-159099J159099D01*
G01*
X134438784Y-79409099D01*
G75*
G02*
X134438784Y-79090901I159099J159099D01*
G01*
X134756982Y-78772703D01*
G75*
G02*
X135075180Y-78772703I159099J-159099D01*
G01*
G37*
G36*
G01*
X135867139Y-79564663D02*
X136185337Y-79882861D01*
G75*
G02*
X136185337Y-80201059I-159099J-159099D01*
G01*
X135867139Y-80519257D01*
G75*
G02*
X135548941Y-80519257I-159099J159099D01*
G01*
X135230743Y-80201059D01*
G75*
G02*
X135230743Y-79882861I159099J159099D01*
G01*
X135548941Y-79564663D01*
G75*
G02*
X135867139Y-79564663I159099J-159099D01*
G01*
G37*
G36*
G01*
X136659099Y-80356622D02*
X136977297Y-80674820D01*
G75*
G02*
X136977297Y-80993018I-159099J-159099D01*
G01*
X136659099Y-81311216D01*
G75*
G02*
X136340901Y-81311216I-159099J159099D01*
G01*
X136022703Y-80993018D01*
G75*
G02*
X136022703Y-80674820I159099J159099D01*
G01*
X136340901Y-80356622D01*
G75*
G02*
X136659099Y-80356622I159099J-159099D01*
G01*
G37*
G36*
G01*
X135867139Y-77980743D02*
X136185337Y-78298941D01*
G75*
G02*
X136185337Y-78617139I-159099J-159099D01*
G01*
X135867139Y-78935337D01*
G75*
G02*
X135548941Y-78935337I-159099J159099D01*
G01*
X135230743Y-78617139D01*
G75*
G02*
X135230743Y-78298941I159099J159099D01*
G01*
X135548941Y-77980743D01*
G75*
G02*
X135867139Y-77980743I159099J-159099D01*
G01*
G37*
G36*
G01*
X136659099Y-78772703D02*
X136977297Y-79090901D01*
G75*
G02*
X136977297Y-79409099I-159099J-159099D01*
G01*
X136659099Y-79727297D01*
G75*
G02*
X136340901Y-79727297I-159099J159099D01*
G01*
X136022703Y-79409099D01*
G75*
G02*
X136022703Y-79090901I159099J159099D01*
G01*
X136340901Y-78772703D01*
G75*
G02*
X136659099Y-78772703I159099J-159099D01*
G01*
G37*
G36*
G01*
X137451059Y-79564663D02*
X137769257Y-79882861D01*
G75*
G02*
X137769257Y-80201059I-159099J-159099D01*
G01*
X137451059Y-80519257D01*
G75*
G02*
X137132861Y-80519257I-159099J159099D01*
G01*
X136814663Y-80201059D01*
G75*
G02*
X136814663Y-79882861I159099J159099D01*
G01*
X137132861Y-79564663D01*
G75*
G02*
X137451059Y-79564663I159099J-159099D01*
G01*
G37*
G36*
G01*
X136659099Y-77188784D02*
X136977297Y-77506982D01*
G75*
G02*
X136977297Y-77825180I-159099J-159099D01*
G01*
X136659099Y-78143378D01*
G75*
G02*
X136340901Y-78143378I-159099J159099D01*
G01*
X136022703Y-77825180D01*
G75*
G02*
X136022703Y-77506982I159099J159099D01*
G01*
X136340901Y-77188784D01*
G75*
G02*
X136659099Y-77188784I159099J-159099D01*
G01*
G37*
G36*
G01*
X137451059Y-77980743D02*
X137769257Y-78298941D01*
G75*
G02*
X137769257Y-78617139I-159099J-159099D01*
G01*
X137451059Y-78935337D01*
G75*
G02*
X137132861Y-78935337I-159099J159099D01*
G01*
X136814663Y-78617139D01*
G75*
G02*
X136814663Y-78298941I159099J159099D01*
G01*
X137132861Y-77980743D01*
G75*
G02*
X137451059Y-77980743I159099J-159099D01*
G01*
G37*
G36*
G01*
X138243018Y-78772703D02*
X138561216Y-79090901D01*
G75*
G02*
X138561216Y-79409099I-159099J-159099D01*
G01*
X138243018Y-79727297D01*
G75*
G02*
X137924820Y-79727297I-159099J159099D01*
G01*
X137606622Y-79409099D01*
G75*
G02*
X137606622Y-79090901I159099J159099D01*
G01*
X137924820Y-78772703D01*
G75*
G02*
X138243018Y-78772703I159099J-159099D01*
G01*
G37*
G36*
G01*
X139142812Y-79594714D02*
X139620109Y-80072011D01*
G75*
G02*
X139620109Y-80160399I-44194J-44194D01*
G01*
X139531720Y-80248788D01*
G75*
G02*
X139443332Y-80248788I-44194J44194D01*
G01*
X138966035Y-79771491D01*
G75*
G02*
X138966035Y-79683103I44194J44194D01*
G01*
X139054424Y-79594714D01*
G75*
G02*
X139142812Y-79594714I44194J-44194D01*
G01*
G37*
G36*
G01*
X138789258Y-79948268D02*
X139266555Y-80425565D01*
G75*
G02*
X139266555Y-80513953I-44194J-44194D01*
G01*
X139178166Y-80602342D01*
G75*
G02*
X139089778Y-80602342I-44194J44194D01*
G01*
X138612481Y-80125045D01*
G75*
G02*
X138612481Y-80036657I44194J44194D01*
G01*
X138700870Y-79948268D01*
G75*
G02*
X138789258Y-79948268I44194J-44194D01*
G01*
G37*
G36*
G01*
X138435705Y-80301821D02*
X138913002Y-80779118D01*
G75*
G02*
X138913002Y-80867506I-44194J-44194D01*
G01*
X138824613Y-80955895D01*
G75*
G02*
X138736225Y-80955895I-44194J44194D01*
G01*
X138258928Y-80478598D01*
G75*
G02*
X138258928Y-80390210I44194J44194D01*
G01*
X138347317Y-80301821D01*
G75*
G02*
X138435705Y-80301821I44194J-44194D01*
G01*
G37*
G36*
G01*
X138082152Y-80655375D02*
X138559449Y-81132672D01*
G75*
G02*
X138559449Y-81221060I-44194J-44194D01*
G01*
X138471060Y-81309449D01*
G75*
G02*
X138382672Y-81309449I-44194J44194D01*
G01*
X137905375Y-80832152D01*
G75*
G02*
X137905375Y-80743764I44194J44194D01*
G01*
X137993764Y-80655375D01*
G75*
G02*
X138082152Y-80655375I44194J-44194D01*
G01*
G37*
G36*
G01*
X137728598Y-81008928D02*
X138205895Y-81486225D01*
G75*
G02*
X138205895Y-81574613I-44194J-44194D01*
G01*
X138117506Y-81663002D01*
G75*
G02*
X138029118Y-81663002I-44194J44194D01*
G01*
X137551821Y-81185705D01*
G75*
G02*
X137551821Y-81097317I44194J44194D01*
G01*
X137640210Y-81008928D01*
G75*
G02*
X137728598Y-81008928I44194J-44194D01*
G01*
G37*
G36*
G01*
X137375045Y-81362481D02*
X137852342Y-81839778D01*
G75*
G02*
X137852342Y-81928166I-44194J-44194D01*
G01*
X137763953Y-82016555D01*
G75*
G02*
X137675565Y-82016555I-44194J44194D01*
G01*
X137198268Y-81539258D01*
G75*
G02*
X137198268Y-81450870I44194J44194D01*
G01*
X137286657Y-81362481D01*
G75*
G02*
X137375045Y-81362481I44194J-44194D01*
G01*
G37*
G36*
G01*
X137021491Y-81716035D02*
X137498788Y-82193332D01*
G75*
G02*
X137498788Y-82281720I-44194J-44194D01*
G01*
X137410399Y-82370109D01*
G75*
G02*
X137322011Y-82370109I-44194J44194D01*
G01*
X136844714Y-81892812D01*
G75*
G02*
X136844714Y-81804424I44194J44194D01*
G01*
X136933103Y-81716035D01*
G75*
G02*
X137021491Y-81716035I44194J-44194D01*
G01*
G37*
G36*
G01*
X136066897Y-81716035D02*
X136155286Y-81804424D01*
G75*
G02*
X136155286Y-81892812I-44194J-44194D01*
G01*
X135677989Y-82370109D01*
G75*
G02*
X135589601Y-82370109I-44194J44194D01*
G01*
X135501212Y-82281720D01*
G75*
G02*
X135501212Y-82193332I44194J44194D01*
G01*
X135978509Y-81716035D01*
G75*
G02*
X136066897Y-81716035I44194J-44194D01*
G01*
G37*
G36*
G01*
X135713343Y-81362481D02*
X135801732Y-81450870D01*
G75*
G02*
X135801732Y-81539258I-44194J-44194D01*
G01*
X135324435Y-82016555D01*
G75*
G02*
X135236047Y-82016555I-44194J44194D01*
G01*
X135147658Y-81928166D01*
G75*
G02*
X135147658Y-81839778I44194J44194D01*
G01*
X135624955Y-81362481D01*
G75*
G02*
X135713343Y-81362481I44194J-44194D01*
G01*
G37*
G36*
G01*
X135359790Y-81008928D02*
X135448179Y-81097317D01*
G75*
G02*
X135448179Y-81185705I-44194J-44194D01*
G01*
X134970882Y-81663002D01*
G75*
G02*
X134882494Y-81663002I-44194J44194D01*
G01*
X134794105Y-81574613D01*
G75*
G02*
X134794105Y-81486225I44194J44194D01*
G01*
X135271402Y-81008928D01*
G75*
G02*
X135359790Y-81008928I44194J-44194D01*
G01*
G37*
G36*
G01*
X135006236Y-80655375D02*
X135094625Y-80743764D01*
G75*
G02*
X135094625Y-80832152I-44194J-44194D01*
G01*
X134617328Y-81309449D01*
G75*
G02*
X134528940Y-81309449I-44194J44194D01*
G01*
X134440551Y-81221060D01*
G75*
G02*
X134440551Y-81132672I44194J44194D01*
G01*
X134917848Y-80655375D01*
G75*
G02*
X135006236Y-80655375I44194J-44194D01*
G01*
G37*
G36*
G01*
X134652683Y-80301821D02*
X134741072Y-80390210D01*
G75*
G02*
X134741072Y-80478598I-44194J-44194D01*
G01*
X134263775Y-80955895D01*
G75*
G02*
X134175387Y-80955895I-44194J44194D01*
G01*
X134086998Y-80867506D01*
G75*
G02*
X134086998Y-80779118I44194J44194D01*
G01*
X134564295Y-80301821D01*
G75*
G02*
X134652683Y-80301821I44194J-44194D01*
G01*
G37*
G36*
G01*
X134299130Y-79948268D02*
X134387519Y-80036657D01*
G75*
G02*
X134387519Y-80125045I-44194J-44194D01*
G01*
X133910222Y-80602342D01*
G75*
G02*
X133821834Y-80602342I-44194J44194D01*
G01*
X133733445Y-80513953D01*
G75*
G02*
X133733445Y-80425565I44194J44194D01*
G01*
X134210742Y-79948268D01*
G75*
G02*
X134299130Y-79948268I44194J-44194D01*
G01*
G37*
G36*
G01*
X133945576Y-79594714D02*
X134033965Y-79683103D01*
G75*
G02*
X134033965Y-79771491I-44194J-44194D01*
G01*
X133556668Y-80248788D01*
G75*
G02*
X133468280Y-80248788I-44194J44194D01*
G01*
X133379891Y-80160399D01*
G75*
G02*
X133379891Y-80072011I44194J44194D01*
G01*
X133857188Y-79594714D01*
G75*
G02*
X133945576Y-79594714I44194J-44194D01*
G01*
G37*
G36*
G01*
X133556668Y-78251212D02*
X134033965Y-78728509D01*
G75*
G02*
X134033965Y-78816897I-44194J-44194D01*
G01*
X133945576Y-78905286D01*
G75*
G02*
X133857188Y-78905286I-44194J44194D01*
G01*
X133379891Y-78427989D01*
G75*
G02*
X133379891Y-78339601I44194J44194D01*
G01*
X133468280Y-78251212D01*
G75*
G02*
X133556668Y-78251212I44194J-44194D01*
G01*
G37*
G36*
G01*
X133910222Y-77897658D02*
X134387519Y-78374955D01*
G75*
G02*
X134387519Y-78463343I-44194J-44194D01*
G01*
X134299130Y-78551732D01*
G75*
G02*
X134210742Y-78551732I-44194J44194D01*
G01*
X133733445Y-78074435D01*
G75*
G02*
X133733445Y-77986047I44194J44194D01*
G01*
X133821834Y-77897658D01*
G75*
G02*
X133910222Y-77897658I44194J-44194D01*
G01*
G37*
G36*
G01*
X134263775Y-77544105D02*
X134741072Y-78021402D01*
G75*
G02*
X134741072Y-78109790I-44194J-44194D01*
G01*
X134652683Y-78198179D01*
G75*
G02*
X134564295Y-78198179I-44194J44194D01*
G01*
X134086998Y-77720882D01*
G75*
G02*
X134086998Y-77632494I44194J44194D01*
G01*
X134175387Y-77544105D01*
G75*
G02*
X134263775Y-77544105I44194J-44194D01*
G01*
G37*
G36*
G01*
X134617328Y-77190551D02*
X135094625Y-77667848D01*
G75*
G02*
X135094625Y-77756236I-44194J-44194D01*
G01*
X135006236Y-77844625D01*
G75*
G02*
X134917848Y-77844625I-44194J44194D01*
G01*
X134440551Y-77367328D01*
G75*
G02*
X134440551Y-77278940I44194J44194D01*
G01*
X134528940Y-77190551D01*
G75*
G02*
X134617328Y-77190551I44194J-44194D01*
G01*
G37*
G36*
G01*
X134970882Y-76836998D02*
X135448179Y-77314295D01*
G75*
G02*
X135448179Y-77402683I-44194J-44194D01*
G01*
X135359790Y-77491072D01*
G75*
G02*
X135271402Y-77491072I-44194J44194D01*
G01*
X134794105Y-77013775D01*
G75*
G02*
X134794105Y-76925387I44194J44194D01*
G01*
X134882494Y-76836998D01*
G75*
G02*
X134970882Y-76836998I44194J-44194D01*
G01*
G37*
G36*
G01*
X135324435Y-76483445D02*
X135801732Y-76960742D01*
G75*
G02*
X135801732Y-77049130I-44194J-44194D01*
G01*
X135713343Y-77137519D01*
G75*
G02*
X135624955Y-77137519I-44194J44194D01*
G01*
X135147658Y-76660222D01*
G75*
G02*
X135147658Y-76571834I44194J44194D01*
G01*
X135236047Y-76483445D01*
G75*
G02*
X135324435Y-76483445I44194J-44194D01*
G01*
G37*
G36*
G01*
X135677989Y-76129891D02*
X136155286Y-76607188D01*
G75*
G02*
X136155286Y-76695576I-44194J-44194D01*
G01*
X136066897Y-76783965D01*
G75*
G02*
X135978509Y-76783965I-44194J44194D01*
G01*
X135501212Y-76306668D01*
G75*
G02*
X135501212Y-76218280I44194J44194D01*
G01*
X135589601Y-76129891D01*
G75*
G02*
X135677989Y-76129891I44194J-44194D01*
G01*
G37*
G36*
G01*
X137410399Y-76129891D02*
X137498788Y-76218280D01*
G75*
G02*
X137498788Y-76306668I-44194J-44194D01*
G01*
X137021491Y-76783965D01*
G75*
G02*
X136933103Y-76783965I-44194J44194D01*
G01*
X136844714Y-76695576D01*
G75*
G02*
X136844714Y-76607188I44194J44194D01*
G01*
X137322011Y-76129891D01*
G75*
G02*
X137410399Y-76129891I44194J-44194D01*
G01*
G37*
G36*
G01*
X137763953Y-76483445D02*
X137852342Y-76571834D01*
G75*
G02*
X137852342Y-76660222I-44194J-44194D01*
G01*
X137375045Y-77137519D01*
G75*
G02*
X137286657Y-77137519I-44194J44194D01*
G01*
X137198268Y-77049130D01*
G75*
G02*
X137198268Y-76960742I44194J44194D01*
G01*
X137675565Y-76483445D01*
G75*
G02*
X137763953Y-76483445I44194J-44194D01*
G01*
G37*
G36*
G01*
X138117506Y-76836998D02*
X138205895Y-76925387D01*
G75*
G02*
X138205895Y-77013775I-44194J-44194D01*
G01*
X137728598Y-77491072D01*
G75*
G02*
X137640210Y-77491072I-44194J44194D01*
G01*
X137551821Y-77402683D01*
G75*
G02*
X137551821Y-77314295I44194J44194D01*
G01*
X138029118Y-76836998D01*
G75*
G02*
X138117506Y-76836998I44194J-44194D01*
G01*
G37*
G36*
G01*
X138471060Y-77190551D02*
X138559449Y-77278940D01*
G75*
G02*
X138559449Y-77367328I-44194J-44194D01*
G01*
X138082152Y-77844625D01*
G75*
G02*
X137993764Y-77844625I-44194J44194D01*
G01*
X137905375Y-77756236D01*
G75*
G02*
X137905375Y-77667848I44194J44194D01*
G01*
X138382672Y-77190551D01*
G75*
G02*
X138471060Y-77190551I44194J-44194D01*
G01*
G37*
G36*
G01*
X138824613Y-77544105D02*
X138913002Y-77632494D01*
G75*
G02*
X138913002Y-77720882I-44194J-44194D01*
G01*
X138435705Y-78198179D01*
G75*
G02*
X138347317Y-78198179I-44194J44194D01*
G01*
X138258928Y-78109790D01*
G75*
G02*
X138258928Y-78021402I44194J44194D01*
G01*
X138736225Y-77544105D01*
G75*
G02*
X138824613Y-77544105I44194J-44194D01*
G01*
G37*
G36*
G01*
X139178166Y-77897658D02*
X139266555Y-77986047D01*
G75*
G02*
X139266555Y-78074435I-44194J-44194D01*
G01*
X138789258Y-78551732D01*
G75*
G02*
X138700870Y-78551732I-44194J44194D01*
G01*
X138612481Y-78463343D01*
G75*
G02*
X138612481Y-78374955I44194J44194D01*
G01*
X139089778Y-77897658D01*
G75*
G02*
X139178166Y-77897658I44194J-44194D01*
G01*
G37*
G36*
G01*
X139531720Y-78251212D02*
X139620109Y-78339601D01*
G75*
G02*
X139620109Y-78427989I-44194J-44194D01*
G01*
X139142812Y-78905286D01*
G75*
G02*
X139054424Y-78905286I-44194J44194D01*
G01*
X138966035Y-78816897D01*
G75*
G02*
X138966035Y-78728509I44194J44194D01*
G01*
X139443332Y-78251212D01*
G75*
G02*
X139531720Y-78251212I44194J-44194D01*
G01*
G37*
D12*
X167600000Y-75750000D03*
X167600000Y-77750000D03*
X167600000Y-79750000D03*
X167600000Y-81750000D03*
X167600000Y-83750000D03*
X167600000Y-85750000D03*
X167600000Y-87750000D03*
X167600000Y-89750000D03*
D13*
X165000000Y-91250000D03*
X163000000Y-91250000D03*
X161000000Y-91250000D03*
X159000000Y-91250000D03*
X157000000Y-91250000D03*
X155000000Y-91250000D03*
D12*
X152400000Y-89750000D03*
X152400000Y-87750000D03*
X152400000Y-85750000D03*
X152400000Y-83750000D03*
X152400000Y-81750000D03*
X152400000Y-79750000D03*
X152400000Y-77750000D03*
X152400000Y-75750000D03*
D14*
X131000000Y-93750000D03*
G36*
G01*
X132755000Y-95550000D02*
X133055000Y-95550000D01*
G75*
G02*
X133205000Y-95700000I0J-150000D01*
G01*
X133205000Y-97050000D01*
G75*
G02*
X133055000Y-97200000I-150000J0D01*
G01*
X132755000Y-97200000D01*
G75*
G02*
X132605000Y-97050000I0J150000D01*
G01*
X132605000Y-95700000D01*
G75*
G02*
X132755000Y-95550000I150000J0D01*
G01*
G37*
G36*
G01*
X131485000Y-95550000D02*
X131785000Y-95550000D01*
G75*
G02*
X131935000Y-95700000I0J-150000D01*
G01*
X131935000Y-97050000D01*
G75*
G02*
X131785000Y-97200000I-150000J0D01*
G01*
X131485000Y-97200000D01*
G75*
G02*
X131335000Y-97050000I0J150000D01*
G01*
X131335000Y-95700000D01*
G75*
G02*
X131485000Y-95550000I150000J0D01*
G01*
G37*
G36*
G01*
X130215000Y-95550000D02*
X130515000Y-95550000D01*
G75*
G02*
X130665000Y-95700000I0J-150000D01*
G01*
X130665000Y-97050000D01*
G75*
G02*
X130515000Y-97200000I-150000J0D01*
G01*
X130215000Y-97200000D01*
G75*
G02*
X130065000Y-97050000I0J150000D01*
G01*
X130065000Y-95700000D01*
G75*
G02*
X130215000Y-95550000I150000J0D01*
G01*
G37*
G36*
G01*
X128945000Y-95550000D02*
X129245000Y-95550000D01*
G75*
G02*
X129395000Y-95700000I0J-150000D01*
G01*
X129395000Y-97050000D01*
G75*
G02*
X129245000Y-97200000I-150000J0D01*
G01*
X128945000Y-97200000D01*
G75*
G02*
X128795000Y-97050000I0J150000D01*
G01*
X128795000Y-95700000D01*
G75*
G02*
X128945000Y-95550000I150000J0D01*
G01*
G37*
G36*
G01*
X128945000Y-90300000D02*
X129245000Y-90300000D01*
G75*
G02*
X129395000Y-90450000I0J-150000D01*
G01*
X129395000Y-91800000D01*
G75*
G02*
X129245000Y-91950000I-150000J0D01*
G01*
X128945000Y-91950000D01*
G75*
G02*
X128795000Y-91800000I0J150000D01*
G01*
X128795000Y-90450000D01*
G75*
G02*
X128945000Y-90300000I150000J0D01*
G01*
G37*
G36*
G01*
X130215000Y-90300000D02*
X130515000Y-90300000D01*
G75*
G02*
X130665000Y-90450000I0J-150000D01*
G01*
X130665000Y-91800000D01*
G75*
G02*
X130515000Y-91950000I-150000J0D01*
G01*
X130215000Y-91950000D01*
G75*
G02*
X130065000Y-91800000I0J150000D01*
G01*
X130065000Y-90450000D01*
G75*
G02*
X130215000Y-90300000I150000J0D01*
G01*
G37*
G36*
G01*
X131485000Y-90300000D02*
X131785000Y-90300000D01*
G75*
G02*
X131935000Y-90450000I0J-150000D01*
G01*
X131935000Y-91800000D01*
G75*
G02*
X131785000Y-91950000I-150000J0D01*
G01*
X131485000Y-91950000D01*
G75*
G02*
X131335000Y-91800000I0J150000D01*
G01*
X131335000Y-90450000D01*
G75*
G02*
X131485000Y-90300000I150000J0D01*
G01*
G37*
G36*
G01*
X132755000Y-90300000D02*
X133055000Y-90300000D01*
G75*
G02*
X133205000Y-90450000I0J-150000D01*
G01*
X133205000Y-91800000D01*
G75*
G02*
X133055000Y-91950000I-150000J0D01*
G01*
X132755000Y-91950000D01*
G75*
G02*
X132605000Y-91800000I0J150000D01*
G01*
X132605000Y-90450000D01*
G75*
G02*
X132755000Y-90300000I150000J0D01*
G01*
G37*
D15*
X141050000Y-85850000D03*
X136450000Y-85850000D03*
X138750000Y-85850000D03*
D16*
X138750000Y-92150000D03*
D17*
X136350000Y-94950000D03*
X136350000Y-99550000D03*
X136350000Y-97250000D03*
D18*
X142650000Y-97250000D03*
D19*
X171750000Y-75800000D03*
X171750000Y-79200000D03*
X144250000Y-75300000D03*
X144250000Y-78700000D03*
G36*
G01*
X154850000Y-121299999D02*
X154850000Y-122200001D01*
G75*
G02*
X154600001Y-122450000I-249999J0D01*
G01*
X154074999Y-122450000D01*
G75*
G02*
X153825000Y-122200001I0J249999D01*
G01*
X153825000Y-121299999D01*
G75*
G02*
X154074999Y-121050000I249999J0D01*
G01*
X154600001Y-121050000D01*
G75*
G02*
X154850000Y-121299999I0J-249999D01*
G01*
G37*
G36*
G01*
X156675000Y-121299999D02*
X156675000Y-122200001D01*
G75*
G02*
X156425001Y-122450000I-249999J0D01*
G01*
X155899999Y-122450000D01*
G75*
G02*
X155650000Y-122200001I0J249999D01*
G01*
X155650000Y-121299999D01*
G75*
G02*
X155899999Y-121050000I249999J0D01*
G01*
X156425001Y-121050000D01*
G75*
G02*
X156675000Y-121299999I0J-249999D01*
G01*
G37*
G36*
G01*
X158600000Y-121299999D02*
X158600000Y-122200001D01*
G75*
G02*
X158350001Y-122450000I-249999J0D01*
G01*
X157824999Y-122450000D01*
G75*
G02*
X157575000Y-122200001I0J249999D01*
G01*
X157575000Y-121299999D01*
G75*
G02*
X157824999Y-121050000I249999J0D01*
G01*
X158350001Y-121050000D01*
G75*
G02*
X158600000Y-121299999I0J-249999D01*
G01*
G37*
G36*
G01*
X160425000Y-121299999D02*
X160425000Y-122200001D01*
G75*
G02*
X160175001Y-122450000I-249999J0D01*
G01*
X159649999Y-122450000D01*
G75*
G02*
X159400000Y-122200001I0J249999D01*
G01*
X159400000Y-121299999D01*
G75*
G02*
X159649999Y-121050000I249999J0D01*
G01*
X160175001Y-121050000D01*
G75*
G02*
X160425000Y-121299999I0J-249999D01*
G01*
G37*
G36*
G01*
X154850000Y-114299999D02*
X154850000Y-115200001D01*
G75*
G02*
X154600001Y-115450000I-249999J0D01*
G01*
X154074999Y-115450000D01*
G75*
G02*
X153825000Y-115200001I0J249999D01*
G01*
X153825000Y-114299999D01*
G75*
G02*
X154074999Y-114050000I249999J0D01*
G01*
X154600001Y-114050000D01*
G75*
G02*
X154850000Y-114299999I0J-249999D01*
G01*
G37*
G36*
G01*
X156675000Y-114299999D02*
X156675000Y-115200001D01*
G75*
G02*
X156425001Y-115450000I-249999J0D01*
G01*
X155899999Y-115450000D01*
G75*
G02*
X155650000Y-115200001I0J249999D01*
G01*
X155650000Y-114299999D01*
G75*
G02*
X155899999Y-114050000I249999J0D01*
G01*
X156425001Y-114050000D01*
G75*
G02*
X156675000Y-114299999I0J-249999D01*
G01*
G37*
G36*
G01*
X158600000Y-114299999D02*
X158600000Y-115200001D01*
G75*
G02*
X158350001Y-115450000I-249999J0D01*
G01*
X157824999Y-115450000D01*
G75*
G02*
X157575000Y-115200001I0J249999D01*
G01*
X157575000Y-114299999D01*
G75*
G02*
X157824999Y-114050000I249999J0D01*
G01*
X158350001Y-114050000D01*
G75*
G02*
X158600000Y-114299999I0J-249999D01*
G01*
G37*
G36*
G01*
X160425000Y-114299999D02*
X160425000Y-115200001D01*
G75*
G02*
X160175001Y-115450000I-249999J0D01*
G01*
X159649999Y-115450000D01*
G75*
G02*
X159400000Y-115200001I0J249999D01*
G01*
X159400000Y-114299999D01*
G75*
G02*
X159649999Y-114050000I249999J0D01*
G01*
X160175001Y-114050000D01*
G75*
G02*
X160425000Y-114299999I0J-249999D01*
G01*
G37*
G36*
G01*
X154850000Y-107299999D02*
X154850000Y-108200001D01*
G75*
G02*
X154600001Y-108450000I-249999J0D01*
G01*
X154074999Y-108450000D01*
G75*
G02*
X153825000Y-108200001I0J249999D01*
G01*
X153825000Y-107299999D01*
G75*
G02*
X154074999Y-107050000I249999J0D01*
G01*
X154600001Y-107050000D01*
G75*
G02*
X154850000Y-107299999I0J-249999D01*
G01*
G37*
G36*
G01*
X156675000Y-107299999D02*
X156675000Y-108200001D01*
G75*
G02*
X156425001Y-108450000I-249999J0D01*
G01*
X155899999Y-108450000D01*
G75*
G02*
X155650000Y-108200001I0J249999D01*
G01*
X155650000Y-107299999D01*
G75*
G02*
X155899999Y-107050000I249999J0D01*
G01*
X156425001Y-107050000D01*
G75*
G02*
X156675000Y-107299999I0J-249999D01*
G01*
G37*
G36*
G01*
X158600000Y-107299999D02*
X158600000Y-108200001D01*
G75*
G02*
X158350001Y-108450000I-249999J0D01*
G01*
X157824999Y-108450000D01*
G75*
G02*
X157575000Y-108200001I0J249999D01*
G01*
X157575000Y-107299999D01*
G75*
G02*
X157824999Y-107050000I249999J0D01*
G01*
X158350001Y-107050000D01*
G75*
G02*
X158600000Y-107299999I0J-249999D01*
G01*
G37*
G36*
G01*
X160425000Y-107299999D02*
X160425000Y-108200001D01*
G75*
G02*
X160175001Y-108450000I-249999J0D01*
G01*
X159649999Y-108450000D01*
G75*
G02*
X159400000Y-108200001I0J249999D01*
G01*
X159400000Y-107299999D01*
G75*
G02*
X159649999Y-107050000I249999J0D01*
G01*
X160175001Y-107050000D01*
G75*
G02*
X160425000Y-107299999I0J-249999D01*
G01*
G37*
G36*
G01*
X147600000Y-84799999D02*
X147600000Y-85700001D01*
G75*
G02*
X147350001Y-85950000I-249999J0D01*
G01*
X146824999Y-85950000D01*
G75*
G02*
X146575000Y-85700001I0J249999D01*
G01*
X146575000Y-84799999D01*
G75*
G02*
X146824999Y-84550000I249999J0D01*
G01*
X147350001Y-84550000D01*
G75*
G02*
X147600000Y-84799999I0J-249999D01*
G01*
G37*
G36*
G01*
X149425000Y-84799999D02*
X149425000Y-85700001D01*
G75*
G02*
X149175001Y-85950000I-249999J0D01*
G01*
X148649999Y-85950000D01*
G75*
G02*
X148400000Y-85700001I0J249999D01*
G01*
X148400000Y-84799999D01*
G75*
G02*
X148649999Y-84550000I249999J0D01*
G01*
X149175001Y-84550000D01*
G75*
G02*
X149425000Y-84799999I0J-249999D01*
G01*
G37*
G36*
G01*
X150850000Y-94049999D02*
X150850000Y-94950001D01*
G75*
G02*
X150600001Y-95200000I-249999J0D01*
G01*
X150074999Y-95200000D01*
G75*
G02*
X149825000Y-94950001I0J249999D01*
G01*
X149825000Y-94049999D01*
G75*
G02*
X150074999Y-93800000I249999J0D01*
G01*
X150600001Y-93800000D01*
G75*
G02*
X150850000Y-94049999I0J-249999D01*
G01*
G37*
G36*
G01*
X152675000Y-94049999D02*
X152675000Y-94950001D01*
G75*
G02*
X152425001Y-95200000I-249999J0D01*
G01*
X151899999Y-95200000D01*
G75*
G02*
X151650000Y-94950001I0J249999D01*
G01*
X151650000Y-94049999D01*
G75*
G02*
X151899999Y-93800000I249999J0D01*
G01*
X152425001Y-93800000D01*
G75*
G02*
X152675000Y-94049999I0J-249999D01*
G01*
G37*
G36*
G01*
X151650000Y-100950001D02*
X151650000Y-100049999D01*
G75*
G02*
X151899999Y-99800000I249999J0D01*
G01*
X152425001Y-99800000D01*
G75*
G02*
X152675000Y-100049999I0J-249999D01*
G01*
X152675000Y-100950001D01*
G75*
G02*
X152425001Y-101200000I-249999J0D01*
G01*
X151899999Y-101200000D01*
G75*
G02*
X151650000Y-100950001I0J249999D01*
G01*
G37*
G36*
G01*
X149825000Y-100950001D02*
X149825000Y-100049999D01*
G75*
G02*
X150074999Y-99800000I249999J0D01*
G01*
X150600001Y-99800000D01*
G75*
G02*
X150850000Y-100049999I0J-249999D01*
G01*
X150850000Y-100950001D01*
G75*
G02*
X150600001Y-101200000I-249999J0D01*
G01*
X150074999Y-101200000D01*
G75*
G02*
X149825000Y-100950001I0J249999D01*
G01*
G37*
G36*
G01*
X172150000Y-81700001D02*
X172150000Y-80799999D01*
G75*
G02*
X172399999Y-80550000I249999J0D01*
G01*
X172925001Y-80550000D01*
G75*
G02*
X173175000Y-80799999I0J-249999D01*
G01*
X173175000Y-81700001D01*
G75*
G02*
X172925001Y-81950000I-249999J0D01*
G01*
X172399999Y-81950000D01*
G75*
G02*
X172150000Y-81700001I0J249999D01*
G01*
G37*
G36*
G01*
X170325000Y-81700001D02*
X170325000Y-80799999D01*
G75*
G02*
X170574999Y-80550000I249999J0D01*
G01*
X171100001Y-80550000D01*
G75*
G02*
X171350000Y-80799999I0J-249999D01*
G01*
X171350000Y-81700001D01*
G75*
G02*
X171100001Y-81950000I-249999J0D01*
G01*
X170574999Y-81950000D01*
G75*
G02*
X170325000Y-81700001I0J249999D01*
G01*
G37*
G36*
G01*
X132400000Y-86700001D02*
X132400000Y-85799999D01*
G75*
G02*
X132649999Y-85550000I249999J0D01*
G01*
X133175001Y-85550000D01*
G75*
G02*
X133425000Y-85799999I0J-249999D01*
G01*
X133425000Y-86700001D01*
G75*
G02*
X133175001Y-86950000I-249999J0D01*
G01*
X132649999Y-86950000D01*
G75*
G02*
X132400000Y-86700001I0J249999D01*
G01*
G37*
G36*
G01*
X130575000Y-86700001D02*
X130575000Y-85799999D01*
G75*
G02*
X130824999Y-85550000I249999J0D01*
G01*
X131350001Y-85550000D01*
G75*
G02*
X131600000Y-85799999I0J-249999D01*
G01*
X131600000Y-86700001D01*
G75*
G02*
X131350001Y-86950000I-249999J0D01*
G01*
X130824999Y-86950000D01*
G75*
G02*
X130575000Y-86700001I0J249999D01*
G01*
G37*
G36*
G01*
X147600000Y-75799999D02*
X147600000Y-76700001D01*
G75*
G02*
X147350001Y-76950000I-249999J0D01*
G01*
X146824999Y-76950000D01*
G75*
G02*
X146575000Y-76700001I0J249999D01*
G01*
X146575000Y-75799999D01*
G75*
G02*
X146824999Y-75550000I249999J0D01*
G01*
X147350001Y-75550000D01*
G75*
G02*
X147600000Y-75799999I0J-249999D01*
G01*
G37*
G36*
G01*
X149425000Y-75799999D02*
X149425000Y-76700001D01*
G75*
G02*
X149175001Y-76950000I-249999J0D01*
G01*
X148649999Y-76950000D01*
G75*
G02*
X148400000Y-76700001I0J249999D01*
G01*
X148400000Y-75799999D01*
G75*
G02*
X148649999Y-75550000I249999J0D01*
G01*
X149175001Y-75550000D01*
G75*
G02*
X149425000Y-75799999I0J-249999D01*
G01*
G37*
G36*
G01*
X143850000Y-82549999D02*
X143850000Y-83450001D01*
G75*
G02*
X143600001Y-83700000I-249999J0D01*
G01*
X143074999Y-83700000D01*
G75*
G02*
X142825000Y-83450001I0J249999D01*
G01*
X142825000Y-82549999D01*
G75*
G02*
X143074999Y-82300000I249999J0D01*
G01*
X143600001Y-82300000D01*
G75*
G02*
X143850000Y-82549999I0J-249999D01*
G01*
G37*
G36*
G01*
X145675000Y-82549999D02*
X145675000Y-83450001D01*
G75*
G02*
X145425001Y-83700000I-249999J0D01*
G01*
X144899999Y-83700000D01*
G75*
G02*
X144650000Y-83450001I0J249999D01*
G01*
X144650000Y-82549999D01*
G75*
G02*
X144899999Y-82300000I249999J0D01*
G01*
X145425001Y-82300000D01*
G75*
G02*
X145675000Y-82549999I0J-249999D01*
G01*
G37*
G36*
G01*
X130049999Y-100237500D02*
X130950001Y-100237500D01*
G75*
G02*
X131200000Y-100487499I0J-249999D01*
G01*
X131200000Y-101012501D01*
G75*
G02*
X130950001Y-101262500I-249999J0D01*
G01*
X130049999Y-101262500D01*
G75*
G02*
X129800000Y-101012501I0J249999D01*
G01*
X129800000Y-100487499D01*
G75*
G02*
X130049999Y-100237500I249999J0D01*
G01*
G37*
G36*
G01*
X130049999Y-98412500D02*
X130950001Y-98412500D01*
G75*
G02*
X131200000Y-98662499I0J-249999D01*
G01*
X131200000Y-99187501D01*
G75*
G02*
X130950001Y-99437500I-249999J0D01*
G01*
X130049999Y-99437500D01*
G75*
G02*
X129800000Y-99187501I0J249999D01*
G01*
X129800000Y-98662499D01*
G75*
G02*
X130049999Y-98412500I249999J0D01*
G01*
G37*
G36*
G01*
X132299999Y-100237500D02*
X133200001Y-100237500D01*
G75*
G02*
X133450000Y-100487499I0J-249999D01*
G01*
X133450000Y-101012501D01*
G75*
G02*
X133200001Y-101262500I-249999J0D01*
G01*
X132299999Y-101262500D01*
G75*
G02*
X132050000Y-101012501I0J249999D01*
G01*
X132050000Y-100487499D01*
G75*
G02*
X132299999Y-100237500I249999J0D01*
G01*
G37*
G36*
G01*
X132299999Y-98412500D02*
X133200001Y-98412500D01*
G75*
G02*
X133450000Y-98662499I0J-249999D01*
G01*
X133450000Y-99187501D01*
G75*
G02*
X133200001Y-99437500I-249999J0D01*
G01*
X132299999Y-99437500D01*
G75*
G02*
X132050000Y-99187501I0J249999D01*
G01*
X132050000Y-98662499D01*
G75*
G02*
X132299999Y-98412500I249999J0D01*
G01*
G37*
G36*
G01*
X162549999Y-94900000D02*
X163450001Y-94900000D01*
G75*
G02*
X163700000Y-95149999I0J-249999D01*
G01*
X163700000Y-95675001D01*
G75*
G02*
X163450001Y-95925000I-249999J0D01*
G01*
X162549999Y-95925000D01*
G75*
G02*
X162300000Y-95675001I0J249999D01*
G01*
X162300000Y-95149999D01*
G75*
G02*
X162549999Y-94900000I249999J0D01*
G01*
G37*
G36*
G01*
X162549999Y-93075000D02*
X163450001Y-93075000D01*
G75*
G02*
X163700000Y-93324999I0J-249999D01*
G01*
X163700000Y-93850001D01*
G75*
G02*
X163450001Y-94100000I-249999J0D01*
G01*
X162549999Y-94100000D01*
G75*
G02*
X162300000Y-93850001I0J249999D01*
G01*
X162300000Y-93324999D01*
G75*
G02*
X162549999Y-93075000I249999J0D01*
G01*
G37*
G36*
G01*
X147600000Y-80299999D02*
X147600000Y-81200001D01*
G75*
G02*
X147350001Y-81450000I-249999J0D01*
G01*
X146824999Y-81450000D01*
G75*
G02*
X146575000Y-81200001I0J249999D01*
G01*
X146575000Y-80299999D01*
G75*
G02*
X146824999Y-80050000I249999J0D01*
G01*
X147350001Y-80050000D01*
G75*
G02*
X147600000Y-80299999I0J-249999D01*
G01*
G37*
G36*
G01*
X149425000Y-80299999D02*
X149425000Y-81200001D01*
G75*
G02*
X149175001Y-81450000I-249999J0D01*
G01*
X148649999Y-81450000D01*
G75*
G02*
X148400000Y-81200001I0J249999D01*
G01*
X148400000Y-80299999D01*
G75*
G02*
X148649999Y-80050000I249999J0D01*
G01*
X149175001Y-80050000D01*
G75*
G02*
X149425000Y-80299999I0J-249999D01*
G01*
G37*
G36*
G01*
X147600000Y-82549999D02*
X147600000Y-83450001D01*
G75*
G02*
X147350001Y-83700000I-249999J0D01*
G01*
X146824999Y-83700000D01*
G75*
G02*
X146575000Y-83450001I0J249999D01*
G01*
X146575000Y-82549999D01*
G75*
G02*
X146824999Y-82300000I249999J0D01*
G01*
X147350001Y-82300000D01*
G75*
G02*
X147600000Y-82549999I0J-249999D01*
G01*
G37*
G36*
G01*
X149425000Y-82549999D02*
X149425000Y-83450001D01*
G75*
G02*
X149175001Y-83700000I-249999J0D01*
G01*
X148649999Y-83700000D01*
G75*
G02*
X148400000Y-83450001I0J249999D01*
G01*
X148400000Y-82549999D01*
G75*
G02*
X148649999Y-82300000I249999J0D01*
G01*
X149175001Y-82300000D01*
G75*
G02*
X149425000Y-82549999I0J-249999D01*
G01*
G37*
G36*
G01*
X160299999Y-94900000D02*
X161200001Y-94900000D01*
G75*
G02*
X161450000Y-95149999I0J-249999D01*
G01*
X161450000Y-95675001D01*
G75*
G02*
X161200001Y-95925000I-249999J0D01*
G01*
X160299999Y-95925000D01*
G75*
G02*
X160050000Y-95675001I0J249999D01*
G01*
X160050000Y-95149999D01*
G75*
G02*
X160299999Y-94900000I249999J0D01*
G01*
G37*
G36*
G01*
X160299999Y-93075000D02*
X161200001Y-93075000D01*
G75*
G02*
X161450000Y-93324999I0J-249999D01*
G01*
X161450000Y-93850001D01*
G75*
G02*
X161200001Y-94100000I-249999J0D01*
G01*
X160299999Y-94100000D01*
G75*
G02*
X160050000Y-93850001I0J249999D01*
G01*
X160050000Y-93324999D01*
G75*
G02*
X160299999Y-93075000I249999J0D01*
G01*
G37*
G36*
G01*
X158049999Y-94900000D02*
X158950001Y-94900000D01*
G75*
G02*
X159200000Y-95149999I0J-249999D01*
G01*
X159200000Y-95675001D01*
G75*
G02*
X158950001Y-95925000I-249999J0D01*
G01*
X158049999Y-95925000D01*
G75*
G02*
X157800000Y-95675001I0J249999D01*
G01*
X157800000Y-95149999D01*
G75*
G02*
X158049999Y-94900000I249999J0D01*
G01*
G37*
G36*
G01*
X158049999Y-93075000D02*
X158950001Y-93075000D01*
G75*
G02*
X159200000Y-93324999I0J-249999D01*
G01*
X159200000Y-93850001D01*
G75*
G02*
X158950001Y-94100000I-249999J0D01*
G01*
X158049999Y-94100000D01*
G75*
G02*
X157800000Y-93850001I0J249999D01*
G01*
X157800000Y-93324999D01*
G75*
G02*
X158049999Y-93075000I249999J0D01*
G01*
G37*
G36*
G01*
X129325001Y-86350000D02*
X127174999Y-86350000D01*
G75*
G02*
X126925000Y-86100001I0J249999D01*
G01*
X126925000Y-85474999D01*
G75*
G02*
X127174999Y-85225000I249999J0D01*
G01*
X129325001Y-85225000D01*
G75*
G02*
X129575000Y-85474999I0J-249999D01*
G01*
X129575000Y-86100001D01*
G75*
G02*
X129325001Y-86350000I-249999J0D01*
G01*
G37*
G36*
G01*
X129325001Y-89275000D02*
X127174999Y-89275000D01*
G75*
G02*
X126925000Y-89025001I0J249999D01*
G01*
X126925000Y-88399999D01*
G75*
G02*
X127174999Y-88150000I249999J0D01*
G01*
X129325001Y-88150000D01*
G75*
G02*
X129575000Y-88399999I0J-249999D01*
G01*
X129575000Y-89025001D01*
G75*
G02*
X129325001Y-89275000I-249999J0D01*
G01*
G37*
D10*
X154250000Y-97500000D03*
X152250000Y-98450000D03*
X152250000Y-96550000D03*
X148250000Y-97500000D03*
X150250000Y-96550000D03*
X150250000Y-98450000D03*
G36*
G01*
X144950001Y-118450000D02*
X143549999Y-118450000D01*
G75*
G02*
X143300000Y-118200001I0J249999D01*
G01*
X143300000Y-117649999D01*
G75*
G02*
X143549999Y-117400000I249999J0D01*
G01*
X144950001Y-117400000D01*
G75*
G02*
X145200000Y-117649999I0J-249999D01*
G01*
X145200000Y-118200001D01*
G75*
G02*
X144950001Y-118450000I-249999J0D01*
G01*
G37*
G36*
G01*
X144950001Y-121600000D02*
X143549999Y-121600000D01*
G75*
G02*
X143300000Y-121350001I0J249999D01*
G01*
X143300000Y-120799999D01*
G75*
G02*
X143549999Y-120550000I249999J0D01*
G01*
X144950001Y-120550000D01*
G75*
G02*
X145200000Y-120799999I0J-249999D01*
G01*
X145200000Y-121350001D01*
G75*
G02*
X144950001Y-121600000I-249999J0D01*
G01*
G37*
G36*
G01*
X144950001Y-111450000D02*
X143549999Y-111450000D01*
G75*
G02*
X143300000Y-111200001I0J249999D01*
G01*
X143300000Y-110649999D01*
G75*
G02*
X143549999Y-110400000I249999J0D01*
G01*
X144950001Y-110400000D01*
G75*
G02*
X145200000Y-110649999I0J-249999D01*
G01*
X145200000Y-111200001D01*
G75*
G02*
X144950001Y-111450000I-249999J0D01*
G01*
G37*
G36*
G01*
X144950001Y-114600000D02*
X143549999Y-114600000D01*
G75*
G02*
X143300000Y-114350001I0J249999D01*
G01*
X143300000Y-113799999D01*
G75*
G02*
X143549999Y-113550000I249999J0D01*
G01*
X144950001Y-113550000D01*
G75*
G02*
X145200000Y-113799999I0J-249999D01*
G01*
X145200000Y-114350001D01*
G75*
G02*
X144950001Y-114600000I-249999J0D01*
G01*
G37*
G36*
G01*
X144950001Y-104450000D02*
X143549999Y-104450000D01*
G75*
G02*
X143300000Y-104200001I0J249999D01*
G01*
X143300000Y-103649999D01*
G75*
G02*
X143549999Y-103400000I249999J0D01*
G01*
X144950001Y-103400000D01*
G75*
G02*
X145200000Y-103649999I0J-249999D01*
G01*
X145200000Y-104200001D01*
G75*
G02*
X144950001Y-104450000I-249999J0D01*
G01*
G37*
G36*
G01*
X144950001Y-107600000D02*
X143549999Y-107600000D01*
G75*
G02*
X143300000Y-107350001I0J249999D01*
G01*
X143300000Y-106799999D01*
G75*
G02*
X143549999Y-106550000I249999J0D01*
G01*
X144950001Y-106550000D01*
G75*
G02*
X145200000Y-106799999I0J-249999D01*
G01*
X145200000Y-107350001D01*
G75*
G02*
X144950001Y-107600000I-249999J0D01*
G01*
G37*
G36*
G01*
X172750000Y-98000000D02*
X171250000Y-98000000D01*
G75*
G02*
X171000000Y-97750000I0J250000D01*
G01*
X171000000Y-97250000D01*
G75*
G02*
X171250000Y-97000000I250000J0D01*
G01*
X172750000Y-97000000D01*
G75*
G02*
X173000000Y-97250000I0J-250000D01*
G01*
X173000000Y-97750000D01*
G75*
G02*
X172750000Y-98000000I-250000J0D01*
G01*
G37*
G36*
G01*
X172750000Y-103000000D02*
X171250000Y-103000000D01*
G75*
G02*
X171000000Y-102750000I0J250000D01*
G01*
X171000000Y-102250000D01*
G75*
G02*
X171250000Y-102000000I250000J0D01*
G01*
X172750000Y-102000000D01*
G75*
G02*
X173000000Y-102250000I0J-250000D01*
G01*
X173000000Y-102750000D01*
G75*
G02*
X172750000Y-103000000I-250000J0D01*
G01*
G37*
D20*
X167980000Y-120500000D03*
X167980000Y-109750000D03*
X131000000Y-120500000D03*
D21*
X126050000Y-79550000D03*
D22*
X126050000Y-76850000D03*
D23*
X126050000Y-81375000D03*
X126050000Y-74625000D03*
D24*
X128625000Y-80487500D03*
X128625000Y-75512500D03*
D25*
X128710000Y-79300000D03*
X128710000Y-78650000D03*
X128710000Y-78000000D03*
X128710000Y-77350000D03*
X128710000Y-76700000D03*
D20*
X131000000Y-109750000D03*
G36*
G01*
X143780000Y-80293750D02*
X143780000Y-81206250D01*
G75*
G02*
X143536250Y-81450000I-243750J0D01*
G01*
X143048750Y-81450000D01*
G75*
G02*
X142805000Y-81206250I0J243750D01*
G01*
X142805000Y-80293750D01*
G75*
G02*
X143048750Y-80050000I243750J0D01*
G01*
X143536250Y-80050000D01*
G75*
G02*
X143780000Y-80293750I0J-243750D01*
G01*
G37*
G36*
G01*
X145655000Y-80293750D02*
X145655000Y-81206250D01*
G75*
G02*
X145411250Y-81450000I-243750J0D01*
G01*
X144923750Y-81450000D01*
G75*
G02*
X144680000Y-81206250I0J243750D01*
G01*
X144680000Y-80293750D01*
G75*
G02*
X144923750Y-80050000I243750J0D01*
G01*
X145411250Y-80050000D01*
G75*
G02*
X145655000Y-80293750I0J-243750D01*
G01*
G37*
G36*
G01*
X127206250Y-91550000D02*
X126293750Y-91550000D01*
G75*
G02*
X126050000Y-91306250I0J243750D01*
G01*
X126050000Y-90818750D01*
G75*
G02*
X126293750Y-90575000I243750J0D01*
G01*
X127206250Y-90575000D01*
G75*
G02*
X127450000Y-90818750I0J-243750D01*
G01*
X127450000Y-91306250D01*
G75*
G02*
X127206250Y-91550000I-243750J0D01*
G01*
G37*
G36*
G01*
X127206250Y-93425000D02*
X126293750Y-93425000D01*
G75*
G02*
X126050000Y-93181250I0J243750D01*
G01*
X126050000Y-92693750D01*
G75*
G02*
X126293750Y-92450000I243750J0D01*
G01*
X127206250Y-92450000D01*
G75*
G02*
X127450000Y-92693750I0J-243750D01*
G01*
X127450000Y-93181250D01*
G75*
G02*
X127206250Y-93425000I-243750J0D01*
G01*
G37*
G36*
G01*
X127206250Y-95300000D02*
X126293750Y-95300000D01*
G75*
G02*
X126050000Y-95056250I0J243750D01*
G01*
X126050000Y-94568750D01*
G75*
G02*
X126293750Y-94325000I243750J0D01*
G01*
X127206250Y-94325000D01*
G75*
G02*
X127450000Y-94568750I0J-243750D01*
G01*
X127450000Y-95056250D01*
G75*
G02*
X127206250Y-95300000I-243750J0D01*
G01*
G37*
G36*
G01*
X127206250Y-97175000D02*
X126293750Y-97175000D01*
G75*
G02*
X126050000Y-96931250I0J243750D01*
G01*
X126050000Y-96443750D01*
G75*
G02*
X126293750Y-96200000I243750J0D01*
G01*
X127206250Y-96200000D01*
G75*
G02*
X127450000Y-96443750I0J-243750D01*
G01*
X127450000Y-96931250D01*
G75*
G02*
X127206250Y-97175000I-243750J0D01*
G01*
G37*
G36*
G01*
X158775000Y-118950000D02*
X159725000Y-118950000D01*
G75*
G02*
X159975000Y-119200000I0J-250000D01*
G01*
X159975000Y-119700000D01*
G75*
G02*
X159725000Y-119950000I-250000J0D01*
G01*
X158775000Y-119950000D01*
G75*
G02*
X158525000Y-119700000I0J250000D01*
G01*
X158525000Y-119200000D01*
G75*
G02*
X158775000Y-118950000I250000J0D01*
G01*
G37*
G36*
G01*
X158775000Y-117050000D02*
X159725000Y-117050000D01*
G75*
G02*
X159975000Y-117300000I0J-250000D01*
G01*
X159975000Y-117800000D01*
G75*
G02*
X159725000Y-118050000I-250000J0D01*
G01*
X158775000Y-118050000D01*
G75*
G02*
X158525000Y-117800000I0J250000D01*
G01*
X158525000Y-117300000D01*
G75*
G02*
X158775000Y-117050000I250000J0D01*
G01*
G37*
G36*
G01*
X158775000Y-111950000D02*
X159725000Y-111950000D01*
G75*
G02*
X159975000Y-112200000I0J-250000D01*
G01*
X159975000Y-112700000D01*
G75*
G02*
X159725000Y-112950000I-250000J0D01*
G01*
X158775000Y-112950000D01*
G75*
G02*
X158525000Y-112700000I0J250000D01*
G01*
X158525000Y-112200000D01*
G75*
G02*
X158775000Y-111950000I250000J0D01*
G01*
G37*
G36*
G01*
X158775000Y-110050000D02*
X159725000Y-110050000D01*
G75*
G02*
X159975000Y-110300000I0J-250000D01*
G01*
X159975000Y-110800000D01*
G75*
G02*
X159725000Y-111050000I-250000J0D01*
G01*
X158775000Y-111050000D01*
G75*
G02*
X158525000Y-110800000I0J250000D01*
G01*
X158525000Y-110300000D01*
G75*
G02*
X158775000Y-110050000I250000J0D01*
G01*
G37*
G36*
G01*
X154275000Y-105000000D02*
X155225000Y-105000000D01*
G75*
G02*
X155475000Y-105250000I0J-250000D01*
G01*
X155475000Y-105750000D01*
G75*
G02*
X155225000Y-106000000I-250000J0D01*
G01*
X154275000Y-106000000D01*
G75*
G02*
X154025000Y-105750000I0J250000D01*
G01*
X154025000Y-105250000D01*
G75*
G02*
X154275000Y-105000000I250000J0D01*
G01*
G37*
G36*
G01*
X154275000Y-103100000D02*
X155225000Y-103100000D01*
G75*
G02*
X155475000Y-103350000I0J-250000D01*
G01*
X155475000Y-103850000D01*
G75*
G02*
X155225000Y-104100000I-250000J0D01*
G01*
X154275000Y-104100000D01*
G75*
G02*
X154025000Y-103850000I0J250000D01*
G01*
X154025000Y-103350000D01*
G75*
G02*
X154275000Y-103100000I250000J0D01*
G01*
G37*
G36*
G01*
X156525000Y-118950000D02*
X157475000Y-118950000D01*
G75*
G02*
X157725000Y-119200000I0J-250000D01*
G01*
X157725000Y-119700000D01*
G75*
G02*
X157475000Y-119950000I-250000J0D01*
G01*
X156525000Y-119950000D01*
G75*
G02*
X156275000Y-119700000I0J250000D01*
G01*
X156275000Y-119200000D01*
G75*
G02*
X156525000Y-118950000I250000J0D01*
G01*
G37*
G36*
G01*
X156525000Y-117050000D02*
X157475000Y-117050000D01*
G75*
G02*
X157725000Y-117300000I0J-250000D01*
G01*
X157725000Y-117800000D01*
G75*
G02*
X157475000Y-118050000I-250000J0D01*
G01*
X156525000Y-118050000D01*
G75*
G02*
X156275000Y-117800000I0J250000D01*
G01*
X156275000Y-117300000D01*
G75*
G02*
X156525000Y-117050000I250000J0D01*
G01*
G37*
G36*
G01*
X156525000Y-111950000D02*
X157475000Y-111950000D01*
G75*
G02*
X157725000Y-112200000I0J-250000D01*
G01*
X157725000Y-112700000D01*
G75*
G02*
X157475000Y-112950000I-250000J0D01*
G01*
X156525000Y-112950000D01*
G75*
G02*
X156275000Y-112700000I0J250000D01*
G01*
X156275000Y-112200000D01*
G75*
G02*
X156525000Y-111950000I250000J0D01*
G01*
G37*
G36*
G01*
X156525000Y-110050000D02*
X157475000Y-110050000D01*
G75*
G02*
X157725000Y-110300000I0J-250000D01*
G01*
X157725000Y-110800000D01*
G75*
G02*
X157475000Y-111050000I-250000J0D01*
G01*
X156525000Y-111050000D01*
G75*
G02*
X156275000Y-110800000I0J250000D01*
G01*
X156275000Y-110300000D01*
G75*
G02*
X156525000Y-110050000I250000J0D01*
G01*
G37*
G36*
G01*
X156525000Y-105000000D02*
X157475000Y-105000000D01*
G75*
G02*
X157725000Y-105250000I0J-250000D01*
G01*
X157725000Y-105750000D01*
G75*
G02*
X157475000Y-106000000I-250000J0D01*
G01*
X156525000Y-106000000D01*
G75*
G02*
X156275000Y-105750000I0J250000D01*
G01*
X156275000Y-105250000D01*
G75*
G02*
X156525000Y-105000000I250000J0D01*
G01*
G37*
G36*
G01*
X156525000Y-103100000D02*
X157475000Y-103100000D01*
G75*
G02*
X157725000Y-103350000I0J-250000D01*
G01*
X157725000Y-103850000D01*
G75*
G02*
X157475000Y-104100000I-250000J0D01*
G01*
X156525000Y-104100000D01*
G75*
G02*
X156275000Y-103850000I0J250000D01*
G01*
X156275000Y-103350000D01*
G75*
G02*
X156525000Y-103100000I250000J0D01*
G01*
G37*
G36*
G01*
X154275000Y-118950000D02*
X155225000Y-118950000D01*
G75*
G02*
X155475000Y-119200000I0J-250000D01*
G01*
X155475000Y-119700000D01*
G75*
G02*
X155225000Y-119950000I-250000J0D01*
G01*
X154275000Y-119950000D01*
G75*
G02*
X154025000Y-119700000I0J250000D01*
G01*
X154025000Y-119200000D01*
G75*
G02*
X154275000Y-118950000I250000J0D01*
G01*
G37*
G36*
G01*
X154275000Y-117050000D02*
X155225000Y-117050000D01*
G75*
G02*
X155475000Y-117300000I0J-250000D01*
G01*
X155475000Y-117800000D01*
G75*
G02*
X155225000Y-118050000I-250000J0D01*
G01*
X154275000Y-118050000D01*
G75*
G02*
X154025000Y-117800000I0J250000D01*
G01*
X154025000Y-117300000D01*
G75*
G02*
X154275000Y-117050000I250000J0D01*
G01*
G37*
G36*
G01*
X154275000Y-111950000D02*
X155225000Y-111950000D01*
G75*
G02*
X155475000Y-112200000I0J-250000D01*
G01*
X155475000Y-112700000D01*
G75*
G02*
X155225000Y-112950000I-250000J0D01*
G01*
X154275000Y-112950000D01*
G75*
G02*
X154025000Y-112700000I0J250000D01*
G01*
X154025000Y-112200000D01*
G75*
G02*
X154275000Y-111950000I250000J0D01*
G01*
G37*
G36*
G01*
X154275000Y-110050000D02*
X155225000Y-110050000D01*
G75*
G02*
X155475000Y-110300000I0J-250000D01*
G01*
X155475000Y-110800000D01*
G75*
G02*
X155225000Y-111050000I-250000J0D01*
G01*
X154275000Y-111050000D01*
G75*
G02*
X154025000Y-110800000I0J250000D01*
G01*
X154025000Y-110300000D01*
G75*
G02*
X154275000Y-110050000I250000J0D01*
G01*
G37*
G36*
G01*
X158775000Y-105000000D02*
X159725000Y-105000000D01*
G75*
G02*
X159975000Y-105250000I0J-250000D01*
G01*
X159975000Y-105750000D01*
G75*
G02*
X159725000Y-106000000I-250000J0D01*
G01*
X158775000Y-106000000D01*
G75*
G02*
X158525000Y-105750000I0J250000D01*
G01*
X158525000Y-105250000D01*
G75*
G02*
X158775000Y-105000000I250000J0D01*
G01*
G37*
G36*
G01*
X158775000Y-103100000D02*
X159725000Y-103100000D01*
G75*
G02*
X159975000Y-103350000I0J-250000D01*
G01*
X159975000Y-103850000D01*
G75*
G02*
X159725000Y-104100000I-250000J0D01*
G01*
X158775000Y-104100000D01*
G75*
G02*
X158525000Y-103850000I0J250000D01*
G01*
X158525000Y-103350000D01*
G75*
G02*
X158775000Y-103100000I250000J0D01*
G01*
G37*
G36*
G01*
X142225000Y-119050000D02*
X141275000Y-119050000D01*
G75*
G02*
X141025000Y-118800000I0J250000D01*
G01*
X141025000Y-118300000D01*
G75*
G02*
X141275000Y-118050000I250000J0D01*
G01*
X142225000Y-118050000D01*
G75*
G02*
X142475000Y-118300000I0J-250000D01*
G01*
X142475000Y-118800000D01*
G75*
G02*
X142225000Y-119050000I-250000J0D01*
G01*
G37*
G36*
G01*
X142225000Y-120950000D02*
X141275000Y-120950000D01*
G75*
G02*
X141025000Y-120700000I0J250000D01*
G01*
X141025000Y-120200000D01*
G75*
G02*
X141275000Y-119950000I250000J0D01*
G01*
X142225000Y-119950000D01*
G75*
G02*
X142475000Y-120200000I0J-250000D01*
G01*
X142475000Y-120700000D01*
G75*
G02*
X142225000Y-120950000I-250000J0D01*
G01*
G37*
G36*
G01*
X142225000Y-112050000D02*
X141275000Y-112050000D01*
G75*
G02*
X141025000Y-111800000I0J250000D01*
G01*
X141025000Y-111300000D01*
G75*
G02*
X141275000Y-111050000I250000J0D01*
G01*
X142225000Y-111050000D01*
G75*
G02*
X142475000Y-111300000I0J-250000D01*
G01*
X142475000Y-111800000D01*
G75*
G02*
X142225000Y-112050000I-250000J0D01*
G01*
G37*
G36*
G01*
X142225000Y-113950000D02*
X141275000Y-113950000D01*
G75*
G02*
X141025000Y-113700000I0J250000D01*
G01*
X141025000Y-113200000D01*
G75*
G02*
X141275000Y-112950000I250000J0D01*
G01*
X142225000Y-112950000D01*
G75*
G02*
X142475000Y-113200000I0J-250000D01*
G01*
X142475000Y-113700000D01*
G75*
G02*
X142225000Y-113950000I-250000J0D01*
G01*
G37*
G36*
G01*
X139975000Y-105050000D02*
X139025000Y-105050000D01*
G75*
G02*
X138775000Y-104800000I0J250000D01*
G01*
X138775000Y-104300000D01*
G75*
G02*
X139025000Y-104050000I250000J0D01*
G01*
X139975000Y-104050000D01*
G75*
G02*
X140225000Y-104300000I0J-250000D01*
G01*
X140225000Y-104800000D01*
G75*
G02*
X139975000Y-105050000I-250000J0D01*
G01*
G37*
G36*
G01*
X139975000Y-106950000D02*
X139025000Y-106950000D01*
G75*
G02*
X138775000Y-106700000I0J250000D01*
G01*
X138775000Y-106200000D01*
G75*
G02*
X139025000Y-105950000I250000J0D01*
G01*
X139975000Y-105950000D01*
G75*
G02*
X140225000Y-106200000I0J-250000D01*
G01*
X140225000Y-106700000D01*
G75*
G02*
X139975000Y-106950000I-250000J0D01*
G01*
G37*
G36*
G01*
X139975000Y-119050000D02*
X139025000Y-119050000D01*
G75*
G02*
X138775000Y-118800000I0J250000D01*
G01*
X138775000Y-118300000D01*
G75*
G02*
X139025000Y-118050000I250000J0D01*
G01*
X139975000Y-118050000D01*
G75*
G02*
X140225000Y-118300000I0J-250000D01*
G01*
X140225000Y-118800000D01*
G75*
G02*
X139975000Y-119050000I-250000J0D01*
G01*
G37*
G36*
G01*
X139975000Y-120950000D02*
X139025000Y-120950000D01*
G75*
G02*
X138775000Y-120700000I0J250000D01*
G01*
X138775000Y-120200000D01*
G75*
G02*
X139025000Y-119950000I250000J0D01*
G01*
X139975000Y-119950000D01*
G75*
G02*
X140225000Y-120200000I0J-250000D01*
G01*
X140225000Y-120700000D01*
G75*
G02*
X139975000Y-120950000I-250000J0D01*
G01*
G37*
G36*
G01*
X139975000Y-112050000D02*
X139025000Y-112050000D01*
G75*
G02*
X138775000Y-111800000I0J250000D01*
G01*
X138775000Y-111300000D01*
G75*
G02*
X139025000Y-111050000I250000J0D01*
G01*
X139975000Y-111050000D01*
G75*
G02*
X140225000Y-111300000I0J-250000D01*
G01*
X140225000Y-111800000D01*
G75*
G02*
X139975000Y-112050000I-250000J0D01*
G01*
G37*
G36*
G01*
X139975000Y-113950000D02*
X139025000Y-113950000D01*
G75*
G02*
X138775000Y-113700000I0J250000D01*
G01*
X138775000Y-113200000D01*
G75*
G02*
X139025000Y-112950000I250000J0D01*
G01*
X139975000Y-112950000D01*
G75*
G02*
X140225000Y-113200000I0J-250000D01*
G01*
X140225000Y-113700000D01*
G75*
G02*
X139975000Y-113950000I-250000J0D01*
G01*
G37*
G36*
G01*
X142225000Y-105050000D02*
X141275000Y-105050000D01*
G75*
G02*
X141025000Y-104800000I0J250000D01*
G01*
X141025000Y-104300000D01*
G75*
G02*
X141275000Y-104050000I250000J0D01*
G01*
X142225000Y-104050000D01*
G75*
G02*
X142475000Y-104300000I0J-250000D01*
G01*
X142475000Y-104800000D01*
G75*
G02*
X142225000Y-105050000I-250000J0D01*
G01*
G37*
G36*
G01*
X142225000Y-106950000D02*
X141275000Y-106950000D01*
G75*
G02*
X141025000Y-106700000I0J250000D01*
G01*
X141025000Y-106200000D01*
G75*
G02*
X141275000Y-105950000I250000J0D01*
G01*
X142225000Y-105950000D01*
G75*
G02*
X142475000Y-106200000I0J-250000D01*
G01*
X142475000Y-106700000D01*
G75*
G02*
X142225000Y-106950000I-250000J0D01*
G01*
G37*
G36*
G01*
X138982322Y-75404073D02*
X139654073Y-74732322D01*
G75*
G02*
X140007627Y-74732322I176777J-176777D01*
G01*
X140361180Y-75085875D01*
G75*
G02*
X140361180Y-75439429I-176777J-176777D01*
G01*
X139689429Y-76111180D01*
G75*
G02*
X139335875Y-76111180I-176777J176777D01*
G01*
X138982322Y-75757627D01*
G75*
G02*
X138982322Y-75404073I176777J176777D01*
G01*
G37*
G36*
G01*
X137638820Y-74060571D02*
X138310571Y-73388820D01*
G75*
G02*
X138664125Y-73388820I176777J-176777D01*
G01*
X139017678Y-73742373D01*
G75*
G02*
X139017678Y-74095927I-176777J-176777D01*
G01*
X138345927Y-74767678D01*
G75*
G02*
X137992373Y-74767678I-176777J176777D01*
G01*
X137638820Y-74414125D01*
G75*
G02*
X137638820Y-74060571I176777J176777D01*
G01*
G37*
G36*
G01*
X140732322Y-73654073D02*
X141404073Y-72982322D01*
G75*
G02*
X141757627Y-72982322I176777J-176777D01*
G01*
X142111180Y-73335875D01*
G75*
G02*
X142111180Y-73689429I-176777J-176777D01*
G01*
X141439429Y-74361180D01*
G75*
G02*
X141085875Y-74361180I-176777J176777D01*
G01*
X140732322Y-74007627D01*
G75*
G02*
X140732322Y-73654073I176777J176777D01*
G01*
G37*
G36*
G01*
X139388820Y-72310571D02*
X140060571Y-71638820D01*
G75*
G02*
X140414125Y-71638820I176777J-176777D01*
G01*
X140767678Y-71992373D01*
G75*
G02*
X140767678Y-72345927I-176777J-176777D01*
G01*
X140095927Y-73017678D01*
G75*
G02*
X139742373Y-73017678I-176777J176777D01*
G01*
X139388820Y-72664125D01*
G75*
G02*
X139388820Y-72310571I176777J176777D01*
G01*
G37*
G36*
G01*
X149725000Y-90550000D02*
X148775000Y-90550000D01*
G75*
G02*
X148525000Y-90300000I0J250000D01*
G01*
X148525000Y-89800000D01*
G75*
G02*
X148775000Y-89550000I250000J0D01*
G01*
X149725000Y-89550000D01*
G75*
G02*
X149975000Y-89800000I0J-250000D01*
G01*
X149975000Y-90300000D01*
G75*
G02*
X149725000Y-90550000I-250000J0D01*
G01*
G37*
G36*
G01*
X149725000Y-92450000D02*
X148775000Y-92450000D01*
G75*
G02*
X148525000Y-92200000I0J250000D01*
G01*
X148525000Y-91700000D01*
G75*
G02*
X148775000Y-91450000I250000J0D01*
G01*
X149725000Y-91450000D01*
G75*
G02*
X149975000Y-91700000I0J-250000D01*
G01*
X149975000Y-92200000D01*
G75*
G02*
X149725000Y-92450000I-250000J0D01*
G01*
G37*
G36*
G01*
X135904073Y-74017678D02*
X135232322Y-73345927D01*
G75*
G02*
X135232322Y-72992373I176777J176777D01*
G01*
X135585875Y-72638820D01*
G75*
G02*
X135939429Y-72638820I176777J-176777D01*
G01*
X136611180Y-73310571D01*
G75*
G02*
X136611180Y-73664125I-176777J-176777D01*
G01*
X136257627Y-74017678D01*
G75*
G02*
X135904073Y-74017678I-176777J176777D01*
G01*
G37*
G36*
G01*
X134560571Y-75361180D02*
X133888820Y-74689429D01*
G75*
G02*
X133888820Y-74335875I176777J176777D01*
G01*
X134242373Y-73982322D01*
G75*
G02*
X134595927Y-73982322I176777J-176777D01*
G01*
X135267678Y-74654073D01*
G75*
G02*
X135267678Y-75007627I-176777J-176777D01*
G01*
X134914125Y-75361180D01*
G75*
G02*
X134560571Y-75361180I-176777J176777D01*
G01*
G37*
G36*
G01*
X131845927Y-76732322D02*
X132517678Y-77404073D01*
G75*
G02*
X132517678Y-77757627I-176777J-176777D01*
G01*
X132164125Y-78111180D01*
G75*
G02*
X131810571Y-78111180I-176777J176777D01*
G01*
X131138820Y-77439429D01*
G75*
G02*
X131138820Y-77085875I176777J176777D01*
G01*
X131492373Y-76732322D01*
G75*
G02*
X131845927Y-76732322I176777J-176777D01*
G01*
G37*
G36*
G01*
X133189429Y-75388820D02*
X133861180Y-76060571D01*
G75*
G02*
X133861180Y-76414125I-176777J-176777D01*
G01*
X133507627Y-76767678D01*
G75*
G02*
X133154073Y-76767678I-176777J176777D01*
G01*
X132482322Y-76095927D01*
G75*
G02*
X132482322Y-75742373I176777J176777D01*
G01*
X132835875Y-75388820D01*
G75*
G02*
X133189429Y-75388820I176777J-176777D01*
G01*
G37*
G36*
G01*
X127775000Y-100200000D02*
X128725000Y-100200000D01*
G75*
G02*
X128975000Y-100450000I0J-250000D01*
G01*
X128975000Y-100950000D01*
G75*
G02*
X128725000Y-101200000I-250000J0D01*
G01*
X127775000Y-101200000D01*
G75*
G02*
X127525000Y-100950000I0J250000D01*
G01*
X127525000Y-100450000D01*
G75*
G02*
X127775000Y-100200000I250000J0D01*
G01*
G37*
G36*
G01*
X127775000Y-98300000D02*
X128725000Y-98300000D01*
G75*
G02*
X128975000Y-98550000I0J-250000D01*
G01*
X128975000Y-99050000D01*
G75*
G02*
X128725000Y-99300000I-250000J0D01*
G01*
X127775000Y-99300000D01*
G75*
G02*
X127525000Y-99050000I0J250000D01*
G01*
X127525000Y-98550000D01*
G75*
G02*
X127775000Y-98300000I250000J0D01*
G01*
G37*
G36*
G01*
X144225000Y-86300000D02*
X143275000Y-86300000D01*
G75*
G02*
X143025000Y-86050000I0J250000D01*
G01*
X143025000Y-85550000D01*
G75*
G02*
X143275000Y-85300000I250000J0D01*
G01*
X144225000Y-85300000D01*
G75*
G02*
X144475000Y-85550000I0J-250000D01*
G01*
X144475000Y-86050000D01*
G75*
G02*
X144225000Y-86300000I-250000J0D01*
G01*
G37*
G36*
G01*
X144225000Y-88200000D02*
X143275000Y-88200000D01*
G75*
G02*
X143025000Y-87950000I0J250000D01*
G01*
X143025000Y-87450000D01*
G75*
G02*
X143275000Y-87200000I250000J0D01*
G01*
X144225000Y-87200000D01*
G75*
G02*
X144475000Y-87450000I0J-250000D01*
G01*
X144475000Y-87950000D01*
G75*
G02*
X144225000Y-88200000I-250000J0D01*
G01*
G37*
G36*
G01*
X145025000Y-95700000D02*
X145975000Y-95700000D01*
G75*
G02*
X146225000Y-95950000I0J-250000D01*
G01*
X146225000Y-96450000D01*
G75*
G02*
X145975000Y-96700000I-250000J0D01*
G01*
X145025000Y-96700000D01*
G75*
G02*
X144775000Y-96450000I0J250000D01*
G01*
X144775000Y-95950000D01*
G75*
G02*
X145025000Y-95700000I250000J0D01*
G01*
G37*
G36*
G01*
X145025000Y-93800000D02*
X145975000Y-93800000D01*
G75*
G02*
X146225000Y-94050000I0J-250000D01*
G01*
X146225000Y-94550000D01*
G75*
G02*
X145975000Y-94800000I-250000J0D01*
G01*
X145025000Y-94800000D01*
G75*
G02*
X144775000Y-94550000I0J250000D01*
G01*
X144775000Y-94050000D01*
G75*
G02*
X145025000Y-93800000I250000J0D01*
G01*
G37*
G36*
G01*
X132550000Y-83275000D02*
X132550000Y-84225000D01*
G75*
G02*
X132300000Y-84475000I-250000J0D01*
G01*
X131800000Y-84475000D01*
G75*
G02*
X131550000Y-84225000I0J250000D01*
G01*
X131550000Y-83275000D01*
G75*
G02*
X131800000Y-83025000I250000J0D01*
G01*
X132300000Y-83025000D01*
G75*
G02*
X132550000Y-83275000I0J-250000D01*
G01*
G37*
G36*
G01*
X134450000Y-83275000D02*
X134450000Y-84225000D01*
G75*
G02*
X134200000Y-84475000I-250000J0D01*
G01*
X133700000Y-84475000D01*
G75*
G02*
X133450000Y-84225000I0J250000D01*
G01*
X133450000Y-83275000D01*
G75*
G02*
X133700000Y-83025000I250000J0D01*
G01*
X134200000Y-83025000D01*
G75*
G02*
X134450000Y-83275000I0J-250000D01*
G01*
G37*
G36*
G01*
X147550000Y-78025000D02*
X147550000Y-78975000D01*
G75*
G02*
X147300000Y-79225000I-250000J0D01*
G01*
X146800000Y-79225000D01*
G75*
G02*
X146550000Y-78975000I0J250000D01*
G01*
X146550000Y-78025000D01*
G75*
G02*
X146800000Y-77775000I250000J0D01*
G01*
X147300000Y-77775000D01*
G75*
G02*
X147550000Y-78025000I0J-250000D01*
G01*
G37*
G36*
G01*
X149450000Y-78025000D02*
X149450000Y-78975000D01*
G75*
G02*
X149200000Y-79225000I-250000J0D01*
G01*
X148700000Y-79225000D01*
G75*
G02*
X148450000Y-78975000I0J250000D01*
G01*
X148450000Y-78025000D01*
G75*
G02*
X148700000Y-77775000I250000J0D01*
G01*
X149200000Y-77775000D01*
G75*
G02*
X149450000Y-78025000I0J-250000D01*
G01*
G37*
G36*
G01*
X145975000Y-98550000D02*
X145025000Y-98550000D01*
G75*
G02*
X144775000Y-98300000I0J250000D01*
G01*
X144775000Y-97800000D01*
G75*
G02*
X145025000Y-97550000I250000J0D01*
G01*
X145975000Y-97550000D01*
G75*
G02*
X146225000Y-97800000I0J-250000D01*
G01*
X146225000Y-98300000D01*
G75*
G02*
X145975000Y-98550000I-250000J0D01*
G01*
G37*
G36*
G01*
X145975000Y-100450000D02*
X145025000Y-100450000D01*
G75*
G02*
X144775000Y-100200000I0J250000D01*
G01*
X144775000Y-99700000D01*
G75*
G02*
X145025000Y-99450000I250000J0D01*
G01*
X145975000Y-99450000D01*
G75*
G02*
X146225000Y-99700000I0J-250000D01*
G01*
X146225000Y-100200000D01*
G75*
G02*
X145975000Y-100450000I-250000J0D01*
G01*
G37*
G36*
G01*
X132450000Y-88975000D02*
X132450000Y-88025000D01*
G75*
G02*
X132700000Y-87775000I250000J0D01*
G01*
X133200000Y-87775000D01*
G75*
G02*
X133450000Y-88025000I0J-250000D01*
G01*
X133450000Y-88975000D01*
G75*
G02*
X133200000Y-89225000I-250000J0D01*
G01*
X132700000Y-89225000D01*
G75*
G02*
X132450000Y-88975000I0J250000D01*
G01*
G37*
G36*
G01*
X130550000Y-88975000D02*
X130550000Y-88025000D01*
G75*
G02*
X130800000Y-87775000I250000J0D01*
G01*
X131300000Y-87775000D01*
G75*
G02*
X131550000Y-88025000I0J-250000D01*
G01*
X131550000Y-88975000D01*
G75*
G02*
X131300000Y-89225000I-250000J0D01*
G01*
X130800000Y-89225000D01*
G75*
G02*
X130550000Y-88975000I0J250000D01*
G01*
G37*
M02*
