%FSLAX45Y45*%
G04 Gerber Fmt 4.5, Leading zero omitted, Abs format (unit mm)*
G04 Created by KiCad (PCBNEW (6.0.0-0)) date 2022-10-20 15:52:44*
%MOMM*%
%LPD*%
G01*
G04 APERTURE LIST*
%TA.AperFunction,Profile*%
%ADD10C,0.050000*%
%TD*%
%ADD11C,0.200000*%
G04 APERTURE END LIST*
D10*
X7500000Y-9750000D02*
X7500000Y-12750000D01*
X5000000Y-12750000D02*
G75*
G03*
X5250000Y-13000000I250000J0D01*
G01*
X7350000Y-12750000D02*
G75*
G03*
X7350000Y-12750000I-100000J0D01*
G01*
X7250000Y-13000000D02*
X5250000Y-13000000D01*
X5250000Y-9500000D02*
X7250000Y-9500000D01*
X5350000Y-9750000D02*
G75*
G03*
X5350000Y-9750000I-100000J0D01*
G01*
X7350000Y-9750000D02*
G75*
G03*
X7350000Y-9750000I-100000J0D01*
G01*
X5000000Y-12750000D02*
X5000000Y-9750000D01*
X5250000Y-9500000D02*
G75*
G03*
X5000000Y-9750000I0J-250000D01*
G01*
X7500000Y-9750000D02*
G75*
G03*
X7250000Y-9500000I-250000J0D01*
G01*
X5350000Y-12750000D02*
G75*
G03*
X5350000Y-12750000I-100000J0D01*
G01*
X7250000Y-13000000D02*
G75*
G03*
X7500000Y-12750000I0J250000D01*
G01*
D11*
X5255119Y-13312976D02*
X5255119Y-13112976D01*
X5302738Y-13112976D01*
X5331310Y-13122500D01*
X5350357Y-13141548D01*
X5359881Y-13160595D01*
X5369405Y-13198690D01*
X5369405Y-13227262D01*
X5359881Y-13265357D01*
X5350357Y-13284405D01*
X5331310Y-13303452D01*
X5302738Y-13312976D01*
X5255119Y-13312976D01*
X5455119Y-13312976D02*
X5455119Y-13179643D01*
X5455119Y-13217738D02*
X5464643Y-13198690D01*
X5474167Y-13189167D01*
X5493214Y-13179643D01*
X5512262Y-13179643D01*
X5578929Y-13312976D02*
X5578929Y-13179643D01*
X5578929Y-13112976D02*
X5569405Y-13122500D01*
X5578929Y-13132024D01*
X5588452Y-13122500D01*
X5578929Y-13112976D01*
X5578929Y-13132024D01*
X5702738Y-13312976D02*
X5683690Y-13303452D01*
X5674167Y-13284405D01*
X5674167Y-13112976D01*
X5807500Y-13312976D02*
X5788452Y-13303452D01*
X5778928Y-13284405D01*
X5778928Y-13112976D01*
X6036071Y-13312976D02*
X6036071Y-13112976D01*
X6102738Y-13255833D01*
X6169405Y-13112976D01*
X6169405Y-13312976D01*
X6350357Y-13312976D02*
X6350357Y-13208214D01*
X6340833Y-13189167D01*
X6321786Y-13179643D01*
X6283690Y-13179643D01*
X6264643Y-13189167D01*
X6350357Y-13303452D02*
X6331309Y-13312976D01*
X6283690Y-13312976D01*
X6264643Y-13303452D01*
X6255119Y-13284405D01*
X6255119Y-13265357D01*
X6264643Y-13246309D01*
X6283690Y-13236786D01*
X6331309Y-13236786D01*
X6350357Y-13227262D01*
X6445595Y-13179643D02*
X6445595Y-13379643D01*
X6445595Y-13189167D02*
X6464643Y-13179643D01*
X6502738Y-13179643D01*
X6521786Y-13189167D01*
X6531309Y-13198690D01*
X6540833Y-13217738D01*
X6540833Y-13274881D01*
X6531309Y-13293928D01*
X6521786Y-13303452D01*
X6502738Y-13312976D01*
X6464643Y-13312976D01*
X6445595Y-13303452D01*
X6626548Y-13293928D02*
X6636071Y-13303452D01*
X6626548Y-13312976D01*
X6617024Y-13303452D01*
X6626548Y-13293928D01*
X6626548Y-13312976D01*
X6626548Y-13189167D02*
X6636071Y-13198690D01*
X6626548Y-13208214D01*
X6617024Y-13198690D01*
X6626548Y-13189167D01*
X6626548Y-13208214D01*
M02*
