%TF.GenerationSoftware,KiCad,Pcbnew,(6.0.0-0)*%
%TF.CreationDate,2022-10-20T15:52:38+11:00*%
%TF.ProjectId,WLED_Controller,574c4544-5f43-46f6-9e74-726f6c6c6572,rev?*%
%TF.SameCoordinates,Original*%
%TF.FileFunction,Soldermask,Top*%
%TF.FilePolarity,Negative*%
%FSLAX46Y46*%
G04 Gerber Fmt 4.6, Leading zero omitted, Abs format (unit mm)*
G04 Created by KiCad (PCBNEW (6.0.0-0)) date 2022-10-20 15:52:38*
%MOMM*%
%LPD*%
G01*
G04 APERTURE LIST*
G04 Aperture macros list*
%AMRoundRect*
0 Rectangle with rounded corners*
0 $1 Rounding radius*
0 $2 $3 $4 $5 $6 $7 $8 $9 X,Y pos of 4 corners*
0 Add a 4 corners polygon primitive as box body*
4,1,4,$2,$3,$4,$5,$6,$7,$8,$9,$2,$3,0*
0 Add four circle primitives for the rounded corners*
1,1,$1+$1,$2,$3*
1,1,$1+$1,$4,$5*
1,1,$1+$1,$6,$7*
1,1,$1+$1,$8,$9*
0 Add four rect primitives between the rounded corners*
20,1,$1+$1,$2,$3,$4,$5,0*
20,1,$1+$1,$4,$5,$6,$7,0*
20,1,$1+$1,$6,$7,$8,$9,0*
20,1,$1+$1,$8,$9,$2,$3,0*%
G04 Aperture macros list end*
%ADD10RoundRect,0.050000X-0.400000X-0.250000X0.400000X-0.250000X0.400000X0.250000X-0.400000X0.250000X0*%
%ADD11RoundRect,0.050000X-0.400000X-0.200000X0.400000X-0.200000X0.400000X0.200000X-0.400000X0.200000X0*%
%ADD12RoundRect,0.050000X0.250000X-0.400000X0.250000X0.400000X-0.250000X0.400000X-0.250000X-0.400000X0*%
%ADD13RoundRect,0.050000X0.200000X-0.400000X0.200000X0.400000X-0.200000X0.400000X-0.200000X-0.400000X0*%
%ADD14RoundRect,0.275000X-0.250000X0.225000X-0.250000X-0.225000X0.250000X-0.225000X0.250000X0.225000X0*%
%ADD15RoundRect,0.275000X-0.225000X-0.250000X0.225000X-0.250000X0.225000X0.250000X-0.225000X0.250000X0*%
%ADD16RoundRect,0.250000X-0.275000X0.200000X-0.275000X-0.200000X0.275000X-0.200000X0.275000X0.200000X0*%
%ADD17RoundRect,0.250000X-0.200000X-0.275000X0.200000X-0.275000X0.200000X0.275000X-0.200000X0.275000X0*%
%ADD18RoundRect,0.200000X-0.512500X-0.150000X0.512500X-0.150000X0.512500X0.150000X-0.512500X0.150000X0*%
%ADD19RoundRect,0.275000X0.225000X0.250000X-0.225000X0.250000X-0.225000X-0.250000X0.225000X-0.250000X0*%
%ADD20RoundRect,0.300000X-0.350000X-0.625000X0.350000X-0.625000X0.350000X0.625000X-0.350000X0.625000X0*%
%ADD21O,1.300000X1.850000*%
%ADD22RoundRect,0.275000X0.250000X-0.225000X0.250000X0.225000X-0.250000X0.225000X-0.250000X-0.225000X0*%
%ADD23RoundRect,0.112500X-0.337500X-0.062500X0.337500X-0.062500X0.337500X0.062500X-0.337500X0.062500X0*%
%ADD24RoundRect,0.112500X-0.062500X-0.337500X0.062500X-0.337500X0.062500X0.337500X-0.062500X0.337500X0*%
%ADD25RoundRect,0.050000X-1.675000X-1.675000X1.675000X-1.675000X1.675000X1.675000X-1.675000X1.675000X0*%
%ADD26RoundRect,0.050000X0.225000X-0.300000X0.225000X0.300000X-0.225000X0.300000X-0.225000X-0.300000X0*%
%ADD27RoundRect,0.250000X0.275000X-0.200000X0.275000X0.200000X-0.275000X0.200000X-0.275000X-0.200000X0*%
%ADD28RoundRect,0.050000X0.850000X-0.850000X0.850000X0.850000X-0.850000X0.850000X-0.850000X-0.850000X0*%
%ADD29O,1.800000X1.800000*%
%ADD30RoundRect,0.050000X0.500000X-0.850000X0.500000X0.850000X-0.500000X0.850000X-0.500000X-0.850000X0*%
%ADD31RoundRect,0.268750X-0.256250X0.218750X-0.256250X-0.218750X0.256250X-0.218750X0.256250X0.218750X0*%
%ADD32RoundRect,0.200000X0.150000X-0.587500X0.150000X0.587500X-0.150000X0.587500X-0.150000X-0.587500X0*%
%ADD33RoundRect,0.250000X0.200000X0.275000X-0.200000X0.275000X-0.200000X-0.275000X0.200000X-0.275000X0*%
%ADD34RoundRect,0.050000X-0.500000X0.850000X-0.500000X-0.850000X0.500000X-0.850000X0.500000X0.850000X0*%
%ADD35RoundRect,0.200000X-0.150000X0.587500X-0.150000X-0.587500X0.150000X-0.587500X0.150000X0.587500X0*%
G04 APERTURE END LIST*
D10*
X69850000Y-107550000D03*
D11*
X69850000Y-109150000D03*
X69850000Y-108350000D03*
D10*
X69850000Y-109950000D03*
D11*
X71650000Y-108350000D03*
D10*
X71650000Y-107550000D03*
D11*
X71650000Y-109150000D03*
D10*
X71650000Y-109950000D03*
D12*
X58900000Y-114700000D03*
D13*
X60500000Y-114700000D03*
X59700000Y-114700000D03*
D12*
X61300000Y-114700000D03*
D13*
X59700000Y-112900000D03*
D12*
X58900000Y-112900000D03*
D13*
X60500000Y-112900000D03*
D12*
X61300000Y-112900000D03*
D14*
X67500000Y-116475000D03*
X67500000Y-118025000D03*
D15*
X72225000Y-118950000D03*
X73775000Y-118950000D03*
X69225000Y-120500000D03*
X70775000Y-120500000D03*
D16*
X61850000Y-108537500D03*
X61850000Y-110187500D03*
D17*
X52925000Y-116500000D03*
X54575000Y-116500000D03*
X59100000Y-116500000D03*
X60750000Y-116500000D03*
D18*
X66212500Y-123500000D03*
X66212500Y-124450000D03*
X66212500Y-125400000D03*
X68487500Y-125400000D03*
X68487500Y-123500000D03*
D19*
X64925000Y-103200000D03*
X66475000Y-103200000D03*
D14*
X70250000Y-123675000D03*
X70250000Y-125225000D03*
D18*
X56362500Y-118100000D03*
X56362500Y-119050000D03*
X56362500Y-120000000D03*
X58637500Y-120000000D03*
X58637500Y-118100000D03*
D20*
X52000000Y-123550000D03*
D21*
X54000000Y-123550000D03*
D22*
X60500000Y-119775000D03*
X60500000Y-118225000D03*
D23*
X69050000Y-113250000D03*
X69050000Y-113750000D03*
X69050000Y-114250000D03*
X69050000Y-114750000D03*
X69050000Y-115250000D03*
X69050000Y-115750000D03*
X69050000Y-116250000D03*
D24*
X70000000Y-117200000D03*
X70500000Y-117200000D03*
X71000000Y-117200000D03*
X71500000Y-117200000D03*
X72000000Y-117200000D03*
X72500000Y-117200000D03*
X73000000Y-117200000D03*
D23*
X73950000Y-116250000D03*
X73950000Y-115750000D03*
X73950000Y-115250000D03*
X73950000Y-114750000D03*
X73950000Y-114250000D03*
X73950000Y-113750000D03*
X73950000Y-113250000D03*
D24*
X73000000Y-112300000D03*
X72500000Y-112300000D03*
X72000000Y-112300000D03*
X71500000Y-112300000D03*
X71000000Y-112300000D03*
X70500000Y-112300000D03*
X70000000Y-112300000D03*
D25*
X71500000Y-114750000D03*
D26*
X62000000Y-125300000D03*
X62000000Y-123200000D03*
D27*
X66850000Y-110187500D03*
X66850000Y-108537500D03*
D28*
X58700000Y-128400000D03*
D29*
X61240000Y-128400000D03*
X63780000Y-128400000D03*
X66320000Y-128400000D03*
D15*
X52725000Y-119950000D03*
X54275000Y-119950000D03*
D22*
X67500000Y-113775000D03*
X67500000Y-112225000D03*
D30*
X51100000Y-105650000D03*
X51100000Y-99350000D03*
X54900000Y-105650000D03*
X54900000Y-99350000D03*
D31*
X74000000Y-107962500D03*
X74000000Y-109537500D03*
D32*
X63400000Y-108300000D03*
X65300000Y-108300000D03*
X64350000Y-106425000D03*
D31*
X51000000Y-117712500D03*
X51000000Y-119287500D03*
D22*
X64250000Y-125275000D03*
X64250000Y-123725000D03*
D33*
X57662500Y-116500000D03*
X56012500Y-116500000D03*
X54325000Y-118250000D03*
X52675000Y-118250000D03*
D17*
X62175000Y-121100000D03*
X63825000Y-121100000D03*
D34*
X73900000Y-105650000D03*
X73900000Y-99350000D03*
X70100000Y-105650000D03*
X70100000Y-99350000D03*
D32*
X62300000Y-119337500D03*
X64200000Y-119337500D03*
X63250000Y-117462500D03*
D19*
X70775000Y-118950000D03*
X69225000Y-118950000D03*
D33*
X59825000Y-121750000D03*
X58175000Y-121750000D03*
D35*
X59700000Y-123562500D03*
X57800000Y-123562500D03*
X58750000Y-125437500D03*
X65300000Y-110425000D03*
X63400000Y-110425000D03*
X64350000Y-112300000D03*
G36*
X66723273Y-124799000D02*
G01*
X66723273Y-124801000D01*
X66722350Y-124801829D01*
X66659510Y-124829628D01*
X66620754Y-124888383D01*
X66619916Y-124958763D01*
X66657253Y-125018412D01*
X66722437Y-125048181D01*
X66723597Y-125049810D01*
X66722766Y-125051629D01*
X66721606Y-125052000D01*
X65703459Y-125052000D01*
X65701727Y-125051000D01*
X65701727Y-125049000D01*
X65702650Y-125048171D01*
X65765490Y-125020372D01*
X65804246Y-124961617D01*
X65805084Y-124891237D01*
X65767747Y-124831588D01*
X65702563Y-124801819D01*
X65701403Y-124800190D01*
X65702234Y-124798371D01*
X65703394Y-124798000D01*
X66721541Y-124798000D01*
X66723273Y-124799000D01*
G37*
G36*
X66723273Y-123849000D02*
G01*
X66723273Y-123851000D01*
X66722350Y-123851829D01*
X66659510Y-123879628D01*
X66620754Y-123938383D01*
X66619916Y-124008763D01*
X66657253Y-124068412D01*
X66722437Y-124098181D01*
X66723597Y-124099810D01*
X66722766Y-124101629D01*
X66721606Y-124102000D01*
X65703459Y-124102000D01*
X65701727Y-124101000D01*
X65701727Y-124099000D01*
X65702650Y-124098171D01*
X65765490Y-124070372D01*
X65804246Y-124011617D01*
X65805084Y-123941237D01*
X65767747Y-123881588D01*
X65702563Y-123851819D01*
X65701403Y-123850190D01*
X65702234Y-123848371D01*
X65703394Y-123848000D01*
X66721541Y-123848000D01*
X66723273Y-123849000D01*
G37*
G36*
X56873273Y-119399000D02*
G01*
X56873273Y-119401000D01*
X56872350Y-119401829D01*
X56809510Y-119429628D01*
X56770754Y-119488383D01*
X56769916Y-119558763D01*
X56807253Y-119618412D01*
X56872437Y-119648181D01*
X56873597Y-119649810D01*
X56872766Y-119651629D01*
X56871606Y-119652000D01*
X55853459Y-119652000D01*
X55851727Y-119651000D01*
X55851727Y-119649000D01*
X55852650Y-119648171D01*
X55915490Y-119620372D01*
X55954246Y-119561617D01*
X55955084Y-119491237D01*
X55917747Y-119431588D01*
X55852563Y-119401819D01*
X55851403Y-119400190D01*
X55852234Y-119398371D01*
X55853394Y-119398000D01*
X56871541Y-119398000D01*
X56873273Y-119399000D01*
G37*
G36*
X56873273Y-118449000D02*
G01*
X56873273Y-118451000D01*
X56872350Y-118451829D01*
X56809510Y-118479628D01*
X56770754Y-118538383D01*
X56769916Y-118608763D01*
X56807253Y-118668412D01*
X56872437Y-118698181D01*
X56873597Y-118699810D01*
X56872766Y-118701629D01*
X56871606Y-118702000D01*
X55853459Y-118702000D01*
X55851727Y-118701000D01*
X55851727Y-118699000D01*
X55852650Y-118698171D01*
X55915490Y-118670372D01*
X55954246Y-118611617D01*
X55955084Y-118541237D01*
X55917747Y-118481588D01*
X55852563Y-118451819D01*
X55851403Y-118450190D01*
X55852234Y-118448371D01*
X55853394Y-118448000D01*
X56871541Y-118448000D01*
X56873273Y-118449000D01*
G37*
G36*
X72652336Y-116794890D02*
G01*
X72700147Y-116834846D01*
X72769980Y-116843618D01*
X72833627Y-116813167D01*
X72841259Y-116804360D01*
X72843149Y-116803706D01*
X72844660Y-116805016D01*
X72844433Y-116806781D01*
X72835449Y-116820227D01*
X72827000Y-116862699D01*
X72827000Y-117537301D01*
X72835449Y-117579773D01*
X72850610Y-117602464D01*
X72850741Y-117604460D01*
X72849078Y-117605571D01*
X72847664Y-117605110D01*
X72799853Y-117565154D01*
X72730020Y-117556382D01*
X72666373Y-117586833D01*
X72658741Y-117595640D01*
X72656851Y-117596294D01*
X72655340Y-117594984D01*
X72655567Y-117593219D01*
X72664551Y-117579773D01*
X72673000Y-117537301D01*
X72673000Y-116862699D01*
X72664551Y-116820227D01*
X72649390Y-116797536D01*
X72649259Y-116795540D01*
X72650922Y-116794429D01*
X72652336Y-116794890D01*
G37*
G36*
X72152336Y-116794890D02*
G01*
X72200147Y-116834846D01*
X72269980Y-116843618D01*
X72333627Y-116813167D01*
X72341259Y-116804360D01*
X72343149Y-116803706D01*
X72344660Y-116805016D01*
X72344433Y-116806781D01*
X72335449Y-116820227D01*
X72327000Y-116862699D01*
X72327000Y-117537301D01*
X72335449Y-117579773D01*
X72350610Y-117602464D01*
X72350741Y-117604460D01*
X72349078Y-117605571D01*
X72347664Y-117605110D01*
X72299853Y-117565154D01*
X72230020Y-117556382D01*
X72166373Y-117586833D01*
X72158741Y-117595640D01*
X72156851Y-117596294D01*
X72155340Y-117594984D01*
X72155567Y-117593219D01*
X72164551Y-117579773D01*
X72173000Y-117537301D01*
X72173000Y-116862699D01*
X72164551Y-116820227D01*
X72149390Y-116797536D01*
X72149259Y-116795540D01*
X72150922Y-116794429D01*
X72152336Y-116794890D01*
G37*
G36*
X71652336Y-116794890D02*
G01*
X71700147Y-116834846D01*
X71769980Y-116843618D01*
X71833627Y-116813167D01*
X71841259Y-116804360D01*
X71843149Y-116803706D01*
X71844660Y-116805016D01*
X71844433Y-116806781D01*
X71835449Y-116820227D01*
X71827000Y-116862699D01*
X71827000Y-117537301D01*
X71835449Y-117579773D01*
X71850610Y-117602464D01*
X71850741Y-117604460D01*
X71849078Y-117605571D01*
X71847664Y-117605110D01*
X71799853Y-117565154D01*
X71730020Y-117556382D01*
X71666373Y-117586833D01*
X71658741Y-117595640D01*
X71656851Y-117596294D01*
X71655340Y-117594984D01*
X71655567Y-117593219D01*
X71664551Y-117579773D01*
X71673000Y-117537301D01*
X71673000Y-116862699D01*
X71664551Y-116820227D01*
X71649390Y-116797536D01*
X71649259Y-116795540D01*
X71650922Y-116794429D01*
X71652336Y-116794890D01*
G37*
G36*
X71152336Y-116794890D02*
G01*
X71200147Y-116834846D01*
X71269980Y-116843618D01*
X71333627Y-116813167D01*
X71341259Y-116804360D01*
X71343149Y-116803706D01*
X71344660Y-116805016D01*
X71344433Y-116806781D01*
X71335449Y-116820227D01*
X71327000Y-116862699D01*
X71327000Y-117537301D01*
X71335449Y-117579773D01*
X71350610Y-117602464D01*
X71350741Y-117604460D01*
X71349078Y-117605571D01*
X71347664Y-117605110D01*
X71299853Y-117565154D01*
X71230020Y-117556382D01*
X71166373Y-117586833D01*
X71158741Y-117595640D01*
X71156851Y-117596294D01*
X71155340Y-117594984D01*
X71155567Y-117593219D01*
X71164551Y-117579773D01*
X71173000Y-117537301D01*
X71173000Y-116862699D01*
X71164551Y-116820227D01*
X71149390Y-116797536D01*
X71149259Y-116795540D01*
X71150922Y-116794429D01*
X71152336Y-116794890D01*
G37*
G36*
X70152336Y-116794890D02*
G01*
X70200147Y-116834846D01*
X70269980Y-116843618D01*
X70333627Y-116813167D01*
X70341259Y-116804360D01*
X70343149Y-116803706D01*
X70344660Y-116805016D01*
X70344433Y-116806781D01*
X70335449Y-116820227D01*
X70327000Y-116862699D01*
X70327000Y-117537301D01*
X70335449Y-117579773D01*
X70350610Y-117602464D01*
X70350741Y-117604460D01*
X70349078Y-117605571D01*
X70347664Y-117605110D01*
X70299853Y-117565154D01*
X70230020Y-117556382D01*
X70166373Y-117586833D01*
X70158741Y-117595640D01*
X70156851Y-117596294D01*
X70155340Y-117594984D01*
X70155567Y-117593219D01*
X70164551Y-117579773D01*
X70173000Y-117537301D01*
X70173000Y-116862699D01*
X70164551Y-116820227D01*
X70149390Y-116797536D01*
X70149259Y-116795540D01*
X70150922Y-116794429D01*
X70152336Y-116794890D01*
G37*
G36*
X70652336Y-116794890D02*
G01*
X70700147Y-116834846D01*
X70769980Y-116843618D01*
X70833627Y-116813167D01*
X70841259Y-116804360D01*
X70843149Y-116803706D01*
X70844660Y-116805016D01*
X70844433Y-116806781D01*
X70835449Y-116820227D01*
X70827000Y-116862699D01*
X70827000Y-117537301D01*
X70835449Y-117579773D01*
X70850610Y-117602464D01*
X70850741Y-117604460D01*
X70849078Y-117605571D01*
X70847664Y-117605110D01*
X70799853Y-117565154D01*
X70730020Y-117556382D01*
X70666373Y-117586833D01*
X70658741Y-117595640D01*
X70656851Y-117596294D01*
X70655340Y-117594984D01*
X70655567Y-117593219D01*
X70664551Y-117579773D01*
X70673000Y-117537301D01*
X70673000Y-116862699D01*
X70664551Y-116820227D01*
X70649390Y-116797536D01*
X70649259Y-116795540D01*
X70650922Y-116794429D01*
X70652336Y-116794890D01*
G37*
G36*
X69455571Y-115900922D02*
G01*
X69455110Y-115902336D01*
X69415154Y-115950147D01*
X69406382Y-116019980D01*
X69436833Y-116083627D01*
X69445640Y-116091259D01*
X69446294Y-116093149D01*
X69444984Y-116094660D01*
X69443219Y-116094433D01*
X69429773Y-116085449D01*
X69387301Y-116077000D01*
X68712699Y-116077000D01*
X68670227Y-116085449D01*
X68647536Y-116100610D01*
X68645540Y-116100741D01*
X68644429Y-116099078D01*
X68644890Y-116097664D01*
X68684846Y-116049853D01*
X68693618Y-115980020D01*
X68663167Y-115916373D01*
X68654360Y-115908741D01*
X68653706Y-115906851D01*
X68655016Y-115905340D01*
X68656781Y-115905567D01*
X68670227Y-115914551D01*
X68712699Y-115923000D01*
X69387301Y-115923000D01*
X69429773Y-115914551D01*
X69452464Y-115899390D01*
X69454460Y-115899259D01*
X69455571Y-115900922D01*
G37*
G36*
X74355571Y-115900922D02*
G01*
X74355110Y-115902336D01*
X74315154Y-115950147D01*
X74306382Y-116019980D01*
X74336833Y-116083627D01*
X74345640Y-116091259D01*
X74346294Y-116093149D01*
X74344984Y-116094660D01*
X74343219Y-116094433D01*
X74329773Y-116085449D01*
X74287301Y-116077000D01*
X73612699Y-116077000D01*
X73570227Y-116085449D01*
X73547536Y-116100610D01*
X73545540Y-116100741D01*
X73544429Y-116099078D01*
X73544890Y-116097664D01*
X73584846Y-116049853D01*
X73593618Y-115980020D01*
X73563167Y-115916373D01*
X73554360Y-115908741D01*
X73553706Y-115906851D01*
X73555016Y-115905340D01*
X73556781Y-115905567D01*
X73570227Y-115914551D01*
X73612699Y-115923000D01*
X74287301Y-115923000D01*
X74329773Y-115914551D01*
X74352464Y-115899390D01*
X74354460Y-115899259D01*
X74355571Y-115900922D01*
G37*
G36*
X74355571Y-115400922D02*
G01*
X74355110Y-115402336D01*
X74315154Y-115450147D01*
X74306382Y-115519980D01*
X74336833Y-115583627D01*
X74345640Y-115591259D01*
X74346294Y-115593149D01*
X74344984Y-115594660D01*
X74343219Y-115594433D01*
X74329773Y-115585449D01*
X74287301Y-115577000D01*
X73612699Y-115577000D01*
X73570227Y-115585449D01*
X73547536Y-115600610D01*
X73545540Y-115600741D01*
X73544429Y-115599078D01*
X73544890Y-115597664D01*
X73584846Y-115549853D01*
X73593618Y-115480020D01*
X73563167Y-115416373D01*
X73554360Y-115408741D01*
X73553706Y-115406851D01*
X73555016Y-115405340D01*
X73556781Y-115405567D01*
X73570227Y-115414551D01*
X73612699Y-115423000D01*
X74287301Y-115423000D01*
X74329773Y-115414551D01*
X74352464Y-115399390D01*
X74354460Y-115399259D01*
X74355571Y-115400922D01*
G37*
G36*
X69455571Y-115400922D02*
G01*
X69455110Y-115402336D01*
X69415154Y-115450147D01*
X69406382Y-115519980D01*
X69436833Y-115583627D01*
X69445640Y-115591259D01*
X69446294Y-115593149D01*
X69444984Y-115594660D01*
X69443219Y-115594433D01*
X69429773Y-115585449D01*
X69387301Y-115577000D01*
X68712699Y-115577000D01*
X68670227Y-115585449D01*
X68647536Y-115600610D01*
X68645540Y-115600741D01*
X68644429Y-115599078D01*
X68644890Y-115597664D01*
X68684846Y-115549853D01*
X68693618Y-115480020D01*
X68663167Y-115416373D01*
X68654360Y-115408741D01*
X68653706Y-115406851D01*
X68655016Y-115405340D01*
X68656781Y-115405567D01*
X68670227Y-115414551D01*
X68712699Y-115423000D01*
X69387301Y-115423000D01*
X69429773Y-115414551D01*
X69452464Y-115399390D01*
X69454460Y-115399259D01*
X69455571Y-115400922D01*
G37*
G36*
X61001319Y-114293570D02*
G01*
X61002000Y-114295074D01*
X61002000Y-115104926D01*
X61001000Y-115106658D01*
X60999000Y-115106658D01*
X60998038Y-115105316D01*
X60997653Y-115103379D01*
X60964891Y-115040749D01*
X60903727Y-115005918D01*
X60833444Y-115009686D01*
X60776306Y-115050887D01*
X60752358Y-115103326D01*
X60751962Y-115105316D01*
X60750643Y-115106820D01*
X60748681Y-115106430D01*
X60748000Y-115104926D01*
X60748000Y-114295074D01*
X60749000Y-114293342D01*
X60751000Y-114293342D01*
X60751962Y-114294684D01*
X60752347Y-114296621D01*
X60785109Y-114359251D01*
X60846273Y-114394082D01*
X60916556Y-114390314D01*
X60973694Y-114349113D01*
X60997642Y-114296674D01*
X60998038Y-114294684D01*
X60999357Y-114293180D01*
X61001319Y-114293570D01*
G37*
G36*
X59451319Y-114293570D02*
G01*
X59452000Y-114295074D01*
X59452000Y-115104926D01*
X59451000Y-115106658D01*
X59449000Y-115106658D01*
X59448038Y-115105316D01*
X59447653Y-115103379D01*
X59414891Y-115040749D01*
X59353727Y-115005918D01*
X59283444Y-115009686D01*
X59226306Y-115050887D01*
X59202358Y-115103326D01*
X59201962Y-115105316D01*
X59200643Y-115106820D01*
X59198681Y-115106430D01*
X59198000Y-115104926D01*
X59198000Y-114295074D01*
X59199000Y-114293342D01*
X59201000Y-114293342D01*
X59201962Y-114294684D01*
X59202347Y-114296621D01*
X59235109Y-114359251D01*
X59296273Y-114394082D01*
X59366556Y-114390314D01*
X59423694Y-114349113D01*
X59447642Y-114296674D01*
X59448038Y-114294684D01*
X59449357Y-114293180D01*
X59451319Y-114293570D01*
G37*
G36*
X69455571Y-114900922D02*
G01*
X69455110Y-114902336D01*
X69415154Y-114950147D01*
X69406382Y-115019980D01*
X69436833Y-115083627D01*
X69445640Y-115091259D01*
X69446294Y-115093149D01*
X69444984Y-115094660D01*
X69443219Y-115094433D01*
X69429773Y-115085449D01*
X69387301Y-115077000D01*
X68712699Y-115077000D01*
X68670227Y-115085449D01*
X68647536Y-115100610D01*
X68645540Y-115100741D01*
X68644429Y-115099078D01*
X68644890Y-115097664D01*
X68684846Y-115049853D01*
X68693618Y-114980020D01*
X68663167Y-114916373D01*
X68654360Y-114908741D01*
X68653706Y-114906851D01*
X68655016Y-114905340D01*
X68656781Y-114905567D01*
X68670227Y-114914551D01*
X68712699Y-114923000D01*
X69387301Y-114923000D01*
X69429773Y-114914551D01*
X69452464Y-114899390D01*
X69454460Y-114899259D01*
X69455571Y-114900922D01*
G37*
G36*
X74355571Y-114900922D02*
G01*
X74355110Y-114902336D01*
X74315154Y-114950147D01*
X74306382Y-115019980D01*
X74336833Y-115083627D01*
X74345640Y-115091259D01*
X74346294Y-115093149D01*
X74344984Y-115094660D01*
X74343219Y-115094433D01*
X74329773Y-115085449D01*
X74287301Y-115077000D01*
X73612699Y-115077000D01*
X73570227Y-115085449D01*
X73547536Y-115100610D01*
X73545540Y-115100741D01*
X73544429Y-115099078D01*
X73544890Y-115097664D01*
X73584846Y-115049853D01*
X73593618Y-114980020D01*
X73563167Y-114916373D01*
X73554360Y-114908741D01*
X73553706Y-114906851D01*
X73555016Y-114905340D01*
X73556781Y-114905567D01*
X73570227Y-114914551D01*
X73612699Y-114923000D01*
X74287301Y-114923000D01*
X74329773Y-114914551D01*
X74352464Y-114899390D01*
X74354460Y-114899259D01*
X74355571Y-114900922D01*
G37*
G36*
X69455571Y-114400922D02*
G01*
X69455110Y-114402336D01*
X69415154Y-114450147D01*
X69406382Y-114519980D01*
X69436833Y-114583627D01*
X69445640Y-114591259D01*
X69446294Y-114593149D01*
X69444984Y-114594660D01*
X69443219Y-114594433D01*
X69429773Y-114585449D01*
X69387301Y-114577000D01*
X68712699Y-114577000D01*
X68670227Y-114585449D01*
X68647536Y-114600610D01*
X68645540Y-114600741D01*
X68644429Y-114599078D01*
X68644890Y-114597664D01*
X68684846Y-114549853D01*
X68693618Y-114480020D01*
X68663167Y-114416373D01*
X68654360Y-114408741D01*
X68653706Y-114406851D01*
X68655016Y-114405340D01*
X68656781Y-114405567D01*
X68670227Y-114414551D01*
X68712699Y-114423000D01*
X69387301Y-114423000D01*
X69429773Y-114414551D01*
X69452464Y-114399390D01*
X69454460Y-114399259D01*
X69455571Y-114400922D01*
G37*
G36*
X74355571Y-114400922D02*
G01*
X74355110Y-114402336D01*
X74315154Y-114450147D01*
X74306382Y-114519980D01*
X74336833Y-114583627D01*
X74345640Y-114591259D01*
X74346294Y-114593149D01*
X74344984Y-114594660D01*
X74343219Y-114594433D01*
X74329773Y-114585449D01*
X74287301Y-114577000D01*
X73612699Y-114577000D01*
X73570227Y-114585449D01*
X73547536Y-114600610D01*
X73545540Y-114600741D01*
X73544429Y-114599078D01*
X73544890Y-114597664D01*
X73584846Y-114549853D01*
X73593618Y-114480020D01*
X73563167Y-114416373D01*
X73554360Y-114408741D01*
X73553706Y-114406851D01*
X73555016Y-114405340D01*
X73556781Y-114405567D01*
X73570227Y-114414551D01*
X73612699Y-114423000D01*
X74287301Y-114423000D01*
X74329773Y-114414551D01*
X74352464Y-114399390D01*
X74354460Y-114399259D01*
X74355571Y-114400922D01*
G37*
G36*
X69455571Y-113900922D02*
G01*
X69455110Y-113902336D01*
X69415154Y-113950147D01*
X69406382Y-114019980D01*
X69436833Y-114083627D01*
X69445640Y-114091259D01*
X69446294Y-114093149D01*
X69444984Y-114094660D01*
X69443219Y-114094433D01*
X69429773Y-114085449D01*
X69387301Y-114077000D01*
X68712699Y-114077000D01*
X68670227Y-114085449D01*
X68647536Y-114100610D01*
X68645540Y-114100741D01*
X68644429Y-114099078D01*
X68644890Y-114097664D01*
X68684846Y-114049853D01*
X68693618Y-113980020D01*
X68663167Y-113916373D01*
X68654360Y-113908741D01*
X68653706Y-113906851D01*
X68655016Y-113905340D01*
X68656781Y-113905567D01*
X68670227Y-113914551D01*
X68712699Y-113923000D01*
X69387301Y-113923000D01*
X69429773Y-113914551D01*
X69452464Y-113899390D01*
X69454460Y-113899259D01*
X69455571Y-113900922D01*
G37*
G36*
X74355571Y-113900922D02*
G01*
X74355110Y-113902336D01*
X74315154Y-113950147D01*
X74306382Y-114019980D01*
X74336833Y-114083627D01*
X74345640Y-114091259D01*
X74346294Y-114093149D01*
X74344984Y-114094660D01*
X74343219Y-114094433D01*
X74329773Y-114085449D01*
X74287301Y-114077000D01*
X73612699Y-114077000D01*
X73570227Y-114085449D01*
X73547536Y-114100610D01*
X73545540Y-114100741D01*
X73544429Y-114099078D01*
X73544890Y-114097664D01*
X73584846Y-114049853D01*
X73593618Y-113980020D01*
X73563167Y-113916373D01*
X73554360Y-113908741D01*
X73553706Y-113906851D01*
X73555016Y-113905340D01*
X73556781Y-113905567D01*
X73570227Y-113914551D01*
X73612699Y-113923000D01*
X74287301Y-113923000D01*
X74329773Y-113914551D01*
X74352464Y-113899390D01*
X74354460Y-113899259D01*
X74355571Y-113900922D01*
G37*
G36*
X69455571Y-113400922D02*
G01*
X69455110Y-113402336D01*
X69415154Y-113450147D01*
X69406382Y-113519980D01*
X69436833Y-113583627D01*
X69445640Y-113591259D01*
X69446294Y-113593149D01*
X69444984Y-113594660D01*
X69443219Y-113594433D01*
X69429773Y-113585449D01*
X69387301Y-113577000D01*
X68712699Y-113577000D01*
X68670227Y-113585449D01*
X68647536Y-113600610D01*
X68645540Y-113600741D01*
X68644429Y-113599078D01*
X68644890Y-113597664D01*
X68684846Y-113549853D01*
X68693618Y-113480020D01*
X68663167Y-113416373D01*
X68654360Y-113408741D01*
X68653706Y-113406851D01*
X68655016Y-113405340D01*
X68656781Y-113405567D01*
X68670227Y-113414551D01*
X68712699Y-113423000D01*
X69387301Y-113423000D01*
X69429773Y-113414551D01*
X69452464Y-113399390D01*
X69454460Y-113399259D01*
X69455571Y-113400922D01*
G37*
G36*
X74355571Y-113400922D02*
G01*
X74355110Y-113402336D01*
X74315154Y-113450147D01*
X74306382Y-113519980D01*
X74336833Y-113583627D01*
X74345640Y-113591259D01*
X74346294Y-113593149D01*
X74344984Y-113594660D01*
X74343219Y-113594433D01*
X74329773Y-113585449D01*
X74287301Y-113577000D01*
X73612699Y-113577000D01*
X73570227Y-113585449D01*
X73547536Y-113600610D01*
X73545540Y-113600741D01*
X73544429Y-113599078D01*
X73544890Y-113597664D01*
X73584846Y-113549853D01*
X73593618Y-113480020D01*
X73563167Y-113416373D01*
X73554360Y-113408741D01*
X73553706Y-113406851D01*
X73555016Y-113405340D01*
X73556781Y-113405567D01*
X73570227Y-113414551D01*
X73612699Y-113423000D01*
X74287301Y-113423000D01*
X74329773Y-113414551D01*
X74352464Y-113399390D01*
X74354460Y-113399259D01*
X74355571Y-113400922D01*
G37*
G36*
X61001319Y-112493570D02*
G01*
X61002000Y-112495074D01*
X61002000Y-113304926D01*
X61001000Y-113306658D01*
X60999000Y-113306658D01*
X60998038Y-113305316D01*
X60997653Y-113303379D01*
X60964891Y-113240749D01*
X60903727Y-113205918D01*
X60833444Y-113209686D01*
X60776306Y-113250887D01*
X60752358Y-113303326D01*
X60751962Y-113305316D01*
X60750643Y-113306820D01*
X60748681Y-113306430D01*
X60748000Y-113304926D01*
X60748000Y-112495074D01*
X60749000Y-112493342D01*
X60751000Y-112493342D01*
X60751962Y-112494684D01*
X60752347Y-112496621D01*
X60785109Y-112559251D01*
X60846273Y-112594082D01*
X60916556Y-112590314D01*
X60973694Y-112549113D01*
X60997642Y-112496674D01*
X60998038Y-112494684D01*
X60999357Y-112493180D01*
X61001319Y-112493570D01*
G37*
G36*
X59451319Y-112493570D02*
G01*
X59452000Y-112495074D01*
X59452000Y-113304926D01*
X59451000Y-113306658D01*
X59449000Y-113306658D01*
X59448038Y-113305316D01*
X59447653Y-113303379D01*
X59414891Y-113240749D01*
X59353727Y-113205918D01*
X59283444Y-113209686D01*
X59226306Y-113250887D01*
X59202358Y-113303326D01*
X59201962Y-113305316D01*
X59200643Y-113306820D01*
X59198681Y-113306430D01*
X59198000Y-113304926D01*
X59198000Y-112495074D01*
X59199000Y-112493342D01*
X59201000Y-112493342D01*
X59201962Y-112494684D01*
X59202347Y-112496621D01*
X59235109Y-112559251D01*
X59296273Y-112594082D01*
X59366556Y-112590314D01*
X59423694Y-112549113D01*
X59447642Y-112496674D01*
X59448038Y-112494684D01*
X59449357Y-112493180D01*
X59451319Y-112493570D01*
G37*
G36*
X72152336Y-111894890D02*
G01*
X72200147Y-111934846D01*
X72269980Y-111943618D01*
X72333627Y-111913167D01*
X72341259Y-111904360D01*
X72343149Y-111903706D01*
X72344660Y-111905016D01*
X72344433Y-111906781D01*
X72335449Y-111920227D01*
X72327000Y-111962699D01*
X72327000Y-112637301D01*
X72335449Y-112679773D01*
X72350610Y-112702464D01*
X72350741Y-112704460D01*
X72349078Y-112705571D01*
X72347664Y-112705110D01*
X72299853Y-112665154D01*
X72230020Y-112656382D01*
X72166373Y-112686833D01*
X72158741Y-112695640D01*
X72156851Y-112696294D01*
X72155340Y-112694984D01*
X72155567Y-112693219D01*
X72164551Y-112679773D01*
X72173000Y-112637301D01*
X72173000Y-111962699D01*
X72164551Y-111920227D01*
X72149390Y-111897536D01*
X72149259Y-111895540D01*
X72150922Y-111894429D01*
X72152336Y-111894890D01*
G37*
G36*
X70152336Y-111894890D02*
G01*
X70200147Y-111934846D01*
X70269980Y-111943618D01*
X70333627Y-111913167D01*
X70341259Y-111904360D01*
X70343149Y-111903706D01*
X70344660Y-111905016D01*
X70344433Y-111906781D01*
X70335449Y-111920227D01*
X70327000Y-111962699D01*
X70327000Y-112637301D01*
X70335449Y-112679773D01*
X70350610Y-112702464D01*
X70350741Y-112704460D01*
X70349078Y-112705571D01*
X70347664Y-112705110D01*
X70299853Y-112665154D01*
X70230020Y-112656382D01*
X70166373Y-112686833D01*
X70158741Y-112695640D01*
X70156851Y-112696294D01*
X70155340Y-112694984D01*
X70155567Y-112693219D01*
X70164551Y-112679773D01*
X70173000Y-112637301D01*
X70173000Y-111962699D01*
X70164551Y-111920227D01*
X70149390Y-111897536D01*
X70149259Y-111895540D01*
X70150922Y-111894429D01*
X70152336Y-111894890D01*
G37*
G36*
X70652336Y-111894890D02*
G01*
X70700147Y-111934846D01*
X70769980Y-111943618D01*
X70833627Y-111913167D01*
X70841259Y-111904360D01*
X70843149Y-111903706D01*
X70844660Y-111905016D01*
X70844433Y-111906781D01*
X70835449Y-111920227D01*
X70827000Y-111962699D01*
X70827000Y-112637301D01*
X70835449Y-112679773D01*
X70850610Y-112702464D01*
X70850741Y-112704460D01*
X70849078Y-112705571D01*
X70847664Y-112705110D01*
X70799853Y-112665154D01*
X70730020Y-112656382D01*
X70666373Y-112686833D01*
X70658741Y-112695640D01*
X70656851Y-112696294D01*
X70655340Y-112694984D01*
X70655567Y-112693219D01*
X70664551Y-112679773D01*
X70673000Y-112637301D01*
X70673000Y-111962699D01*
X70664551Y-111920227D01*
X70649390Y-111897536D01*
X70649259Y-111895540D01*
X70650922Y-111894429D01*
X70652336Y-111894890D01*
G37*
G36*
X71652336Y-111894890D02*
G01*
X71700147Y-111934846D01*
X71769980Y-111943618D01*
X71833627Y-111913167D01*
X71841259Y-111904360D01*
X71843149Y-111903706D01*
X71844660Y-111905016D01*
X71844433Y-111906781D01*
X71835449Y-111920227D01*
X71827000Y-111962699D01*
X71827000Y-112637301D01*
X71835449Y-112679773D01*
X71850610Y-112702464D01*
X71850741Y-112704460D01*
X71849078Y-112705571D01*
X71847664Y-112705110D01*
X71799853Y-112665154D01*
X71730020Y-112656382D01*
X71666373Y-112686833D01*
X71658741Y-112695640D01*
X71656851Y-112696294D01*
X71655340Y-112694984D01*
X71655567Y-112693219D01*
X71664551Y-112679773D01*
X71673000Y-112637301D01*
X71673000Y-111962699D01*
X71664551Y-111920227D01*
X71649390Y-111897536D01*
X71649259Y-111895540D01*
X71650922Y-111894429D01*
X71652336Y-111894890D01*
G37*
G36*
X72652336Y-111894890D02*
G01*
X72700147Y-111934846D01*
X72769980Y-111943618D01*
X72833627Y-111913167D01*
X72841259Y-111904360D01*
X72843149Y-111903706D01*
X72844660Y-111905016D01*
X72844433Y-111906781D01*
X72835449Y-111920227D01*
X72827000Y-111962699D01*
X72827000Y-112637301D01*
X72835449Y-112679773D01*
X72850610Y-112702464D01*
X72850741Y-112704460D01*
X72849078Y-112705571D01*
X72847664Y-112705110D01*
X72799853Y-112665154D01*
X72730020Y-112656382D01*
X72666373Y-112686833D01*
X72658741Y-112695640D01*
X72656851Y-112696294D01*
X72655340Y-112694984D01*
X72655567Y-112693219D01*
X72664551Y-112679773D01*
X72673000Y-112637301D01*
X72673000Y-111962699D01*
X72664551Y-111920227D01*
X72649390Y-111897536D01*
X72649259Y-111895540D01*
X72650922Y-111894429D01*
X72652336Y-111894890D01*
G37*
G36*
X71152336Y-111894890D02*
G01*
X71200147Y-111934846D01*
X71269980Y-111943618D01*
X71333627Y-111913167D01*
X71341259Y-111904360D01*
X71343149Y-111903706D01*
X71344660Y-111905016D01*
X71344433Y-111906781D01*
X71335449Y-111920227D01*
X71327000Y-111962699D01*
X71327000Y-112637301D01*
X71335449Y-112679773D01*
X71350610Y-112702464D01*
X71350741Y-112704460D01*
X71349078Y-112705571D01*
X71347664Y-112705110D01*
X71299853Y-112665154D01*
X71230020Y-112656382D01*
X71166373Y-112686833D01*
X71158741Y-112695640D01*
X71156851Y-112696294D01*
X71155340Y-112694984D01*
X71155567Y-112693219D01*
X71164551Y-112679773D01*
X71173000Y-112637301D01*
X71173000Y-111962699D01*
X71164551Y-111920227D01*
X71149390Y-111897536D01*
X71149259Y-111895540D01*
X71150922Y-111894429D01*
X71152336Y-111894890D01*
G37*
G36*
X70269899Y-109399061D02*
G01*
X70253379Y-109402347D01*
X70190749Y-109435109D01*
X70155918Y-109496273D01*
X70159686Y-109566556D01*
X70200887Y-109623694D01*
X70253326Y-109647642D01*
X70255316Y-109648038D01*
X70256820Y-109649357D01*
X70256430Y-109651319D01*
X70254926Y-109652000D01*
X69445074Y-109652000D01*
X69443342Y-109651000D01*
X69443342Y-109649000D01*
X69444684Y-109648038D01*
X69446621Y-109647653D01*
X69509251Y-109614891D01*
X69544082Y-109553727D01*
X69540314Y-109483444D01*
X69499113Y-109426306D01*
X69446674Y-109402358D01*
X69444684Y-109401962D01*
X69443180Y-109400643D01*
X69443570Y-109398681D01*
X69445074Y-109398000D01*
X70254727Y-109398000D01*
X70269119Y-109395137D01*
X70269899Y-109399061D01*
G37*
G36*
X72069899Y-109399061D02*
G01*
X72053379Y-109402347D01*
X71990749Y-109435109D01*
X71955918Y-109496273D01*
X71959686Y-109566556D01*
X72000887Y-109623694D01*
X72053326Y-109647642D01*
X72055316Y-109648038D01*
X72056820Y-109649357D01*
X72056430Y-109651319D01*
X72054926Y-109652000D01*
X71245074Y-109652000D01*
X71243342Y-109651000D01*
X71243342Y-109649000D01*
X71244684Y-109648038D01*
X71246621Y-109647653D01*
X71309251Y-109614891D01*
X71344082Y-109553727D01*
X71340314Y-109483444D01*
X71299113Y-109426306D01*
X71246674Y-109402358D01*
X71244684Y-109401962D01*
X71243180Y-109400643D01*
X71243570Y-109398681D01*
X71245074Y-109398000D01*
X72054727Y-109398000D01*
X72069119Y-109395137D01*
X72069899Y-109399061D01*
G37*
G36*
X72069899Y-107849061D02*
G01*
X72053379Y-107852347D01*
X71990749Y-107885109D01*
X71955918Y-107946273D01*
X71959686Y-108016556D01*
X72000887Y-108073694D01*
X72053326Y-108097642D01*
X72055316Y-108098038D01*
X72056820Y-108099357D01*
X72056430Y-108101319D01*
X72054926Y-108102000D01*
X71245074Y-108102000D01*
X71243342Y-108101000D01*
X71243342Y-108099000D01*
X71244684Y-108098038D01*
X71246621Y-108097653D01*
X71309251Y-108064891D01*
X71344082Y-108003727D01*
X71340314Y-107933444D01*
X71299113Y-107876306D01*
X71246674Y-107852358D01*
X71244684Y-107851962D01*
X71243180Y-107850643D01*
X71243570Y-107848681D01*
X71245074Y-107848000D01*
X72054727Y-107848000D01*
X72069119Y-107845137D01*
X72069899Y-107849061D01*
G37*
G36*
X70269899Y-107849061D02*
G01*
X70253379Y-107852347D01*
X70190749Y-107885109D01*
X70155918Y-107946273D01*
X70159686Y-108016556D01*
X70200887Y-108073694D01*
X70253326Y-108097642D01*
X70255316Y-108098038D01*
X70256820Y-108099357D01*
X70256430Y-108101319D01*
X70254926Y-108102000D01*
X69445074Y-108102000D01*
X69443342Y-108101000D01*
X69443342Y-108099000D01*
X69444684Y-108098038D01*
X69446621Y-108097653D01*
X69509251Y-108064891D01*
X69544082Y-108003727D01*
X69540314Y-107933444D01*
X69499113Y-107876306D01*
X69446674Y-107852358D01*
X69444684Y-107851962D01*
X69443180Y-107850643D01*
X69443570Y-107848681D01*
X69445074Y-107848000D01*
X70254727Y-107848000D01*
X70269119Y-107845137D01*
X70269899Y-107849061D01*
G37*
M02*
